<svg width="20" height="15" viewBox="0 0 20 15" fill="none" xmlns="http://www.w3.org/2000/svg">
<path d="M10 0.604614C10.5304 0.604614 11.0391 0.815328 11.4142 1.1904C11.7893 1.56547 12 2.07418 12 2.60461C12 2.84461 11.96 3.07461 11.88 3.29461C15.95 4.10461 19 7.51461 19 11.6046H1C1 7.51461 4.05 4.10461 8.12 3.29461C8.04 3.07461 8 2.84461 8 2.60461C8 2.07418 8.21071 1.56547 8.58579 1.1904C8.96086 0.815328 9.46957 0.604614 10 0.604614ZM20 14.6046H0V12.6046H20V14.6046Z" fill="url(#paint0_linear_174_23)"/>
<defs>
<linearGradient id="paint0_linear_174_23" x1="9.85237" y1="-0.976122" x2="9.85237" y2="15.3609" gradientUnits="userSpaceOnUse">
<stop stop-color="#006DD2"/>
<stop offset="1" stop-color="#59C2FD"/>
</linearGradient>
</defs>
</svg>
