<svg width="74" height="48" viewBox="0 0 74 48" fill="none" xmlns="http://www.w3.org/2000/svg">
<path d="M10.9965 47.1046L13.9585 32.328H18.7781L15.8328 47.1046H10.9965ZM25.5388 42.2683H28.6012L27.8147 36.8464L25.5388 42.2683ZM18.7781 47.1046L26.0743 32.328H30.8269L33.8224 47.1046H29.3543L29.0865 45.3475H24.3339L23.5809 47.1046H18.7781ZM38.2571 47.1046L39.9138 35.9929H35.6967L36.4163 32.2611H49.3688L48.6492 35.9929H44.6329L43.0097 47.1046H38.2571ZM54.4561 42.2683H57.5185L56.732 36.8464L54.4561 42.2683ZM47.7121 47.1046L54.9916 32.328H59.7442L62.7397 47.1046H58.2381L58.0206 45.3475H53.2679L52.5149 47.1046H47.7121ZM73.2657 15.627H50.5904C49.7537 19.7771 46.8754 23.2412 41.1354 25.6342C41.7881 27.6089 44.0137 29.433 46.3231 29.433H58.623C60.4973 29.433 61.9866 27.8599 62.5891 26.5881H50.0884C49.3186 26.4542 49.2851 25.835 50.0549 25.7681H62.3381C63.9279 25.7681 65.367 24.4126 66.2038 22.9399H51.8957C51.1761 22.8228 51.1761 22.2204 51.8957 22.1032H66.3209C67.7768 22.1032 69.0988 20.413 69.6511 19.2751H53.8202C53.0337 19.1747 53.0337 18.4384 53.8202 18.4216H69.9356C71.1907 18.4216 72.4123 17.0494 73.2657 15.627ZM0.654541 15.627H23.3298C24.1498 19.7771 27.0449 23.2412 32.7681 25.6342C32.1155 27.6089 29.8898 29.433 27.5804 29.433H15.2973C13.423 29.433 11.9336 27.8599 11.3312 26.5881H23.8319C24.5849 26.4542 24.6351 25.835 23.8654 25.7681H11.5655C9.97568 25.7681 8.53651 24.4126 7.71652 22.9399H22.0413C22.7609 22.8228 22.7609 22.2204 22.0413 22.1032H7.61611C6.16021 22.1032 4.83818 20.413 4.28594 19.2751H20.1168C20.9033 19.1747 20.9033 18.4384 20.1168 18.4216H4.00145C2.72962 18.4216 1.508 17.0494 0.654541 15.627ZM29.6053 3.17646C30.442 3.89604 31.3792 4.53195 32.3832 4.93358C33.2367 3.26013 34.4249 1.82096 35.7971 0.549133C33.5379 0.850355 31.4126 1.70382 29.6053 3.17646ZM25.589 11.4266H30.6428C30.76 9.3515 31.1951 7.52744 32.0151 5.65317C30.8939 5.15113 29.9233 4.54869 28.9861 3.74543C26.8943 5.83725 25.7396 8.53151 25.589 11.4266ZM36.5669 6.69071V11.4266H31.513C31.5465 9.56905 31.9816 7.66131 32.7681 5.93765C33.973 6.37275 35.2783 6.65724 36.5669 6.69071ZM44.315 3.17646C43.495 3.89604 42.5244 4.53195 41.537 4.93358C40.6334 3.22666 39.5122 1.85443 38.1065 0.565868C40.3824 0.850355 42.5076 1.70382 44.315 3.17646ZM48.3145 11.4266H43.2774C43.2105 9.38497 42.7419 7.47723 41.9387 5.65317C43.0097 5.15113 44.0305 4.51522 44.9174 3.74543C47.0929 5.92092 48.2141 8.59845 48.3145 11.4266ZM37.3869 6.69071V11.4266H42.4072C42.4072 9.51885 41.9387 7.69478 41.1521 5.93765C39.9473 6.37275 38.6587 6.65724 37.3869 6.69071ZM29.6053 20.5134C30.442 19.8608 31.4126 19.1412 32.3832 18.7898C33.2869 20.48 34.4081 21.8689 35.7971 23.124C33.5379 22.8228 31.3792 21.9693 29.6053 20.5134ZM25.589 12.2466H30.6428C30.76 14.3384 31.1951 16.1792 32.0151 18.0702C30.8939 18.5722 29.9233 19.1747 28.9861 19.9612C26.9278 17.8861 25.7396 15.1919 25.589 12.2466ZM36.5669 16.9992V12.2466H31.513C31.5465 14.1543 31.9816 16.0453 32.7681 17.7355C33.973 17.3004 35.2783 17.0327 36.5669 16.9992ZM44.315 20.5134C43.5284 19.8273 42.5244 19.1914 41.537 18.7898C40.6334 20.48 39.5122 21.8689 38.1065 23.124C40.3824 22.8228 42.5076 21.9693 44.315 20.5134ZM48.3145 12.2466H43.2774C43.2105 14.3384 42.7587 16.1959 41.9387 18.0702C43.0097 18.5722 43.9803 19.1747 44.9174 19.9612C46.9925 17.8861 48.2141 15.1249 48.3145 12.2466ZM37.3869 16.9992V12.2466H42.4072C42.4072 14.1543 41.9387 16.0118 41.1521 17.7355C39.9807 17.3004 38.6252 17.0327 37.3869 16.9992ZM36.5669 1.03443C35.1946 2.13891 33.973 3.64502 33.1698 5.21807C34.2575 5.58623 35.4122 5.88745 36.5669 5.88745V1.03443ZM37.3869 1.03443C38.7256 2.13891 39.9473 3.59482 40.7505 5.21807C39.6628 5.6197 38.5081 5.88745 37.3869 5.88745V1.03443ZM36.5669 22.6555C35.1946 21.5677 33.973 20.0616 33.1698 18.4551C34.2575 18.0702 35.4122 17.8526 36.5669 17.8526V22.6555ZM37.3869 22.6889C38.7256 21.5677 39.9473 20.0616 40.7505 18.4551C39.6628 18.1037 38.5081 17.8526 37.3869 17.8526V22.6889Z" fill="white"/>
</svg>
