<svg width="99" height="25" viewBox="0 0 99 25" fill="none" xmlns="http://www.w3.org/2000/svg">
<g clip-path="url(#clip0_84_571)">
<path d="M26.296 9.34137H36.191V11.1875H32.3003V21.5657H30.1608V11.1875H26.2874V9.34137H26.296ZM35.7683 12.7145H37.5972V14.4226H37.6317C37.6921 14.1811 37.8042 13.9481 37.9682 13.7238C38.1321 13.4995 38.3305 13.2839 38.5634 13.1027C38.7963 12.9129 39.0551 12.7662 39.3398 12.6455C39.6245 12.5333 39.9178 12.4729 40.2112 12.4729C40.4355 12.4729 40.5994 12.4816 40.6856 12.4902C40.7719 12.4988 40.8582 12.5161 40.9531 12.5247V14.4054C40.815 14.3795 40.677 14.3622 40.5303 14.345C40.3837 14.3277 40.2457 14.3191 40.1076 14.3191C39.7798 14.3191 39.4692 14.3881 39.1759 14.5175C38.8826 14.6469 38.6324 14.8453 38.4168 15.0955C38.2011 15.3543 38.0285 15.6649 37.8991 16.0445C37.7697 16.424 37.7094 16.8554 37.7094 17.3471V21.557H35.7597V12.7145H35.7683ZM49.9164 21.5657H48.0012V20.332H47.9667C47.7252 20.7806 47.3715 21.1343 46.897 21.4018C46.4225 21.6692 45.9394 21.8072 45.4477 21.8072C44.283 21.8072 43.4376 21.5225 42.92 20.9445C42.4024 20.3665 42.1436 19.4952 42.1436 18.3306V12.7145H44.0933V18.1408C44.0933 18.9172 44.2399 19.4693 44.5419 19.7885C44.8352 20.1077 45.2579 20.2716 45.7927 20.2716C46.2068 20.2716 46.5433 20.2112 46.8193 20.0818C47.0954 19.9524 47.3197 19.7885 47.4836 19.5729C47.6562 19.3658 47.7769 19.107 47.8546 18.8137C47.9322 18.5204 47.9667 18.2012 47.9667 17.8561V12.7231H49.9164V21.5657ZM53.2378 18.7274C53.2981 19.2968 53.5138 19.6936 53.8848 19.9266C54.2644 20.1509 54.713 20.2716 55.2392 20.2716C55.4204 20.2716 55.6274 20.2544 55.8603 20.2285C56.0933 20.2026 56.3176 20.1422 56.516 20.0646C56.723 19.9869 56.8869 19.8662 57.025 19.7109C57.1544 19.5556 57.2147 19.3572 57.2061 19.107C57.1975 18.8568 57.1026 18.6498 56.9301 18.4945C56.7575 18.3306 56.5419 18.2098 56.2744 18.1063C56.007 18.0114 55.705 17.9251 55.36 17.8561C55.0149 17.7871 54.6698 17.7094 54.3161 17.6318C53.9538 17.5542 53.6001 17.4506 53.2636 17.3385C52.9272 17.2263 52.6252 17.0711 52.3578 16.8726C52.0904 16.6828 51.8747 16.4327 51.7194 16.1307C51.5555 15.8288 51.4779 15.4578 51.4779 15.0092C51.4779 14.5261 51.5986 14.1293 51.8316 13.8015C52.0645 13.4736 52.3664 13.2148 52.7201 13.0164C53.0825 12.818 53.4793 12.68 53.9193 12.5937C54.3593 12.5161 54.782 12.4729 55.1788 12.4729C55.636 12.4729 56.076 12.5247 56.4901 12.6196C56.9042 12.7145 57.2838 12.8698 57.6202 13.0941C57.9567 13.3097 58.2327 13.5944 58.457 13.9395C58.6813 14.2846 58.8194 14.7073 58.8797 15.199H56.8438C56.7489 14.7332 56.5419 14.414 56.2054 14.2587C55.869 14.0948 55.4807 14.0171 55.0494 14.0171C54.9114 14.0171 54.7475 14.0258 54.5577 14.0516C54.3679 14.0775 54.1953 14.1207 54.0228 14.1811C53.8589 14.2414 53.7209 14.3363 53.6001 14.4571C53.4879 14.5779 53.4275 14.7332 53.4275 14.9316C53.4275 15.1731 53.5138 15.3629 53.6777 15.5096C53.8416 15.6563 54.0573 15.777 54.3247 15.8805C54.5922 15.9754 54.8941 16.0617 55.2392 16.1307C55.5843 16.1997 55.938 16.2774 56.3003 16.355C56.654 16.4327 56.9991 16.5362 57.3442 16.6483C57.6892 16.7605 57.9912 16.9158 58.2586 17.1142C58.526 17.3126 58.7417 17.5542 58.9056 17.8475C59.0695 18.1408 59.1558 18.5117 59.1558 18.9431C59.1558 19.4693 59.035 19.9093 58.7935 20.2803C58.5519 20.6426 58.2413 20.9445 57.8618 21.1688C57.4822 21.3931 57.0508 21.5657 56.585 21.6692C56.1191 21.7727 55.6533 21.8245 55.1961 21.8245C54.6353 21.8245 54.1177 21.7641 53.6432 21.6347C53.1687 21.5053 52.7547 21.3155 52.4096 21.0653C52.0645 20.8065 51.7884 20.4873 51.59 20.1077C51.3916 19.7281 51.2881 19.2709 51.2708 18.7447H53.2378V18.7274ZM59.6734 12.7145H61.1486V10.0574H63.0983V12.7145H64.8582V14.1724H63.0983V18.9C63.0983 19.107 63.1069 19.2795 63.1242 19.4348C63.1414 19.5815 63.1846 19.7109 63.2449 19.8144C63.3053 19.9179 63.4002 19.9956 63.5296 20.0473C63.659 20.0991 63.8229 20.125 64.0472 20.125C64.1853 20.125 64.3233 20.125 64.4613 20.1164C64.5994 20.1077 64.7374 20.0905 64.8754 20.056V21.5657C64.6598 21.5915 64.4441 21.6088 64.2457 21.6347C64.0386 21.6606 63.8316 21.6692 63.6159 21.6692C63.0983 21.6692 62.6842 21.6174 62.3736 21.5225C62.0631 21.4276 61.8129 21.281 61.6403 21.0912C61.4592 20.9014 61.347 20.6685 61.278 20.3838C61.2176 20.0991 61.1745 19.7713 61.1659 19.4089V14.1897H59.6907V12.7145H59.6734ZM66.2385 12.7145H68.0846V13.9136H68.1191C68.3952 13.396 68.7748 13.0337 69.2665 12.8094C69.7582 12.5851 70.2845 12.4729 70.8625 12.4729C71.5613 12.4729 72.1652 12.5937 72.6828 12.8439C73.2004 13.0854 73.6317 13.4219 73.9768 13.8532C74.3219 14.2846 74.572 14.7849 74.7446 15.3543C74.9171 15.9237 75.0034 16.5362 75.0034 17.1832C75.0034 17.7785 74.9258 18.3565 74.7705 18.9086C74.6152 19.4693 74.3823 19.9611 74.0717 20.3924C73.7611 20.8238 73.3643 21.1602 72.8812 21.419C72.3981 21.6778 71.8373 21.8072 71.1817 21.8072C70.897 21.8072 70.6123 21.7813 70.3276 21.7296C70.0429 21.6778 69.7669 21.5915 69.5081 21.4794C69.2493 21.3673 68.9991 21.2206 68.7834 21.0394C68.5591 20.8583 68.3779 20.6512 68.2227 20.4183H68.1881V24.8353H66.2385V12.7145ZM73.0537 17.1487C73.0537 16.7519 73.002 16.3637 72.8984 15.9841C72.7949 15.6045 72.6396 15.2767 72.4326 14.9834C72.2255 14.69 71.9667 14.4571 71.6648 14.2846C71.3542 14.112 71.0005 14.0171 70.6037 14.0171C69.7841 14.0171 69.163 14.3018 68.7489 14.8712C68.3348 15.4406 68.1278 16.1997 68.1278 17.1487C68.1278 17.5973 68.1795 18.0114 68.2917 18.391C68.4038 18.7706 68.5591 19.0984 68.7834 19.3744C68.9991 19.6505 69.2579 19.8662 69.5598 20.0215C69.8618 20.1854 70.2155 20.263 70.6123 20.263C71.0609 20.263 71.4319 20.1681 71.7424 19.9869C72.053 19.8058 72.3032 19.5642 72.5016 19.2795C72.7 18.9862 72.8467 18.6584 72.9329 18.2875C73.0106 17.9165 73.0537 17.5369 73.0537 17.1487ZM76.4958 9.34137H78.4455V11.1875H76.4958V9.34137ZM76.4958 12.7145H78.4455V21.5657H76.4958V12.7145ZM80.1882 9.34137H82.1378V21.5657H80.1882V9.34137ZM88.1163 21.8072C87.4089 21.8072 86.7791 21.6864 86.227 21.4535C85.6749 21.2206 85.209 20.8928 84.8208 20.4873C84.4412 20.0732 84.1479 19.5815 83.9495 19.0121C83.7511 18.4427 83.6475 17.813 83.6475 17.1314C83.6475 16.4586 83.7511 15.8374 83.9495 15.268C84.1479 14.6987 84.4412 14.2069 84.8208 13.7928C85.2004 13.3788 85.6749 13.0596 86.227 12.8266C86.7791 12.5937 87.4089 12.4729 88.1163 12.4729C88.8237 12.4729 89.4534 12.5937 90.0056 12.8266C90.5577 13.0596 91.0235 13.3874 91.4117 13.7928C91.7913 14.2069 92.0846 14.6987 92.2831 15.268C92.4815 15.8374 92.585 16.4586 92.585 17.1314C92.585 17.813 92.4815 18.4427 92.2831 19.0121C92.0846 19.5815 91.7913 20.0732 91.4117 20.4873C91.0322 20.9014 90.5577 21.2206 90.0056 21.4535C89.4534 21.6864 88.8237 21.8072 88.1163 21.8072ZM88.1163 20.263C88.5476 20.263 88.9272 20.1681 89.2464 19.9869C89.5656 19.8058 89.8244 19.5642 90.0314 19.2709C90.2385 18.9776 90.3851 18.6412 90.4887 18.2702C90.5836 17.8992 90.6353 17.5197 90.6353 17.1314C90.6353 16.7519 90.5836 16.3809 90.4887 16.0013C90.3938 15.6217 90.2385 15.2939 90.0314 15.0006C89.8244 14.7073 89.5656 14.4744 89.2464 14.2932C88.9272 14.112 88.5476 14.0171 88.1163 14.0171C87.6849 14.0171 87.3053 14.112 86.9861 14.2932C86.6669 14.4744 86.4081 14.7159 86.2011 15.0006C85.994 15.2939 85.8474 15.6217 85.7439 16.0013C85.649 16.3809 85.5972 16.7519 85.5972 17.1314C85.5972 17.5197 85.649 17.8992 85.7439 18.2702C85.8388 18.6412 85.994 18.9776 86.2011 19.2709C86.4081 19.5642 86.6669 19.8058 86.9861 19.9869C87.3053 20.1767 87.6849 20.263 88.1163 20.263ZM93.1544 12.7145H94.6296V10.0574H96.5792V12.7145H98.3391V14.1724H96.5792V18.9C96.5792 19.107 96.5879 19.2795 96.6051 19.4348C96.6224 19.5815 96.6655 19.7109 96.7259 19.8144C96.7863 19.9179 96.8812 19.9956 97.0106 20.0473C97.14 20.0991 97.3039 20.125 97.5282 20.125C97.6662 20.125 97.8043 20.125 97.9423 20.1164C98.0803 20.1077 98.2184 20.0905 98.3564 20.056V21.5657C98.1407 21.5915 97.925 21.6088 97.7266 21.6347C97.5196 21.6606 97.3125 21.6692 97.0969 21.6692C96.5792 21.6692 96.1652 21.6174 95.8546 21.5225C95.544 21.4276 95.2938 21.281 95.1213 21.0912C94.9401 20.9014 94.828 20.6685 94.759 20.3838C94.6986 20.0991 94.6554 19.7713 94.6468 19.4089V14.1897H93.1716V12.7145H93.1544Z" fill="white"/>
<path d="M24.0185 9.34138H15.0811L12.3205 0.835266L9.55123 9.34138L0.61377 9.33275L7.85173 14.5952L5.0825 23.0926L12.3205 17.8389L19.5498 23.0926L16.7892 14.5952L24.0185 9.34138Z" fill="white"/>
<path d="M17.4104 16.5189L16.7893 14.5952L12.3206 17.8389L17.4104 16.5189Z" fill="white"/>
</g>
<defs>
<clipPath id="clip0_84_571">
<rect width="97.7254" height="24" fill="white" transform="translate(0.61377 0.835266)"/>
</clipPath>
</defs>
</svg>
