<svg width="50" height="24" viewBox="0 0 50 24" fill="none" xmlns="http://www.w3.org/2000/svg">
<path d="M48.9689 19.7163L42.3359 2.98633L42.1439 3.48333L38.8799 11.5303C37.0648 10.7071 35.1689 10.075 33.2229 9.64433V5.39833H36.6689V3.38833H27.8339V5.39833H31.1369V9.25433C29.429 8.99704 27.7041 8.86934 25.9769 8.87233C23.0496 8.86028 20.1304 9.17964 17.2749 9.82433C17.9019 6.31133 20.4349 5.74233 22.6649 5.66633C23.8135 5.58718 24.9619 5.82225 25.9869 6.34633L26.3219 6.55633V4.23033L26.1879 4.17233C24.9256 3.66135 23.5777 3.39495 22.2159 3.38733C20.0019 3.58333 14.9239 4.66433 14.6389 10.5393C13.4959 10.8993 12.3749 11.3233 11.2809 11.8093L7.79893 3.02433L7.60693 3.52233L1.02393 19.7543H3.42593L4.58793 16.6143C5.45793 15.8583 6.37793 15.1603 7.34093 14.5253C7.98893 14.0973 8.72093 13.6553 9.54093 13.2163L12.0309 19.7513H14.4339L11.4719 12.2763C12.5016 11.819 13.5551 11.4174 14.6279 11.0733C14.6329 18.6933 20.2749 19.6393 22.0079 19.7433C23.4255 19.8334 24.8438 19.5806 26.1429 19.0063L26.2569 18.9493V16.6523L25.9319 16.8343C24.7533 17.3827 23.4608 17.6418 22.1619 17.5903C21.5108 17.6163 20.8611 17.5101 20.2522 17.2781C19.6433 17.0461 19.0877 16.693 18.6189 16.2403C17.5749 15.1683 17.0789 13.4943 17.1359 11.2733C17.1449 10.9513 17.1659 10.6473 17.1989 10.3603C20.0778 9.69459 23.0241 9.36505 25.9789 9.37833C27.7063 9.37489 29.4314 9.50427 31.1389 9.76533V19.7543H33.2289V10.1623C35.1083 10.5865 36.9393 11.2024 38.6929 12.0003L35.5629 19.7163H37.9629C37.9629 19.7163 39.3059 16.0863 40.4869 12.9013C42.1899 13.8332 43.784 14.9514 45.2399 16.2353L46.5679 19.7203L48.9679 19.7163H48.9689ZM7.03493 14.1263C6.31397 14.6023 5.61648 15.1129 4.94493 15.6563C6.07493 12.6043 7.45793 8.87233 7.66893 8.30733L9.35993 12.7443C8.48993 13.2093 7.71593 13.6743 7.03493 14.1273V14.1263ZM42.2299 13.3423C41.7179 13.0179 41.1952 12.7104 40.6629 12.4203C41.4129 10.3943 42.0629 8.64133 42.2019 8.26933L44.8549 15.2273C44.0197 14.5454 43.143 13.9158 42.2299 13.3423Z" fill="#CACACA"/>
<path d="M26.236 12.7297C26.2427 12.7459 26.2554 12.7588 26.2715 12.7658C26.2875 12.7727 26.3057 12.773 26.322 12.7667L26.685 12.5567L26.455 13.6767C26.4461 13.6933 26.4437 13.7125 26.4482 13.7308C26.4527 13.749 26.4637 13.7649 26.4792 13.7755C26.4948 13.7861 26.5137 13.7905 26.5323 13.788C26.5509 13.7854 26.5679 13.7761 26.58 13.7617L27.049 13.2257L27.154 13.4837C27.192 13.5317 27.221 13.5317 27.278 13.5317L27.805 13.4067L27.632 14.0487C27.612 14.0867 27.632 14.1337 27.652 14.1337L27.882 14.2387L26.924 15.0047C26.8982 15.02 26.8779 15.043 26.8658 15.0704C26.8538 15.0979 26.8507 15.1284 26.857 15.1577L26.981 15.4737L26.024 15.3017C25.957 15.3017 25.938 15.3387 25.938 15.3487L25.958 16.3447H25.795L25.815 15.3487C25.815 15.3287 25.795 15.3017 25.728 15.3017L24.771 15.4737L24.895 15.1577C24.9003 15.1285 24.8967 15.0983 24.8848 15.0711C24.8728 15.0438 24.8531 15.0207 24.828 15.0047L23.871 14.2387L24.081 14.1337C24.119 14.1337 24.129 14.0867 24.119 14.0487L23.947 13.4067L24.455 13.5317C24.4809 13.5355 24.5074 13.5331 24.5322 13.5248C24.5571 13.5165 24.5796 13.5024 24.598 13.4837L24.703 13.2257L25.173 13.7617C25.1862 13.7724 25.2025 13.7785 25.2195 13.779C25.2365 13.7795 25.2531 13.7745 25.267 13.7647C25.2809 13.7551 25.2913 13.7412 25.2967 13.7252C25.3021 13.7092 25.3022 13.6918 25.297 13.6757L25.067 12.5557L25.431 12.7667C25.469 12.7867 25.498 12.7667 25.516 12.7287L25.88 12.0107L26.234 12.7287M50 22.9037H0L0.785 20.9697H49.246L50 22.9037Z" fill="#CACACA"/>
</svg>
