<svg width="68" height="35" viewBox="0 0 68 35" fill="none" xmlns="http://www.w3.org/2000/svg">
<g clip-path="url(#clip0_3244_922)">
<path d="M68 14.1803C68 14.1803 48.12 28.2074 11.708 34.4904H68V14.1803ZM2.90905 0.229349H-0.00195312V10.3743H2.89205C4.20205 10.4463 5.49205 10.0283 6.51205 9.20335C7.0845 8.72737 7.54584 8.13188 7.8637 7.45866C8.18157 6.78545 8.34825 6.05082 8.35205 5.30635C8.35305 2.31035 6.11605 0.229349 2.91005 0.229349H2.90905ZM5.22005 7.84835C4.45687 8.46121 3.48423 8.75121 2.51005 8.65635H1.98005V1.94635H2.51105C2.99456 1.89666 3.48313 1.94356 3.94836 2.08433C4.41358 2.2251 4.8462 2.45693 5.22105 2.76635C5.56851 3.0882 5.845 3.47901 6.03286 3.91378C6.22072 4.34856 6.3158 4.81774 6.31205 5.29135C6.31616 5.76982 6.22127 6.24397 6.03335 6.684C5.84542 7.12404 5.56852 7.52046 5.22005 7.84835ZM9.26605 0.229349H11.243V10.3743H9.26605V0.229349ZM19.002 7.28735C19.0119 7.74192 18.9269 8.19355 18.7524 8.61341C18.5779 9.03326 18.3177 9.41211 17.9885 9.72576C17.6594 10.0394 17.2684 10.281 16.8406 10.435C16.4128 10.589 15.9576 10.6522 15.504 10.6203C14.7992 10.6414 14.1016 10.4733 13.4837 10.1333C12.8659 9.79336 12.3505 9.29405 11.991 8.68735L13.266 7.45435C13.4568 7.86452 13.7623 8.21061 14.1457 8.45074C14.529 8.69087 14.9738 8.81473 15.426 8.80735C15.6223 8.82 15.8191 8.7925 16.0044 8.72654C16.1897 8.66058 16.3596 8.55753 16.5037 8.4237C16.6479 8.28986 16.7632 8.12805 16.8427 7.94815C16.9222 7.76824 16.9641 7.57402 16.966 7.37735C16.9664 7.16606 16.9116 6.95833 16.8071 6.7747C16.7026 6.59108 16.5519 6.43791 16.37 6.33035C15.9337 6.09343 15.4752 5.89984 15.001 5.75235C13.145 5.08135 12.507 4.36435 12.507 2.96635C12.5166 2.56547 12.607 2.17065 12.7727 1.80549C12.9384 1.44034 13.176 1.11236 13.4714 0.841159C13.7668 0.569962 14.1138 0.361124 14.4918 0.227135C14.8697 0.0931469 15.2708 0.0367607 15.671 0.0613493C16.7705 0.0545268 17.8333 0.456549 18.653 1.18935L17.62 2.53935C17.4326 2.29075 17.1913 2.0879 16.9141 1.94604C16.637 1.80418 16.3313 1.72702 16.02 1.72035C15.167 1.72035 14.545 2.20735 14.545 2.84635C14.545 3.39135 14.895 3.68235 16.083 4.12235C18.338 4.94335 19.003 5.67435 19.003 7.28735H19H19.002ZM25.026 0.000349342C25.877 -0.00117795 26.7145 0.212074 27.461 0.620349V2.95035C27.1529 2.59487 26.7724 2.30915 26.3452 2.11223C25.9179 1.91531 25.4535 1.81172 24.983 1.80835C24.5352 1.81501 24.0932 1.91087 23.6828 2.09032C23.2725 2.26978 22.902 2.52924 22.5931 2.85352C22.2842 3.17781 22.043 3.56043 21.8836 3.979C21.7243 4.39758 21.65 4.84372 21.665 5.29135C21.6394 5.74998 21.7092 6.20895 21.8703 6.63916C22.0313 7.06936 22.2799 7.46142 22.6004 7.79049C22.9209 8.11955 23.3063 8.37843 23.7321 8.55072C24.1579 8.72301 24.6149 8.80495 25.074 8.79135C25.5288 8.78882 25.9776 8.68836 26.39 8.49682C26.8024 8.30528 27.1688 8.02715 27.464 7.68135V10.0133C26.6963 10.4046 25.8468 10.6085 24.985 10.6083C24.2833 10.6215 23.586 10.4939 22.9344 10.2331C22.2827 9.97228 21.6899 9.58359 21.191 9.08995C20.692 8.5963 20.297 8.00771 20.0293 7.3589C19.7615 6.71009 19.6264 6.01421 19.632 5.31235C19.6349 4.60857 19.777 3.91231 20.0502 3.2637C20.3233 2.61509 20.7222 2.02695 21.2236 1.53317C21.7251 1.03939 22.3194 0.649736 22.9722 0.386662C23.6249 0.123588 24.3233 -0.007705 25.027 0.000349342H25.026ZM46.233 0.229349H48.377L43.995 10.6323H42.931L38.625 0.230349H40.785L43.492 7.04535L46.234 0.229349H46.233ZM49.277 0.229349H54.89V1.94735H51.252V4.19835H54.747V5.91635H51.252V8.65635H54.887V10.3743H49.28L49.277 0.229349ZM62.722 3.22335C62.722 1.32335 61.415 0.229349 59.132 0.229349H56.196V10.3743H58.179V6.29635H58.437L61.174 10.3743H63.608L60.412 6.10035C61.0908 6.00381 61.7074 5.65268 62.1367 5.11821C62.5661 4.58374 62.7761 3.90595 62.724 3.22235H62.722V3.22335ZM58.752 4.89835H58.175V1.82535H58.783C60.019 1.82535 60.688 2.34435 60.688 3.33135C60.688 4.34835 60.02 4.89835 58.754 4.89835H58.752ZM64.118 0.984349C64.118 0.807349 63.998 0.710349 63.782 0.710349H63.494V1.60235H63.705V1.25435L63.955 1.60235H64.22L63.923 1.23335C63.9801 1.22199 64.0312 1.1907 64.0673 1.14508C64.1034 1.09946 64.1221 1.04248 64.12 0.984349H64.118ZM63.744 1.10635H63.704V0.874349H63.746C63.851 0.874349 63.905 0.913349 63.905 0.988349C63.905 1.06435 63.852 1.10635 63.743 1.10635H63.744ZM63.824 0.375349C63.639 0.468204 63.4984 0.630735 63.4331 0.827218C63.3679 1.0237 63.3833 1.23806 63.476 1.42317C63.5687 1.60828 63.7312 1.74901 63.9276 1.81441C64.124 1.87981 64.3384 1.86453 64.5236 1.77194C64.7088 1.67935 64.8496 1.51702 64.9152 1.32064C64.9807 1.12425 64.9656 0.909868 64.8731 0.724623C64.7807 0.539377 64.6184 0.398422 64.4221 0.33274C64.2257 0.267058 64.0114 0.282025 63.826 0.374349H63.823L63.824 0.375349ZM63.824 1.79635C63.6964 1.80154 63.5701 1.76841 63.4615 1.70122C63.3528 1.63404 63.2667 1.53587 63.2144 1.41936C63.162 1.30285 63.1456 1.17332 63.1675 1.04746C63.1893 0.921586 63.2483 0.805134 63.3369 0.713086C63.4255 0.621038 63.5396 0.557607 63.6645 0.530958C63.7895 0.504308 63.9195 0.515659 64.038 0.56355C64.1564 0.611441 64.2578 0.69368 64.3291 0.799682C64.4004 0.905685 64.4383 1.0306 64.438 1.15835C64.4397 1.32366 64.3764 1.48302 64.2617 1.60214C64.1471 1.72127 63.9903 1.79064 63.825 1.79535L63.823 1.79635H63.824ZM20.795 13.1503V16.8183L18.149 14.0503V16.6123H17.699V12.9443C17.699 12.9443 20.229 15.5953 20.346 15.7203V13.1433L20.795 13.1493V13.1503ZM24.389 13.5743V13.1493H22.558V16.6193H24.388V16.1963H23.008V14.9333H24.348V14.5133H23.008V13.5773L24.388 13.5743H24.389ZM27.852 13.1493H25.788V13.5743H26.609V16.6153H27.059V13.5743H27.887V13.1493H27.852ZM33.445 13.1493L32.576 15.6283L31.48 12.9153L31.448 12.9953C31.448 12.9953 30.448 15.4663 30.384 15.6293L29.515 13.1503H29.03L30.381 16.8563C30.381 16.8563 31.419 14.2743 31.48 14.1173C31.541 14.2733 32.58 16.8573 32.58 16.8573L33.93 13.1503H33.445V13.1493ZM38.805 14.8853C38.8066 15.2726 38.6835 15.6501 38.4539 15.962C38.2244 16.2739 37.9005 16.5036 37.5303 16.6172C37.1601 16.7308 36.7631 16.7223 36.3981 16.5928C36.0331 16.4634 35.7195 16.22 35.5035 15.8985C35.2876 15.577 35.1808 15.1946 35.1991 14.8077C35.2173 14.4209 35.3595 14.0502 35.6047 13.7504C35.8499 13.4507 36.185 13.2378 36.5606 13.1432C36.9361 13.0486 37.3321 13.0774 37.69 13.2253C38.0195 13.3604 38.3015 13.5903 38.5002 13.8858C38.6989 14.1814 38.8053 14.5292 38.806 14.8853H38.804H38.805ZM38.353 14.8853C38.3504 14.595 38.2545 14.3133 38.0796 14.0816C37.9047 13.8499 37.66 13.6804 37.3815 13.5983C37.1031 13.5161 36.8056 13.5256 36.5329 13.6253C36.2603 13.7249 36.0268 13.9095 35.867 14.1519C35.7071 14.3942 35.6294 14.6815 35.6451 14.9714C35.6608 15.2613 35.7693 15.5385 35.9544 15.7621C36.1396 15.9857 36.3917 16.1439 36.6735 16.2135C36.9554 16.283 37.2521 16.2602 37.52 16.1483C37.7687 16.0433 37.9805 15.8668 38.1288 15.6413C38.2771 15.4157 38.3551 15.1513 38.353 14.8813V14.8853ZM42.44 16.6193H42.37L41.874 16.6033C41.874 16.6033 40.876 15.1543 40.876 15.1283H40.818V16.6153H40.368V13.1453H40.895C41.755 13.1453 42.172 13.4623 42.172 14.1173C42.1842 14.3527 42.1051 14.5836 41.9512 14.7621C41.7974 14.9405 41.5806 15.0527 41.346 15.0753L42.44 16.6153V16.6193ZM40.822 14.7233H40.902C41.31 14.7233 41.727 14.6553 41.727 14.1523C41.727 13.6183 41.33 13.5773 40.899 13.5773H40.822V14.7233ZM44.758 14.7713L46.389 13.1533H45.782C45.782 13.1533 44.494 14.4433 44.387 14.5583V13.1533H43.937V16.6233H44.387V15.1203C44.407 15.1073 44.426 15.0903 44.442 15.0733C44.49 15.1243 45.81 16.6033 45.81 16.6033L46.358 16.6153H46.44C46.44 16.6153 44.805 14.8153 44.754 14.7673L44.758 14.7713ZM33.67 0.0423493C32.2615 0.0169147 30.9006 0.551691 29.8861 1.52917C28.8717 2.50665 28.2869 3.84688 28.26 5.25535C28.2218 6.3315 28.5059 7.39454 29.0758 8.30817C29.6458 9.22179 30.4756 9.94434 31.459 10.3832C32.4424 10.822 33.5344 10.9571 34.595 10.7711C35.6557 10.5852 36.6366 10.0866 37.412 9.33946C38.1874 8.59228 38.722 7.63051 38.9472 6.57748C39.1723 5.52445 39.0778 4.42817 38.6757 3.42922C38.2737 2.43027 37.5824 1.57419 36.6905 0.97075C35.7987 0.367311 34.7469 0.0440251 33.67 0.0423493ZM33.67 8.50835C33.2411 8.52158 32.814 8.44746 32.4146 8.29049C32.0153 8.13352 31.652 7.89697 31.3469 7.59523C31.0418 7.29349 30.8012 6.93286 30.6398 6.53525C30.4784 6.13765 30.3996 5.71138 30.408 5.28235C30.4017 4.63682 30.5873 4.00396 30.9412 3.46408C31.2952 2.92421 31.8015 2.50164 32.396 2.25002C32.9905 1.9984 33.6464 1.92907 34.2803 2.05082C34.9143 2.17257 35.4978 2.47991 35.9568 2.93385C36.4158 3.38779 36.7296 3.96786 36.8584 4.60044C36.9872 5.23302 36.9251 5.8896 36.6801 6.48686C36.4351 7.08411 36.0182 7.59512 35.4823 7.95503C34.9464 8.31494 34.3156 8.50753 33.67 8.50835Z" fill="#CACACA"/>
</g>
<defs>
<clipPath id="clip0_3244_922">
<rect width="68" height="35" fill="white"/>
</clipPath>
</defs>
</svg>
