<svg width="11" height="13" viewBox="0 0 11 13" fill="none" xmlns="http://www.w3.org/2000/svg">
<path d="M5.3811 6.39328C5.70459 6.39328 5.98162 6.278 6.21218 6.04744C6.44274 5.81688 6.55783 5.54005 6.55743 5.21695C6.55743 4.89346 6.44215 4.61643 6.21159 4.38587C5.98103 4.15531 5.7042 4.04023 5.3811 4.04062C5.05761 4.04062 4.78059 4.1559 4.55003 4.38646C4.31947 4.61702 4.20438 4.89385 4.20477 5.21695C4.20477 5.54044 4.32005 5.81747 4.55061 6.04803C4.78118 6.27859 5.058 6.39367 5.3811 6.39328ZM5.3811 12.0544C5.30268 12.0544 5.22426 12.0397 5.14584 12.0103C5.06742 11.9809 4.9988 11.9416 4.93998 11.8926C3.50878 10.6281 2.44028 9.45409 1.73448 8.37069C1.02868 7.28729 0.675781 6.27525 0.675781 5.33458C0.675781 3.86417 1.14886 2.69274 2.09502 1.82029C3.04119 0.94785 4.13655 0.511627 5.3811 0.511627C6.62605 0.511627 7.72161 0.94785 8.66777 1.82029C9.61393 2.69274 10.0868 3.86417 10.0864 5.33458C10.0864 6.27565 9.73353 7.28788 9.02773 8.37128C8.32193 9.45468 7.25343 10.6285 5.82223 11.8926C5.76341 11.9416 5.69479 11.9809 5.61637 12.0103C5.53795 12.0397 5.45953 12.0544 5.3811 12.0544Z" fill="white"/>
</svg>
