<svg width="190" height="58" viewBox="0 0 190 58" fill="none" xmlns="http://www.w3.org/2000/svg">
<g clip-path="url(#clip0_22_494)">
<path d="M93.479 27.8305C93.479 29.3633 92.1863 30.6058 90.5916 30.6058C88.9968 30.6058 87.7041 29.3633 87.7041 27.8305C87.7041 26.2977 88.9968 25.0552 90.5916 25.0552C92.1863 25.0552 93.479 26.2977 93.479 27.8305Z" fill="#242424"/>
<path d="M2.00562 37.8447V18.8306H6.23398V37.8447H2.00562ZM5.23749 30.3845V26.7486H14.7446V30.3845H5.23749ZM5.23749 22.4664V18.8306H15.1755V22.4664H5.23749ZM17.8914 37.8447V18.8306H22.1198V37.8447H17.8914ZM21.1502 37.8447V34.1281H30.5496V37.8447H21.1502ZM36.3866 30.7616L29.061 18.8306H33.9627L39.5915 28.4723H36.4404L42.0693 18.8306H46.8632L39.4838 30.7616H36.3866ZM35.8748 37.8447V28.8224H40.1032V37.8447H35.8748ZM48.3743 37.8447V18.8306H52.6027V37.8447H48.3743ZM51.6062 37.8447V34.1819H62.0289V37.8447H51.6062ZM51.6062 29.8997V26.3716H61.0863V29.8997H51.6062ZM51.6062 22.4664V18.8306H61.8943V22.4664H51.6062ZM68.1758 30.0074V26.8833H72.1888C73.0326 26.8833 73.679 26.6679 74.1279 26.2369C74.5947 25.806 74.8281 25.2225 74.8281 24.4863C74.8281 23.804 74.6037 23.2384 74.1548 22.7896C73.7059 22.3407 73.0595 22.1163 72.2157 22.1163H68.1758V18.8306H72.7005C73.9573 18.8306 75.0616 19.073 76.0131 19.5577C76.9647 20.0245 77.7099 20.6798 78.2485 21.5238C78.7872 22.3676 79.0565 23.3372 79.0565 24.4325C79.0565 25.5456 78.7872 26.5241 78.2485 27.3681C77.7099 28.1939 76.9558 28.8403 75.9862 29.3072C75.0166 29.774 73.8765 30.0074 72.5658 30.0074H68.1758ZM64.944 37.8447V18.8306H69.1723V37.8447H64.944ZM75.286 37.8447L69.3609 29.6573L73.2391 28.607L80.2954 37.8447H75.286Z" fill="url(#paint0_linear_22_494)"/>
<path d="M111.062 38.1409C109.643 38.1409 108.323 37.8985 107.103 37.4137C105.9 36.9109 104.841 36.2107 103.925 35.313C103.027 34.4152 102.327 33.3739 101.824 32.1888C101.321 30.9858 101.07 29.6931 101.07 28.3106C101.07 26.928 101.321 25.6443 101.824 24.4593C102.327 23.2563 103.027 22.2149 103.925 21.3351C104.822 20.4553 105.873 19.7731 107.076 19.2883C108.297 18.7855 109.616 18.5342 111.035 18.5342C112.543 18.5342 113.881 18.7766 115.048 19.2614C116.233 19.7461 117.265 20.4104 118.145 21.2543L115.317 24.1092C114.814 23.5705 114.204 23.1485 113.486 22.8433C112.786 22.538 111.969 22.3855 111.035 22.3855C110.209 22.3855 109.446 22.5291 108.746 22.8164C108.064 23.0857 107.471 23.4807 106.968 24.0014C106.483 24.5221 106.098 25.1505 105.81 25.8867C105.541 26.6228 105.406 27.4308 105.406 28.3106C105.406 29.2083 105.541 30.0252 105.81 30.7614C106.098 31.4975 106.483 32.1259 106.968 32.6467C107.471 33.1673 108.064 33.5713 108.746 33.8586C109.446 34.1458 110.209 34.2895 111.035 34.2895C112.005 34.2895 112.848 34.1369 113.567 33.8317C114.285 33.5264 114.905 33.1045 115.425 32.5659L118.28 35.4207C117.364 36.2645 116.314 36.9289 115.129 37.4137C113.962 37.8985 112.606 38.1409 111.062 38.1409ZM120.608 37.8446V18.8304H124.837V37.8446H120.608ZM123.867 37.8446V34.128H133.267V37.8446H123.867ZM142.696 38.1409C141.134 38.1409 139.752 37.8086 138.548 37.1444C137.363 36.48 136.43 35.5643 135.747 34.3973C135.084 33.2123 134.751 31.8656 134.751 30.3574V18.8304H139.006V30.5998C139.006 31.3539 139.168 32.0093 139.491 32.5659C139.814 33.1224 140.255 33.5533 140.811 33.8586C141.386 34.1458 142.014 34.2895 142.696 34.2895C143.414 34.2895 144.042 34.1458 144.581 33.8586C145.12 33.5533 145.542 33.1315 145.847 32.5928C146.17 32.0362 146.332 31.3809 146.332 30.6268V18.8304H150.587V30.3844C150.587 31.8926 150.255 33.2301 149.59 34.3973C148.927 35.5643 148.001 36.48 146.816 37.1444C145.631 37.8086 144.258 38.1409 142.696 38.1409ZM157.19 37.8446V34.5589H161.661C162.486 34.5589 163.133 34.3165 163.6 33.8317C164.067 33.3469 164.3 32.7544 164.3 32.0542C164.3 31.5694 164.193 31.1385 163.977 30.7614C163.762 30.3844 163.456 30.0881 163.061 29.8727C162.684 29.6572 162.217 29.5495 161.661 29.5495H157.19V26.3445H161.311C162.011 26.3445 162.577 26.1739 163.008 25.8328C163.438 25.4737 163.654 24.935 163.654 24.2169C163.654 23.5166 163.438 22.9959 163.008 22.6548C162.577 22.2957 162.011 22.1162 161.311 22.1162H157.19V18.8304H162.119C163.339 18.8304 164.371 19.0548 165.216 19.5037C166.078 19.9525 166.733 20.5541 167.182 21.3082C167.63 22.0623 167.855 22.8972 167.855 23.8129C167.855 24.9799 167.478 25.9675 166.724 26.7754C165.97 27.5834 164.856 28.14 163.385 28.4452L163.492 27.0178C165.09 27.323 166.32 27.9425 167.182 28.8762C168.061 29.8098 168.502 30.9589 168.502 32.3235C168.502 33.3648 168.241 34.3074 167.721 35.1514C167.218 35.9772 166.482 36.6327 165.512 37.1174C164.56 37.6022 163.412 37.8446 162.065 37.8446H157.19ZM153.958 37.8446V18.8304H158.133V37.8446H153.958Z" fill="#242424"/>
<path d="M150.674 2.27451C153.452 0.718198 156.609 1.54492 158.768 2.51239L165.203 5.39642L176.27 0.0463867L182.859 0.318549L173.722 9.22339L179.545 11.8825L185.605 9.66601L189.662 11.4843L185.995 15.8603C186.383 16.3045 186.734 16.9299 186.416 17.5868C185.999 18.4446 184.769 18.8769 182.751 18.8768C182.337 18.8768 181.89 18.8587 181.41 18.8223C179.196 18.6541 176.794 18.1106 175.292 17.4376L152.29 7.12834C150.304 6.23784 149.314 5.30282 149.265 4.26964C149.239 3.7338 149.463 2.95248 150.674 2.27451ZM152.994 5.67945L175.995 15.9888C177.275 16.5622 179.375 17.0427 181.346 17.2128C183.361 17.3866 184.438 17.1684 184.797 16.983C184.724 16.8857 184.585 16.7328 184.33 16.5174L183.733 16.012L187.035 12.0708L185.539 11.4004L179.474 13.6195L170.894 9.70218L179.044 1.76096L176.63 1.66129L165.23 7.17238L158.065 3.96111C155.448 2.7883 153.244 2.68567 151.512 3.65555C151.076 3.89989 150.923 4.11315 150.927 4.19675C150.927 4.2025 150.977 4.77577 152.994 5.67945Z" fill="url(#paint1_linear_22_494)"/>
<path d="M4.69111 51.5948L1.54004 46.9316H2.53268L5.15281 50.8445H4.73728L7.38049 46.9316H8.33851L5.16435 51.5948H4.69111ZM4.51798 54.8728V50.983H5.37211V54.8728H4.51798Z" fill="black"/>
<path d="M10.2863 54.9883C9.76306 54.9883 9.28597 54.8613 8.85506 54.6074C8.43184 54.3535 8.09326 54.011 7.83933 53.5801C7.59309 53.1492 7.46997 52.6683 7.46997 52.1373C7.46997 51.6141 7.59309 51.1408 7.83933 50.7176C8.09326 50.2944 8.43184 49.9597 8.85506 49.7134C9.28597 49.4595 9.76306 49.3325 10.2863 49.3325C10.8172 49.3325 11.2943 49.4556 11.7175 49.7019C12.1408 49.9481 12.4755 50.2867 12.7218 50.7176C12.9757 51.1408 13.1027 51.6141 13.1027 52.1373C13.1027 52.676 12.9757 53.1607 12.7218 53.5917C12.4755 54.0149 12.1408 54.3535 11.7175 54.6074C11.2943 54.8613 10.8172 54.9883 10.2863 54.9883ZM10.2863 54.2034C10.6711 54.2034 11.0096 54.1149 11.302 53.9379C11.6021 53.761 11.8369 53.5147 12.0062 53.1992C12.1832 52.8837 12.2717 52.5298 12.2717 52.1373C12.2717 51.7449 12.1832 51.3986 12.0062 51.0985C11.8369 50.7907 11.6021 50.5483 11.302 50.3713C11.0096 50.1944 10.6711 50.1059 10.2863 50.1059C9.90922 50.1059 9.57069 50.1944 9.27058 50.3713C8.97048 50.5483 8.73579 50.7907 8.5665 51.0985C8.39721 51.3986 8.31257 51.7449 8.31257 52.1373C8.31257 52.5375 8.39721 52.8953 8.5665 53.2108C8.73579 53.5186 8.97048 53.761 9.27058 53.9379C9.57069 54.1149 9.90922 54.2034 10.2863 54.2034Z" fill="black"/>
<path d="M16.5117 54.9881C16.0731 54.9881 15.6807 54.8881 15.3344 54.688C14.9881 54.4802 14.7149 54.1994 14.5149 53.8454C14.3225 53.4914 14.2263 53.0759 14.2263 52.5988V49.4478H15.0458V52.5642C15.0458 52.8951 15.1035 53.1836 15.219 53.4299C15.3421 53.6761 15.5152 53.8685 15.7384 54.007C15.9615 54.1455 16.2193 54.2148 16.5117 54.2148C16.9657 54.2148 17.3235 54.0647 17.5852 53.7646C17.8545 53.4645 17.9891 53.0644 17.9891 52.5642V49.4478H18.7971V52.5988C18.7971 53.0682 18.7009 53.4837 18.5085 53.8454C18.3162 54.2071 18.0469 54.4879 17.7006 54.688C17.3543 54.8881 16.958 54.9881 16.5117 54.9881Z" fill="black"/>
<path d="M20.282 54.8729V49.4479H21.09V54.8729H20.282ZM21.09 51.7103L20.7552 51.5602C20.7552 50.8754 20.9207 50.3329 21.2515 49.9327C21.5901 49.5326 22.0518 49.3325 22.6366 49.3325C22.906 49.3325 23.1522 49.3825 23.3753 49.4826C23.5985 49.5749 23.8063 49.725 23.9986 49.9327L23.4677 50.4983C23.3369 50.3521 23.1907 50.2482 23.0291 50.1867C22.8752 50.1251 22.6982 50.0943 22.4981 50.0943C22.0826 50.0943 21.744 50.2328 21.4824 50.5098C21.2208 50.7792 21.09 51.1793 21.09 51.7103Z" fill="black"/>
<path d="M28.3374 54.8729V47.1626H29.1454V54.8729H28.3374ZM26.9639 50.1752V49.448H30.5074V50.1752H26.9639Z" fill="black"/>
<path d="M31.5974 54.8729V49.4479H32.4054V54.8729H31.5974ZM32.4054 51.7103L32.0707 51.5602C32.0707 50.8754 32.2361 50.3329 32.567 49.9327C32.9055 49.5326 33.3672 49.3325 33.9521 49.3325C34.2214 49.3325 34.4676 49.3825 34.6908 49.4826C34.9139 49.5749 35.1217 49.725 35.3141 49.9327L34.7831 50.4983C34.6523 50.3521 34.5061 50.2482 34.3445 50.1867C34.1906 50.1251 34.0136 50.0943 33.8136 50.0943C33.398 50.0943 33.0594 50.2328 32.7978 50.5098C32.5362 50.7792 32.4054 51.1793 32.4054 51.7103Z" fill="black"/>
<path d="M38.2976 54.9881C37.859 54.9881 37.4665 54.8881 37.1203 54.688C36.774 54.4802 36.5008 54.1994 36.3008 53.8454C36.1084 53.4914 36.0122 53.0759 36.0122 52.5988V49.4478H36.8317V52.5642C36.8317 52.8951 36.8894 53.1836 37.0049 53.4299C37.128 53.6761 37.3011 53.8685 37.5243 54.007C37.7474 54.1455 38.0052 54.2148 38.2976 54.2148C38.7516 54.2148 39.1094 54.0647 39.371 53.7646C39.6404 53.4645 39.775 53.0644 39.775 52.5642V49.4478H40.583V52.5988C40.583 53.0682 40.4868 53.4837 40.2944 53.8454C40.1021 54.2071 39.8327 54.4879 39.4865 54.688C39.1402 54.8881 38.7439 54.9881 38.2976 54.9881Z" fill="black"/>
<path d="M43.7299 54.9883C43.4375 54.9883 43.1566 54.9498 42.8873 54.8729C42.618 54.7882 42.3717 54.6728 42.1486 54.5266C41.9331 54.3804 41.7446 54.2073 41.583 54.0072L42.1024 53.4762C42.3179 53.7379 42.5603 53.9341 42.8296 54.0649C43.1066 54.188 43.4144 54.2496 43.753 54.2496C44.1146 54.2496 44.3955 54.1803 44.5956 54.0418C44.8033 53.9033 44.9072 53.7109 44.9072 53.4647C44.9072 53.2339 44.8341 53.053 44.6879 52.9222C44.5417 52.7914 44.3532 52.6875 44.1223 52.6106C43.8992 52.5336 43.6606 52.4605 43.4067 52.3913C43.1528 52.3143 42.9104 52.222 42.6795 52.1142C42.4487 51.9988 42.2602 51.8411 42.114 51.641C41.9755 51.4409 41.9062 51.1793 41.9062 50.8561C41.9062 50.5483 41.9793 50.2828 42.1255 50.0597C42.2794 49.8288 42.4949 49.6519 42.7719 49.5287C43.0566 49.3979 43.3913 49.3325 43.7761 49.3325C44.1839 49.3325 44.5533 49.4056 44.8841 49.5518C45.215 49.698 45.4805 49.9135 45.6806 50.1982L45.1612 50.7176C44.9996 50.5098 44.7956 50.3521 44.5494 50.2444C44.3109 50.1289 44.0415 50.0712 43.7414 50.0712C43.3952 50.0712 43.1297 50.1405 42.945 50.279C42.768 50.4098 42.6795 50.5829 42.6795 50.7984C42.6795 51.0062 42.7526 51.1716 42.8988 51.2947C43.045 51.4102 43.2297 51.5063 43.4529 51.5833C43.6837 51.6525 43.9261 51.7256 44.18 51.8026C44.434 51.8718 44.6764 51.968 44.9072 52.0912C45.1381 52.2066 45.3227 52.3682 45.4613 52.5759C45.6075 52.776 45.6806 53.0492 45.6806 53.3954C45.6806 53.8802 45.5036 54.2688 45.1496 54.5612C44.8033 54.8459 44.3301 54.9883 43.7299 54.9883Z" fill="black"/>
<path d="M47.7793 54.8729V47.1626H48.5873V54.8729H47.7793ZM46.4058 50.1752V49.448H49.9493V50.1752H46.4058Z" fill="black"/>
<path d="M53.3523 54.9883C52.8059 54.9883 52.3173 54.8652 51.8864 54.6189C51.4555 54.3727 51.113 54.0341 50.8591 53.6032C50.6129 53.1723 50.4897 52.6875 50.4897 52.1489C50.4897 51.6179 50.6129 51.1408 50.8591 50.7176C51.1053 50.2867 51.4401 49.9481 51.8633 49.7019C52.2865 49.4556 52.7598 49.3325 53.283 49.3325C53.7755 49.3325 54.2102 49.4441 54.5873 49.6672C54.972 49.8904 55.2721 50.202 55.4876 50.6022C55.7108 50.9946 55.8223 51.4486 55.8223 51.9642C55.8223 52.0257 55.8185 52.0988 55.8108 52.1835C55.8031 52.2604 55.7877 52.3528 55.7646 52.4605H51.0669V51.768H55.326L55.0374 52.0219C55.0451 51.6218 54.9759 51.2793 54.8297 50.9946C54.6912 50.7022 54.4873 50.4791 54.2179 50.3252C53.9563 50.1636 53.637 50.0828 53.2599 50.0828C52.8675 50.0828 52.5251 50.1674 52.2326 50.3367C51.9402 50.506 51.7094 50.7445 51.5401 51.0523C51.3785 51.3524 51.2977 51.7103 51.2977 52.1258C51.2977 52.5413 51.3824 52.9068 51.5516 53.2223C51.7286 53.5378 51.971 53.784 52.2788 53.961C52.5943 54.138 52.956 54.2265 53.3638 54.2265C53.6947 54.2265 53.9986 54.1688 54.2757 54.0534C54.5527 53.9302 54.7874 53.7494 54.9797 53.5109L55.4991 54.0418C55.2452 54.3419 54.9297 54.5766 54.5527 54.7459C54.1833 54.9075 53.7832 54.9883 53.3523 54.9883Z" fill="black"/>
<path d="M59.3437 54.9881C58.8435 54.9881 58.3934 54.865 57.9933 54.6188C57.5931 54.3725 57.2738 54.0378 57.0352 53.6146C56.8044 53.1837 56.689 52.7027 56.689 52.1718C56.689 51.6331 56.8044 51.1522 57.0352 50.729C57.2738 50.2981 57.5931 49.9595 57.9933 49.7132C58.3934 49.4593 58.8435 49.3323 59.3437 49.3323C59.7515 49.3323 60.1209 49.4131 60.4518 49.5747C60.7827 49.7363 61.0558 49.9672 61.2713 50.2673C61.4944 50.5597 61.6253 50.906 61.6637 51.3061V53.0028C61.6176 53.3953 61.4868 53.7415 61.2713 54.0416C61.0635 54.3341 60.7942 54.5649 60.4633 54.7342C60.1324 54.9035 59.7592 54.9881 59.3437 54.9881ZM59.4822 54.2148C59.8593 54.2148 60.1902 54.1301 60.4749 53.9608C60.7596 53.7839 60.9827 53.5415 61.1443 53.2337C61.3059 52.9182 61.3867 52.5604 61.3867 52.1602C61.3867 51.7524 61.3021 51.3946 61.1328 51.0868C60.9712 50.779 60.748 50.5366 60.4633 50.3596C60.1786 50.1826 59.8477 50.0941 59.4707 50.0941C59.0936 50.0941 58.7589 50.1826 58.4665 50.3596C58.1741 50.5366 57.9432 50.7828 57.7739 51.0983C57.6124 51.4061 57.5316 51.7601 57.5316 52.1602C57.5316 52.5604 57.6124 52.9182 57.7739 53.2337C57.9432 53.5415 58.1741 53.7839 58.4665 53.9608C58.7666 54.1301 59.1052 54.2148 59.4822 54.2148ZM62.1485 54.8727H61.3405V53.4184L61.5021 52.0794L61.3405 50.7751V46.7007H62.1485V54.8727Z" fill="black"/>
<path d="M66.2207 54.8727V46.7007H67.0288V54.8727H66.2207Z" fill="black"/>
<path d="M70.7905 54.9881C70.3519 54.9881 69.9595 54.8881 69.6132 54.688C69.2669 54.4802 68.9938 54.1994 68.7937 53.8454C68.6013 53.4914 68.5051 53.0759 68.5051 52.5988V49.4478H69.3246V52.5642C69.3246 52.8951 69.3823 53.1836 69.4978 53.4299C69.6209 53.6761 69.794 53.8685 70.0172 54.007C70.2403 54.1455 70.4981 54.2148 70.7905 54.2148C71.2445 54.2148 71.6023 54.0647 71.864 53.7646C72.1333 53.4645 72.2679 53.0644 72.2679 52.5642V49.4478H73.0759V52.5988C73.0759 53.0682 72.9797 53.4837 72.7874 53.8454C72.595 54.2071 72.3257 54.4879 71.9794 54.688C71.6331 54.8881 71.2368 54.9881 70.7905 54.9881Z" fill="black"/>
<path d="M78.2543 54.8727L76.4421 52.4026L76.269 52.2641L74.0875 49.4478H75.0916L76.7768 51.6639L76.9384 51.8024L79.2469 54.8727H78.2543ZM73.9951 54.8727L76.2805 51.8947L76.7307 52.4949L74.9531 54.8727H73.9951ZM76.9961 52.2526L76.5344 51.6639L78.1965 49.4478H79.1546L76.9961 52.2526Z" fill="black"/>
<path d="M82.4446 54.9881C82.006 54.9881 81.6135 54.8881 81.2672 54.688C80.921 54.4802 80.6478 54.1994 80.4477 53.8454C80.2554 53.4914 80.1592 53.0759 80.1592 52.5988V49.4478H80.9787V52.5642C80.9787 52.8951 81.0364 53.1836 81.1518 53.4299C81.2749 53.6761 81.4481 53.8685 81.6712 54.007C81.8944 54.1455 82.1522 54.2148 82.4446 54.2148C82.8986 54.2148 83.2564 54.0647 83.518 53.7646C83.7873 53.4645 83.922 53.0644 83.922 52.5642V49.4478H84.73V52.5988C84.73 53.0682 84.6338 53.4837 84.4414 53.8454C84.249 54.2071 83.9797 54.4879 83.6334 54.688C83.2872 54.8881 82.8909 54.9881 82.4446 54.9881Z" fill="black"/>
<path d="M86.2148 54.8729V49.4479H87.0228V54.8729H86.2148ZM87.0228 51.7103L86.6881 51.5602C86.6881 50.8754 86.8535 50.3329 87.1844 49.9327C87.523 49.5326 87.9847 49.3325 88.5695 49.3325C88.8388 49.3325 89.0851 49.3825 89.3082 49.4826C89.5314 49.5749 89.7391 49.725 89.9315 49.9327L89.4005 50.4983C89.2697 50.3521 89.1235 50.2482 88.9619 50.1867C88.808 50.1251 88.6311 50.0943 88.431 50.0943C88.0155 50.0943 87.6769 50.2328 87.4153 50.5098C87.1536 50.7792 87.0228 51.1793 87.0228 51.7103Z" fill="black"/>
<path d="M92.4563 54.8958L90.0786 49.4478H90.9674L92.8834 53.9955H92.5487L94.5686 49.4478H95.4689L92.918 54.8958H92.4563ZM90.9789 57.1581L92.4679 54.0763L92.918 54.8958L91.8677 57.1581H90.9789Z" fill="black"/>
<path d="M99.8042 54.8729V47.1626H100.612V54.8729H99.8042ZM98.4307 50.1752V49.448H101.974V50.1752H98.4307Z" fill="black"/>
<path d="M103.064 54.8729V49.4479H103.872V54.8729H103.064ZM103.872 51.7103L103.537 51.5602C103.537 50.8754 103.703 50.3329 104.034 49.9327C104.372 49.5326 104.834 49.3325 105.419 49.3325C105.688 49.3325 105.934 49.3825 106.157 49.4826C106.38 49.5749 106.588 49.725 106.781 49.9327L106.25 50.4983C106.119 50.3521 105.973 50.2482 105.811 50.1867C105.657 50.1251 105.48 50.0943 105.28 50.0943C104.865 50.0943 104.526 50.2328 104.264 50.5098C104.003 50.7792 103.872 51.1793 103.872 51.7103Z" fill="black"/>
<path d="M109.781 54.9883C109.265 54.9883 108.804 54.8652 108.396 54.6189C107.988 54.365 107.665 54.0264 107.426 53.6032C107.195 53.18 107.08 52.7029 107.08 52.1719C107.08 51.6333 107.195 51.1524 107.426 50.7291C107.665 50.2982 107.988 49.9597 108.396 49.7134C108.804 49.4595 109.261 49.3325 109.769 49.3325C110.185 49.3325 110.554 49.4172 110.877 49.5865C111.208 49.748 111.474 49.9789 111.674 50.279C111.881 50.5714 112.008 50.9138 112.055 51.3063V53.003C112.008 53.3954 111.881 53.7417 111.674 54.0418C111.474 54.3419 111.208 54.5766 110.877 54.7459C110.554 54.9075 110.189 54.9883 109.781 54.9883ZM109.908 54.215C110.469 54.215 110.92 54.0264 111.258 53.6494C111.604 53.2723 111.778 52.776 111.778 52.1604C111.778 51.7526 111.697 51.3948 111.535 51.087C111.381 50.7715 111.162 50.5291 110.877 50.3598C110.6 50.1828 110.273 50.0943 109.896 50.0943C109.511 50.0943 109.169 50.1828 108.869 50.3598C108.576 50.5368 108.342 50.783 108.165 51.0985C107.996 51.4063 107.911 51.7603 107.911 52.1604C107.911 52.5605 107.996 52.9145 108.165 53.2223C108.342 53.5301 108.58 53.7725 108.88 53.9495C109.181 54.1265 109.523 54.215 109.908 54.215ZM111.731 54.8729V53.4185L111.893 52.0796L111.731 50.7753V49.4479H112.539V54.8729H111.731Z" fill="black"/>
<path d="M116.047 54.8727L113.542 49.4478H114.443L116.555 54.1917H116.047L118.171 49.4478H119.048L116.52 54.8727H116.047Z" fill="black"/>
<path d="M122.306 54.9883C121.76 54.9883 121.271 54.8652 120.84 54.6189C120.409 54.3727 120.067 54.0341 119.813 53.6032C119.567 53.1723 119.444 52.6875 119.444 52.1489C119.444 51.6179 119.567 51.1408 119.813 50.7176C120.059 50.2867 120.394 49.9481 120.817 49.7019C121.24 49.4556 121.714 49.3325 122.237 49.3325C122.729 49.3325 123.164 49.4441 123.541 49.6672C123.926 49.8904 124.226 50.202 124.441 50.6022C124.665 50.9946 124.776 51.4486 124.776 51.9642C124.776 52.0257 124.772 52.0988 124.765 52.1835C124.757 52.2604 124.742 52.3528 124.718 52.4605H120.021V51.768H124.28L123.991 52.0219C123.999 51.6218 123.93 51.2793 123.784 50.9946C123.645 50.7022 123.441 50.4791 123.172 50.3252C122.91 50.1636 122.591 50.0828 122.214 50.0828C121.821 50.0828 121.479 50.1674 121.187 50.3367C120.894 50.506 120.663 50.7445 120.494 51.0523C120.332 51.3524 120.252 51.7103 120.252 52.1258C120.252 52.5413 120.336 52.9068 120.506 53.2223C120.682 53.5378 120.925 53.784 121.233 53.961C121.548 54.138 121.91 54.2265 122.318 54.2265C122.649 54.2265 122.952 54.1688 123.23 54.0534C123.507 53.9302 123.741 53.7494 123.934 53.5109L124.453 54.0418C124.199 54.3419 123.884 54.5766 123.507 54.7459C123.137 54.9075 122.737 54.9883 122.306 54.9883Z" fill="black"/>
<path d="M125.989 54.8727V46.7007H126.797V54.8727H125.989Z" fill="black"/>
<path d="M133.223 54.9883C132.708 54.9883 132.246 54.8652 131.838 54.6189C131.43 54.365 131.107 54.0264 130.869 53.6032C130.638 53.18 130.522 52.7029 130.522 52.1719C130.522 51.6333 130.638 51.1524 130.869 50.7291C131.107 50.2982 131.43 49.9597 131.838 49.7134C132.246 49.4595 132.704 49.3325 133.212 49.3325C133.627 49.3325 133.997 49.4172 134.32 49.5865C134.651 49.748 134.916 49.9789 135.116 50.279C135.324 50.5714 135.451 50.9138 135.497 51.3063V53.003C135.451 53.3954 135.324 53.7417 135.116 54.0418C134.916 54.3419 134.651 54.5766 134.32 54.7459C133.997 54.9075 133.631 54.9883 133.223 54.9883ZM133.35 54.215C133.912 54.215 134.362 54.0264 134.701 53.6494C135.047 53.2723 135.22 52.776 135.22 52.1604C135.22 51.7526 135.139 51.3948 134.978 51.087C134.824 50.7715 134.605 50.5291 134.32 50.3598C134.043 50.1828 133.716 50.0943 133.339 50.0943C132.954 50.0943 132.612 50.1828 132.312 50.3598C132.019 50.5368 131.784 50.783 131.607 51.0985C131.438 51.4063 131.354 51.7603 131.354 52.1604C131.354 52.5605 131.438 52.9145 131.607 53.2223C131.784 53.5301 132.023 53.7725 132.323 53.9495C132.623 54.1265 132.966 54.215 133.35 54.215ZM135.174 54.8729V53.4185L135.336 52.0796L135.174 50.7753V49.4479H135.982V54.8729H135.174Z" fill="black"/>
<path d="M137.597 54.8727V46.7007H138.405V54.8727H137.597Z" fill="black"/>
<path d="M140.02 54.8727V46.7007H140.828V54.8727H140.02Z" fill="black"/>
<path d="M142.443 54.8731V49.4481H143.262V54.8731H142.443ZM142.847 48.2708C142.693 48.2708 142.562 48.2169 142.454 48.1092C142.347 47.9938 142.293 47.8591 142.293 47.7052C142.293 47.5436 142.347 47.409 142.454 47.3012C142.562 47.1935 142.693 47.1396 142.847 47.1396C143.016 47.1396 143.151 47.1935 143.251 47.3012C143.358 47.409 143.412 47.5436 143.412 47.7052C143.412 47.8591 143.358 47.9938 143.251 48.1092C143.151 48.2169 143.016 48.2708 142.847 48.2708Z" fill="black"/>
<path d="M147.232 54.9883C146.716 54.9883 146.255 54.8652 145.847 54.6189C145.439 54.365 145.116 54.0264 144.877 53.6032C144.646 53.18 144.531 52.7029 144.531 52.1719C144.531 51.6333 144.646 51.1524 144.877 50.7291C145.116 50.2982 145.439 49.9597 145.847 49.7134C146.255 49.4595 146.713 49.3325 147.22 49.3325C147.636 49.3325 148.005 49.4172 148.328 49.5865C148.659 49.748 148.925 49.9789 149.125 50.279C149.333 50.5714 149.46 50.9138 149.506 51.3063V53.003C149.46 53.3954 149.333 53.7417 149.125 54.0418C148.925 54.3419 148.659 54.5766 148.328 54.7459C148.005 54.9075 147.64 54.9883 147.232 54.9883ZM147.359 54.215C147.921 54.215 148.371 54.0264 148.709 53.6494C149.056 53.2723 149.229 52.776 149.229 52.1604C149.229 51.7526 149.148 51.3948 148.986 51.087C148.832 50.7715 148.613 50.5291 148.328 50.3598C148.051 50.1828 147.724 50.0943 147.347 50.0943C146.963 50.0943 146.62 50.1828 146.32 50.3598C146.028 50.5368 145.793 50.783 145.616 51.0985C145.447 51.4063 145.362 51.7603 145.362 52.1604C145.362 52.5605 145.447 52.9145 145.616 53.2223C145.793 53.5301 146.032 53.7725 146.332 53.9495C146.632 54.1265 146.974 54.215 147.359 54.215ZM149.183 54.8729V53.4185L149.344 52.0796L149.183 50.7753V49.4479H149.991V54.8729H149.183Z" fill="black"/>
<path d="M155.554 54.8729V51.6872C155.554 51.2101 155.412 50.8253 155.127 50.5329C154.85 50.2328 154.48 50.0828 154.019 50.0828C153.703 50.0828 153.426 50.152 153.188 50.2905C152.949 50.429 152.761 50.6176 152.622 50.8561C152.484 51.0947 152.414 51.3678 152.414 51.6756L152.045 51.4679C152.045 51.06 152.141 50.6945 152.334 50.3713C152.526 50.0481 152.784 49.7942 153.107 49.6095C153.438 49.4249 153.815 49.3325 154.238 49.3325C154.654 49.3325 155.023 49.4326 155.346 49.6326C155.669 49.8327 155.919 50.102 156.096 50.4406C156.281 50.7792 156.373 51.1485 156.373 51.5487V54.8729H155.554ZM151.606 54.8729V49.4479H152.414V54.8729H151.606Z" fill="black"/>
<path d="M160.332 54.9883C159.801 54.9883 159.32 54.8652 158.889 54.6189C158.466 54.365 158.127 54.0226 157.873 53.5917C157.627 53.1607 157.504 52.6798 157.504 52.1489C157.504 51.6179 157.627 51.1408 157.873 50.7176C158.127 50.2867 158.466 49.9481 158.889 49.7019C159.32 49.4556 159.801 49.3325 160.332 49.3325C160.739 49.3325 161.12 49.4095 161.474 49.5634C161.828 49.7173 162.128 49.9327 162.375 50.2097L161.844 50.7522C161.659 50.5445 161.436 50.3867 161.174 50.279C160.913 50.1636 160.632 50.1059 160.332 50.1059C159.947 50.1059 159.604 50.1944 159.304 50.3713C159.004 50.5483 158.769 50.7907 158.6 51.0985C158.431 51.3986 158.346 51.7487 158.346 52.1489C158.346 52.5413 158.431 52.8953 158.6 53.2108C158.769 53.5186 159.004 53.761 159.304 53.9379C159.604 54.1149 159.947 54.2034 160.332 54.2034C160.639 54.2034 160.924 54.1495 161.186 54.0418C161.447 53.9264 161.67 53.7648 161.855 53.557L162.398 54.0995C162.144 54.3842 161.836 54.6035 161.474 54.7574C161.12 54.9113 160.739 54.9883 160.332 54.9883Z" fill="black"/>
<path d="M165.911 54.9883C165.365 54.9883 164.876 54.8652 164.445 54.6189C164.015 54.3727 163.672 54.0341 163.418 53.6032C163.172 53.1723 163.049 52.6875 163.049 52.1489C163.049 51.6179 163.172 51.1408 163.418 50.7176C163.664 50.2867 163.999 49.9481 164.422 49.7019C164.846 49.4556 165.319 49.3325 165.842 49.3325C166.335 49.3325 166.769 49.4441 167.146 49.6672C167.531 49.8904 167.831 50.202 168.047 50.6022C168.27 50.9946 168.381 51.4486 168.381 51.9642C168.381 52.0257 168.378 52.0988 168.37 52.1835C168.362 52.2604 168.347 52.3528 168.324 52.4605H163.626V51.768H167.885L167.597 52.0219C167.604 51.6218 167.535 51.2793 167.389 50.9946C167.25 50.7022 167.046 50.4791 166.777 50.3252C166.515 50.1636 166.196 50.0828 165.819 50.0828C165.427 50.0828 165.084 50.1674 164.792 50.3367C164.499 50.506 164.268 50.7445 164.099 51.0523C163.938 51.3524 163.857 51.7103 163.857 52.1258C163.857 52.5413 163.941 52.9068 164.111 53.2223C164.288 53.5378 164.53 53.784 164.838 53.961C165.153 54.138 165.515 54.2265 165.923 54.2265C166.254 54.2265 166.558 54.1688 166.835 54.0534C167.112 53.9302 167.346 53.7494 167.539 53.5109L168.058 54.0418C167.804 54.3419 167.489 54.5766 167.112 54.7459C166.742 54.9075 166.342 54.9883 165.911 54.9883Z" fill="black"/>
</g>
<defs>
<linearGradient id="paint0_linear_22_494" x1="40.5726" y1="16.6837" x2="40.5726" y2="38.8719" gradientUnits="userSpaceOnUse">
<stop stop-color="#006DD2"/>
<stop offset="1" stop-color="#59C2FD"/>
</linearGradient>
<linearGradient id="paint1_linear_22_494" x1="169.463" y1="0.0463867" x2="169.463" y2="18.8768" gradientUnits="userSpaceOnUse">
<stop stop-color="#006DD2"/>
<stop offset="1" stop-color="#59C2FD"/>
</linearGradient>
<clipPath id="clip0_22_494">
<rect width="189.488" height="57.712" fill="white" transform="translate(0.174072 0.0463867)"/>
</clipPath>
</defs>
</svg>
