<?xml version="1.0" encoding="UTF-8"?>
<svg xmlns="http://www.w3.org/2000/svg" xmlns:xlink="http://www.w3.org/1999/xlink" width="131px" height="40px" viewBox="0 0 131 40" version="1.1">
<g id="surface1">
<path style=" stroke:none;fill-rule:nonzero;fill:rgb(100%,100%,100%);fill-opacity:1;" d="M 64.503906 19.257812 C 64.503906 20.320312 63.613281 21.179688 62.507812 21.179688 C 61.40625 21.179688 60.511719 20.320312 60.511719 19.257812 C 60.511719 18.195312 61.40625 17.332031 62.507812 17.332031 C 63.613281 17.332031 64.503906 18.195312 64.503906 19.257812 Z M 64.503906 19.257812 "/>
<path style=" stroke:none;fill-rule:nonzero;fill:rgb(100%,100%,100%);fill-opacity:1;" d="M 1.265625 26.199219 L 1.265625 13.019531 L 4.1875 13.019531 L 4.1875 26.199219 Z M 3.5 21.027344 L 3.5 18.507812 L 10.074219 18.507812 L 10.074219 21.027344 Z M 3.5 15.539062 L 3.5 13.019531 L 10.371094 13.019531 L 10.371094 15.539062 Z M 12.25 26.199219 L 12.25 13.019531 L 15.171875 13.019531 L 15.171875 26.199219 Z M 14.5 26.199219 L 14.5 23.621094 L 21 23.621094 L 21 26.199219 Z M 25.035156 21.289062 L 19.96875 13.019531 L 23.359375 13.019531 L 27.25 19.703125 L 25.074219 19.703125 L 28.964844 13.019531 L 32.277344 13.019531 L 27.175781 21.289062 Z M 24.679688 26.199219 L 24.679688 19.945312 L 27.605469 19.945312 L 27.605469 26.199219 Z M 33.324219 26.199219 L 33.324219 13.019531 L 36.246094 13.019531 L 36.246094 26.199219 Z M 35.558594 26.199219 L 35.558594 23.660156 L 42.761719 23.660156 L 42.761719 26.199219 Z M 35.558594 20.691406 L 35.558594 18.246094 L 42.109375 18.246094 L 42.109375 20.691406 Z M 35.558594 15.539062 L 35.558594 13.019531 L 42.667969 13.019531 L 42.667969 15.539062 Z M 47.011719 20.765625 L 47.011719 18.601562 L 49.785156 18.601562 C 50.371094 18.601562 50.816406 18.453125 51.128906 18.152344 C 51.449219 17.855469 51.609375 17.449219 51.609375 16.9375 C 51.609375 16.464844 51.457031 16.074219 51.144531 15.761719 C 50.835938 15.453125 50.386719 15.296875 49.804688 15.296875 L 47.011719 15.296875 L 47.011719 13.019531 L 50.140625 13.019531 C 51.007812 13.019531 51.773438 13.1875 52.429688 13.523438 C 53.089844 13.847656 53.601562 14.300781 53.976562 14.886719 C 54.347656 15.472656 54.535156 16.144531 54.535156 16.902344 C 54.535156 17.671875 54.347656 18.351562 53.976562 18.9375 C 53.601562 19.507812 53.082031 19.957031 52.410156 20.28125 C 51.742188 20.605469 50.953125 20.765625 50.046875 20.765625 Z M 44.777344 26.199219 L 44.777344 13.019531 L 47.699219 13.019531 L 47.699219 26.199219 Z M 51.925781 26.199219 L 47.832031 20.523438 L 50.511719 19.796875 L 55.390625 26.199219 Z M 51.925781 26.199219 "/>
<path style=" stroke:none;fill-rule:nonzero;fill:rgb(100%,100%,100%);fill-opacity:1;" d="M 76.660156 26.402344 C 75.679688 26.402344 74.769531 26.234375 73.925781 25.898438 C 73.09375 25.550781 72.359375 25.066406 71.726562 24.441406 C 71.105469 23.820312 70.621094 23.097656 70.273438 22.277344 C 69.925781 21.445312 69.753906 20.546875 69.753906 19.589844 C 69.753906 18.632812 69.925781 17.742188 70.273438 16.921875 C 70.621094 16.085938 71.105469 15.363281 71.726562 14.753906 C 72.347656 14.144531 73.074219 13.671875 73.90625 13.335938 C 74.75 12.988281 75.660156 12.8125 76.640625 12.8125 C 77.683594 12.8125 78.609375 12.980469 79.417969 13.316406 C 80.234375 13.652344 80.949219 14.113281 81.558594 14.699219 L 79.601562 16.679688 C 79.253906 16.304688 78.832031 16.011719 78.335938 15.800781 C 77.851562 15.589844 77.289062 15.484375 76.640625 15.484375 C 76.070312 15.484375 75.542969 15.582031 75.058594 15.78125 C 74.589844 15.96875 74.179688 16.242188 73.832031 16.601562 C 73.496094 16.964844 73.230469 17.398438 73.03125 17.910156 C 72.84375 18.421875 72.75 18.980469 72.75 19.589844 C 72.75 20.210938 72.84375 20.777344 73.03125 21.289062 C 73.230469 21.796875 73.496094 22.234375 73.832031 22.59375 C 74.179688 22.957031 74.589844 23.234375 75.058594 23.433594 C 75.542969 23.632812 76.070312 23.734375 76.640625 23.734375 C 77.3125 23.734375 77.894531 23.628906 78.390625 23.417969 C 78.890625 23.203125 79.316406 22.914062 79.675781 22.539062 L 81.652344 24.519531 C 81.019531 25.101562 80.292969 25.5625 79.472656 25.898438 C 78.664062 26.234375 77.726562 26.402344 76.660156 26.402344 Z M 83.261719 26.199219 L 83.261719 13.019531 L 86.183594 13.019531 L 86.183594 26.199219 Z M 85.515625 26.199219 L 85.515625 23.621094 L 92.011719 23.621094 L 92.011719 26.199219 Z M 98.53125 26.402344 C 97.449219 26.402344 96.496094 26.171875 95.664062 25.710938 C 94.84375 25.253906 94.199219 24.617188 93.726562 23.808594 C 93.269531 22.988281 93.039062 22.054688 93.039062 21.007812 L 93.039062 13.019531 L 95.980469 13.019531 L 95.980469 21.175781 C 95.980469 21.699219 96.089844 22.152344 96.316406 22.539062 C 96.539062 22.925781 96.84375 23.222656 97.226562 23.433594 C 97.625 23.632812 98.058594 23.734375 98.53125 23.734375 C 99.027344 23.734375 99.460938 23.632812 99.832031 23.433594 C 100.207031 23.222656 100.5 22.929688 100.710938 22.558594 C 100.933594 22.171875 101.042969 21.71875 101.042969 21.195312 L 101.042969 13.019531 L 103.984375 13.019531 L 103.984375 21.027344 C 103.984375 22.074219 103.757812 23 103.296875 23.808594 C 102.839844 24.617188 102.199219 25.253906 101.378906 25.710938 C 100.558594 26.171875 99.609375 26.402344 98.53125 26.402344 Z M 108.550781 26.199219 L 108.550781 23.921875 L 111.640625 23.921875 C 112.210938 23.921875 112.660156 23.753906 112.984375 23.417969 C 113.304688 23.082031 113.464844 22.671875 113.464844 22.183594 C 113.464844 21.847656 113.390625 21.550781 113.242188 21.289062 C 113.09375 21.027344 112.882812 20.820312 112.609375 20.671875 C 112.347656 20.523438 112.027344 20.449219 111.640625 20.449219 L 108.550781 20.449219 L 108.550781 18.226562 L 111.398438 18.226562 C 111.882812 18.226562 112.273438 18.109375 112.574219 17.871094 C 112.871094 17.625 113.019531 17.25 113.019531 16.753906 C 113.019531 16.265625 112.871094 15.90625 112.574219 15.671875 C 112.273438 15.421875 111.882812 15.296875 111.398438 15.296875 L 108.550781 15.296875 L 108.550781 13.019531 L 111.957031 13.019531 C 112.800781 13.019531 113.515625 13.175781 114.101562 13.484375 C 114.695312 13.796875 115.148438 14.214844 115.457031 14.738281 C 115.769531 15.257812 115.925781 15.839844 115.925781 16.472656 C 115.925781 17.28125 115.664062 17.964844 115.140625 18.527344 C 114.621094 19.085938 113.851562 19.472656 112.832031 19.683594 L 112.90625 18.695312 C 114.011719 18.90625 114.863281 19.335938 115.457031 19.980469 C 116.066406 20.628906 116.371094 21.425781 116.371094 22.371094 C 116.371094 23.09375 116.191406 23.746094 115.832031 24.332031 C 115.484375 24.902344 114.976562 25.359375 114.304688 25.695312 C 113.644531 26.03125 112.851562 26.199219 111.921875 26.199219 Z M 106.316406 26.199219 L 106.316406 13.019531 L 109.203125 13.019531 L 109.203125 26.199219 Z M 106.316406 26.199219 "/>
<path style=" stroke:none;fill-rule:nonzero;fill:rgb(100%,100%,100%);fill-opacity:1;" d="M 104.046875 1.542969 C 105.96875 0.464844 108.148438 1.039062 109.640625 1.710938 L 114.089844 3.707031 L 121.742188 0 L 126.296875 0.1875 L 119.980469 6.359375 L 124.003906 8.203125 L 128.195312 6.667969 L 131 7.925781 L 128.464844 10.960938 C 128.734375 11.269531 128.976562 11.703125 128.753906 12.15625 C 128.46875 12.75 127.617188 13.050781 126.222656 13.050781 C 125.9375 13.050781 125.628906 13.039062 125.296875 13.011719 C 123.765625 12.898438 122.105469 12.519531 121.066406 12.054688 L 105.164062 4.910156 C 103.789062 4.292969 103.105469 3.644531 103.074219 2.925781 C 103.054688 2.554688 103.210938 2.015625 104.046875 1.542969 Z M 105.648438 3.902344 L 121.550781 11.050781 C 122.4375 11.445312 123.886719 11.78125 125.25 11.898438 C 126.644531 12.019531 127.386719 11.867188 127.636719 11.738281 C 127.585938 11.671875 127.492188 11.566406 127.3125 11.414062 L 126.902344 11.066406 L 129.183594 8.335938 L 128.148438 7.871094 L 123.957031 9.40625 L 118.023438 6.691406 L 123.660156 1.1875 L 121.992188 1.121094 L 114.109375 4.9375 L 109.15625 2.714844 C 107.347656 1.902344 105.824219 1.828125 104.625 2.5 C 104.324219 2.671875 104.21875 2.820312 104.222656 2.875 C 104.222656 2.878906 104.257812 3.277344 105.648438 3.902344 Z M 105.648438 3.902344 "/>
<path style=" stroke:none;fill-rule:nonzero;fill:rgb(100%,100%,100%);fill-opacity:1;" d="M 3.121094 35.726562 L 0.945312 32.496094 L 1.628906 32.496094 L 3.441406 35.207031 L 3.15625 35.207031 L 4.980469 32.496094 L 5.644531 32.496094 L 3.449219 35.726562 Z M 3.003906 38 L 3.003906 35.304688 L 3.59375 35.304688 L 3.59375 38 Z M 3.003906 38 "/>
<path style=" stroke:none;fill-rule:nonzero;fill:rgb(100%,100%,100%);fill-opacity:1;" d="M 6.992188 38.078125 C 6.628906 38.078125 6.300781 37.992188 6 37.816406 C 5.707031 37.640625 5.476562 37.402344 5.300781 37.105469 C 5.128906 36.804688 5.042969 36.472656 5.042969 36.105469 C 5.042969 35.742188 5.128906 35.414062 5.300781 35.121094 C 5.476562 34.828125 5.707031 34.59375 6 34.425781 C 6.300781 34.246094 6.628906 34.160156 6.992188 34.160156 C 7.359375 34.160156 7.6875 34.246094 7.980469 34.414062 C 8.273438 34.585938 8.503906 34.820312 8.675781 35.121094 C 8.851562 35.414062 8.9375 35.742188 8.9375 36.105469 C 8.9375 36.476562 8.851562 36.8125 8.675781 37.113281 C 8.503906 37.40625 8.273438 37.640625 7.980469 37.816406 C 7.6875 37.992188 7.359375 38.078125 6.992188 38.078125 Z M 6.992188 37.535156 C 7.257812 37.535156 7.492188 37.472656 7.691406 37.351562 C 7.902344 37.230469 8.0625 37.058594 8.179688 36.839844 C 8.300781 36.621094 8.363281 36.375 8.363281 36.105469 C 8.363281 35.832031 8.300781 35.59375 8.179688 35.382812 C 8.0625 35.171875 7.902344 35.003906 7.691406 34.878906 C 7.492188 34.757812 7.257812 34.695312 6.992188 34.695312 C 6.730469 34.695312 6.496094 34.757812 6.289062 34.878906 C 6.082031 35.003906 5.917969 35.171875 5.800781 35.382812 C 5.683594 35.59375 5.625 35.832031 5.625 36.105469 C 5.625 36.382812 5.683594 36.628906 5.800781 36.847656 C 5.917969 37.0625 6.082031 37.230469 6.289062 37.351562 C 6.496094 37.472656 6.730469 37.535156 6.992188 37.535156 Z M 6.992188 37.535156 "/>
<path style=" stroke:none;fill-rule:nonzero;fill:rgb(100%,100%,100%);fill-opacity:1;" d="M 11.292969 38.078125 C 10.992188 38.078125 10.71875 38.011719 10.480469 37.871094 C 10.242188 37.726562 10.050781 37.535156 9.914062 37.289062 C 9.78125 37.042969 9.714844 36.753906 9.714844 36.425781 L 9.714844 34.238281 L 10.28125 34.238281 L 10.28125 36.398438 C 10.28125 36.628906 10.320312 36.828125 10.402344 37 C 10.484375 37.171875 10.605469 37.304688 10.761719 37.398438 C 10.914062 37.496094 11.09375 37.542969 11.292969 37.542969 C 11.609375 37.542969 11.855469 37.441406 12.035156 37.230469 C 12.222656 37.023438 12.316406 36.746094 12.316406 36.398438 L 12.316406 34.238281 L 12.875 34.238281 L 12.875 36.425781 C 12.875 36.75 12.808594 37.039062 12.675781 37.289062 C 12.542969 37.539062 12.355469 37.734375 12.117188 37.871094 C 11.878906 38.011719 11.601562 38.078125 11.292969 38.078125 Z M 11.292969 38.078125 "/>
<path style=" stroke:none;fill-rule:nonzero;fill:rgb(100%,100%,100%);fill-opacity:1;" d="M 13.902344 38 L 13.902344 34.238281 L 14.460938 34.238281 L 14.460938 38 Z M 14.460938 35.808594 L 14.226562 35.703125 C 14.226562 35.230469 14.34375 34.851562 14.570312 34.574219 C 14.804688 34.296875 15.125 34.160156 15.527344 34.160156 C 15.714844 34.160156 15.886719 34.195312 16.039062 34.265625 C 16.195312 34.328125 16.335938 34.433594 16.472656 34.574219 L 16.105469 34.96875 C 16.011719 34.867188 15.914062 34.792969 15.800781 34.75 C 15.695312 34.710938 15.570312 34.6875 15.433594 34.6875 C 15.144531 34.6875 14.910156 34.785156 14.730469 34.976562 C 14.550781 35.164062 14.460938 35.441406 14.460938 35.808594 Z M 14.460938 35.808594 "/>
<path style=" stroke:none;fill-rule:nonzero;fill:rgb(100%,100%,100%);fill-opacity:1;" d="M 19.46875 38 L 19.46875 32.65625 L 20.027344 32.65625 L 20.027344 38 Z M 18.519531 34.742188 L 18.519531 34.238281 L 20.96875 34.238281 L 20.96875 34.742188 Z M 18.519531 34.742188 "/>
<path style=" stroke:none;fill-rule:nonzero;fill:rgb(100%,100%,100%);fill-opacity:1;" d="M 21.722656 38 L 21.722656 34.238281 L 22.28125 34.238281 L 22.28125 38 Z M 22.28125 35.808594 L 22.050781 35.703125 C 22.050781 35.230469 22.164062 34.851562 22.394531 34.574219 C 22.628906 34.296875 22.949219 34.160156 23.351562 34.160156 C 23.539062 34.160156 23.707031 34.195312 23.863281 34.265625 C 24.015625 34.328125 24.160156 34.433594 24.292969 34.574219 L 23.925781 34.96875 C 23.835938 34.867188 23.734375 34.792969 23.625 34.75 C 23.515625 34.710938 23.394531 34.6875 23.257812 34.6875 C 22.96875 34.6875 22.734375 34.785156 22.554688 34.976562 C 22.371094 35.164062 22.28125 35.441406 22.28125 35.808594 Z M 22.28125 35.808594 "/>
<path style=" stroke:none;fill-rule:nonzero;fill:rgb(100%,100%,100%);fill-opacity:1;" d="M 26.355469 38.078125 C 26.054688 38.078125 25.78125 38.011719 25.542969 37.871094 C 25.304688 37.726562 25.113281 37.535156 24.976562 37.289062 C 24.84375 37.042969 24.777344 36.753906 24.777344 36.425781 L 24.777344 34.238281 L 25.34375 34.238281 L 25.34375 36.398438 C 25.34375 36.628906 25.382812 36.828125 25.460938 37 C 25.546875 37.171875 25.667969 37.304688 25.820312 37.398438 C 25.976562 37.496094 26.152344 37.542969 26.355469 37.542969 C 26.671875 37.542969 26.917969 37.441406 27.097656 37.230469 C 27.285156 37.023438 27.378906 36.746094 27.378906 36.398438 L 27.378906 34.238281 L 27.9375 34.238281 L 27.9375 36.425781 C 27.9375 36.75 27.871094 37.039062 27.738281 37.289062 C 27.605469 37.539062 27.417969 37.734375 27.179688 37.871094 C 26.9375 38.011719 26.664062 38.078125 26.355469 38.078125 Z M 26.355469 38.078125 "/>
<path style=" stroke:none;fill-rule:nonzero;fill:rgb(100%,100%,100%);fill-opacity:1;" d="M 30.113281 38.078125 C 29.910156 38.078125 29.714844 38.054688 29.527344 38 C 29.34375 37.941406 29.171875 37.859375 29.019531 37.761719 C 28.871094 37.660156 28.738281 37.539062 28.628906 37.398438 L 28.988281 37.03125 C 29.136719 37.214844 29.304688 37.347656 29.488281 37.441406 C 29.679688 37.523438 29.894531 37.566406 30.128906 37.566406 C 30.378906 37.566406 30.570312 37.519531 30.710938 37.425781 C 30.855469 37.328125 30.925781 37.195312 30.925781 37.023438 C 30.925781 36.863281 30.875 36.738281 30.773438 36.648438 C 30.671875 36.558594 30.542969 36.484375 30.382812 36.433594 C 30.230469 36.378906 30.0625 36.328125 29.886719 36.28125 C 29.710938 36.226562 29.546875 36.164062 29.386719 36.089844 C 29.226562 36.007812 29.09375 35.898438 28.996094 35.761719 C 28.898438 35.621094 28.851562 35.441406 28.851562 35.214844 C 28.851562 35.003906 28.902344 34.820312 29.003906 34.664062 C 29.109375 34.503906 29.257812 34.382812 29.449219 34.296875 C 29.644531 34.207031 29.878906 34.160156 30.144531 34.160156 C 30.425781 34.160156 30.679688 34.210938 30.910156 34.3125 C 31.136719 34.414062 31.320312 34.5625 31.460938 34.761719 L 31.101562 35.121094 C 30.988281 34.976562 30.847656 34.867188 30.679688 34.792969 C 30.511719 34.710938 30.328125 34.671875 30.121094 34.671875 C 29.878906 34.671875 29.695312 34.71875 29.570312 34.816406 C 29.445312 34.90625 29.386719 35.027344 29.386719 35.175781 C 29.386719 35.320312 29.4375 35.433594 29.539062 35.519531 C 29.636719 35.601562 29.765625 35.667969 29.921875 35.71875 C 30.078125 35.769531 30.246094 35.820312 30.421875 35.871094 C 30.597656 35.921875 30.765625 35.988281 30.925781 36.070312 C 31.085938 36.152344 31.214844 36.265625 31.308594 36.40625 C 31.410156 36.546875 31.460938 36.734375 31.460938 36.976562 C 31.460938 37.3125 31.339844 37.582031 31.09375 37.785156 C 30.855469 37.980469 30.527344 38.078125 30.113281 38.078125 Z M 30.113281 38.078125 "/>
<path style=" stroke:none;fill-rule:nonzero;fill:rgb(100%,100%,100%);fill-opacity:1;" d="M 32.910156 38 L 32.910156 32.65625 L 33.46875 32.65625 L 33.46875 38 Z M 31.960938 34.742188 L 31.960938 34.238281 L 34.410156 34.238281 L 34.410156 34.742188 Z M 31.960938 34.742188 "/>
<path style=" stroke:none;fill-rule:nonzero;fill:rgb(100%,100%,100%);fill-opacity:1;" d="M 36.765625 38.078125 C 36.386719 38.078125 36.046875 37.996094 35.75 37.824219 C 35.453125 37.652344 35.214844 37.417969 35.039062 37.121094 C 34.871094 36.820312 34.785156 36.484375 34.785156 36.113281 C 34.785156 35.742188 34.871094 35.414062 35.039062 35.121094 C 35.210938 34.820312 35.441406 34.585938 35.734375 34.414062 C 36.027344 34.246094 36.355469 34.160156 36.714844 34.160156 C 37.054688 34.160156 37.355469 34.238281 37.617188 34.390625 C 37.882812 34.546875 38.089844 34.761719 38.238281 35.039062 C 38.394531 35.3125 38.472656 35.625 38.472656 35.984375 C 38.472656 36.027344 38.46875 36.078125 38.464844 36.136719 C 38.457031 36.1875 38.449219 36.253906 38.433594 36.328125 L 35.183594 36.328125 L 35.183594 35.847656 L 38.128906 35.847656 L 37.929688 36.023438 C 37.933594 35.746094 37.886719 35.507812 37.785156 35.3125 C 37.691406 35.109375 37.546875 34.953125 37.363281 34.847656 C 37.179688 34.734375 36.960938 34.679688 36.699219 34.679688 C 36.429688 34.679688 36.191406 34.738281 35.988281 34.855469 C 35.789062 34.972656 35.628906 35.136719 35.511719 35.351562 C 35.398438 35.558594 35.34375 35.808594 35.34375 36.097656 C 35.34375 36.382812 35.402344 36.636719 35.519531 36.855469 C 35.640625 37.074219 35.808594 37.246094 36.023438 37.367188 C 36.238281 37.492188 36.488281 37.550781 36.773438 37.550781 C 37 37.550781 37.210938 37.511719 37.402344 37.433594 C 37.59375 37.347656 37.757812 37.222656 37.890625 37.054688 L 38.25 37.425781 C 38.074219 37.632812 37.855469 37.792969 37.59375 37.910156 C 37.339844 38.023438 37.0625 38.078125 36.765625 38.078125 Z M 36.765625 38.078125 "/>
<path style=" stroke:none;fill-rule:nonzero;fill:rgb(100%,100%,100%);fill-opacity:1;" d="M 40.90625 38.078125 C 40.558594 38.078125 40.25 37.996094 39.972656 37.824219 C 39.695312 37.652344 39.476562 37.421875 39.308594 37.128906 C 39.152344 36.828125 39.070312 36.496094 39.070312 36.128906 C 39.070312 35.753906 39.152344 35.421875 39.308594 35.128906 C 39.476562 34.828125 39.695312 34.59375 39.972656 34.425781 C 40.25 34.246094 40.558594 34.160156 40.90625 34.160156 C 41.1875 34.160156 41.445312 34.214844 41.671875 34.328125 C 41.902344 34.441406 42.089844 34.601562 42.238281 34.808594 C 42.394531 35.011719 42.484375 35.25 42.511719 35.527344 L 42.511719 36.703125 C 42.476562 36.976562 42.386719 37.214844 42.238281 37.425781 C 42.09375 37.625 41.910156 37.785156 41.679688 37.902344 C 41.453125 38.019531 41.195312 38.078125 40.90625 38.078125 Z M 41 37.542969 C 41.261719 37.542969 41.492188 37.484375 41.6875 37.367188 C 41.886719 37.246094 42.039062 37.078125 42.152344 36.863281 C 42.261719 36.644531 42.320312 36.398438 42.320312 36.121094 C 42.320312 35.835938 42.261719 35.589844 42.144531 35.375 C 42.03125 35.164062 41.878906 34.996094 41.679688 34.871094 C 41.484375 34.75 41.253906 34.6875 40.992188 34.6875 C 40.734375 34.6875 40.5 34.75 40.300781 34.871094 C 40.097656 34.996094 39.9375 35.164062 39.820312 35.382812 C 39.710938 35.597656 39.652344 35.84375 39.652344 36.121094 C 39.652344 36.398438 39.710938 36.644531 39.820312 36.863281 C 39.9375 37.078125 40.097656 37.246094 40.300781 37.367188 C 40.507812 37.484375 40.742188 37.542969 41 37.542969 Z M 42.84375 38 L 42.285156 38 L 42.285156 36.992188 L 42.398438 36.0625 L 42.285156 35.160156 L 42.285156 32.335938 L 42.84375 32.335938 Z M 42.84375 38 "/>
<path style=" stroke:none;fill-rule:nonzero;fill:rgb(100%,100%,100%);fill-opacity:1;" d="M 45.660156 38 L 45.660156 32.335938 L 46.21875 32.335938 L 46.21875 38 Z M 45.660156 38 "/>
<path style=" stroke:none;fill-rule:nonzero;fill:rgb(100%,100%,100%);fill-opacity:1;" d="M 48.820312 38.078125 C 48.515625 38.078125 48.246094 38.011719 48.003906 37.871094 C 47.765625 37.726562 47.578125 37.535156 47.4375 37.289062 C 47.304688 37.042969 47.238281 36.753906 47.238281 36.425781 L 47.238281 34.238281 L 47.804688 34.238281 L 47.804688 36.398438 C 47.804688 36.628906 47.847656 36.828125 47.925781 37 C 48.011719 37.171875 48.132812 37.304688 48.285156 37.398438 C 48.4375 37.496094 48.617188 37.542969 48.820312 37.542969 C 49.132812 37.542969 49.382812 37.441406 49.5625 37.230469 C 49.75 37.023438 49.839844 36.746094 49.839844 36.398438 L 49.839844 34.238281 L 50.398438 34.238281 L 50.398438 36.425781 C 50.398438 36.75 50.332031 37.039062 50.199219 37.289062 C 50.066406 37.539062 49.882812 37.734375 49.640625 37.871094 C 49.402344 38.011719 49.128906 38.078125 48.820312 38.078125 Z M 48.820312 38.078125 "/>
<path style=" stroke:none;fill-rule:nonzero;fill:rgb(100%,100%,100%);fill-opacity:1;" d="M 53.980469 38 L 52.726562 36.289062 L 52.605469 36.191406 L 51.097656 34.238281 L 51.792969 34.238281 L 52.957031 35.777344 L 53.070312 35.871094 L 54.667969 38 Z M 51.035156 38 L 52.617188 35.9375 L 52.925781 36.351562 L 51.699219 38 Z M 53.109375 36.183594 L 52.789062 35.777344 L 53.941406 34.238281 L 54.601562 34.238281 Z M 53.109375 36.183594 "/>
<path style=" stroke:none;fill-rule:nonzero;fill:rgb(100%,100%,100%);fill-opacity:1;" d="M 56.875 38.078125 C 56.574219 38.078125 56.300781 38.011719 56.0625 37.871094 C 55.824219 37.726562 55.632812 37.535156 55.496094 37.289062 C 55.363281 37.042969 55.296875 36.753906 55.296875 36.425781 L 55.296875 34.238281 L 55.863281 34.238281 L 55.863281 36.398438 C 55.863281 36.628906 55.902344 36.828125 55.984375 37 C 56.066406 37.171875 56.1875 37.304688 56.34375 37.398438 C 56.496094 37.496094 56.675781 37.542969 56.875 37.542969 C 57.191406 37.542969 57.4375 37.441406 57.617188 37.230469 C 57.804688 37.023438 57.898438 36.746094 57.898438 36.398438 L 57.898438 34.238281 L 58.457031 34.238281 L 58.457031 36.425781 C 58.457031 36.75 58.390625 37.039062 58.257812 37.289062 C 58.125 37.539062 57.9375 37.734375 57.699219 37.871094 C 57.460938 38.011719 57.183594 38.078125 56.875 38.078125 Z M 56.875 38.078125 "/>
<path style=" stroke:none;fill-rule:nonzero;fill:rgb(100%,100%,100%);fill-opacity:1;" d="M 59.484375 38 L 59.484375 34.238281 L 60.042969 34.238281 L 60.042969 38 Z M 60.042969 35.808594 L 59.808594 35.703125 C 59.808594 35.230469 59.925781 34.851562 60.152344 34.574219 C 60.386719 34.296875 60.707031 34.160156 61.109375 34.160156 C 61.296875 34.160156 61.46875 34.195312 61.621094 34.265625 C 61.777344 34.328125 61.917969 34.433594 62.050781 34.574219 L 61.6875 34.96875 C 61.59375 34.867188 61.492188 34.792969 61.382812 34.75 C 61.277344 34.710938 61.152344 34.6875 61.015625 34.6875 C 60.726562 34.6875 60.492188 34.785156 60.3125 34.976562 C 60.132812 35.164062 60.042969 35.441406 60.042969 35.808594 Z M 60.042969 35.808594 "/>
<path style=" stroke:none;fill-rule:nonzero;fill:rgb(100%,100%,100%);fill-opacity:1;" d="M 63.796875 38.015625 L 62.15625 34.238281 L 62.769531 34.238281 L 64.09375 37.390625 L 63.863281 37.390625 L 65.257812 34.238281 L 65.878906 34.238281 L 64.117188 38.015625 Z M 62.777344 39.582031 L 63.804688 37.449219 L 64.117188 38.015625 L 63.390625 39.582031 Z M 62.777344 39.582031 "/>
<path style=" stroke:none;fill-rule:nonzero;fill:rgb(100%,100%,100%);fill-opacity:1;" d="M 68.878906 38 L 68.878906 32.65625 L 69.4375 32.65625 L 69.4375 38 Z M 67.929688 34.742188 L 67.929688 34.238281 L 70.378906 34.238281 L 70.378906 34.742188 Z M 67.929688 34.742188 "/>
<path style=" stroke:none;fill-rule:nonzero;fill:rgb(100%,100%,100%);fill-opacity:1;" d="M 71.132812 38 L 71.132812 34.238281 L 71.691406 34.238281 L 71.691406 38 Z M 71.691406 35.808594 L 71.457031 35.703125 C 71.457031 35.230469 71.574219 34.851562 71.800781 34.574219 C 72.035156 34.296875 72.355469 34.160156 72.757812 34.160156 C 72.945312 34.160156 73.117188 34.195312 73.269531 34.265625 C 73.425781 34.328125 73.566406 34.433594 73.699219 34.574219 L 73.335938 34.96875 C 73.242188 34.867188 73.140625 34.792969 73.03125 34.75 C 72.925781 34.710938 72.800781 34.6875 72.664062 34.6875 C 72.375 34.6875 72.140625 34.785156 71.960938 34.976562 C 71.78125 35.164062 71.691406 35.441406 71.691406 35.808594 Z M 71.691406 35.808594 "/>
<path style=" stroke:none;fill-rule:nonzero;fill:rgb(100%,100%,100%);fill-opacity:1;" d="M 75.773438 38.078125 C 75.417969 38.078125 75.097656 37.996094 74.816406 37.824219 C 74.535156 37.648438 74.3125 37.414062 74.148438 37.121094 C 73.988281 36.828125 73.90625 36.496094 73.90625 36.128906 C 73.90625 35.753906 73.988281 35.421875 74.148438 35.128906 C 74.3125 34.828125 74.535156 34.59375 74.816406 34.425781 C 75.097656 34.246094 75.417969 34.160156 75.765625 34.160156 C 76.054688 34.160156 76.308594 34.21875 76.535156 34.335938 C 76.761719 34.449219 76.945312 34.609375 77.082031 34.816406 C 77.226562 35.019531 77.316406 35.257812 77.347656 35.527344 L 77.347656 36.703125 C 77.316406 36.976562 77.226562 37.214844 77.082031 37.425781 C 76.945312 37.632812 76.761719 37.792969 76.535156 37.910156 C 76.308594 38.023438 76.058594 38.078125 75.773438 38.078125 Z M 75.863281 37.542969 C 76.25 37.542969 76.5625 37.414062 76.796875 37.152344 C 77.035156 36.890625 77.15625 36.546875 77.15625 36.121094 C 77.15625 35.835938 77.101562 35.589844 76.988281 35.375 C 76.882812 35.15625 76.730469 34.988281 76.535156 34.871094 C 76.339844 34.75 76.117188 34.6875 75.855469 34.6875 C 75.589844 34.6875 75.351562 34.75 75.144531 34.871094 C 74.941406 34.996094 74.78125 35.164062 74.65625 35.382812 C 74.539062 35.597656 74.484375 35.84375 74.484375 36.121094 C 74.484375 36.398438 74.539062 36.644531 74.65625 36.855469 C 74.78125 37.070312 74.945312 37.238281 75.152344 37.359375 C 75.359375 37.484375 75.597656 37.542969 75.863281 37.542969 Z M 77.125 38 L 77.125 36.992188 L 77.234375 36.0625 L 77.125 35.160156 L 77.125 34.238281 L 77.683594 34.238281 L 77.683594 38 Z M 77.125 38 "/>
<path style=" stroke:none;fill-rule:nonzero;fill:rgb(100%,100%,100%);fill-opacity:1;" d="M 80.109375 38 L 78.375 34.238281 L 79 34.238281 L 80.457031 37.527344 L 80.109375 37.527344 L 81.574219 34.238281 L 82.183594 34.238281 L 80.433594 38 Z M 80.109375 38 "/>
<path style=" stroke:none;fill-rule:nonzero;fill:rgb(100%,100%,100%);fill-opacity:1;" d="M 84.433594 38.078125 C 84.058594 38.078125 83.71875 37.996094 83.421875 37.824219 C 83.125 37.652344 82.886719 37.417969 82.710938 37.121094 C 82.539062 36.820312 82.457031 36.484375 82.457031 36.113281 C 82.457031 35.742188 82.539062 35.414062 82.710938 35.121094 C 82.882812 34.820312 83.113281 34.585938 83.40625 34.414062 C 83.699219 34.246094 84.023438 34.160156 84.386719 34.160156 C 84.726562 34.160156 85.027344 34.238281 85.289062 34.390625 C 85.554688 34.546875 85.761719 34.761719 85.910156 35.039062 C 86.066406 35.3125 86.140625 35.625 86.140625 35.984375 C 86.140625 36.027344 86.140625 36.078125 86.132812 36.136719 C 86.128906 36.1875 86.117188 36.253906 86.101562 36.328125 L 82.855469 36.328125 L 82.855469 35.847656 L 85.800781 35.847656 L 85.597656 36.023438 C 85.605469 35.746094 85.558594 35.507812 85.457031 35.3125 C 85.359375 35.109375 85.21875 34.953125 85.03125 34.847656 C 84.851562 34.734375 84.632812 34.679688 84.371094 34.679688 C 84.097656 34.679688 83.863281 34.738281 83.660156 34.855469 C 83.457031 34.972656 83.296875 35.136719 83.183594 35.351562 C 83.070312 35.558594 83.015625 35.808594 83.015625 36.097656 C 83.015625 36.382812 83.074219 36.636719 83.191406 36.855469 C 83.3125 37.074219 83.480469 37.246094 83.691406 37.367188 C 83.910156 37.492188 84.160156 37.550781 84.441406 37.550781 C 84.671875 37.550781 84.882812 37.511719 85.074219 37.433594 C 85.265625 37.347656 85.425781 37.222656 85.558594 37.054688 L 85.917969 37.425781 C 85.742188 37.632812 85.523438 37.792969 85.265625 37.910156 C 85.007812 38.023438 84.730469 38.078125 84.433594 38.078125 Z M 84.433594 38.078125 "/>
<path style=" stroke:none;fill-rule:nonzero;fill:rgb(100%,100%,100%);fill-opacity:1;" d="M 86.980469 38 L 86.980469 32.335938 L 87.539062 32.335938 L 87.539062 38 Z M 86.980469 38 "/>
<path style=" stroke:none;fill-rule:nonzero;fill:rgb(100%,100%,100%);fill-opacity:1;" d="M 91.980469 38.078125 C 91.625 38.078125 91.304688 37.996094 91.023438 37.824219 C 90.742188 37.648438 90.519531 37.414062 90.355469 37.121094 C 90.195312 36.828125 90.113281 36.496094 90.113281 36.128906 C 90.113281 35.753906 90.195312 35.421875 90.355469 35.128906 C 90.519531 34.828125 90.742188 34.59375 91.023438 34.425781 C 91.304688 34.246094 91.621094 34.160156 91.972656 34.160156 C 92.261719 34.160156 92.515625 34.21875 92.738281 34.335938 C 92.96875 34.449219 93.152344 34.609375 93.289062 34.816406 C 93.433594 35.019531 93.523438 35.257812 93.554688 35.527344 L 93.554688 36.703125 C 93.523438 36.976562 93.433594 37.214844 93.289062 37.425781 C 93.152344 37.632812 92.96875 37.792969 92.738281 37.910156 C 92.515625 38.023438 92.265625 38.078125 91.980469 38.078125 Z M 92.070312 37.542969 C 92.457031 37.542969 92.769531 37.414062 93.003906 37.152344 C 93.242188 36.890625 93.363281 36.546875 93.363281 36.121094 C 93.363281 35.835938 93.304688 35.589844 93.195312 35.375 C 93.089844 35.15625 92.9375 34.988281 92.738281 34.871094 C 92.546875 34.75 92.324219 34.6875 92.0625 34.6875 C 91.796875 34.6875 91.558594 34.75 91.351562 34.871094 C 91.148438 34.996094 90.988281 35.164062 90.863281 35.382812 C 90.746094 35.597656 90.6875 35.84375 90.6875 36.121094 C 90.6875 36.398438 90.746094 36.644531 90.863281 36.855469 C 90.988281 37.070312 91.152344 37.238281 91.359375 37.359375 C 91.566406 37.484375 91.804688 37.542969 92.070312 37.542969 Z M 93.332031 38 L 93.332031 36.992188 L 93.441406 36.0625 L 93.332031 35.160156 L 93.332031 34.238281 L 93.890625 34.238281 L 93.890625 38 Z M 93.332031 38 "/>
<path style=" stroke:none;fill-rule:nonzero;fill:rgb(100%,100%,100%);fill-opacity:1;" d="M 95.003906 38 L 95.003906 32.335938 L 95.5625 32.335938 L 95.5625 38 Z M 95.003906 38 "/>
<path style=" stroke:none;fill-rule:nonzero;fill:rgb(100%,100%,100%);fill-opacity:1;" d="M 96.679688 38 L 96.679688 32.335938 L 97.238281 32.335938 L 97.238281 38 Z M 96.679688 38 "/>
<path style=" stroke:none;fill-rule:nonzero;fill:rgb(100%,100%,100%);fill-opacity:1;" d="M 98.355469 38 L 98.355469 34.238281 L 98.921875 34.238281 L 98.921875 38 Z M 98.636719 33.425781 C 98.527344 33.425781 98.4375 33.386719 98.363281 33.3125 C 98.289062 33.230469 98.253906 33.136719 98.253906 33.03125 C 98.253906 32.921875 98.289062 32.828125 98.363281 32.75 C 98.4375 32.675781 98.527344 32.640625 98.636719 32.640625 C 98.753906 32.640625 98.84375 32.675781 98.914062 32.75 C 98.988281 32.828125 99.027344 32.921875 99.027344 33.03125 C 99.027344 33.136719 98.988281 33.230469 98.914062 33.3125 C 98.84375 33.386719 98.753906 33.425781 98.636719 33.425781 Z M 98.636719 33.425781 "/>
<path style=" stroke:none;fill-rule:nonzero;fill:rgb(100%,100%,100%);fill-opacity:1;" d="M 101.667969 38.078125 C 101.308594 38.078125 100.992188 37.996094 100.710938 37.824219 C 100.425781 37.648438 100.203125 37.414062 100.039062 37.121094 C 99.878906 36.828125 99.800781 36.496094 99.800781 36.128906 C 99.800781 35.753906 99.878906 35.421875 100.039062 35.128906 C 100.203125 34.828125 100.425781 34.59375 100.710938 34.425781 C 100.992188 34.246094 101.308594 34.160156 101.660156 34.160156 C 101.945312 34.160156 102.203125 34.21875 102.425781 34.335938 C 102.652344 34.449219 102.835938 34.609375 102.976562 34.816406 C 103.117188 35.019531 103.207031 35.257812 103.238281 35.527344 L 103.238281 36.703125 C 103.207031 36.976562 103.117188 37.214844 102.976562 37.425781 C 102.835938 37.632812 102.652344 37.792969 102.425781 37.910156 C 102.203125 38.023438 101.949219 38.078125 101.667969 38.078125 Z M 101.753906 37.542969 C 102.144531 37.542969 102.453125 37.414062 102.6875 37.152344 C 102.925781 36.890625 103.046875 36.546875 103.046875 36.121094 C 103.046875 35.835938 102.992188 35.589844 102.878906 35.375 C 102.773438 35.15625 102.621094 34.988281 102.425781 34.871094 C 102.234375 34.75 102.007812 34.6875 101.746094 34.6875 C 101.480469 34.6875 101.242188 34.75 101.035156 34.871094 C 100.835938 34.996094 100.671875 35.164062 100.550781 35.382812 C 100.433594 35.597656 100.375 35.84375 100.375 36.121094 C 100.375 36.398438 100.433594 36.644531 100.550781 36.855469 C 100.671875 37.070312 100.835938 37.238281 101.042969 37.359375 C 101.25 37.484375 101.488281 37.542969 101.753906 37.542969 Z M 103.015625 38 L 103.015625 36.992188 L 103.125 36.0625 L 103.015625 35.160156 L 103.015625 34.238281 L 103.574219 34.238281 L 103.574219 38 Z M 103.015625 38 "/>
<path style=" stroke:none;fill-rule:nonzero;fill:rgb(100%,100%,100%);fill-opacity:1;" d="M 107.421875 38 L 107.421875 35.792969 C 107.421875 35.460938 107.320312 35.195312 107.125 34.992188 C 106.933594 34.785156 106.679688 34.679688 106.359375 34.679688 C 106.140625 34.679688 105.949219 34.726562 105.785156 34.824219 C 105.621094 34.921875 105.488281 35.050781 105.394531 35.214844 C 105.296875 35.382812 105.25 35.570312 105.25 35.785156 L 104.996094 35.640625 C 104.996094 35.355469 105.0625 35.105469 105.195312 34.878906 C 105.328125 34.65625 105.503906 34.480469 105.726562 34.351562 C 105.957031 34.222656 106.21875 34.160156 106.511719 34.160156 C 106.796875 34.160156 107.054688 34.230469 107.277344 34.367188 C 107.5 34.507812 107.671875 34.691406 107.796875 34.929688 C 107.921875 35.164062 107.988281 35.417969 107.988281 35.695312 L 107.988281 38 Z M 104.691406 38 L 104.691406 34.238281 L 105.25 34.238281 L 105.25 38 Z M 104.691406 38 "/>
<path style=" stroke:none;fill-rule:nonzero;fill:rgb(100%,100%,100%);fill-opacity:1;" d="M 110.722656 38.078125 C 110.355469 38.078125 110.023438 37.996094 109.726562 37.824219 C 109.433594 37.648438 109.199219 37.410156 109.023438 37.113281 C 108.851562 36.8125 108.769531 36.480469 108.769531 36.113281 C 108.769531 35.742188 108.851562 35.414062 109.023438 35.121094 C 109.199219 34.820312 109.433594 34.585938 109.726562 34.414062 C 110.023438 34.246094 110.355469 34.160156 110.722656 34.160156 C 111.003906 34.160156 111.269531 34.214844 111.511719 34.320312 C 111.757812 34.425781 111.964844 34.574219 112.136719 34.769531 L 111.769531 35.144531 C 111.640625 35 111.484375 34.890625 111.304688 34.816406 C 111.125 34.734375 110.929688 34.695312 110.722656 34.695312 C 110.457031 34.695312 110.21875 34.757812 110.011719 34.878906 C 109.804688 35.003906 109.644531 35.171875 109.527344 35.382812 C 109.410156 35.59375 109.351562 35.835938 109.351562 36.113281 C 109.351562 36.382812 109.410156 36.628906 109.527344 36.847656 C 109.644531 37.0625 109.804688 37.230469 110.011719 37.351562 C 110.21875 37.472656 110.457031 37.535156 110.722656 37.535156 C 110.9375 37.535156 111.132812 37.5 111.3125 37.425781 C 111.496094 37.34375 111.648438 37.230469 111.777344 37.089844 L 112.152344 37.464844 C 111.976562 37.660156 111.761719 37.8125 111.511719 37.921875 C 111.269531 38.027344 111.003906 38.078125 110.722656 38.078125 Z M 110.722656 38.078125 "/>
<path style=" stroke:none;fill-rule:nonzero;fill:rgb(100%,100%,100%);fill-opacity:1;" d="M 114.582031 38.078125 C 114.203125 38.078125 113.863281 37.996094 113.566406 37.824219 C 113.269531 37.652344 113.03125 37.417969 112.855469 37.121094 C 112.6875 36.820312 112.601562 36.484375 112.601562 36.113281 C 112.601562 35.742188 112.6875 35.414062 112.855469 35.121094 C 113.027344 34.820312 113.257812 34.585938 113.550781 34.414062 C 113.84375 34.246094 114.171875 34.160156 114.53125 34.160156 C 114.871094 34.160156 115.171875 34.238281 115.433594 34.390625 C 115.699219 34.546875 115.90625 34.761719 116.058594 35.039062 C 116.210938 35.3125 116.289062 35.625 116.289062 35.984375 C 116.289062 36.027344 116.285156 36.078125 116.28125 36.136719 C 116.273438 36.1875 116.265625 36.253906 116.25 36.328125 L 113 36.328125 L 113 35.847656 L 115.945312 35.847656 L 115.746094 36.023438 C 115.75 35.746094 115.703125 35.507812 115.601562 35.3125 C 115.507812 35.109375 115.363281 34.953125 115.179688 34.847656 C 115 34.734375 114.777344 34.679688 114.515625 34.679688 C 114.246094 34.679688 114.007812 34.738281 113.804688 34.855469 C 113.605469 34.972656 113.445312 35.136719 113.328125 35.351562 C 113.214844 35.558594 113.160156 35.808594 113.160156 36.097656 C 113.160156 36.382812 113.21875 36.636719 113.335938 36.855469 C 113.457031 37.074219 113.625 37.246094 113.839844 37.367188 C 114.054688 37.492188 114.304688 37.550781 114.589844 37.550781 C 114.816406 37.550781 115.027344 37.511719 115.21875 37.433594 C 115.410156 37.347656 115.574219 37.222656 115.707031 37.054688 L 116.066406 37.425781 C 115.890625 37.632812 115.671875 37.792969 115.410156 37.910156 C 115.15625 38.023438 114.878906 38.078125 114.582031 38.078125 Z M 114.582031 38.078125 "/>
</g>
</svg>
