<svg width="53" height="41" viewBox="0 0 53 41" fill="none" xmlns="http://www.w3.org/2000/svg">
<g clip-path="url(#clip0_3244_940)">
<path d="M9.51016 40.428V37.736C9.52461 37.5105 9.49112 37.2844 9.41189 37.0728C9.33266 36.8611 9.20948 36.6686 9.05048 36.508C8.89147 36.3474 8.70024 36.2223 8.48939 36.1409C8.27853 36.0596 8.05284 36.0238 7.82716 36.036C7.53069 36.016 7.23432 36.0763 6.96916 36.2103C6.70399 36.3444 6.47981 36.5474 6.32016 36.798C6.1737 36.5554 5.9647 36.3567 5.71504 36.2226C5.46539 36.0886 5.18428 36.0241 4.90116 36.036C4.6543 36.0233 4.40843 36.0755 4.18805 36.1875C3.96767 36.2994 3.78048 36.4672 3.64516 36.674V36.145H2.71216V40.433H3.65316V38.073C3.63228 37.9262 3.64431 37.7766 3.68838 37.635C3.73244 37.4934 3.80744 37.3634 3.90795 37.2544C4.00845 37.1454 4.13194 37.0601 4.26947 37.0047C4.40701 36.9493 4.55515 36.9251 4.70316 36.934C5.32116 36.934 5.63616 37.334 5.63616 38.064V40.446H6.57916V38.068C6.55996 37.9216 6.57314 37.7727 6.61776 37.632C6.66238 37.4912 6.73736 37.3619 6.83741 37.2533C6.93745 37.1447 7.06012 37.0593 7.19675 37.0033C7.33338 36.9473 7.48065 36.9219 7.62816 36.929C8.26516 36.929 8.57116 37.329 8.57116 38.059V40.446L9.51016 40.428ZM23.4492 36.14H21.9142V34.84H20.9732V36.14H20.1192V36.996H20.9912V38.966C20.9912 39.966 21.3772 40.554 22.4812 40.554C22.8932 40.556 23.2972 40.441 23.6462 40.222L23.3782 39.422C23.1282 39.572 22.8442 39.656 22.5522 39.666C22.1032 39.666 21.9322 39.379 21.9322 38.948V36.996H23.4592L23.4492 36.14ZM31.4092 36.032C31.1816 36.0252 30.9564 36.08 30.7573 36.1905C30.5582 36.301 30.3927 36.4632 30.2782 36.66V36.14H29.3532V40.428H30.2872V38.028C30.2872 37.319 30.5922 36.928 31.1872 36.928C31.3872 36.926 31.5842 36.963 31.7702 37.036L32.0572 36.136C31.8444 36.0598 31.6202 36.0206 31.3942 36.02L31.4092 36.032ZM19.3762 36.481C18.8483 36.1666 18.2412 36.0107 17.6272 36.032C16.5412 36.032 15.8322 36.552 15.8322 37.405C15.8322 38.105 16.3522 38.535 17.3122 38.669L17.7612 38.732C18.2732 38.805 18.5152 38.939 18.5152 39.181C18.5152 39.513 18.1742 39.702 17.5372 39.702C17.0246 39.7164 16.5221 39.5583 16.1102 39.253L15.6612 39.979C16.205 40.3587 16.8562 40.5539 17.5192 40.536C18.7572 40.536 19.4752 39.953 19.4752 39.136C19.4752 38.319 18.9102 37.987 17.9752 37.853L17.5262 37.79C17.1212 37.735 16.7982 37.654 16.7982 37.367C16.7982 37.08 17.1032 36.867 17.6152 36.867C18.0882 36.872 18.5512 36.999 18.9612 37.235L19.3762 36.481ZM44.3712 36.032C44.1436 36.0254 43.9185 36.0803 43.7195 36.1908C43.5204 36.3013 43.3549 36.4634 43.2402 36.66V36.14H42.3172V40.428H43.2502V38.028C43.2502 37.319 43.5552 36.928 44.1502 36.928C44.3502 36.926 44.5482 36.962 44.7332 37.036L45.0202 36.136C44.8074 36.0598 44.5832 36.0206 44.3572 36.02L44.3712 36.032ZM32.3472 38.275C32.3362 38.5594 32.3815 38.8432 32.4804 39.1101C32.5793 39.377 32.7299 39.6218 32.9236 39.8303C33.1173 40.0389 33.3503 40.2072 33.6092 40.3255C33.868 40.4439 34.1477 40.51 34.4322 40.52H34.6322C35.193 40.5477 35.7439 40.3652 36.1772 40.008L35.7282 39.254C35.4052 39.5 35.0122 39.634 34.6062 39.64C34.2591 39.6152 33.9343 39.4598 33.6972 39.2052C33.4601 38.9505 33.3282 38.6155 33.3282 38.2675C33.3282 37.9196 33.4601 37.5845 33.6972 37.3299C33.9343 37.0752 34.2591 36.9198 34.6062 36.895C35.0122 36.898 35.4062 37.034 35.7282 37.281L36.1772 36.527C35.7447 36.1685 35.1932 35.9857 34.6322 36.015C34.0586 35.9825 33.4957 36.1792 33.0672 36.5618C32.6387 36.9444 32.3797 37.4815 32.3472 38.055V38.275ZM41.0862 38.275V36.14H40.1532V36.66C39.9946 36.4562 39.7899 36.293 39.5558 36.1838C39.3218 36.0746 39.0652 36.0226 38.8072 36.032C38.2203 36.0444 37.6617 36.2862 37.2511 36.7056C36.8405 37.125 36.6105 37.6886 36.6105 38.2755C36.6105 38.8625 36.8405 39.426 37.2511 39.8454C37.6617 40.2648 38.2203 40.5066 38.8072 40.519C39.0652 40.5284 39.3218 40.4764 39.5558 40.3672C39.7899 40.2581 39.9946 40.0948 40.1532 39.891V40.411H41.0862V38.275ZM37.6132 38.275C37.6263 37.9348 37.7723 37.6133 38.0199 37.3796C38.2674 37.1459 38.5968 37.0187 38.9372 37.0253C39.2776 37.0318 39.6018 37.1716 39.8402 37.4147C40.0786 37.6577 40.2122 37.9846 40.2122 38.325C40.2122 38.6655 40.0786 38.9923 39.8402 39.2354C39.6018 39.4784 39.2776 39.6182 38.9372 39.6248C38.5968 39.6313 38.2674 39.5041 38.0199 39.2704C37.7723 39.0367 37.6263 38.7152 37.6132 38.375C37.6102 38.343 37.6122 38.309 37.6132 38.275ZM26.3532 36.032C26.0555 36.0315 25.7607 36.0902 25.486 36.2047C25.2112 36.3193 24.962 36.4873 24.7528 36.6991C24.5436 36.9108 24.3787 37.1621 24.2675 37.4382C24.1564 37.7144 24.1013 38.0099 24.1055 38.3075C24.1097 38.6051 24.173 38.899 24.2919 39.1719C24.4107 39.4448 24.5827 39.6913 24.7977 39.8972C25.0127 40.103 25.2666 40.264 25.5444 40.3707C25.8223 40.4775 26.1186 40.5279 26.4162 40.519C27.0614 40.5523 27.696 40.3441 28.1962 39.935L27.7472 39.244C27.3929 39.5287 26.9536 39.6868 26.4992 39.693C26.1909 39.7192 25.8845 39.6244 25.645 39.4286C25.4055 39.2327 25.2517 38.9513 25.2162 38.644H28.4022V38.284C28.4309 37.9998 28.3996 37.7126 28.3101 37.4413C28.2207 37.1699 28.0753 36.9204 27.8832 36.7089C27.6911 36.4974 27.4567 36.3286 27.1952 36.2135C26.9337 36.0985 26.6509 36.0397 26.3652 36.041L26.3532 36.032ZM26.3532 36.866C26.4928 36.863 26.6317 36.8875 26.7618 36.9382C26.892 36.9889 27.0108 37.0647 27.1116 37.1614C27.2124 37.2581 27.2931 37.3738 27.3491 37.5017C27.4052 37.6296 27.4354 37.7674 27.4382 37.907H25.1952C25.2104 37.6184 25.3387 37.3474 25.5522 37.1526C25.7657 36.9578 26.0473 36.8548 26.3362 36.866H26.3532ZM49.7322 38.283V34.416H48.8322V36.659C48.6736 36.4552 48.4689 36.292 48.2348 36.1828C48.0008 36.0736 47.7442 36.0216 47.4862 36.031C46.8993 36.0434 46.3407 36.2852 45.9301 36.7046C45.5195 37.124 45.2895 37.6876 45.2895 38.2745C45.2895 38.8615 45.5195 39.425 45.9301 39.8444C46.3407 40.2638 46.8993 40.5056 47.4862 40.518C47.7442 40.5274 48.0008 40.4754 48.2348 40.3662C48.4689 40.2571 48.6736 40.0938 48.8322 39.89V40.41H49.7322V38.283ZM51.2892 39.805C51.4038 39.803 51.5146 39.8465 51.5972 39.926C51.6389 39.9638 51.6728 40.0093 51.6972 40.06C51.7194 40.1125 51.7309 40.169 51.7309 40.226C51.7309 40.2831 51.7194 40.3395 51.6972 40.392C51.6729 40.4428 51.6389 40.4883 51.5972 40.526C51.557 40.5646 51.5098 40.5951 51.4582 40.616C51.405 40.6396 51.3473 40.6515 51.2892 40.651C51.204 40.6505 51.1207 40.6257 51.049 40.5797C50.9773 40.5337 50.9201 40.4682 50.8842 40.391C50.8618 40.3385 50.8503 40.2821 50.8503 40.225C50.8503 40.168 50.8618 40.1115 50.8842 40.059C50.9233 39.9808 50.9838 39.9154 51.0587 39.8702C51.1336 39.8251 51.2197 39.8021 51.3072 39.804L51.2892 39.805ZM51.2892 40.564C51.3332 40.564 51.3772 40.554 51.4182 40.537C51.4747 40.5109 51.5226 40.4692 51.5562 40.4167C51.5897 40.3643 51.6076 40.3033 51.6076 40.241C51.6076 40.1787 51.5897 40.1178 51.5562 40.0653C51.5226 40.0129 51.4747 39.9711 51.4182 39.945C51.3566 39.9196 51.2889 39.9128 51.2235 39.9254C51.1581 39.938 51.0979 39.9695 51.0502 40.016C50.9939 40.0773 50.9627 40.1574 50.9627 40.2405C50.9627 40.3237 50.9939 40.4038 51.0502 40.465C51.0829 40.4983 51.1222 40.5243 51.1656 40.5416C51.209 40.5588 51.2555 40.5668 51.3022 40.565L51.2892 40.564ZM51.3152 40.03C51.3569 40.0279 51.398 40.0406 51.4312 40.066C51.4452 40.0772 51.4563 40.0915 51.4636 40.1079C51.4709 40.1243 51.4742 40.1421 51.4732 40.16C51.4735 40.175 51.4709 40.1898 51.4654 40.2038C51.4599 40.2177 51.4516 40.2303 51.4412 40.241C51.4155 40.265 51.3822 40.2792 51.3472 40.281L51.4762 40.429H51.3762L51.2552 40.281H51.2152V40.429H51.1262V40.035L51.3152 40.03ZM51.2152 40.106V40.214H51.3152C51.3332 40.2189 51.3521 40.2189 51.3702 40.214C51.3732 40.2078 51.3748 40.201 51.3748 40.194C51.3748 40.1871 51.3732 40.1802 51.3702 40.174C51.3732 40.1678 51.3748 40.161 51.3748 40.154C51.3748 40.1471 51.3732 40.1402 51.3702 40.134C51.3524 40.1275 51.3329 40.1275 51.3152 40.134L51.2152 40.106ZM46.2802 38.284C46.2933 37.9486 46.4374 37.6317 46.6816 37.4014C46.9258 37.1711 47.2506 37.0457 47.5862 37.0523C47.9218 37.0588 48.2415 37.1967 48.4765 37.4364C48.7115 37.6761 48.8432 37.9983 48.8432 38.334C48.8432 38.6697 48.7115 38.992 48.4765 39.2316C48.2415 39.4713 47.9218 39.6092 47.5862 39.6158C47.2506 39.6223 46.9258 39.497 46.6816 39.2667C46.4374 39.0363 46.2933 38.7194 46.2802 38.384C46.2782 38.351 46.2802 38.317 46.2822 38.283L46.2802 38.284ZM14.7712 38.284V36.14H13.8382V36.66C13.6795 36.4563 13.4747 36.2932 13.2407 36.184C13.0068 36.0748 12.7502 36.0228 12.4922 36.032C11.9053 36.0444 11.3467 36.2862 10.9361 36.7056C10.5255 37.125 10.2955 37.6886 10.2955 38.2755C10.2955 38.8625 10.5255 39.426 10.9361 39.8454C11.3467 40.2648 11.9053 40.5066 12.4922 40.519C12.7502 40.5284 13.0068 40.4763 13.2408 40.3671C13.4748 40.2579 13.6795 40.0948 13.8382 39.891V40.411H14.7712V38.284ZM11.2982 38.284C11.3435 37.9739 11.5084 37.6938 11.7576 37.5037C12.0068 37.3136 12.3205 37.2285 12.6316 37.2667C12.9427 37.3048 13.2265 37.4632 13.4224 37.7079C13.6182 37.9525 13.7106 38.2642 13.6797 38.5761C13.6488 38.888 13.497 39.1754 13.257 39.3769C13.0169 39.5784 12.7075 39.678 12.395 39.6543C12.0824 39.6307 11.7916 39.4857 11.5845 39.2503C11.3775 39.015 11.2708 38.708 11.2872 38.395C11.2848 38.3581 11.2848 38.321 11.2872 38.284H11.2982Z" fill="#CACACA"/>
<path d="M33.1992 3.45508H19.0662V28.8531H33.1992V3.45508Z" fill="#9A9A9A"/>
<path d="M19.9631 16.1557C19.9604 13.7094 20.5146 11.2946 21.5836 9.09427C22.6526 6.8939 24.2084 4.9657 26.1331 3.45573C23.7502 1.58326 20.8886 0.418923 17.8754 0.0958045C14.8621 -0.227314 11.8187 0.303816 9.09302 1.62849C6.36733 2.95317 4.0693 5.01796 2.46155 7.58687C0.853812 10.1558 0.0012207 13.1252 0.0012207 16.1557C0.0012207 19.1863 0.853812 22.1557 2.46155 24.7246C4.0693 27.2935 6.36733 29.3583 9.09302 30.683C11.8187 32.0077 14.8621 32.5388 17.8754 32.2157C20.8886 31.8925 23.7502 30.7282 26.1331 28.8557C24.2086 27.3456 22.653 25.4173 21.584 23.217C20.515 21.0167 19.9607 18.602 19.9631 16.1557ZM52.2671 16.1567C52.2662 19.1868 51.413 22.1555 49.805 24.7237C48.197 27.2919 45.899 29.3559 43.1736 30.6801C40.4482 32.0043 37.4053 32.5351 34.3926 32.212C31.3798 31.8888 28.5186 30.7248 26.1361 28.8527C28.0588 27.341 29.6133 25.4125 30.6821 23.2125C31.751 21.0126 32.3064 18.5986 32.3064 16.1527C32.3064 13.7069 31.751 11.2929 30.6821 9.09294C29.6133 6.89297 28.0588 4.96442 26.1361 3.45273C28.5189 1.57962 31.3807 0.414743 34.3943 0.0912777C37.4079 -0.232187 40.4517 0.298807 43.1778 1.62356C45.9039 2.94832 48.2022 5.01337 49.81 7.58267C51.4179 10.152 52.2704 13.1218 52.2701 16.1527L52.2671 16.1567ZM50.7231 26.1607V25.6407H50.9341V25.5327H50.4001V25.6407H50.6291V26.1607H50.7231ZM51.7591 26.1607V25.5327H51.5981L51.4111 25.9817L51.2221 25.5327H51.0781V26.1607H51.1941V25.6897L51.3701 26.0977H51.4911L51.6651 25.6897V26.1657L51.7591 26.1607Z" fill="#CACACA"/>
</g>
<defs>
<clipPath id="clip0_3244_940">
<rect width="53" height="41" fill="white"/>
</clipPath>
</defs>
</svg>
