<?xml version="1.0" encoding="UTF-8"?>
<svg xmlns="http://www.w3.org/2000/svg" xmlns:xlink="http://www.w3.org/1999/xlink" width="24px" height="25px" viewBox="0 0 24 24" version="1.1">
<g id="surface1">
<path style=" stroke:none;fill-rule:nonzero;fill:rgb(100%,100%,100%);fill-opacity:1;" d="M 6 13.890625 C 6 14.734375 6.175781 15.535156 6.523438 16.289062 C 6.875 17.042969 7.375 17.707031 8.023438 18.273438 C 8.007812 18.191406 8 18.117188 8 18.054688 L 8 17.835938 C 8 17.316406 8.101562 16.828125 8.300781 16.375 C 8.5 15.921875 8.792969 15.507812 9.175781 15.132812 L 12 12.429688 L 14.824219 15.132812 C 15.207031 15.507812 15.5 15.921875 15.699219 16.375 C 15.898438 16.828125 16 17.316406 16 17.835938 L 16 18.054688 C 16 18.117188 15.992188 18.191406 15.976562 18.273438 C 16.625 17.703125 17.125 17.042969 17.476562 16.289062 C 17.824219 15.535156 18 14.734375 18 13.890625 C 18 13.078125 17.847656 12.3125 17.535156 11.589844 C 17.226562 10.867188 16.78125 10.222656 16.199219 9.65625 C 15.867188 9.867188 15.515625 10.023438 15.148438 10.132812 C 14.785156 10.238281 14.410156 10.289062 14.023438 10.289062 C 12.992188 10.289062 12.097656 9.957031 11.335938 9.289062 C 10.578125 8.625 10.140625 7.804688 10.023438 6.832031 C 9.375 7.367188 8.800781 7.921875 8.300781 8.5 C 7.800781 9.078125 7.378906 9.660156 7.035156 10.253906 C 6.695312 10.84375 6.4375 11.449219 6.261719 12.066406 C 6.089844 12.683594 6 13.289062 6 13.890625 Z M 12 15.15625 L 10.574219 16.519531 C 10.390625 16.699219 10.25 16.902344 10.148438 17.128906 C 10.050781 17.355469 10 17.589844 10 17.835938 C 10 18.355469 10.195312 18.800781 10.585938 19.171875 C 10.976562 19.546875 11.449219 19.734375 12 19.734375 C 12.550781 19.734375 13.019531 19.546875 13.410156 19.171875 C 13.804688 18.800781 14 18.355469 14 17.835938 C 14 17.574219 13.949219 17.335938 13.851562 17.117188 C 13.75 16.898438 13.609375 16.699219 13.425781 16.519531 Z M 12 3.179688 L 12 6.394531 C 12 6.945312 12.195312 7.410156 12.589844 7.78125 C 12.980469 8.15625 13.460938 8.339844 14.023438 8.339844 C 14.324219 8.339844 14.605469 8.28125 14.863281 8.160156 C 15.121094 8.035156 15.351562 7.855469 15.550781 7.609375 L 16 7.074219 C 17.234375 7.757812 18.207031 8.707031 18.925781 9.921875 C 19.640625 11.140625 20 12.464844 20 13.890625 C 20 16.066406 19.226562 17.90625 17.675781 19.417969 C 16.125 20.925781 14.234375 21.679688 12 21.679688 C 9.765625 21.679688 7.875 20.925781 6.324219 19.417969 C 4.773438 17.90625 4 16.066406 4 13.890625 C 4 11.796875 4.722656 9.808594 6.160156 7.925781 C 7.601562 6.046875 9.550781 4.464844 12 3.179688 Z M 12 3.179688 "/>
</g>
</svg>
