<svg width="32" height="32" viewBox="0 0 32 32" fill="none" xmlns="http://www.w3.org/2000/svg">
<path d="M10.6666 16.0001H21.3333V18.6667H10.6666V16.0001ZM13.3333 26.6667H7.99992V5.33341H17.3333V12.0001H23.9999V16.1334L26.6666 13.4667V10.6667L18.6666 2.66675H7.99992C7.29267 2.66675 6.6144 2.9477 6.1143 3.4478C5.6142 3.94789 5.33325 4.62617 5.33325 5.33341V26.6667C5.33325 27.374 5.6142 28.0523 6.1143 28.5524C6.6144 29.0525 7.29267 29.3334 7.99992 29.3334H13.3333V26.6667ZM10.6666 24.0001H16.1333L17.3333 22.8001V21.3334H10.6666V24.0001ZM26.9333 17.3334C27.0666 17.3334 27.3333 17.4667 27.4666 17.6001L29.1999 19.3334C29.4666 19.6001 29.4666 20.1334 29.1999 20.4001L27.8666 21.7334L25.0666 18.9334L26.3999 17.6001C26.5333 17.4667 26.6666 17.3334 26.9333 17.3334ZM26.9333 22.5334L18.7999 30.6667H15.9999V27.8667L24.1333 19.7334L26.9333 22.5334Z" fill="url(#paint0_linear_215_8)"/>
<defs>
<linearGradient id="paint0_linear_215_8" x1="17.1889" y1="-0.494725" x2="17.1889" y2="32.1794" gradientUnits="userSpaceOnUse">
<stop stop-color="#006DD2"/>
<stop offset="1" stop-color="#59C2FD"/>
</linearGradient>
</defs>
</svg>
