<svg width="72" height="28" viewBox="0 0 72 28" fill="none" xmlns="http://www.w3.org/2000/svg">
<g clip-path="url(#clip0_3244_933)">
<path d="M58.9299 14.9626C58.3849 14.9626 57.8622 14.7461 57.4768 14.3608C57.0914 13.9754 56.8749 13.4527 56.8749 12.9076C56.8749 12.3626 57.0914 11.8399 57.4768 11.4545C57.8622 11.0692 58.3849 10.8526 58.9299 10.8526C59.4749 10.8526 59.9976 11.0692 60.383 11.4545C60.7684 11.8399 60.9849 12.3626 60.9849 12.9076C60.9849 13.4527 60.7684 13.9754 60.383 14.3608C59.9976 14.7461 59.4749 14.9626 58.9299 14.9626ZM58.9299 8.88965C57.8643 8.88965 56.8423 9.31297 56.0888 10.0665C55.3353 10.82 54.9119 11.842 54.9119 12.9076C54.9119 13.9733 55.3353 14.9953 56.0888 15.7488C56.8423 16.5023 57.8643 16.9256 58.9299 16.9256C59.9956 16.9256 61.0176 16.5023 61.7711 15.7488C62.5246 14.9953 62.9479 13.9733 62.9479 12.9076C62.9479 11.842 62.5246 10.82 61.7711 10.0665C61.0176 9.31297 59.9956 8.88965 58.9299 8.88965ZM40.4799 14.9626C39.9349 14.9626 39.4122 14.7461 39.0268 14.3608C38.6414 13.9754 38.4249 13.4527 38.4249 12.9076C38.4249 12.3626 38.6414 11.8399 39.0268 11.4545C39.4122 11.0692 39.9349 10.8526 40.4799 10.8526C41.0249 10.8526 41.5476 11.0692 41.933 11.4545C42.3184 11.8399 42.5349 12.3626 42.5349 12.9076C42.5349 13.4527 42.3184 13.9754 41.933 14.3608C41.5476 14.7461 41.0249 14.9626 40.4799 14.9626ZM40.4799 8.88965C39.4142 8.88965 38.392 9.31302 37.6384 10.0666C36.8848 10.8203 36.4614 11.8424 36.4614 12.9081C36.4614 13.9739 36.8848 14.996 37.6384 15.7497C38.392 16.5033 39.4142 16.9266 40.4799 16.9266C41.5457 16.9266 42.5678 16.5033 43.3214 15.7497C44.0751 14.996 44.4984 13.9739 44.4984 12.9081C44.4984 11.8424 44.0751 10.8203 43.3214 10.0666C42.5678 9.31302 41.5457 8.88965 40.4799 8.88965Z" fill="#CACACA"/>
<path d="M54.6579 15.0799C54.4019 15.1529 54.1379 15.2029 53.8729 15.2299C53.1809 15.2299 53.0419 14.9869 53.0419 14.3379V10.6239H54.6819V9.07686H53.0419V6.88086H51.1939L50.8009 9.07486H49.4159C48.9057 9.09325 48.4118 9.25907 47.9939 9.55224C47.5759 9.84542 47.2519 10.2534 47.0609 10.7269L46.4249 9.07486H45.0979V16.7729H47.3609V13.4249C47.3609 11.7389 48.3649 10.6549 49.5429 10.6199H50.7779V14.4519C50.7779 16.2519 51.7019 16.9219 53.2029 16.9219C53.7909 16.9219 54.3759 16.8289 54.9349 16.6459L54.6579 15.0799ZM65.6959 11.4999V16.7769H63.4899V9.06386H64.8269L65.2769 10.2419" fill="#CACACA"/>
<path d="M65.27 10.253C65.5877 9.8474 65.9896 9.51552 66.448 9.28021C66.9063 9.04491 67.4102 8.91178 67.925 8.89C68.2854 8.88683 68.6424 8.9594 68.9729 9.10301C69.3034 9.24661 69.6001 9.45805 69.8437 9.72362C70.0873 9.98919 70.2724 10.303 70.387 10.6446C70.5016 10.9863 70.5432 11.3482 70.509 11.707V16.776H68.246V11.776C68.242 11.6328 68.2086 11.492 68.1481 11.3623C68.0875 11.2325 68.0011 11.1165 67.894 11.0214C67.7869 10.9263 67.6615 10.8541 67.5254 10.8093C67.3894 10.7646 67.2456 10.7481 67.103 10.761C66.8296 10.7767 66.5629 10.852 66.3216 10.9815C66.0803 11.1111 65.8702 11.2918 65.706 11.511M27.675 6.28H30.203L33.667 12.875V6.281H35.757V16.776H33.467L29.762 9.513V16.776H27.675V6.28ZM70.51 9.075V9.225H70.719V9.952H70.891V9.225H71.111V9.075H70.511H70.51ZM71.77 9.075L71.62 9.653L71.458 9.075H71.226V9.953H71.376V9.261L71.561 9.953H71.676L71.861 9.261V9.953H72V9.075H71.77ZM30.412 22.965C30.412 22.295 30.204 21.51 29.442 21.51C29.2572 21.5156 29.0756 21.5595 28.9087 21.6388C28.7417 21.7182 28.593 21.8313 28.472 21.971V24.177C28.5751 24.3125 28.708 24.4226 28.8604 24.4985C29.0129 24.5745 29.1807 24.6143 29.351 24.615C30.031 24.604 30.413 24.015 30.413 22.964L30.412 22.965ZM28.323 24.604L28.162 25.1H27.745V19.339H28.472V21.44C28.6129 21.2762 28.7863 21.1434 28.9811 21.0499C29.176 20.9565 29.388 20.9044 29.604 20.897C30.701 20.897 31.186 21.983 31.186 22.964C31.186 24.28 30.505 25.17 29.492 25.17C29.2665 25.1764 29.0427 25.1282 28.8397 25.0297C28.6367 24.9312 28.4605 24.7851 28.326 24.604H28.323ZM31.651 20.978H32.389C32.389 20.978 33.429 24.454 33.429 24.465L34.399 20.978H35.111L33.725 25.412C33.6704 25.752 33.4938 26.0604 33.2282 26.2794C32.9625 26.4985 32.6261 26.6132 32.282 26.602C32.1139 26.6015 31.9467 26.5779 31.785 26.532L31.875 26.012C31.989 26.036 32.105 26.052 32.221 26.059C32.432 26.0691 32.6396 26.0038 32.8069 25.8748C32.9742 25.7458 33.0901 25.5616 33.134 25.355L31.651 20.978ZM37.274 24.5L37.63 23.992C38.0945 24.3554 38.6683 24.5509 39.258 24.547C40.008 24.547 40.448 24.19 40.448 23.567C40.448 22.874 39.913 22.655 39.155 22.388C38.335 22.099 37.585 21.731 37.585 20.68C37.585 19.745 38.324 19.236 39.295 19.236C39.835 19.209 40.372 19.336 40.841 19.606L40.541 20.16C40.1567 19.9465 39.7225 19.8391 39.283 19.849C38.67 19.849 38.255 20.091 38.255 20.669C38.255 21.28 38.659 21.477 39.503 21.777C40.311 22.054 41.166 22.412 41.166 23.543C41.166 24.548 40.453 25.147 39.272 25.147C38.5492 25.186 37.8376 24.9555 37.275 24.5H37.274ZM41.582 20.978H42.32C42.32 20.978 43.36 24.454 43.36 24.465L44.33 20.978H45.042L43.656 25.412C43.6014 25.752 43.4248 26.0604 43.1592 26.2794C42.8935 26.4985 42.5571 26.6132 42.213 26.602C42.045 26.602 41.878 26.578 41.716 26.532L41.806 26.012C41.92 26.036 42.036 26.052 42.152 26.059C42.363 26.0691 42.5706 26.0038 42.7379 25.8748C42.9052 25.7458 43.0211 25.5616 43.065 25.355L41.582 20.978ZM50.16 20.898C50.991 20.898 51.21 21.601 51.21 22.283V25.1H50.483V22.283C50.483 21.879 50.413 21.51 49.917 21.51C49.507 21.555 49.131 21.758 48.867 22.075V25.101H48.14V22.283C48.14 21.879 48.07 21.51 47.574 21.51C47.164 21.563 46.788 21.77 46.524 22.087V25.101H45.796V20.979H46.223L46.407 21.649C46.5746 21.4332 46.7857 21.2549 47.0265 21.1257C47.2673 20.9965 47.5325 20.9193 47.805 20.899C48.0208 20.8897 48.233 20.9556 48.4056 21.0855C48.5781 21.2153 48.7002 21.4011 48.751 21.611C48.9226 21.3999 49.1368 21.2272 49.3795 21.1044C49.6223 20.9815 49.8882 20.9112 50.16 20.898ZM54.568 22.978C54.0029 23.0123 53.4607 23.2135 53.01 23.556C52.915 23.6724 52.8691 23.8213 52.882 23.971C52.8696 24.0574 52.8775 24.1454 52.9051 24.2282C52.9327 24.311 52.9792 24.3862 53.0409 24.4478C53.1027 24.5095 53.1779 24.5559 53.2608 24.5833C53.3436 24.6108 53.4317 24.6186 53.518 24.606C53.902 24.586 54.27 24.445 54.568 24.203V22.978ZM54.568 22.32C54.568 21.765 54.395 21.488 53.795 21.488C53.379 21.512 52.975 21.634 52.617 21.845L52.349 21.36C52.7896 21.0633 53.3078 20.9026 53.839 20.898C54.866 20.898 55.27 21.453 55.27 22.376V25.112H54.855L54.671 24.616C54.336 24.96 53.881 25.159 53.401 25.17C53.2417 25.1853 53.0809 25.1672 52.929 25.1167C52.7771 25.0663 52.6375 24.9846 52.519 24.8769C52.4006 24.7693 52.3059 24.6381 52.2411 24.4917C52.1764 24.3454 52.143 24.1871 52.143 24.027C52.1318 23.8245 52.1778 23.623 52.2757 23.4454C52.3737 23.2678 52.5197 23.1215 52.697 23.023C53.2844 22.7388 53.9182 22.5626 54.568 22.503V22.319V22.32ZM56.485 20.983H56.912L57.096 21.663C57.2729 21.4371 57.4966 21.2521 57.7517 21.1208C58.0068 20.9894 58.2873 20.9148 58.574 20.902C59.465 20.902 59.694 21.606 59.694 22.288V25.104H58.967V22.284C58.967 21.879 58.863 21.51 58.332 21.51C57.8962 21.5529 57.4943 21.7642 57.212 22.099V25.1H56.484V20.978L56.485 20.982V20.983ZM60.469 21.491V20.983H61.104L61.288 19.805H61.808V20.983H62.731V21.491H61.808V24.031C61.808 24.412 61.878 24.62 62.27 24.62C62.43 24.613 62.59 24.586 62.743 24.539L62.847 25.035C62.6337 25.1192 62.4063 25.1623 62.177 25.162C61.427 25.162 61.092 24.806 61.092 24.065V21.481H60.469V21.491ZM65.964 22.761C65.941 21.895 65.652 21.445 65.074 21.445C64.554 21.445 64.207 21.848 64.15 22.761H65.964ZM65.179 24.596C65.5854 24.5823 65.9771 24.4414 66.299 24.193L66.599 24.631C66.1927 24.9989 65.6588 25.1937 65.111 25.174C64.048 25.174 63.367 24.354 63.367 23.049C63.367 21.779 64.026 20.902 65.054 20.902C66.116 20.902 66.682 21.698 66.682 23.072V23.246H64.119C64.177 24.123 64.489 24.596 65.181 24.596H65.179ZM67.352 23.073C67.352 22.01 67.825 20.902 69.095 20.902C69.566 20.878 70.028 21.035 70.388 21.34L70.076 21.825C69.7987 21.6089 69.4575 21.4911 69.106 21.49C68.24 21.49 68.114 22.381 68.114 23.083C68.114 23.764 68.264 24.598 69.13 24.598C69.4943 24.5951 69.8442 24.4551 70.11 24.206L70.457 24.633C70.2808 24.815 70.0686 24.9582 69.8339 25.0536C69.5992 25.149 69.3472 25.1944 69.094 25.187C67.836 25.176 67.351 24.102 67.351 23.074M12.03 7.528C10.6761 7.5277 9.34305 7.86134 8.14892 8.49935C6.95478 9.13737 5.93644 10.0601 5.18412 11.1857C4.43179 12.3113 3.96871 13.6051 3.8359 14.9525C3.70309 16.2998 3.90465 17.6592 4.42272 18.91C4.94079 20.1609 5.75938 21.2646 6.80597 22.1235C7.85255 22.9824 9.09482 23.5699 10.4227 23.8339C11.7506 24.098 13.1231 24.0304 14.4187 23.6373C15.7142 23.2441 16.8928 22.5375 17.85 21.58C19.3906 20.0343 20.2579 17.9424 20.263 15.76C20.2614 13.5771 19.3935 11.484 17.8498 9.9405C16.3061 8.39702 14.213 7.52932 12.03 7.528ZM12.03 27.791C9.6507 27.791 7.32482 27.0855 5.3465 25.7636C3.36817 24.4417 1.82626 22.5629 0.915735 20.3647C0.00521243 18.1665 -0.233022 15.7477 0.231158 13.4141C0.695339 11.0805 1.84109 8.93693 3.52351 7.25451C5.20594 5.57208 7.34948 4.42633 9.68307 3.96215C12.0167 3.49797 14.4355 3.73621 16.6337 4.64673C18.8319 5.55725 20.7107 7.09917 22.0326 9.07749C23.3545 11.0558 24.06 13.3817 24.06 15.761C24.0539 18.9497 22.7845 22.006 20.5298 24.2608C18.275 26.5155 15.2187 27.7849 12.03 27.791ZM26.07 1.87H25.136V2.805H26.07V1.87ZM26.07 0H25.136V0.935H26.07V0ZM23.381 2.805H22.503V3.718H23.381V2.805ZM21.649 4.607H20.759V5.485H21.649V4.607Z" fill="#CACACA"/>
<path d="M24.3501 3.71829H23.3681V4.59629H24.3501V3.71829ZM20.7601 3.76429H19.8821V4.60729H20.7601V3.76429ZM23.3811 4.60729H22.5031V5.48529H23.3811V4.60729ZM25.1351 0.946289H24.2111V1.88129H25.1351V0.946289Z" fill="#CACACA"/>
<path d="M24.2121 1.87012H22.5031V2.80512H24.2131V1.87012H24.2121ZM22.5031 2.80512H21.6491V4.60612H22.5031V2.80612V2.80512ZM21.6491 5.48412V6.36212H20.7571V5.48412H19.2931V6.12012H18.5081V6.90512H19.3861V7.78212H18.5081V6.90512H17.5731V8.27912H16.6951V9.15712H16.1051V10.0341H15.4601C14.3061 11.8924 13.2762 13.825 12.3771 15.8191C10.4021 13.0701 8.86708 11.9871 7.66708 11.5931C7.02008 11.3971 6.23408 12.1011 7.31008 13.2211C9.08704 15.1989 10.4529 17.5105 11.3281 20.0211C11.7321 20.9681 13.5221 21.1181 13.8801 20.1481C14.6854 17.9474 15.7553 15.8527 17.0661 13.9101V12.9301H17.7701V12.0521H18.5101V11.0241H19.3871V10.0441H18.4961V9.14412H19.3861V10.0441H20.2531V9.15312H20.9401V8.08312H21.7251V7.34512H22.4751V5.48512H21.6491V5.48412Z" fill="#CACACA"/>
</g>
<defs>
<clipPath id="clip0_3244_933">
<rect width="72" height="28" fill="white"/>
</clipPath>
</defs>
</svg>
