<svg width="50" height="30" viewBox="0 0 50 30" fill="none" xmlns="http://www.w3.org/2000/svg">
<g clip-path="url(#clip0_3244_960)">
<path d="M0.247 29.665V27.112H1.211C1.341 27.11 1.471 27.118 1.6 27.138C1.713 27.153 1.82 27.194 1.915 27.257C2.00392 27.3211 2.07458 27.4073 2.12 27.507C2.18775 27.6535 2.21153 27.8165 2.18845 27.9763C2.16537 28.136 2.09644 28.2857 1.99 28.407C1.8867 28.4933 1.76698 28.5577 1.63806 28.5964C1.50915 28.6351 1.37373 28.6472 1.24 28.632H0.585V29.672L0.247 29.665ZM0.586 28.325H1.246C1.41085 28.3404 1.57584 28.2972 1.712 28.203C1.7586 28.1594 1.79503 28.106 1.81871 28.0468C1.84239 27.9875 1.85273 27.9237 1.849 27.86C1.85118 27.7622 1.82211 27.6662 1.766 27.586C1.715 27.5117 1.63909 27.4581 1.552 27.435C1.44819 27.4156 1.34253 27.4078 1.237 27.412H0.583L0.586 28.325ZM3.867 29.437C3.76864 29.525 3.65604 29.5957 3.534 29.646C3.42327 29.6868 3.30602 29.7072 3.188 29.706C3.01858 29.7177 2.85102 29.6648 2.719 29.558C2.66521 29.5105 2.62247 29.4517 2.5938 29.3859C2.56512 29.3201 2.5512 29.2488 2.553 29.177C2.55171 29.0897 2.57307 29.0036 2.615 28.927C2.65367 28.8545 2.70924 28.7924 2.777 28.746C2.84585 28.6993 2.92185 28.6642 3.002 28.642C3.094 28.621 3.187 28.605 3.281 28.596C3.471 28.578 3.658 28.542 3.84 28.487V28.404C3.845 28.3552 3.83956 28.3059 3.82405 28.2593C3.80853 28.2128 3.78329 28.17 3.75 28.134C3.64805 28.056 3.52107 28.0179 3.393 28.027C3.2789 28.0188 3.16506 28.0461 3.067 28.105C2.98506 28.1761 2.93 28.2732 2.911 28.38L2.604 28.337C2.62519 28.2217 2.67276 28.1129 2.743 28.019C2.81594 27.9319 2.91194 27.8671 3.02 27.832C3.154 27.787 3.295 27.765 3.437 27.767C3.567 27.763 3.697 27.782 3.822 27.823C3.90547 27.8502 3.98054 27.8984 4.04 27.963C4.09 28.026 4.123 28.099 4.137 28.177C4.151 28.273 4.156 28.369 4.153 28.466V28.882C4.149 29.067 4.155 29.252 4.174 29.436C4.188 29.514 4.214 29.589 4.254 29.658H3.926C3.89406 29.5879 3.87444 29.5128 3.868 29.436L3.867 29.437ZM3.842 28.736C3.676 28.795 3.504 28.835 3.329 28.855C3.23586 28.8648 3.14422 28.8856 3.056 28.917C3.01287 28.9349 2.97506 28.9637 2.9462 29.0004C2.91734 29.0371 2.89839 29.0807 2.89116 29.1268C2.88394 29.173 2.88868 29.2202 2.90493 29.264C2.92119 29.3078 2.94841 29.3467 2.984 29.377C3.064 29.438 3.162 29.467 3.262 29.461C3.37447 29.4628 3.48546 29.4352 3.584 29.381C3.67431 29.3322 3.74706 29.2563 3.792 29.164C3.83051 29.0643 3.84755 28.9577 3.842 28.851V28.736ZM5.925 28.986L6.233 29.026C6.21029 29.2184 6.11863 29.396 5.975 29.526C5.83254 29.6474 5.65008 29.7115 5.463 29.706C5.34937 29.7103 5.23612 29.6902 5.1309 29.6471C5.02568 29.604 4.93092 29.5388 4.853 29.456C4.68738 29.2572 4.60465 29.0022 4.622 28.744C4.61814 28.5643 4.65186 28.3859 4.721 28.22C4.78187 28.0785 4.88813 27.9614 5.023 27.887C5.15812 27.8118 5.31038 27.7729 5.465 27.774C5.64209 27.7664 5.81632 27.8205 5.958 27.927C6.09187 28.0356 6.1809 28.1898 6.208 28.36L5.903 28.407C5.88326 28.2995 5.82923 28.2012 5.749 28.127C5.67458 28.0638 5.57961 28.03 5.482 28.032C5.40945 28.0295 5.33727 28.0432 5.27067 28.0721C5.20408 28.101 5.14476 28.1443 5.097 28.199C4.98483 28.3549 4.93199 28.5456 4.948 28.737C4.93171 28.9288 4.98223 29.1202 5.091 29.279C5.1364 29.3333 5.19358 29.3766 5.25822 29.4056C5.32285 29.4345 5.39322 29.4483 5.464 29.446C5.57787 29.4494 5.68864 29.4086 5.773 29.332C5.86144 29.2377 5.91476 29.1159 5.924 28.987L5.925 28.986ZM6.575 27.469V27.112H6.888V27.473L6.575 27.469ZM6.575 29.664V27.812H6.888V29.664H6.575ZM7.513 29.664V28.057H7.235V27.813H7.512V27.616C7.50803 27.5221 7.51952 27.4282 7.546 27.338C7.57621 27.2566 7.632 27.1871 7.705 27.14C7.80197 27.084 7.9132 27.0576 8.025 27.064C8.124 27.065 8.222 27.076 8.318 27.096L8.271 27.37C8.21 27.3585 8.14808 27.3524 8.086 27.352C8.01325 27.3448 7.9406 27.3667 7.884 27.413C7.83698 27.4795 7.81599 27.561 7.825 27.642V27.808H8.185V28.052H7.825V29.66L7.512 29.664H7.513ZM8.503 27.469V27.112H8.816V27.473L8.502 27.469H8.503ZM8.503 29.664V27.812H8.816V29.664H8.502H8.503ZM10.573 28.986L10.882 29.026C10.8591 29.2185 10.7671 29.3962 10.623 29.526C10.4808 29.6472 10.2987 29.7113 10.112 29.706C9.99819 29.7105 9.88474 29.6906 9.77932 29.6474C9.67391 29.6043 9.57899 29.539 9.501 29.456C9.33547 29.2571 9.25276 29.0022 9.27 28.744C9.266 28.564 9.3 28.386 9.37 28.22C9.43112 28.0784 9.53775 27.9612 9.673 27.887C9.8078 27.812 9.95972 27.773 10.114 27.774C10.2914 27.7664 10.4659 27.8205 10.608 27.927C10.74 28.036 10.828 28.19 10.853 28.36L10.548 28.407C10.5283 28.2995 10.4743 28.2012 10.394 28.127C10.3196 28.0638 10.2246 28.03 10.127 28.032C10.0545 28.0296 9.9823 28.0433 9.91572 28.0722C9.84914 28.1011 9.7898 28.1444 9.742 28.199C9.63007 28.355 9.57726 28.5457 9.593 28.737C9.577 28.9289 9.62788 29.1204 9.737 29.279C9.78235 29.3334 9.83953 29.3767 9.90417 29.4057C9.96881 29.4346 10.0392 29.4484 10.11 29.446C10.2235 29.4491 10.3338 29.4082 10.418 29.332C10.508 29.2384 10.5627 29.1165 10.573 28.987V28.986ZM11.848 29.664L12.829 27.108H13.194L14.24 29.664H13.854L13.557 28.89H12.487L12.207 29.664H11.848ZM12.586 28.614H13.452L13.186 27.907C13.1186 27.7327 13.0579 27.5559 13.004 27.377C12.971 27.544 12.925 27.707 12.867 27.866L12.586 28.615V28.614ZM14.419 29.115L14.729 29.067C14.739 29.177 14.792 29.279 14.875 29.352C14.9708 29.4235 15.0887 29.4589 15.208 29.452C15.322 29.461 15.4355 29.4299 15.529 29.364C15.5611 29.3398 15.5873 29.3085 15.6055 29.2727C15.6237 29.2368 15.6334 29.1972 15.634 29.157C15.6346 29.1237 15.6264 29.0908 15.6102 29.0617C15.5941 29.0326 15.5705 29.0082 15.542 28.991C15.44 28.9419 15.3321 28.9059 15.221 28.884C15.0573 28.8478 14.8971 28.7976 14.742 28.734C14.6602 28.6969 14.591 28.6367 14.5429 28.5609C14.4948 28.485 14.4698 28.3968 14.471 28.307C14.471 28.227 14.49 28.149 14.527 28.078C14.565 28.008 14.617 27.949 14.682 27.903C14.7431 27.8617 14.8107 27.8309 14.882 27.812C14.9697 27.7866 15.0607 27.7738 15.152 27.774C15.282 27.771 15.412 27.793 15.535 27.837C15.63 27.867 15.715 27.926 15.778 28.003C15.8362 28.0889 15.8735 28.1872 15.887 28.29L15.58 28.331C15.5709 28.2438 15.5278 28.1636 15.46 28.108C15.3776 28.0487 15.2774 28.0194 15.176 28.025C15.068 28.0158 14.9598 28.041 14.867 28.097C14.8397 28.1154 14.8172 28.1401 14.8014 28.169C14.7856 28.1979 14.7769 28.2301 14.776 28.263C14.776 28.303 14.789 28.343 14.814 28.373C14.846 28.4114 14.8878 28.4404 14.935 28.457C14.965 28.468 15.058 28.495 15.212 28.54C15.37 28.578 15.525 28.627 15.677 28.686C15.7599 28.7208 15.8314 28.7783 15.883 28.852C15.934 28.9379 15.9595 29.0366 15.9565 29.1365C15.9535 29.2364 15.9221 29.3333 15.866 29.416C15.8014 29.5123 15.7094 29.5872 15.602 29.631C15.4787 29.6833 15.3459 29.7092 15.212 29.707C15.017 29.7203 14.8232 29.6675 14.662 29.557C14.5264 29.4451 14.4378 29.2862 14.414 29.112L14.419 29.115ZM16.402 27.473V27.113H16.717V27.473H16.403H16.402ZM16.402 29.668V27.817H16.717V29.668H16.403H16.402ZM18.473 29.44C18.3747 29.5283 18.2621 29.5993 18.14 29.65C18.0292 29.6908 17.912 29.7111 17.794 29.71C17.624 29.7213 17.456 29.6677 17.324 29.56C17.2703 29.5126 17.2277 29.454 17.199 29.3883C17.1703 29.3227 17.1563 29.2516 17.158 29.18C17.1563 29.0953 17.1759 29.0115 17.215 28.9364C17.2542 28.8612 17.3116 28.7971 17.382 28.75C17.4512 28.7033 17.5275 28.6682 17.608 28.646C17.7 28.624 17.794 28.609 17.888 28.599C18.078 28.582 18.265 28.545 18.448 28.491V28.407C18.4529 28.3583 18.4476 28.309 18.4322 28.2625C18.4169 28.216 18.392 28.1732 18.359 28.137C18.2569 28.0594 18.1299 28.0217 18.002 28.031C17.8877 28.0224 17.7735 28.0493 17.675 28.108C17.5931 28.1791 17.538 28.2762 17.519 28.383L17.212 28.341C17.2328 28.2254 17.28 28.1163 17.35 28.022C17.4231 27.9353 17.5191 27.8709 17.627 27.836C17.7613 27.7907 17.9023 27.7687 18.044 27.771C18.174 27.767 18.305 27.785 18.429 27.826C18.5125 27.8531 18.5876 27.9013 18.647 27.966C18.697 28.029 18.73 28.102 18.744 28.18C18.758 28.276 18.763 28.372 18.76 28.469V28.886C18.755 29.07 18.762 29.256 18.78 29.439C18.7947 29.5175 18.8228 29.593 18.863 29.662H18.536C18.5001 29.5913 18.4771 29.5148 18.468 29.436L18.473 29.44ZM18.448 28.739C18.282 28.799 18.11 28.839 17.935 28.859C17.842 28.868 17.749 28.889 17.661 28.921C17.6181 28.9392 17.5805 28.968 17.5518 29.0047C17.5231 29.0415 17.5043 29.0849 17.4971 29.131C17.4898 29.177 17.4945 29.2242 17.5106 29.2679C17.5267 29.3117 17.5537 29.3506 17.589 29.381C17.669 29.442 17.767 29.472 17.867 29.465C17.9795 29.4669 18.0905 29.4393 18.189 29.385C18.2794 29.3362 18.3521 29.2603 18.397 29.168C18.4356 29.0684 18.4526 28.9617 18.447 28.855V28.739H18.448ZM21.012 29.669V27.419H20.17V27.112H22.195V27.414H21.35V29.664L21.012 29.668V29.669ZM22.437 29.669V27.817H22.72V28.097C22.7669 27.9968 22.8352 27.9081 22.92 27.837C22.9788 27.7964 23.0486 27.7748 23.12 27.775C23.2346 27.7776 23.3461 27.8122 23.442 27.875L23.334 28.166C23.2649 28.1232 23.1853 28.1 23.104 28.099C23.0371 28.0985 22.972 28.1203 22.919 28.161C22.8628 28.2041 22.8218 28.264 22.802 28.332C22.7663 28.4507 22.7487 28.5741 22.75 28.698V29.668H22.437V29.669ZM24.909 29.439C24.8106 29.5273 24.698 29.5983 24.576 29.649C24.4652 29.6898 24.348 29.7101 24.23 29.709C24.0603 29.7209 23.8923 29.668 23.76 29.561C23.7063 29.5134 23.6636 29.4547 23.6349 29.3888C23.6062 29.323 23.5923 29.2518 23.594 29.18C23.5929 29.0954 23.6128 29.0118 23.6519 28.9368C23.691 28.8618 23.748 28.7976 23.818 28.75C23.8872 28.7033 23.9635 28.6682 24.044 28.646C24.136 28.624 24.23 28.609 24.324 28.599C24.5138 28.5817 24.7014 28.5456 24.884 28.491V28.407C24.8891 28.3582 24.8837 28.3088 24.8681 28.2623C24.8526 28.2157 24.8273 28.173 24.794 28.137C24.6919 28.0593 24.5649 28.0216 24.437 28.031C24.3227 28.0225 24.2085 28.0494 24.11 28.108C24.0282 28.1792 23.9732 28.2762 23.954 28.383L23.648 28.341C23.6686 28.2254 23.7158 28.1162 23.786 28.022C23.859 27.9352 23.955 27.8708 24.063 27.836C24.197 27.79 24.338 27.769 24.479 27.771C24.609 27.767 24.74 27.785 24.864 27.826C24.9475 27.8532 25.0225 27.9014 25.082 27.966C25.131 28.029 25.164 28.102 25.179 28.18C25.192 28.276 25.198 28.372 25.195 28.469V28.886C25.19 29.07 25.197 29.256 25.215 29.439C25.2298 29.5175 25.2579 29.5929 25.298 29.662H24.971C24.9354 29.5913 24.9127 29.5147 24.904 29.436L24.909 29.44V29.439ZM24.883 28.739C24.7175 28.7984 24.5457 28.8387 24.371 28.859C24.277 28.868 24.185 28.889 24.097 28.921C24.046 28.9416 24.0024 28.9772 23.972 29.023C23.9363 29.079 23.9219 29.146 23.9315 29.2117C23.941 29.2774 23.9739 29.3375 24.024 29.381C24.104 29.442 24.202 29.471 24.302 29.465C24.4145 29.4668 24.5255 29.4392 24.624 29.385C24.7144 29.3364 24.7872 29.2604 24.832 29.168C24.8705 29.0683 24.8875 28.9617 24.882 28.855L24.883 28.739ZM26.273 29.669L25.568 27.817H25.902L26.299 28.926C26.342 29.046 26.381 29.17 26.418 29.299C26.4528 29.1804 26.4915 29.063 26.534 28.947L26.946 27.817H27.268L26.568 29.669H26.272H26.273ZM28.883 29.073L29.207 29.113C29.1649 29.2878 29.0643 29.443 28.922 29.553C28.7437 29.6698 28.5316 29.724 28.3191 29.7071C28.1066 29.6903 27.9057 29.6034 27.748 29.46C27.5794 29.2664 27.4939 29.0142 27.51 28.758C27.494 28.495 27.58 28.235 27.75 28.033C27.8296 27.948 27.9265 27.881 28.0341 27.8365C28.1417 27.792 28.2576 27.771 28.374 27.775C28.4874 27.7706 28.6003 27.7906 28.7052 27.8338C28.8102 27.8769 28.9045 27.9421 28.982 28.025C29.149 28.223 29.233 28.478 29.217 28.737V28.82H27.836C27.836 28.991 27.896 29.157 28.008 29.288C28.0575 29.3407 28.1175 29.3824 28.1842 29.4103C28.2509 29.4382 28.3227 29.4517 28.395 29.45C28.5006 29.4533 28.6042 29.4216 28.69 29.36C28.7797 29.2832 28.8447 29.1816 28.877 29.068L28.883 29.073ZM27.852 28.565H28.886C28.8826 28.4392 28.8415 28.3172 28.768 28.215C28.7216 28.1565 28.6622 28.1095 28.5945 28.0779C28.5268 28.0464 28.4527 28.031 28.378 28.033C28.3109 28.0317 28.2442 28.0439 28.1818 28.0688C28.1195 28.0937 28.0628 28.1308 28.015 28.178C27.9119 28.28 27.8512 28.4171 27.845 28.562L27.852 28.565ZM29.665 29.668V27.112H29.978V29.668H29.665ZM31.165 29.668L32.147 27.112H32.511L33.557 29.668H33.172L32.873 28.894H31.805L31.525 29.668H31.165ZM31.903 28.619H32.769L32.502 27.912C32.435 27.7377 32.3746 27.5609 32.321 27.382C32.288 27.548 32.241 27.711 32.183 27.87L31.903 28.62V28.619ZM33.736 29.119L34.046 29.071C34.056 29.181 34.108 29.283 34.191 29.357C34.2867 29.4285 34.4047 29.464 34.524 29.457C34.6381 29.4657 34.7517 29.4342 34.845 29.368C34.8768 29.3438 34.9027 29.3126 34.9207 29.277C34.9387 29.2413 34.9484 29.202 34.949 29.162C34.9498 29.1285 34.9418 29.0954 34.9256 29.066C34.9094 29.0367 34.8858 29.0122 34.857 28.995C34.7549 28.946 34.6471 28.9101 34.536 28.888C34.3723 28.8519 34.2121 28.8017 34.057 28.738C33.9753 28.7011 33.9062 28.6411 33.8582 28.5654C33.8103 28.4897 33.7855 28.4016 33.787 28.312C33.786 28.232 33.805 28.152 33.843 28.082C33.88 28.013 33.933 27.953 33.997 27.907C34.058 27.8655 34.1256 27.8347 34.197 27.816C34.285 27.7904 34.3763 27.7776 34.468 27.778C34.598 27.776 34.728 27.797 34.851 27.841C34.946 27.871 35.031 27.929 35.094 28.007C35.1518 28.093 35.1888 28.1912 35.202 28.294L34.896 28.336C34.8871 28.2484 34.844 28.1679 34.776 28.112C34.6936 28.0526 34.5934 28.0233 34.492 28.029C34.384 28.0197 34.2758 28.045 34.183 28.101C34.1555 28.1193 34.1329 28.144 34.1169 28.1728C34.1009 28.2017 34.092 28.234 34.091 28.267C34.09 28.307 34.103 28.347 34.129 28.377C34.1607 28.4153 34.2022 28.4443 34.249 28.461C34.281 28.472 34.372 28.499 34.527 28.544C34.685 28.583 34.84 28.632 34.992 28.69C35.0752 28.7249 35.1466 28.7829 35.198 28.857C35.2489 28.943 35.2744 29.0416 35.2713 29.1415C35.2683 29.2413 35.237 29.3383 35.181 29.421C35.1162 29.5169 35.0243 29.5914 34.917 29.635C34.7937 29.6873 34.6609 29.7131 34.527 29.711C34.332 29.7243 34.1383 29.6714 33.977 29.561C33.838 29.4493 33.7471 29.2886 33.723 29.112L33.736 29.119ZM35.592 29.119L35.902 29.071C35.912 29.181 35.964 29.283 36.047 29.357C36.143 29.4288 36.2613 29.4642 36.381 29.457C36.4948 29.4655 36.6079 29.434 36.701 29.368C36.733 29.3439 36.7592 29.3129 36.7774 29.2772C36.7955 29.2415 36.8053 29.2021 36.806 29.162C36.8066 29.1284 36.7984 29.0953 36.782 29.066C36.7657 29.0366 36.7419 29.0121 36.713 28.995C36.6112 28.9462 36.5037 28.9102 36.393 28.888C36.2293 28.8518 36.0691 28.8016 35.914 28.738C35.8321 28.7014 35.7627 28.6415 35.7145 28.5657C35.6663 28.49 35.6415 28.4018 35.643 28.312C35.642 28.232 35.661 28.152 35.699 28.082C35.736 28.012 35.789 27.953 35.853 27.907C35.914 27.8654 35.9816 27.8346 36.053 27.816C36.1407 27.7906 36.2317 27.7778 36.323 27.778C36.453 27.776 36.583 27.797 36.706 27.841C36.8013 27.8718 36.8857 27.9294 36.949 28.007C37.0072 28.0929 37.0445 28.1912 37.058 28.294L36.751 28.336C36.7411 28.2483 36.6974 28.1679 36.629 28.112C36.5469 28.0528 36.447 28.0235 36.346 28.029C36.2383 28.02 36.1305 28.0452 36.038 28.101C36.0103 28.1192 35.9874 28.1437 35.9712 28.1726C35.955 28.2015 35.946 28.2339 35.945 28.267C35.945 28.307 35.958 28.347 35.985 28.377C36.0167 28.4153 36.0581 28.4444 36.105 28.461C36.135 28.472 36.228 28.499 36.381 28.544C36.539 28.583 36.694 28.631 36.846 28.69C36.9296 28.7247 37.0014 28.7826 37.053 28.857C37.1039 28.943 37.1294 29.0416 37.1263 29.1415C37.1233 29.2413 37.092 29.3383 37.036 29.421C36.971 29.5168 36.8791 29.5912 36.772 29.635C36.6484 29.6875 36.5152 29.7134 36.381 29.711C36.186 29.7242 35.9923 29.6714 35.831 29.561C35.6933 29.4487 35.6036 29.2881 35.58 29.112L35.592 29.119ZM37.457 28.746C37.4455 28.6057 37.4651 28.4647 37.5146 28.3329C37.564 28.2012 37.642 28.082 37.743 27.984C37.905 27.8453 38.1128 27.7718 38.326 27.778C38.4417 27.7741 38.5569 27.7943 38.6643 27.8373C38.7717 27.8804 38.869 27.9453 38.95 28.028C39.0342 28.1214 39.0991 28.2305 39.1408 28.3491C39.1825 28.4678 39.2002 28.5935 39.193 28.719C39.202 28.912 39.165 29.105 39.086 29.282C39.0157 29.4166 38.9067 29.527 38.773 29.599C38.6362 29.6744 38.4822 29.7133 38.326 29.712C38.2095 29.7167 38.0933 29.6968 37.985 29.6538C37.8766 29.6107 37.7785 29.5454 37.697 29.462C37.6096 29.3639 37.5423 29.2496 37.4991 29.1256C37.4558 29.0015 37.4375 28.8702 37.445 28.739L37.457 28.746ZM37.779 28.746C37.7647 28.9362 37.8198 29.1252 37.934 29.278C37.9826 29.3336 38.0426 29.3782 38.1098 29.4087C38.1771 29.4393 38.2501 29.4551 38.324 29.4551C38.3979 29.4551 38.4709 29.4393 38.5382 29.4087C38.6054 29.3782 38.6654 29.3336 38.714 29.278C38.8284 29.1219 38.883 28.9299 38.868 28.737C38.8816 28.5501 38.8261 28.3647 38.712 28.216C38.6634 28.1607 38.6035 28.1164 38.5365 28.0861C38.4694 28.0557 38.3966 28.0401 38.323 28.0401C38.2494 28.0401 38.1766 28.0557 38.1095 28.0861C38.0425 28.1164 37.9826 28.1607 37.934 28.216C37.8172 28.3645 37.7579 28.5502 37.767 28.739L37.779 28.746ZM40.839 28.996L41.148 29.036C41.1247 29.2286 41.0323 29.4063 40.888 29.536C40.7458 29.6571 40.5637 29.7212 40.377 29.716C40.2632 29.7204 40.1498 29.7004 40.0444 29.6572C39.939 29.6141 39.8441 29.5489 39.766 29.466C39.6005 29.2671 39.5178 29.0122 39.535 28.754C39.531 28.574 39.565 28.396 39.635 28.23C39.6956 28.0881 39.8019 27.9706 39.937 27.896C40.0719 27.8213 40.2238 27.7827 40.378 27.784C40.5554 27.7762 40.73 27.8303 40.872 27.937C41.004 28.046 41.092 28.2 41.117 28.37L40.813 28.416C40.7929 28.3084 40.7385 28.2101 40.658 28.136C40.5835 28.073 40.4885 28.0396 40.391 28.042C40.3184 28.0394 40.2462 28.053 40.1796 28.0819C40.113 28.1108 40.0537 28.1542 40.006 28.209C39.8942 28.365 39.8417 28.5558 39.858 28.747C39.8416 28.9388 39.8922 29.1303 40.001 29.289C40.0463 29.3435 40.1035 29.3868 40.1681 29.4158C40.2328 29.4447 40.3032 29.4585 40.374 29.456C40.4874 29.4593 40.5977 29.4189 40.682 29.343C40.7705 29.245 40.8218 29.119 40.827 28.987L40.838 28.996H40.839ZM41.489 27.479V27.112H41.802V27.473L41.488 27.479H41.489ZM41.489 29.674V27.823H41.802V29.674H41.488H41.489ZM43.559 29.446C43.4606 29.534 43.348 29.6047 43.226 29.655C43.1152 29.6958 42.998 29.7161 42.88 29.715C42.7103 29.7269 42.5423 29.674 42.41 29.567C42.3563 29.5194 42.3136 29.4607 42.2849 29.3948C42.2562 29.329 42.2423 29.2578 42.244 29.186C42.2422 29.1011 42.2618 29.0172 42.3009 28.9419C42.34 28.8665 42.3975 28.8023 42.468 28.755C42.5371 28.7082 42.6135 28.6731 42.694 28.651C42.786 28.631 42.879 28.615 42.974 28.605C43.163 28.587 43.35 28.551 43.533 28.497V28.413C43.538 28.3642 43.5326 28.3149 43.517 28.2683C43.5015 28.2218 43.4763 28.179 43.443 28.143C43.341 28.065 43.2141 28.0269 43.086 28.036C42.9716 28.0278 42.8574 28.055 42.759 28.114C42.6773 28.1853 42.6223 28.2823 42.603 28.389L42.297 28.347C42.3176 28.2316 42.3645 28.1224 42.434 28.028C42.5073 27.9411 42.6037 27.8766 42.712 27.842C42.8459 27.7968 42.9866 27.7748 43.128 27.777C43.259 27.773 43.39 27.791 43.514 27.832C43.5975 27.8591 43.6726 27.9073 43.732 27.972C43.781 28.035 43.814 28.108 43.829 28.186C43.843 28.282 43.848 28.378 43.845 28.475V28.892C43.84 29.076 43.847 29.262 43.865 29.445C43.8799 29.5232 43.908 29.5982 43.948 29.667H43.621C43.5827 29.595 43.5577 29.5168 43.547 29.436L43.559 29.446ZM43.533 28.745C43.3675 28.8044 43.1957 28.8447 43.021 28.865C42.928 28.874 42.836 28.895 42.748 28.927C42.7047 28.9447 42.6666 28.9733 42.6376 29.0101C42.6086 29.0468 42.5895 29.0904 42.5822 29.1367C42.575 29.183 42.5798 29.2303 42.5963 29.2742C42.6127 29.318 42.6401 29.3569 42.676 29.387C42.756 29.448 42.854 29.478 42.954 29.471C43.0668 29.4731 43.1782 29.4455 43.277 29.391C43.367 29.3421 43.4394 29.2662 43.484 29.174C43.5225 29.0743 43.5395 28.9677 43.534 28.861V28.745H43.533ZM45.093 29.395L45.138 29.671C45.0605 29.6884 44.9814 29.6978 44.902 29.699C44.8105 29.7039 44.7193 29.6854 44.637 29.645C44.5781 29.6138 44.5313 29.5638 44.504 29.503C44.4708 29.3826 44.458 29.2576 44.466 29.133V28.067H44.236V27.823H44.466V27.365L44.778 27.177V27.823H45.093V28.067H44.777V29.151C44.7735 29.2089 44.7792 29.2669 44.794 29.323C44.805 29.3486 44.8239 29.37 44.848 29.384C44.882 29.401 44.918 29.409 44.956 29.407C44.998 29.402 45.04 29.394 45.081 29.384L45.093 29.394V29.395ZM45.473 27.477V27.112H45.787V27.473L45.473 27.477ZM45.473 29.672V27.821H45.787V29.672H45.473ZM46.223 28.747C46.2115 28.6068 46.2312 28.4657 46.2807 28.334C46.3301 28.2022 46.4081 28.0831 46.509 27.985C46.6713 27.8462 46.8795 27.7728 47.093 27.779C47.2087 27.7752 47.3239 27.7954 47.4313 27.8384C47.5387 27.8815 47.636 27.9464 47.717 28.029C47.8008 28.1224 47.8653 28.2315 47.9068 28.3499C47.9483 28.4683 47.9661 28.5937 47.959 28.719C47.969 28.913 47.931 29.106 47.852 29.282C47.7826 29.4172 47.6738 29.528 47.54 29.6C47.4032 29.6755 47.2492 29.7145 47.093 29.713C46.9767 29.7175 46.8607 29.6975 46.7525 29.6545C46.6444 29.6114 46.5464 29.5462 46.465 29.463C46.3762 29.3654 46.3076 29.2512 46.2634 29.1269C46.2191 29.0026 46.1999 28.8708 46.207 28.739L46.223 28.747ZM46.546 28.747C46.5317 28.9372 46.5868 29.1262 46.701 29.279C46.7494 29.3347 46.8093 29.3794 46.8765 29.4101C46.9437 29.4407 47.0167 29.4566 47.0905 29.4566C47.1643 29.4566 47.2373 29.4407 47.3045 29.4101C47.3717 29.3794 47.4316 29.3347 47.48 29.279C47.5951 29.1228 47.6501 28.9304 47.635 28.737C47.6482 28.5504 47.5927 28.3655 47.479 28.217C47.4307 28.1613 47.3709 28.1166 47.3038 28.086C47.2367 28.0553 47.1638 28.0395 47.09 28.0395C47.0162 28.0395 46.9433 28.0553 46.8762 28.086C46.8091 28.1166 46.7493 28.1613 46.701 28.217C46.5825 28.3645 46.5214 28.5499 46.529 28.739L46.546 28.747ZM48.396 29.672V27.821H48.679V28.084C48.7421 27.9861 48.8298 27.9064 48.9333 27.8528C49.0369 27.7993 49.1526 27.7739 49.269 27.779C49.374 27.778 49.479 27.799 49.576 27.839C49.6592 27.8714 49.7318 27.926 49.786 27.997C49.834 28.067 49.867 28.145 49.883 28.228C49.898 28.329 49.903 28.431 49.901 28.533V29.672H49.587V28.546C49.5916 28.449 49.5794 28.3519 49.551 28.259C49.5258 28.1955 49.48 28.1424 49.421 28.108C49.3306 28.0619 49.2285 28.0439 49.1278 28.0564C49.0271 28.0689 48.9324 28.1112 48.856 28.178C48.7996 28.2441 48.7576 28.3211 48.7324 28.4042C48.7073 28.4873 48.6997 28.5748 48.71 28.661V29.671L48.397 29.672H48.396ZM50.1 24.895H0V25.582H50.1V24.895ZM0.017 5.174C0.017 5.038 0.046 5 0.183 5C1.183 5.01 2.183 4.995 3.183 5.014C4.641 5.022 6.091 5.231 7.492 5.634C8.57864 5.93727 9.57347 6.50442 10.388 7.285C11.298 8.1761 11.867 9.35791 11.996 10.625C12.039 10.984 12.056 11.345 12.048 11.707C12.0344 12.414 11.8758 13.1107 11.582 13.754C10.9384 15.151 9.82705 16.2793 8.44 16.944C7.59804 17.3475 6.70099 17.6242 5.778 17.765C5.17 17.871 4.558 17.937 3.944 17.985C3.456 18.025 2.968 18.053 2.479 18.048C2.38 18.048 2.332 18.07 2.347 18.178C2.354 18.228 2.337 21.752 2.336 23.461C2.336 23.573 2.316 23.61 2.193 23.608C1.51569 23.6008 0.838314 23.6008 0.161 23.608C0.028 23.608 0.011 23.563 0.011 23.448C0.02 20.403 0.021 8.218 0.017 5.174ZM2.318 15.71C2.318 15.842 2.353 15.87 2.48 15.87C3.434 15.878 4.387 15.811 5.33 15.672C6.15347 15.5543 6.94446 15.2706 7.655 14.838C8.29441 14.4696 8.80699 13.9159 9.125 13.25C9.427 12.547 9.535 11.776 9.438 11.018C9.39724 10.4569 9.22296 9.91365 8.92968 9.43355C8.63641 8.95345 8.23263 8.55041 7.752 8.258C6.78663 7.65983 5.68194 7.32377 4.547 7.283C3.86138 7.24341 3.17476 7.2234 2.488 7.223C2.349 7.223 2.322 7.257 2.322 7.389C2.323 8.774 2.323 14.319 2.317 15.71H2.318ZM32.535 23.61H32.709C33.433 23.61 34.159 23.603 34.882 23.615C34.944 23.6242 35.0072 23.6098 35.059 23.5746C35.1109 23.5394 35.1476 23.486 35.162 23.425C35.629 22.241 40.547 9.969 41.139 8.49C41.16 8.438 41.183 8.385 41.222 8.302C42.217 10.779 46.322 21.013 47.306 23.482C47.3149 23.5239 47.3397 23.5608 47.375 23.585C47.4104 23.6092 47.4537 23.6188 47.496 23.612C48.294 23.608 50.001 23.607 50.001 23.607C50.001 23.607 42.774 6.51 42.203 5.149C42.1911 5.10735 42.1647 5.07133 42.1286 5.04747C42.0925 5.02362 42.049 5.01352 42.006 5.019C41.536 5.027 41.068 5.026 40.599 5.019C40.5614 5.0147 40.5234 5.0239 40.4919 5.04496C40.4604 5.06602 40.4374 5.09757 40.427 5.134C39.779 6.655 33.786 20.681 32.534 23.608L32.535 23.61ZM18.531 5.12C18.5207 5.08528 18.498 5.05557 18.4672 5.03656C18.4364 5.01755 18.3996 5.01059 18.364 5.017C17.9107 5.02366 17.4573 5.02366 17.004 5.017C16.9467 5.00815 16.8881 5.02082 16.8395 5.05257C16.791 5.08433 16.7559 5.13292 16.741 5.189C16.314 6.204 10.788 19.007 10.721 19.29C11.129 19.055 13.811 17.656 13.811 17.656C13.811 17.656 17.525 8.386 17.558 8.313C18.508 10.68 23.252 22.514 23.641 23.488C23.667 23.553 23.677 23.618 23.781 23.618C24.628 23.613 25.477 23.618 26.336 23.618C26.146 23.149 19.466 7.341 18.53 5.119V5.12H18.531ZM8.877 23.608H9.055C9.785 23.608 10.512 23.602 11.242 23.613C11.2986 23.6197 11.3557 23.6049 11.402 23.5716C11.4483 23.5383 11.4804 23.4888 11.492 23.433C11.667 22.977 12.5 20.871 12.742 20.258C12.046 19.981 11.358 19.674 10.662 19.402C10.659 19.412 9.011 23.294 8.877 23.608ZM30.696 14.965C29.799 15.025 28.952 15.098 28.166 15.178V23.473C28.166 23.599 28.193 23.639 28.326 23.639C29.056 23.632 29.786 23.632 30.515 23.639C30.662 23.639 30.702 23.612 30.702 23.458C30.694 20.638 30.696 17.788 30.696 14.968V14.965ZM21.552 7.415H27.978C28.131 7.415 28.165 7.458 28.164 7.605C28.159 9.735 28.164 11.928 28.164 14.059C29.0062 13.987 29.8502 13.9373 30.695 13.91C30.695 11.827 30.695 9.684 30.689 7.602C30.689 7.45 30.727 7.416 30.877 7.417C32.92 7.422 34.96 7.417 37.006 7.423C37.0529 7.43146 37.1012 7.4221 37.1416 7.39675C37.1819 7.37141 37.2113 7.33191 37.224 7.286C37.354 6.962 37.499 6.645 37.641 6.326L38.209 5.025H22.558C22.5156 5.01951 22.4726 5.02939 22.4368 5.05288C22.401 5.07636 22.3748 5.11188 22.363 5.153C22.063 5.855 21.755 6.553 21.447 7.253C21.368 7.419 21.366 7.418 21.553 7.418V7.416L21.552 7.415Z" fill="#CACACA"/>
<path d="M44.203 15.7498C42.4277 15.1625 40.611 14.7089 38.768 14.3928L38.536 14.9768C40.482 15.2108 42.411 15.5628 44.314 16.0318L44.203 15.7508V15.7498ZM36.28 14.8448L36.597 14.1008C33.2379 13.7718 29.8529 13.8137 26.503 14.2258C25.2044 14.3742 23.9124 14.575 22.63 14.8278L23.13 16.0218C24.26 15.7418 25.403 15.5218 26.556 15.3628C29.7798 14.9504 33.0296 14.7773 36.279 14.8448H36.28ZM20.383 15.3518C19.416 15.6118 18.593 15.8718 17.744 16.1148C16.377 16.5268 15.044 17.0488 13.761 17.6748C12.7522 18.1989 11.7472 18.7303 10.746 19.2688L10.725 19.2808L10.667 19.4028L12.745 20.2598C14.5343 19.1791 16.403 18.2358 18.335 17.4378C19.1787 17.1397 20.0307 16.8656 20.89 16.6158L20.383 15.3518Z" fill="#CACACA"/>
</g>
<defs>
<clipPath id="clip0_3244_960">
<rect width="50" height="30" fill="white"/>
</clipPath>
</defs>
</svg>
