<svg width="109" height="27" viewBox="0 0 109 27" fill="none" xmlns="http://www.w3.org/2000/svg">
<g clip-path="url(#clip0_3244_967)">
<path d="M28.649 7.483H39.672V9.535H35.33V21.107H32.95V9.535H28.63L28.649 7.483ZM39.207 11.243H41.241V13.15H41.278C41.356 12.869 41.485 12.604 41.659 12.37C41.8446 12.1052 42.0715 11.8719 42.331 11.679C42.591 11.461 42.886 11.289 43.203 11.17C43.508 11.042 43.835 10.974 44.166 10.97C44.421 10.97 44.602 10.99 44.693 10.99C44.788 11.01 44.886 11.022 44.983 11.025V13.115C44.8274 13.0805 44.6698 13.0561 44.511 13.042C44.3519 13.02 44.1916 13.0073 44.031 13.004C43.6745 13.0026 43.3217 13.0769 42.996 13.222C42.671 13.3731 42.3803 13.5892 42.142 13.857C41.888 14.172 41.692 14.528 41.562 14.911C41.408 15.38 41.335 15.871 41.343 16.364V21.051H39.163L39.2 11.241L39.207 11.243ZM54.976 21.107H52.832V19.727H52.795C52.5171 20.2325 52.1013 20.6487 51.596 20.927C51.1079 21.2207 50.5496 21.3772 49.98 21.38C49.4692 21.4298 48.9536 21.3697 48.4679 21.2038C47.9822 21.0378 47.5376 20.7699 47.164 20.418C46.5224 19.5913 46.2115 18.5554 46.292 17.512V11.244H48.472V17.293C48.402 17.947 48.583 18.603 48.981 19.127C49.1609 19.3135 49.3789 19.4588 49.6202 19.553C49.8615 19.6473 50.1204 19.6882 50.379 19.673C50.773 19.685 51.163 19.611 51.524 19.455C51.814 19.329 52.07 19.137 52.269 18.892C52.469 18.641 52.611 18.349 52.687 18.038C52.777 17.688 52.82 17.327 52.814 16.965V11.243H54.994V21.107H54.976ZM58.682 17.947C58.6909 18.2119 58.7611 18.4711 58.8871 18.7043C59.0131 18.9375 59.1914 19.1383 59.408 19.291C59.866 19.555 60.388 19.687 60.916 19.673C61.147 19.671 61.378 19.653 61.606 19.619C61.856 19.588 62.099 19.527 62.333 19.436C62.553 19.357 62.749 19.219 62.896 19.036C63.0477 18.8466 63.1194 18.6055 63.096 18.364C63.0928 18.2341 63.0638 18.1062 63.0106 17.9877C62.9573 17.8693 62.881 17.7626 62.786 17.674C62.5697 17.4896 62.3244 17.3423 62.06 17.238C61.7292 17.1188 61.389 17.0275 61.043 16.965C60.661 16.893 60.28 16.802 59.881 16.711C59.481 16.62 59.081 16.511 58.7 16.383C58.3335 16.2664 57.9896 16.0882 57.683 15.856C57.3822 15.6394 57.1391 15.3524 56.975 15.02C56.7818 14.6314 56.6883 14.2008 56.703 13.767C56.682 13.287 56.823 12.813 57.103 12.423C57.3644 12.0589 57.7067 11.7604 58.103 11.551C58.523 11.323 58.976 11.164 59.447 11.078C59.908 10.993 60.377 10.951 60.845 10.951C61.335 10.949 61.822 11.004 62.298 11.115C62.745 11.211 63.17 11.39 63.552 11.642C63.93 11.881 64.247 12.204 64.479 12.586C64.741 13.011 64.902 13.489 64.951 13.985H62.681C62.6547 13.7659 62.5768 13.5561 62.4538 13.3728C62.3307 13.1896 62.1659 13.0382 61.973 12.931C61.5693 12.7433 61.1281 12.6502 60.683 12.659C60.537 12.659 60.338 12.677 60.137 12.696C59.9328 12.7249 59.7319 12.7735 59.537 12.841C59.3605 12.9117 59.2 13.0171 59.065 13.151C58.9983 13.221 58.9463 13.3035 58.912 13.3938C58.8776 13.4842 58.8617 13.5804 58.865 13.677C58.8601 13.7965 58.8821 13.9156 58.9294 14.0255C58.9766 14.1354 59.0479 14.2333 59.138 14.312C59.354 14.492 59.6 14.633 59.864 14.73C60.195 14.849 60.535 14.94 60.881 15.002C61.263 15.075 61.661 15.166 62.062 15.257C62.462 15.347 62.842 15.457 63.224 15.584C63.592 15.697 63.937 15.875 64.241 16.111C64.538 16.329 64.786 16.608 64.968 16.929C65.159 17.305 65.253 17.724 65.24 18.146C65.2575 18.6714 65.1183 19.19 64.84 19.636C64.57 20.039 64.217 20.38 63.804 20.636C63.363 20.893 62.885 21.082 62.387 21.198C61.8799 21.3112 61.3625 21.3721 60.843 21.38C60.2605 21.3849 59.68 21.3116 59.117 21.162C58.6236 21.0321 58.1566 20.8172 57.737 20.527C57.355 20.2452 57.0441 19.8781 56.829 19.455C56.5937 18.9804 56.4693 18.4587 56.465 17.929H58.657V17.948L58.682 17.947ZM65.857 11.243H67.51V8.263H69.69V11.225H71.653V12.841H69.691V18.109C69.692 18.309 69.705 18.509 69.728 18.709C69.745 18.854 69.788 18.996 69.855 19.126C69.931 19.2388 70.038 19.3274 70.163 19.381C70.35 19.447 70.547 19.478 70.745 19.472C71.0502 19.4787 71.3551 19.4485 71.653 19.382V21.07C71.417 21.107 71.18 21.125 70.945 21.143C70.71 21.173 70.474 21.186 70.237 21.18C69.7714 21.1941 69.3063 21.1388 68.857 21.016C68.5503 20.9268 68.2697 20.7649 68.039 20.544C67.8391 20.3231 67.7011 20.0534 67.639 19.762C67.5645 19.4031 67.522 19.0384 67.512 18.672V12.86H65.854V11.207L65.857 11.243ZM73.177 11.243H75.23V12.587H75.267C75.54 12.044 75.988 11.609 76.539 11.352C77.0965 11.0938 77.7047 10.9637 78.319 10.971C79.0203 10.9487 79.7171 11.0915 80.353 11.388C80.916 11.642 81.408 12.028 81.789 12.515C82.1826 13.0087 82.4727 13.5767 82.642 14.185C83.0171 15.477 83.0299 16.8472 82.679 18.146C82.5154 18.7382 82.2509 19.2977 81.897 19.8C81.549 20.278 81.095 20.67 80.571 20.945C79.9874 21.2459 79.3375 21.3955 78.681 21.38C78.3643 21.377 78.0485 21.3469 77.737 21.29C77.4246 21.2351 77.1198 21.1435 76.829 21.017C76.5401 20.8931 76.2707 20.728 76.029 20.527C75.7857 20.3334 75.5768 20.1001 75.411 19.837H75.375V24.76H73.195V11.243H73.177ZM80.789 16.183C80.7923 15.7464 80.731 15.3117 80.607 14.893C80.5024 14.4936 80.3237 14.1173 80.08 13.784C79.85 13.47 79.56 13.204 79.227 13.004C78.866 12.804 78.458 12.704 78.046 12.714C77.6499 12.689 77.2538 12.7621 76.8928 12.9267C76.5317 13.0914 76.2168 13.3426 75.976 13.658C75.485 14.4124 75.243 15.3018 75.284 16.201C75.276 16.668 75.338 17.133 75.467 17.581C75.574 17.977 75.759 18.348 76.012 18.671C76.245 18.975 76.543 19.223 76.884 19.398C77.249 19.585 77.654 19.678 78.064 19.67C78.503 19.682 78.936 19.575 79.318 19.36C79.652 19.16 79.942 18.894 80.172 18.58C80.399 18.243 80.559 17.867 80.645 17.471C80.738 17.047 80.787 16.615 80.79 16.181L80.789 16.183ZM84.616 7.483H86.796V9.535H84.616V7.483ZM84.616 11.243H86.796V21.107H84.616V11.243ZM88.74 7.483H90.92V21.107H88.74V7.483ZM97.568 21.38C96.8455 21.3948 96.1278 21.2585 95.461 20.98C94.8737 20.7305 94.3423 20.366 93.898 19.908C93.4666 19.4294 93.1391 18.8665 92.936 18.255C92.7067 17.5821 92.5901 16.8759 92.591 16.165C92.5814 15.4599 92.6982 14.7588 92.936 14.095C93.143 13.485 93.47 12.923 93.898 12.441C94.334 11.973 94.868 11.607 95.461 11.369C96.1304 11.0991 96.8463 10.9631 97.568 10.969C98.2909 10.9541 99.0089 11.0903 99.676 11.369C100.267 11.612 100.799 11.977 101.239 12.441C101.67 12.9197 101.998 13.4825 102.201 14.094C102.43 14.761 102.547 15.461 102.546 16.165C102.558 16.8767 102.441 17.5847 102.201 18.255C101.987 18.8614 101.66 19.4221 101.239 19.908C100.803 20.376 100.269 20.742 99.676 20.98C99.0068 21.2518 98.2902 21.3877 97.568 21.38ZM97.568 19.654C98.006 19.662 98.438 19.556 98.822 19.345C99.1696 19.1483 99.4678 18.8751 99.694 18.546C99.928 18.21 100.1 17.835 100.202 17.438C100.42 16.6104 100.42 15.7406 100.202 14.913C100.104 14.515 99.9316 14.139 99.694 13.805C99.4624 13.4857 99.165 13.2197 98.822 13.025C98.4373 12.8163 98.0056 12.7096 97.568 12.715C97.1305 12.7074 96.6985 12.8143 96.315 13.025C95.972 13.22 95.675 13.485 95.443 13.805C95.206 14.139 95.033 14.515 94.935 14.913C94.7169 15.7405 94.7169 16.6105 94.935 17.438C95.033 17.836 95.205 18.212 95.443 18.546C95.674 18.871 95.971 19.144 96.315 19.346C96.696 19.562 97.13 19.669 97.568 19.654ZM103.2 11.243H104.86V8.263H107.04V11.225H109.003V12.841H107.04V18.109C107.042 18.309 107.054 18.509 107.076 18.709C107.094 18.854 107.137 18.996 107.203 19.126C107.28 19.2387 107.387 19.3272 107.512 19.381C107.699 19.447 107.896 19.478 108.093 19.472C108.399 19.4787 108.704 19.4485 109.002 19.382V21.07C108.766 21.107 108.529 21.125 108.294 21.143C108.059 21.173 107.822 21.186 107.586 21.18C107.12 21.1941 106.655 21.1389 106.206 21.016C105.899 20.9267 105.619 20.7648 105.388 20.544C105.188 20.323 105.05 20.054 104.988 19.762C104.914 19.4031 104.871 19.0384 104.861 18.672V12.86H103.208V11.207L103.2 11.243ZM26.105 9.483H16.128L13.058 0L9.977 9.483L0 9.464L8.066 15.332L4.978 24.815L13.043 18.947L21.109 24.815L18.039 15.332L26.105 9.483Z" fill="#CACACA"/>
<path d="M18.73 17.477L18.04 15.333L13.062 18.948L18.73 17.477Z" fill="#CACACA"/>
</g>
<defs>
<clipPath id="clip0_3244_967">
<rect width="109" height="27" fill="white"/>
</clipPath>
</defs>
</svg>
