<svg width="197" height="60" viewBox="0 0 197 60" fill="none" xmlns="http://www.w3.org/2000/svg">
<g clip-path="url(#clip0_22_125)">
<path d="M97.0039 28.8854C97.0039 30.4789 95.6599 31.7707 94.002 31.7707C92.344 31.7707 91 30.4789 91 28.8854C91 27.2918 92.344 26 94.002 26C95.6599 26 97.0039 27.2918 97.0039 28.8854Z" fill="white"/>
<path d="M1.90405 39.2969V19.5289H6.30005V39.2969H1.90405ZM5.26405 31.5409V27.7609H15.1481V31.5409H5.26405ZM5.26405 23.3089V19.5289H15.5961V23.3089H5.26405ZM18.4197 39.2969V19.5289H22.8157V39.2969H18.4197ZM21.8077 39.2969V35.4329H31.5797V39.2969H21.8077ZM37.6481 31.9329L30.0321 19.5289H35.1281L40.9801 29.5529H37.7041L43.5561 19.5289H48.5401L40.8681 31.9329H37.6481ZM37.1161 39.2969V29.9169H41.5121V39.2969H37.1161ZM50.1111 39.2969V19.5289H54.5071V39.2969H50.1111ZM53.4711 39.2969V35.4889H64.3071V39.2969H53.4711ZM53.4711 31.0369V27.3689H63.3271V31.0369H53.4711ZM53.4711 23.3089V19.5289H64.1671V23.3089H53.4711ZM70.6977 31.1489V27.9009H74.8697C75.7469 27.9009 76.419 27.6769 76.8857 27.2289C77.3709 26.7809 77.6137 26.1742 77.6137 25.4089C77.6137 24.6995 77.3803 24.1115 76.9137 23.6449C76.447 23.1782 75.7749 22.9449 74.8977 22.9449H70.6977V19.5289H75.4017C76.7084 19.5289 77.8563 19.7809 78.8456 20.2849C79.835 20.7702 80.6097 21.4515 81.1697 22.3289C81.7297 23.2062 82.0097 24.2142 82.0097 25.3529C82.0097 26.5102 81.7297 27.5275 81.1697 28.4049C80.6097 29.2635 79.8257 29.9355 78.8176 30.4209C77.8096 30.9062 76.6244 31.1489 75.2617 31.1489H70.6977ZM67.3377 39.2969V19.5289H71.7337V39.2969H67.3377ZM78.0897 39.2969L71.9297 30.7849L75.9617 29.6929L83.2977 39.2969H78.0897Z" fill="white"/>
<path d="M115.284 39.6049C113.809 39.6049 112.437 39.3529 111.168 38.8489C109.917 38.3262 108.816 37.5982 107.864 36.6649C106.931 35.7315 106.203 34.6489 105.68 33.4169C105.157 32.1662 104.896 30.8222 104.896 29.3849C104.896 27.9475 105.157 26.6129 105.68 25.3809C106.203 24.1302 106.931 23.0475 107.864 22.1329C108.797 21.2182 109.889 20.5089 111.14 20.0049C112.409 19.4822 113.781 19.2209 115.256 19.2209C116.824 19.2209 118.215 19.4729 119.428 19.9769C120.66 20.4809 121.733 21.1715 122.648 22.0489L119.708 25.0169C119.185 24.4569 118.551 24.0182 117.804 23.7009C117.076 23.3835 116.227 23.2249 115.256 23.2249C114.397 23.2249 113.604 23.3742 112.876 23.6729C112.167 23.9529 111.551 24.3635 111.028 24.9049C110.524 25.4462 110.123 26.0995 109.824 26.8649C109.544 27.6302 109.404 28.4702 109.404 29.3849C109.404 30.3182 109.544 31.1675 109.824 31.9329C110.123 32.6982 110.524 33.3515 111.028 33.8929C111.551 34.4342 112.167 34.8542 112.876 35.1529C113.604 35.4515 114.397 35.6009 115.256 35.6009C116.264 35.6009 117.141 35.4422 117.888 35.1249C118.635 34.8075 119.279 34.3689 119.82 33.8089L122.788 36.7769C121.836 37.6542 120.744 38.3449 119.512 38.8489C118.299 39.3529 116.889 39.6049 115.284 39.6049ZM125.209 39.2969V19.5289H129.605V39.2969H125.209ZM128.597 39.2969V35.4329H138.369V39.2969H128.597ZM148.172 39.6049C146.548 39.6049 145.111 39.2595 143.86 38.5689C142.628 37.8782 141.658 36.9262 140.948 35.7129C140.258 34.4809 139.912 33.0809 139.912 31.5129V19.5289H144.336V31.7649C144.336 32.5489 144.504 33.2302 144.84 33.8089C145.176 34.3875 145.634 34.8355 146.212 35.1529C146.81 35.4515 147.463 35.6009 148.172 35.6009C148.919 35.6009 149.572 35.4515 150.132 35.1529C150.692 34.8355 151.131 34.3969 151.448 33.8369C151.784 33.2582 151.952 32.5769 151.952 31.7929V19.5289H156.376V31.5409C156.376 33.1089 156.031 34.4995 155.34 35.7129C154.65 36.9262 153.688 37.8782 152.456 38.5689C151.224 39.2595 149.796 39.6049 148.172 39.6049ZM163.241 39.2969V35.8809H167.889C168.747 35.8809 169.419 35.6289 169.905 35.1249C170.39 34.6209 170.633 34.0049 170.633 33.2769C170.633 32.7729 170.521 32.3249 170.297 31.9329C170.073 31.5409 169.755 31.2329 169.345 31.0089C168.953 30.7849 168.467 30.6729 167.889 30.6729H163.241V27.3409H167.525C168.253 27.3409 168.841 27.1635 169.289 26.8089C169.737 26.4355 169.961 25.8755 169.961 25.1289C169.961 24.4009 169.737 23.8595 169.289 23.5049C168.841 23.1315 168.253 22.9449 167.525 22.9449H163.241V19.5289H168.365C169.634 19.5289 170.707 19.7622 171.585 20.2289C172.481 20.6955 173.162 21.3209 173.629 22.1049C174.095 22.8889 174.329 23.7569 174.329 24.7089C174.329 25.9222 173.937 26.9489 173.153 27.7889C172.369 28.6289 171.211 29.2075 169.681 29.5249L169.793 28.0409C171.454 28.3582 172.733 29.0022 173.629 29.9729C174.543 30.9435 175.001 32.1382 175.001 33.5569C175.001 34.6395 174.73 35.6195 174.189 36.4969C173.666 37.3555 172.901 38.0369 171.893 38.5409C170.903 39.0449 169.709 39.2969 168.309 39.2969H163.241ZM159.881 39.2969V19.5289H164.221V39.2969H159.881Z" fill="white"/>
<path d="M156.467 2.31646C159.355 0.698446 162.637 1.55794 164.881 2.56377L171.571 5.56214L183.077 0L189.928 0.282952L180.428 9.54083L186.482 12.3054L192.782 10.001L197 11.8914L193.188 16.4409C193.591 16.9027 193.956 17.5529 193.625 18.2358C193.192 19.1276 191.913 19.5771 189.815 19.577C189.385 19.577 188.92 19.5581 188.421 19.5203C186.119 19.3454 183.622 18.7804 182.061 18.0807L158.147 7.36272C156.082 6.43692 155.053 5.46483 155.002 4.39069C154.975 3.8336 155.208 3.02131 156.467 2.31646ZM158.878 5.85639L182.791 16.5745C184.122 17.1706 186.305 17.6701 188.355 17.847C190.449 18.0277 191.569 17.8008 191.942 17.6081C191.866 17.5069 191.722 17.348 191.457 17.124L190.836 16.5986L194.269 12.5011L192.714 11.8041L186.408 14.1112L177.488 10.0386L185.961 1.78255L183.452 1.67893L171.6 7.40851L164.151 4.06993C161.43 2.85062 159.138 2.74392 157.338 3.75225C156.884 4.00628 156.725 4.22799 156.729 4.31491C156.73 4.32089 156.782 4.91688 158.878 5.85639Z" fill="white"/>
<path d="M4.69592 53.5919L1.41992 48.7439H2.45192L5.17592 52.8119H4.74392L7.49192 48.7439H8.48792L5.18792 53.5919H4.69592ZM4.51592 56.9999V52.9559H5.40392V56.9999H4.51592Z" fill="white"/>
<path d="M10.5129 57.1199C9.96896 57.1199 9.47296 56.9879 9.02496 56.7239C8.58496 56.4599 8.23296 56.1039 7.96896 55.6559C7.71296 55.2079 7.58496 54.7079 7.58496 54.1559C7.58496 53.6119 7.71296 53.1199 7.96896 52.6799C8.23296 52.2399 8.58496 51.8919 9.02496 51.6359C9.47296 51.3719 9.96896 51.2399 10.5129 51.2399C11.0649 51.2399 11.5609 51.3679 12.0009 51.6239C12.441 51.8799 12.7889 52.2319 13.045 52.6799C13.309 53.1199 13.441 53.6119 13.441 54.1559C13.441 54.7159 13.309 55.2199 13.045 55.6679C12.7889 56.1079 12.441 56.4599 12.0009 56.7239C11.5609 56.9879 11.0649 57.1199 10.5129 57.1199ZM10.5129 56.3039C10.913 56.3039 11.2649 56.2119 11.5689 56.0279C11.8809 55.8439 12.125 55.5879 12.301 55.2599C12.485 54.9319 12.577 54.5639 12.577 54.1559C12.577 53.7479 12.485 53.3879 12.301 53.0759C12.125 52.7559 11.8809 52.5039 11.5689 52.3199C11.2649 52.1359 10.913 52.0439 10.5129 52.0439C10.1209 52.0439 9.76896 52.1359 9.45696 52.3199C9.14496 52.5039 8.90096 52.7559 8.72496 53.0759C8.54896 53.3879 8.46096 53.7479 8.46096 54.1559C8.46096 54.5719 8.54896 54.9439 8.72496 55.2719C8.90096 55.5919 9.14496 55.8439 9.45696 56.0279C9.76896 56.2119 10.1209 56.3039 10.5129 56.3039Z" fill="white"/>
<path d="M16.9854 57.1199C16.5294 57.1199 16.1214 57.0159 15.7614 56.8079C15.4014 56.5919 15.1174 56.2999 14.9094 55.9319C14.7094 55.5639 14.6094 55.1319 14.6094 54.6359V51.3599H15.4614V54.5999C15.4614 54.9439 15.5214 55.2439 15.6414 55.4999C15.7694 55.7559 15.9494 55.9559 16.1814 56.0999C16.4134 56.2439 16.6814 56.3159 16.9854 56.3159C17.4574 56.3159 17.8294 56.1599 18.1014 55.8479C18.3814 55.5359 18.5214 55.1199 18.5214 54.5999V51.3599H19.3614V54.6359C19.3614 55.1239 19.2614 55.5559 19.0614 55.9319C18.8614 56.3079 18.5814 56.5999 18.2214 56.8079C17.8614 57.0159 17.4494 57.1199 16.9854 57.1199Z" fill="white"/>
<path d="M20.905 56.9999V51.3599H21.745V56.9999H20.905ZM21.745 53.7119L21.397 53.5559C21.397 52.8439 21.569 52.2799 21.913 51.8639C22.265 51.4479 22.745 51.2399 23.353 51.2399C23.633 51.2399 23.889 51.2919 24.121 51.3959C24.353 51.4919 24.569 51.6479 24.769 51.8639L24.217 52.4519C24.081 52.2999 23.929 52.1919 23.761 52.1279C23.601 52.0639 23.417 52.0319 23.209 52.0319C22.777 52.0319 22.425 52.1759 22.153 52.4639C21.881 52.7439 21.745 53.1599 21.745 53.7119Z" fill="white"/>
<path d="M29.2798 56.9999V48.9839H30.1198V56.9999H29.2798ZM27.8518 52.1159V51.3599H31.5358V52.1159H27.8518Z" fill="white"/>
<path d="M32.6689 56.9999V51.3599H33.5089V56.9999H32.6689ZM33.5089 53.7119L33.1609 53.5559C33.1609 52.8439 33.3329 52.2799 33.6769 51.8639C34.0289 51.4479 34.5089 51.2399 35.1169 51.2399C35.3969 51.2399 35.6529 51.2919 35.8849 51.3959C36.1169 51.4919 36.3329 51.6479 36.5329 51.8639L35.9809 52.4519C35.8449 52.2999 35.6929 52.1919 35.5249 52.1279C35.3649 52.0639 35.1809 52.0319 34.9729 52.0319C34.5409 52.0319 34.1889 52.1759 33.9169 52.4639C33.6449 52.7439 33.5089 53.1599 33.5089 53.7119Z" fill="white"/>
<path d="M39.6348 57.1199C39.1788 57.1199 38.7708 57.0159 38.4108 56.8079C38.0508 56.5919 37.7668 56.2999 37.5588 55.9319C37.3588 55.5639 37.2588 55.1319 37.2588 54.6359V51.3599H38.1108V54.5999C38.1108 54.9439 38.1708 55.2439 38.2908 55.4999C38.4188 55.7559 38.5988 55.9559 38.8308 56.0999C39.0628 56.2439 39.3308 56.3159 39.6348 56.3159C40.1068 56.3159 40.4788 56.1599 40.7508 55.8479C41.0308 55.5359 41.1708 55.1199 41.1708 54.5999V51.3599H42.0108V54.6359C42.0108 55.1239 41.9108 55.5559 41.7108 55.9319C41.5108 56.3079 41.2308 56.5999 40.8708 56.8079C40.5108 57.0159 40.0988 57.1199 39.6348 57.1199Z" fill="white"/>
<path d="M45.2825 57.1199C44.9785 57.1199 44.6865 57.0799 44.4065 56.9999C44.1265 56.9119 43.8705 56.7919 43.6385 56.6399C43.4145 56.4879 43.2185 56.3079 43.0505 56.0999L43.5905 55.5479C43.8145 55.8199 44.0665 56.0239 44.3465 56.1599C44.6345 56.2879 44.9545 56.3519 45.3065 56.3519C45.6825 56.3519 45.9745 56.2799 46.1825 56.1359C46.3985 55.9919 46.5065 55.7919 46.5065 55.5359C46.5065 55.2959 46.4305 55.1079 46.2785 54.9719C46.1265 54.8359 45.9305 54.7279 45.6905 54.6479C45.4585 54.5679 45.2105 54.4919 44.9465 54.4199C44.6825 54.3399 44.4305 54.2439 44.1905 54.1319C43.9505 54.0119 43.7545 53.8479 43.6025 53.6399C43.4585 53.4319 43.3865 53.1599 43.3865 52.8239C43.3865 52.5039 43.4625 52.2279 43.6145 51.9959C43.7745 51.7559 43.9985 51.5719 44.2865 51.4439C44.5825 51.3079 44.9305 51.2399 45.3305 51.2399C45.7545 51.2399 46.1385 51.3159 46.4825 51.4679C46.8265 51.6199 47.1025 51.8439 47.3105 52.1399L46.7705 52.6799C46.6025 52.4639 46.3905 52.2999 46.1345 52.1879C45.8865 52.0679 45.6065 52.0079 45.2945 52.0079C44.9345 52.0079 44.6585 52.0799 44.4665 52.2239C44.2825 52.3599 44.1905 52.5399 44.1905 52.7639C44.1905 52.9799 44.2665 53.1519 44.4185 53.2799C44.5705 53.3999 44.7625 53.4999 44.9945 53.5799C45.2345 53.6519 45.4865 53.7279 45.7505 53.8079C46.0145 53.8799 46.2665 53.9799 46.5065 54.1079C46.7465 54.2279 46.9385 54.3959 47.0825 54.6119C47.2345 54.8199 47.3105 55.1039 47.3105 55.4639C47.3105 55.9679 47.1265 56.3719 46.7585 56.6759C46.3985 56.9719 45.9065 57.1199 45.2825 57.1199Z" fill="white"/>
<path d="M49.4925 56.9999V48.9839H50.3325V56.9999H49.4925ZM48.0645 52.1159V51.3599H51.7485V52.1159H48.0645Z" fill="white"/>
<path d="M55.2863 57.1199C54.7183 57.1199 54.2103 56.9919 53.7623 56.7359C53.3143 56.4799 52.9583 56.1279 52.6943 55.6799C52.4383 55.2319 52.3103 54.7279 52.3103 54.1679C52.3103 53.6159 52.4383 53.1199 52.6943 52.6799C52.9503 52.2319 53.2983 51.8799 53.7383 51.6239C54.1783 51.3679 54.6703 51.2399 55.2143 51.2399C55.7263 51.2399 56.1783 51.3559 56.5703 51.5879C56.9703 51.8199 57.2823 52.1439 57.5063 52.5599C57.7383 52.9679 57.8543 53.4399 57.8543 53.9759C57.8543 54.0399 57.8503 54.1159 57.8423 54.2039C57.8343 54.2839 57.8183 54.3799 57.7943 54.4919H52.9103V53.7719H57.3383L57.0383 54.0359C57.0463 53.6199 56.9743 53.2639 56.8223 52.9679C56.6783 52.6639 56.4663 52.4319 56.1863 52.2719C55.9143 52.1039 55.5823 52.0199 55.1903 52.0199C54.7823 52.0199 54.4263 52.1079 54.1223 52.2839C53.8183 52.4599 53.5783 52.7079 53.4023 53.0279C53.2343 53.3399 53.1503 53.7119 53.1503 54.1439C53.1503 54.5759 53.2383 54.9559 53.4143 55.2839C53.5983 55.6119 53.8503 55.8679 54.1703 56.0519C54.4983 56.2359 54.8743 56.3279 55.2983 56.3279C55.6423 56.3279 55.9583 56.2679 56.2463 56.1479C56.5343 56.0199 56.7783 55.8319 56.9783 55.5839L57.5183 56.1359C57.2543 56.4479 56.9263 56.6919 56.5343 56.8679C56.1503 57.0359 55.7343 57.1199 55.2863 57.1199Z" fill="white"/>
<path d="M61.5154 57.1199C60.9954 57.1199 60.5274 56.9919 60.1114 56.7359C59.6954 56.4799 59.3634 56.1319 59.1154 55.6919C58.8754 55.2439 58.7554 54.7439 58.7554 54.1919C58.7554 53.6319 58.8754 53.1319 59.1154 52.6919C59.3634 52.2439 59.6954 51.8919 60.1114 51.6359C60.5274 51.3719 60.9954 51.2399 61.5154 51.2399C61.9394 51.2399 62.3234 51.3239 62.6674 51.4919C63.0114 51.6599 63.2954 51.8999 63.5194 52.2119C63.7514 52.5159 63.8874 52.8759 63.9274 53.2919V55.0559C63.8794 55.4639 63.7434 55.8239 63.5194 56.1359C63.3034 56.4399 63.0234 56.6799 62.6794 56.8559C62.3354 57.0319 61.9474 57.1199 61.5154 57.1199ZM61.6594 56.3159C62.0514 56.3159 62.3954 56.2279 62.6914 56.0519C62.9874 55.8679 63.2194 55.6159 63.3874 55.2959C63.5554 54.9679 63.6394 54.5959 63.6394 54.1799C63.6394 53.7559 63.5514 53.3839 63.3754 53.0639C63.2074 52.7439 62.9754 52.4919 62.6794 52.3079C62.3834 52.1239 62.0394 52.0319 61.6474 52.0319C61.2554 52.0319 60.9074 52.1239 60.6034 52.3079C60.2994 52.4919 60.0594 52.7479 59.8834 53.0759C59.7154 53.3959 59.6314 53.7639 59.6314 54.1799C59.6314 54.5959 59.7154 54.9679 59.8834 55.2959C60.0594 55.6159 60.2994 55.8679 60.6034 56.0519C60.9154 56.2279 61.2674 56.3159 61.6594 56.3159ZM64.4314 56.9999H63.5914V55.4879L63.7594 54.0959L63.5914 52.7399V48.5039H64.4314V56.9999Z" fill="white"/>
<path d="M68.665 56.9999V48.5039H69.5051V56.9999H68.665Z" fill="white"/>
<path d="M73.416 57.1199C72.96 57.1199 72.552 57.0159 72.192 56.8079C71.832 56.5919 71.548 56.2999 71.34 55.9319C71.14 55.5639 71.04 55.1319 71.04 54.6359V51.3599H71.892V54.5999C71.892 54.9439 71.952 55.2439 72.072 55.4999C72.2 55.7559 72.38 55.9559 72.612 56.0999C72.844 56.2439 73.112 56.3159 73.416 56.3159C73.888 56.3159 74.26 56.1599 74.532 55.8479C74.812 55.5359 74.952 55.1199 74.952 54.5999V51.3599H75.792V54.6359C75.792 55.1239 75.692 55.5559 75.492 55.9319C75.292 56.3079 75.012 56.5999 74.652 56.8079C74.292 57.0159 73.88 57.1199 73.416 57.1199Z" fill="white"/>
<path d="M81.1758 56.9999L79.2918 54.4319L79.1118 54.2879L76.8438 51.3599H77.8878L79.6398 53.6639L79.8078 53.8079L82.2078 56.9999H81.1758ZM76.7478 56.9999L79.1238 53.9039L79.5918 54.5279L77.7438 56.9999H76.7478ZM79.8678 54.2759L79.3878 53.6639L81.1158 51.3599H82.1118L79.8678 54.2759Z" fill="white"/>
<path d="M85.532 57.1199C85.076 57.1199 84.668 57.0159 84.308 56.8079C83.948 56.5919 83.664 56.2999 83.456 55.9319C83.256 55.5639 83.156 55.1319 83.156 54.6359V51.3599H84.008V54.5999C84.008 54.9439 84.068 55.2439 84.188 55.4999C84.316 55.7559 84.496 55.9559 84.728 56.0999C84.96 56.2439 85.228 56.3159 85.532 56.3159C86.004 56.3159 86.376 56.1599 86.648 55.8479C86.928 55.5359 87.068 55.1199 87.068 54.5999V51.3599H87.908V54.6359C87.908 55.1239 87.808 55.5559 87.608 55.9319C87.408 56.3079 87.128 56.5999 86.768 56.8079C86.408 57.0159 85.996 57.1199 85.532 57.1199Z" fill="white"/>
<path d="M89.4519 56.9999V51.3599H90.2919V56.9999H89.4519ZM90.2919 53.7119L89.9439 53.5559C89.9439 52.8439 90.1159 52.2799 90.4599 51.8639C90.8119 51.4479 91.2919 51.2399 91.8999 51.2399C92.1799 51.2399 92.4359 51.2919 92.6679 51.3959C92.8999 51.4919 93.1159 51.6479 93.3159 51.8639L92.7639 52.4519C92.6279 52.2999 92.4759 52.1919 92.3079 52.1279C92.1479 52.0639 91.9639 52.0319 91.7559 52.0319C91.3239 52.0319 90.9719 52.1759 90.6999 52.4639C90.4279 52.7439 90.2919 53.1599 90.2919 53.7119Z" fill="white"/>
<path d="M95.9408 57.0239L93.4688 51.3599H94.3927L96.3848 56.0879H96.0367L98.1367 51.3599H99.0727L96.4207 57.0239H95.9408ZM94.4047 59.3759L95.9527 56.1719L96.4207 57.0239L95.3287 59.3759H94.4047Z" fill="white"/>
<path d="M103.58 56.9999V48.9839H104.42V56.9999H103.58ZM102.152 52.1159V51.3599H105.836V52.1159H102.152Z" fill="white"/>
<path d="M106.969 56.9999V51.3599H107.809V56.9999H106.969ZM107.809 53.7119L107.461 53.5559C107.461 52.8439 107.633 52.2799 107.977 51.8639C108.329 51.4479 108.809 51.2399 109.417 51.2399C109.697 51.2399 109.953 51.2919 110.185 51.3959C110.417 51.4919 110.633 51.6479 110.833 51.8639L110.281 52.4519C110.145 52.2999 109.993 52.1919 109.825 52.1279C109.665 52.0639 109.481 52.0319 109.273 52.0319C108.841 52.0319 108.489 52.1759 108.217 52.4639C107.945 52.7439 107.809 53.1599 107.809 53.7119Z" fill="white"/>
<path d="M113.952 57.1199C113.416 57.1199 112.936 56.9919 112.512 56.7359C112.088 56.4719 111.752 56.1199 111.504 55.6799C111.264 55.2399 111.144 54.7439 111.144 54.1919C111.144 53.6319 111.264 53.1319 111.504 52.6919C111.752 52.2439 112.088 51.8919 112.512 51.6359C112.936 51.3719 113.412 51.2399 113.94 51.2399C114.372 51.2399 114.756 51.3279 115.092 51.5039C115.436 51.6719 115.712 51.9119 115.92 52.2239C116.136 52.5279 116.268 52.8839 116.316 53.2919V55.0559C116.268 55.4639 116.136 55.8239 115.92 56.1359C115.712 56.4479 115.436 56.6919 115.092 56.8679C114.756 57.0359 114.376 57.1199 113.952 57.1199ZM114.084 56.3159C114.668 56.3159 115.136 56.1199 115.488 55.7279C115.848 55.3359 116.028 54.8199 116.028 54.1799C116.028 53.7559 115.944 53.3839 115.776 53.0639C115.616 52.7359 115.388 52.4839 115.092 52.3079C114.804 52.1239 114.464 52.0319 114.072 52.0319C113.672 52.0319 113.316 52.1239 113.004 52.3079C112.7 52.4919 112.456 52.7479 112.272 53.0759C112.096 53.3959 112.008 53.7639 112.008 54.1799C112.008 54.5959 112.096 54.9639 112.272 55.2839C112.456 55.6039 112.704 55.8559 113.016 56.0399C113.328 56.2239 113.684 56.3159 114.084 56.3159ZM115.98 56.9999V55.4879L116.148 54.0959L115.98 52.7399V51.3599H116.82V56.9999H115.98Z" fill="white"/>
<path d="M120.467 56.9999L117.863 51.3599H118.799L120.995 56.2919H120.467L122.675 51.3599H123.587L120.959 56.9999H120.467Z" fill="white"/>
<path d="M126.974 57.1199C126.406 57.1199 125.898 56.9919 125.45 56.7359C125.002 56.4799 124.646 56.1279 124.382 55.6799C124.126 55.2319 123.998 54.7279 123.998 54.1679C123.998 53.6159 124.126 53.1199 124.382 52.6799C124.638 52.2319 124.986 51.8799 125.426 51.6239C125.866 51.3679 126.358 51.2399 126.902 51.2399C127.414 51.2399 127.866 51.3559 128.258 51.5879C128.658 51.8199 128.97 52.1439 129.194 52.5599C129.426 52.9679 129.542 53.4399 129.542 53.9759C129.542 54.0399 129.538 54.1159 129.53 54.2039C129.522 54.2839 129.506 54.3799 129.482 54.4919H124.598V53.7719H129.026L128.726 54.0359C128.734 53.6199 128.662 53.2639 128.51 52.9679C128.366 52.6639 128.154 52.4319 127.874 52.2719C127.602 52.1039 127.27 52.0199 126.878 52.0199C126.47 52.0199 126.114 52.1079 125.81 52.2839C125.506 52.4599 125.266 52.7079 125.09 53.0279C124.922 53.3399 124.838 53.7119 124.838 54.1439C124.838 54.5759 124.926 54.9559 125.102 55.2839C125.286 55.6119 125.538 55.8679 125.858 56.0519C126.186 56.2359 126.562 56.3279 126.986 56.3279C127.33 56.3279 127.646 56.2679 127.934 56.1479C128.222 56.0199 128.466 55.8319 128.666 55.5839L129.206 56.1359C128.942 56.4479 128.614 56.6919 128.222 56.8679C127.838 57.0359 127.422 57.1199 126.974 57.1199Z" fill="white"/>
<path d="M130.803 56.9999V48.5039H131.643V56.9999H130.803Z" fill="white"/>
<path d="M138.324 57.1199C137.788 57.1199 137.308 56.9919 136.884 56.7359C136.46 56.4719 136.124 56.1199 135.876 55.6799C135.636 55.2399 135.516 54.7439 135.516 54.1919C135.516 53.6319 135.636 53.1319 135.876 52.6919C136.124 52.2439 136.46 51.8919 136.884 51.6359C137.308 51.3719 137.784 51.2399 138.312 51.2399C138.744 51.2399 139.128 51.3279 139.464 51.5039C139.808 51.6719 140.084 51.9119 140.292 52.2239C140.508 52.5279 140.64 52.8839 140.688 53.2919V55.0559C140.64 55.4639 140.508 55.8239 140.292 56.1359C140.084 56.4479 139.808 56.6919 139.464 56.8679C139.128 57.0359 138.748 57.1199 138.324 57.1199ZM138.456 56.3159C139.04 56.3159 139.508 56.1199 139.86 55.7279C140.22 55.3359 140.4 54.8199 140.4 54.1799C140.4 53.7559 140.316 53.3839 140.148 53.0639C139.988 52.7359 139.76 52.4839 139.464 52.3079C139.176 52.1239 138.836 52.0319 138.444 52.0319C138.044 52.0319 137.688 52.1239 137.376 52.3079C137.072 52.4919 136.828 52.7479 136.644 53.0759C136.468 53.3959 136.38 53.7639 136.38 54.1799C136.38 54.5959 136.468 54.9639 136.644 55.2839C136.828 55.6039 137.076 55.8559 137.388 56.0399C137.7 56.2239 138.056 56.3159 138.456 56.3159ZM140.352 56.9999V55.4879L140.52 54.0959L140.352 52.7399V51.3599H141.192V56.9999H140.352Z" fill="white"/>
<path d="M142.871 56.9999V48.5039H143.711V56.9999H142.871Z" fill="white"/>
<path d="M145.39 56.9999V48.5039H146.23V56.9999H145.39Z" fill="white"/>
<path d="M147.909 56.9999V51.3599H148.761V56.9999H147.909ZM148.329 50.1359C148.169 50.1359 148.033 50.0799 147.921 49.9679C147.809 49.8479 147.753 49.7079 147.753 49.5479C147.753 49.3799 147.809 49.2399 147.921 49.1279C148.033 49.0159 148.169 48.9599 148.329 48.9599C148.505 48.9599 148.645 49.0159 148.749 49.1279C148.861 49.2399 148.917 49.3799 148.917 49.5479C148.917 49.7079 148.861 49.8479 148.749 49.9679C148.645 50.0799 148.505 50.1359 148.329 50.1359Z" fill="white"/>
<path d="M152.888 57.1199C152.352 57.1199 151.872 56.9919 151.448 56.7359C151.024 56.4719 150.688 56.1199 150.44 55.6799C150.2 55.2399 150.08 54.7439 150.08 54.1919C150.08 53.6319 150.2 53.1319 150.44 52.6919C150.688 52.2439 151.024 51.8919 151.448 51.6359C151.872 51.3719 152.348 51.2399 152.876 51.2399C153.308 51.2399 153.692 51.3279 154.028 51.5039C154.372 51.6719 154.648 51.9119 154.856 52.2239C155.072 52.5279 155.204 52.8839 155.252 53.2919V55.0559C155.204 55.4639 155.072 55.8239 154.856 56.1359C154.648 56.4479 154.372 56.6919 154.028 56.8679C153.692 57.0359 153.312 57.1199 152.888 57.1199ZM153.02 56.3159C153.604 56.3159 154.072 56.1199 154.424 55.7279C154.784 55.3359 154.964 54.8199 154.964 54.1799C154.964 53.7559 154.88 53.3839 154.712 53.0639C154.552 52.7359 154.324 52.4839 154.028 52.3079C153.74 52.1239 153.4 52.0319 153.008 52.0319C152.608 52.0319 152.252 52.1239 151.94 52.3079C151.636 52.4919 151.392 52.7479 151.208 53.0759C151.032 53.3959 150.944 53.7639 150.944 54.1799C150.944 54.5959 151.032 54.9639 151.208 55.2839C151.392 55.6039 151.64 55.8559 151.952 56.0399C152.264 56.2239 152.62 56.3159 153.02 56.3159ZM154.916 56.9999V55.4879L155.084 54.0959L154.916 52.7399V51.3599H155.756V56.9999H154.916Z" fill="white"/>
<path d="M161.54 56.9999V53.6879C161.54 53.1919 161.392 52.7919 161.096 52.4879C160.808 52.1759 160.424 52.0199 159.944 52.0199C159.616 52.0199 159.328 52.0919 159.08 52.2359C158.832 52.3799 158.636 52.5759 158.492 52.8239C158.348 53.0719 158.276 53.3559 158.276 53.6759L157.892 53.4599C157.892 53.0359 157.992 52.6559 158.192 52.3199C158.392 51.9839 158.66 51.7199 158.996 51.5279C159.34 51.3359 159.732 51.2399 160.172 51.2399C160.604 51.2399 160.988 51.3439 161.324 51.5519C161.66 51.7599 161.92 52.0399 162.104 52.3919C162.296 52.7439 162.392 53.1279 162.392 53.5439V56.9999H161.54ZM157.436 56.9999V51.3599H158.276V56.9999H157.436Z" fill="white"/>
<path d="M166.507 57.1199C165.955 57.1199 165.455 56.9919 165.007 56.7359C164.567 56.4719 164.215 56.1159 163.951 55.6679C163.695 55.2199 163.567 54.7199 163.567 54.1679C163.567 53.6159 163.695 53.1199 163.951 52.6799C164.215 52.2319 164.567 51.8799 165.007 51.6239C165.455 51.3679 165.955 51.2399 166.507 51.2399C166.931 51.2399 167.327 51.3199 167.695 51.4799C168.063 51.6399 168.375 51.8639 168.631 52.1519L168.079 52.7159C167.887 52.4999 167.655 52.3359 167.383 52.2239C167.111 52.1039 166.819 52.0439 166.507 52.0439C166.107 52.0439 165.751 52.1359 165.439 52.3199C165.127 52.5039 164.883 52.7559 164.707 53.0759C164.531 53.3879 164.443 53.7519 164.443 54.1679C164.443 54.5759 164.531 54.9439 164.707 55.2719C164.883 55.5919 165.127 55.8439 165.439 56.0279C165.751 56.2119 166.107 56.3039 166.507 56.3039C166.827 56.3039 167.123 56.2479 167.395 56.1359C167.667 56.0159 167.899 55.8479 168.091 55.6319L168.655 56.1959C168.391 56.4919 168.071 56.7199 167.695 56.8799C167.327 57.0399 166.931 57.1199 166.507 57.1199Z" fill="white"/>
<path d="M172.308 57.1199C171.74 57.1199 171.232 56.9919 170.784 56.7359C170.336 56.4799 169.98 56.1279 169.716 55.6799C169.46 55.2319 169.332 54.7279 169.332 54.1679C169.332 53.6159 169.46 53.1199 169.716 52.6799C169.972 52.2319 170.32 51.8799 170.76 51.6239C171.2 51.3679 171.692 51.2399 172.236 51.2399C172.748 51.2399 173.2 51.3559 173.592 51.5879C173.992 51.8199 174.304 52.1439 174.528 52.5599C174.76 52.9679 174.876 53.4399 174.876 53.9759C174.876 54.0399 174.872 54.1159 174.864 54.2039C174.856 54.2839 174.84 54.3799 174.816 54.4919H169.932V53.7719H174.36L174.06 54.0359C174.068 53.6199 173.996 53.2639 173.844 52.9679C173.7 52.6639 173.488 52.4319 173.208 52.2719C172.936 52.1039 172.604 52.0199 172.212 52.0199C171.804 52.0199 171.448 52.1079 171.144 52.2839C170.84 52.4599 170.6 52.7079 170.424 53.0279C170.256 53.3399 170.172 53.7119 170.172 54.1439C170.172 54.5759 170.26 54.9559 170.436 55.2839C170.62 55.6119 170.872 55.8679 171.192 56.0519C171.52 56.2359 171.896 56.3279 172.32 56.3279C172.664 56.3279 172.98 56.2679 173.268 56.1479C173.556 56.0199 173.8 55.8319 174 55.5839L174.54 56.1359C174.276 56.4479 173.948 56.6919 173.556 56.8679C173.172 57.0359 172.756 57.1199 172.308 57.1199Z" fill="white"/>
</g>
<defs>
<clipPath id="clip0_22_125">
<rect width="197" height="60" fill="white"/>
</clipPath>
</defs>
</svg>
