<svg width="42" height="21" viewBox="0 0 42 21" fill="none" xmlns="http://www.w3.org/2000/svg">
<path d="M1.46674 2.41006C4.35507 0.726666 7.63696 1.62088 9.88111 2.66735L16.5709 5.78687L28.0765 0L34.9285 0.294384L25.4275 9.92632L31.4825 12.8026L37.7821 10.4051L42 12.3718L38.1882 17.1052C38.5909 17.5857 38.9559 18.2621 38.6246 18.9726C38.1919 19.9004 36.9129 20.3681 34.815 20.368C34.3848 20.368 33.9201 20.3484 33.4214 20.3089C31.1185 20.127 28.6218 19.5392 27.0607 18.8113L3.14719 7.66021C1.08175 6.697 0.0529175 5.68563 0.00190735 4.5681C-0.0245476 3.98849 0.208107 3.14338 1.46674 2.41006ZM3.87809 6.09301L27.7915 17.2442C29.1215 17.8644 31.3052 18.3841 33.3545 18.5681C35.4492 18.7561 36.5692 18.52 36.9425 18.3195C36.8656 18.2143 36.7221 18.049 36.4573 17.8159L35.8362 17.2692L39.2692 13.0062L37.7142 12.281L31.4078 14.6813L22.4882 10.4442L30.9609 1.85458L28.4519 1.74676L16.5996 7.70784L9.15055 4.23437C6.43003 2.9658 4.13789 2.85479 2.33753 3.90385C1.88389 4.16815 1.72525 4.39881 1.72939 4.48925C1.72957 4.49547 1.78153 5.11554 3.87809 6.09301Z" fill="url(#paint0_linear_279_17190)"/>
<defs>
<linearGradient id="paint0_linear_279_17190" x1="21" y1="0" x2="21" y2="20.368" gradientUnits="userSpaceOnUse">
<stop stop-color="#006DD2"/>
<stop offset="1" stop-color="#59C2FD"/>
</linearGradient>
</defs>
</svg>
