<svg width="40" height="39" viewBox="0 0 40 39" fill="none" xmlns="http://www.w3.org/2000/svg">
<g clip-path="url(#clip0_279_16949)">
<path d="M38.1762 24.3501L39.3206 23.2346C40.0408 22.5321 40.0408 21.3892 39.3206 20.6867C38.9715 20.3466 38.5076 20.1591 38.0139 20.1591C37.6434 20.1591 37.2894 20.2648 36.9885 20.4615L36.7474 19.6724L37.9861 18.4643C38.7066 17.7618 38.7066 16.6189 37.9861 15.9167C37.3229 15.2699 36.2774 15.2202 35.5532 15.7644L34.0853 10.9596C34.6716 10.4091 35.2331 9.87355 35.7623 9.3576C37.2872 7.87046 38.5272 6.29674 39.2538 4.92564C40.4815 2.60835 39.9676 1.36966 39.3203 0.738561C38.6734 0.107464 37.4029 -0.393307 35.0259 0.803724C33.6199 1.51189 32.0056 2.72082 30.4806 4.20796C29.9514 4.7239 29.4018 5.27109 28.8375 5.84268L23.9092 4.41148C24.4674 3.7057 24.4164 2.6863 23.7533 2.03944C23.0328 1.33723 21.8606 1.33693 21.1404 2.03944L19.9014 3.24748L19.0917 3.01241C19.2934 2.71874 19.4018 2.37358 19.4018 2.01236C19.4018 1.53123 19.2095 1.07866 18.8607 0.738561C18.1405 0.036053 16.968 0.036053 16.2478 0.738561L15.1037 1.85406L9.27207 0.160428C9.06424 0.100323 8.83963 0.155667 8.68674 0.305035L7.18558 1.76867C6.9335 2.01414 6.96677 2.43398 7.25424 2.63899L21.968 13.1397C18.6504 16.7867 15.4546 20.4382 13.1985 23.0471L8.87046 21.424C8.65287 21.3425 8.40659 21.3934 8.24179 21.554L6.46262 23.2887C6.23251 23.5134 6.23251 23.8773 6.46262 24.1016L15.3582 32.7748C15.5852 32.9965 15.9649 32.9965 16.1922 32.7748L17.9711 31.0404C18.1359 30.8798 18.1884 30.6393 18.1045 30.4272L16.44 26.2077C19.1158 24.0079 22.8606 20.892 26.6015 17.6571L27.7703 19.2144C27.9778 19.4909 28.3987 19.5266 28.6532 19.2909C28.8653 19.0945 28.8946 18.7651 28.7222 18.5354L27.4865 16.8894C29.4427 15.1871 31.3745 13.4697 33.1271 11.8513L38.6828 30.0359L37.9165 30.7828L30.2807 20.6114C30.0884 20.3552 29.7195 20.2996 29.4567 20.487C29.1937 20.6748 29.1366 21.0345 29.3292 21.2907L37.3715 32.0033C37.5817 32.2836 38.0123 32.316 38.2641 32.0702L39.7653 30.6066C39.9185 30.4575 39.9752 30.2382 39.9136 30.0359L38.1762 24.3501ZM21.9744 2.85263C22.232 2.6015 22.662 2.6015 22.9195 2.85263C23.1802 3.10674 23.1802 3.52003 22.9195 3.77413L22.6431 4.04371L21.1865 3.6206L21.9744 2.85263ZM17.0818 1.55176C17.3421 1.29765 17.7663 1.29765 18.027 1.55176C18.2876 1.80586 18.2876 2.21915 18.027 2.47326L17.8451 2.6503L16.3888 2.22749L17.0818 1.55176ZM8.50577 2.10728L9.27207 1.36043L27.9229 6.77698C26.2631 8.48608 24.5016 10.3696 22.7554 12.2768L8.50577 2.10728ZM8.80484 22.6315L12.3952 23.9779C11.4947 25.0234 10.8041 25.8325 10.3966 26.3112L7.71353 23.6952L8.80484 22.6315ZM11.2344 27.128C13.29 24.7098 24.1558 12.0007 31.3146 5.02085C32.7349 3.63577 34.2852 2.47118 35.5673 1.8255C36.5298 1.3405 37.8176 0.899534 38.4866 1.55176C39.1555 2.20398 38.703 3.45963 38.2058 4.39809C37.5436 5.64808 36.3488 7.15932 34.9282 8.5444C27.77 15.5237 14.7347 26.1181 12.2546 28.1227L11.2344 27.128ZM16.8664 30.4915L15.7754 31.5552L13.0923 28.9392C13.583 28.5422 14.4131 27.8689 15.4855 26.9908L16.8664 30.4915ZM37.5415 21.4999C37.8021 21.2458 38.226 21.2458 38.4866 21.4999C38.7472 21.754 38.7472 22.1673 38.4866 22.4214L37.7935 23.0971L37.3596 21.6772L37.5415 21.4999ZM36.2072 16.7296C36.4675 16.4755 36.8917 16.4758 37.1524 16.7296C37.4099 16.9807 37.4099 17.4 37.1524 17.6511L36.3644 18.4194L35.9304 16.9992L36.2072 16.7296Z" fill="url(#paint0_linear_279_16949)"/>
<path d="M35.3971 33.1888L30.365 38.095C30.1505 38.3045 30.1361 38.6502 30.3336 38.8752C30.5542 39.1263 30.9592 39.1421 31.1991 38.9082L36.2311 34.002C36.4615 33.7773 36.4615 33.4134 36.2311 33.1888C36.001 32.9644 35.6275 32.9644 35.3971 33.1888Z" fill="url(#paint1_linear_279_16949)"/>
<path d="M33.715 31.5478C33.9454 31.3234 33.9454 30.9592 33.715 30.7349C33.4849 30.5102 33.1114 30.5102 32.8813 30.7349L29.7361 33.8011C29.5216 34.0106 29.5072 34.3563 29.7047 34.5813C29.9253 34.8324 30.3303 34.8482 30.5702 34.6143L33.715 31.5478Z" fill="url(#paint2_linear_279_16949)"/>
<path d="M31.8283 28.4817C32.0587 28.257 32.0587 27.8928 31.8283 27.6685C31.5979 27.4438 31.2247 27.4438 30.9943 27.6685L28.7927 29.815C28.5782 30.0242 28.5638 30.3702 28.7616 30.5952C28.9819 30.8463 29.3869 30.8621 29.6268 30.6282L31.8283 28.4817Z" fill="url(#paint3_linear_279_16949)"/>
<path d="M6.0389 4.05693C5.8085 3.83258 5.43496 3.83258 5.20486 4.05693L0.172806 8.96348C-0.057602 9.18783 -0.057602 9.55203 0.172806 9.77638C0.399857 9.99776 0.779496 9.99776 1.00685 9.77638L6.0389 4.87013C6.26901 4.64548 6.26901 4.28158 6.0389 4.05693Z" fill="url(#paint4_linear_279_16949)"/>
<path d="M8.55496 6.51028C8.32455 6.28563 7.95132 6.28563 7.72122 6.51028L4.57607 9.5768C4.36123 9.78597 4.34719 10.1317 4.54464 10.3567C4.76528 10.6078 5.16994 10.6236 5.40981 10.3897L8.55496 7.32348C8.78536 7.09883 8.78536 6.73463 8.55496 6.51028Z" fill="url(#paint5_linear_279_16949)"/>
<path d="M8.66379 11.3096C8.89114 11.531 9.27048 11.531 9.49784 11.3096L11.6994 9.1631C11.9295 8.93845 11.9295 8.57455 11.6994 8.3499C11.469 8.12555 11.0957 8.12555 10.8653 8.3499L8.66379 10.4964C8.43369 10.7211 8.43369 11.085 8.66379 11.3096Z" fill="url(#paint6_linear_279_16949)"/>
</g>
<defs>
<linearGradient id="paint0_linear_279_16949" x1="23.145" y1="0.0761719" x2="23.145" y2="32.9411" gradientUnits="userSpaceOnUse">
<stop stop-color="#006DD2"/>
<stop offset="1" stop-color="#59C2FD"/>
</linearGradient>
<linearGradient id="paint1_linear_279_16949" x1="33.2991" y1="33.0205" x2="33.2991" y2="39.074" gradientUnits="userSpaceOnUse">
<stop stop-color="#006DD2"/>
<stop offset="1" stop-color="#59C2FD"/>
</linearGradient>
<linearGradient id="paint2_linear_279_16949" x1="31.7266" y1="30.5664" x2="31.7266" y2="34.7801" gradientUnits="userSpaceOnUse">
<stop stop-color="#006DD2"/>
<stop offset="1" stop-color="#59C2FD"/>
</linearGradient>
<linearGradient id="paint3_linear_279_16949" x1="30.3116" y1="27.5" x2="30.3116" y2="30.794" gradientUnits="userSpaceOnUse">
<stop stop-color="#006DD2"/>
<stop offset="1" stop-color="#59C2FD"/>
</linearGradient>
<linearGradient id="paint4_linear_279_16949" x1="3.10574" y1="3.88867" x2="3.10574" y2="9.94241" gradientUnits="userSpaceOnUse">
<stop stop-color="#006DD2"/>
<stop offset="1" stop-color="#59C2FD"/>
</linearGradient>
<linearGradient id="paint5_linear_279_16949" x1="6.56652" y1="6.3418" x2="6.56652" y2="10.5555" gradientUnits="userSpaceOnUse">
<stop stop-color="#006DD2"/>
<stop offset="1" stop-color="#59C2FD"/>
</linearGradient>
<linearGradient id="paint6_linear_279_16949" x1="10.1816" y1="8.18164" x2="10.1816" y2="11.4756" gradientUnits="userSpaceOnUse">
<stop stop-color="#006DD2"/>
<stop offset="1" stop-color="#59C2FD"/>
</linearGradient>
<clipPath id="clip0_279_16949">
<rect width="40" height="39" fill="white"/>
</clipPath>
</defs>
</svg>
