<svg width="50" height="24" fill="none" xmlns="http://www.w3.org/2000/svg"><path d="m48.969 19.716-6.633-16.73-.192.497-3.264 8.047a28.723 28.723 0 0 0-5.657-1.886V5.398h3.446v-2.01h-8.835v2.01h3.303v3.856a34.24 34.24 0 0 0-5.16-.382 38.788 38.788 0 0 0-8.702.952c.627-3.513 3.16-4.082 5.39-4.158a6.34 6.34 0 0 1 3.322.68l.335.21V4.23l-.134-.058a10.746 10.746 0 0 0-3.972-.785c-2.214.196-7.292 1.277-7.577 7.152-1.143.36-2.264.784-3.358 1.27L7.799 3.024l-.192.498-6.583 16.232h2.402l1.162-3.14c.87-.756 1.79-1.454 2.753-2.089.648-.428 1.38-.87 2.2-1.309l2.49 6.535h2.403l-2.962-7.475a31.415 31.415 0 0 1 3.156-1.203c.005 7.62 5.647 8.566 7.38 8.67a8.84 8.84 0 0 0 4.135-.737l.114-.057v-2.297l-.325.182a8.17 8.17 0 0 1-3.77.756 4.823 4.823 0 0 1-3.543-1.35c-1.044-1.072-1.54-2.746-1.483-4.967.009-.322.03-.626.063-.913a38.209 38.209 0 0 1 8.78-.982 33.698 33.698 0 0 1 5.16.387v9.99h2.09v-9.593c1.88.424 3.71 1.04 5.464 1.838l-3.13 7.716h2.4s1.343-3.63 2.524-6.815a26.205 26.205 0 0 1 4.753 3.334l1.328 3.485 2.4-.004Zm-41.934-5.59c-.721.476-1.419.987-2.09 1.53a7189.54 7189.54 0 0 1 2.724-7.349l1.69 4.437c-.87.465-1.643.93-2.324 1.383Zm35.195-.784a27.653 27.653 0 0 0-1.567-.922c.75-2.026 1.4-3.779 1.539-4.15l2.653 6.957a26.104 26.104 0 0 0-2.625-1.885Z" fill="#CACACA"/><path d="M26.236 12.73c.007.016.02.029.035.036a.067.067 0 0 0 .051 0l.363-.21-.23 1.12a.076.076 0 0 0 .125.086l.469-.536.105.258c.038.048.067.048.124.048l.527-.125-.173.642c-.02.038 0 .085.02.085l.23.105-.958.766a.144.144 0 0 0-.067.153l.124.316-.957-.172c-.067 0-.086.037-.086.047l.02.996h-.163l.02-.996c0-.02-.02-.047-.087-.047l-.957.172.124-.316a.15.15 0 0 0-.067-.153l-.957-.766.21-.105c.038 0 .048-.047.038-.085l-.172-.642.508.125a.167.167 0 0 0 .143-.048l.105-.258.47.536a.077.077 0 0 0 .094.003.079.079 0 0 0 .03-.09l-.23-1.12.364.212c.038.02.067 0 .085-.038l.364-.718.354.718M50 22.904H0l.785-1.934h48.461L50 22.904Z" fill="#CACACA"/></svg>