<svg width="54" height="21" fill="none" xmlns="http://www.w3.org/2000/svg"><g clip-path="url(#a)" fill="#CACACA"><path d="M26.716 13.789H24.74v1.545h1.967a.765.765 0 0 0 .88-.806c-.002-.316-.212-.74-.872-.74h.001Zm6.797 0h-1.974v1.457h1.967c.647 0 .875-.287.875-.72 0-.314-.207-.737-.868-.737Zm-20.044-.01v1.207h3.485v1.22h-3.485v1.27h3.642l1.738-1.938-1.538-1.751-3.842-.008Zm9.679 4.439v-5.2l-2.269 2.513 2.27 2.687h-.001Z"/><path d="M51.992 18.855h-3.318v-1.377h2.584c.44 0 1.092 0 1.092-.618 0-.295-.114-.48-.581-.53a17.52 17.52 0 0 0-1.091-.074c-1.753-.047-2.16-.918-2.16-1.98A1.779 1.779 0 0 1 50.4 12.41h3.318v1.38H51.29c-.551.004-1.148-.066-1.148.56 0 .395.294.472.668.51.13 0 .99.044 1.106.044 1.642.08 2.011.791 2.086 1.634v-5.505h-3.709c-.427.018-.844.13-1.222.33v-.33h-4.72a2.464 2.464 0 0 0-1.21.33v-.33H35.9v.357a2.878 2.878 0 0 0-1.315-.357H28.95v.315a2.923 2.923 0 0 0-1.157-.315h-6.325l-1.216 1.344-1.188-1.344h-8.222v9.1h8.107l1.216-1.385 1.136 1.386H26.3v-2.21h1.457c.413.012.823-.07 1.2-.24v2.451h4.058V17.67h.18c.192 0 .287.04.287.257v2.21h12.971a2.53 2.53 0 0 0 1.174-.27v.27h4.88a2.044 2.044 0 0 0 1.494-.55v-2.31a1.9 1.9 0 0 1-2.008 1.58l-.001-.002Zm-25.154-2.197h-2.124v2.184h-3.031l-1.851-2.14-1.896 2.125h-6.024v-6.434h6.222l1.752 2.01 1.809-1.995h5.541a1.78 1.78 0 0 1 1.912 1.967c.003 2.254-1.494 2.283-2.31 2.283Zm9.066.863.058 1.32h-1.538l-.042-1.178c-.014-.546-.228-1.09-.774-1.09H31.54v2.27h-1.58v-6.435h4.107a1.698 1.698 0 0 1 1.895 1.722 1.755 1.755 0 0 1-1.092 1.782c.749.084 1.034.574 1.034 1.608h.001l-.001.001Zm6.035-3.742h-3.582v1.207h3.481v1.22h-3.481v1.27h3.582v1.35h-5.165v-6.434h5.163l.002 1.387Zm4.107 5.076H42.73v-1.377h2.584c.438 0 1.093 0 1.093-.618 0-.295-.116-.48-.583-.53-.208-.03-.975-.073-1.09-.074-1.76-.047-2.16-.918-2.16-1.98a1.774 1.774 0 0 1 1.88-1.866h3.318v1.38h-2.427c-.553.004-1.15-.066-1.15.56 0 .395.297.472.67.51.127 0 .99.044 1.105.044 1.94.1 2.104 1.07 2.104 2.102a1.88 1.88 0 0 1-2.028 1.85Zm-18.73-16.18h-1.974v1.458h1.967c.646 0 .88-.288.88-.72a.758.758 0 0 0-.873-.738Zm11.453 2.233h1.93l-.99-2.249-.94 2.25Z"/><path d="M47.17 0v1.315L46.397 0h-4.26v1.315L41.552 0h-6.64a3.066 3.066 0 0 0-1.68.494V0h-3.764v.352A2.55 2.55 0 0 0 28.171 0H13.23l-1.02 2.19L11.17.009H6.438v1.287L5.893-.001H2.022L0 4.572v4.49h2.758l.666-1.487h1.065l.63 1.487h5.317v-.737l.358.737h2.846l.328-.687v.687H26.52v-2.4h.23s.235-.021.235.287v2.117h6.262V8.42a4.067 4.067 0 0 0 2.053.645h3.145l.685-1.62h1.019l.73 1.62h5.2V7.489l.982 1.581h4.181V-.002L47.17 0ZM16.538 7.729H14.96V3.033L12.8 7.73h-1.44L9.25 2.954V7.73H6.073l-.625-1.44h-3.15l-.616 1.44H.012l2.815-6.433h2.09l2.757 6.195V1.296h2.48l1.932 4.315 1.937-4.315h2.515V7.73v-.001Zm6.284-5.048h-3.579V3.89h3.482v1.22h-3.482v1.27h3.582v1.35h-5.162V1.298h5.162l-.003 1.384v-.001Zm6.88 3.726.057 1.323h-1.53l-.044-1.179c-.013-.544-.23-1.09-.776-1.09h-2.067V7.73h-1.58V1.297h4.108a1.696 1.696 0 0 1 1.895 1.722A1.754 1.754 0 0 1 28.673 4.8c.744.085 1.035.573 1.035 1.607h-.006Zm2.464 1.323h-1.574V1.29h1.58l-.006 6.44Zm17.877 0h-2.147l-2.842-4.71v4.71h-3.12l-.625-1.436h-3.151L37.54 7.73h-2.08c-1.752 0-2.529-1.467-2.491-3.249.053-2.64 1.615-3.19 2.332-3.19h2.063v1.397h-.975c-1.05 0-1.87.11-1.87 1.619v.466c.009 1.134.604 1.403.984 1.482.093.022 1.012.022 1.012.022l2.176-4.983h2.09l2.69 6.038v-6.04h2.335l2.663 4.452V1.291h1.58l-.007 6.439h.001Z"/><path d="M2.892 4.905h1.92l-.982-2.25-.938 2.25Z"/></g><defs><clipPath id="a"><path fill="#fff" d="M0 0h54v21H0z"/></clipPath></defs></svg>