<svg width="40" height="41" fill="none" xmlns="http://www.w3.org/2000/svg"><g clip-path="url(#a)"><path d="M4.472 19.438c-2.104.01-3.593.45-4.466 1.32a20.18 20.18 0 0 1 .112-2.69l.123-.03a19.026 19.026 0 0 1 4.349-.589h.027c1.447 0 2.157.477 2.157 1.456v.72c-.76-.128-1.53-.19-2.302-.187Zm-2.025 3.723a1.36 1.36 0 0 0 .41 1.088c.365.266.81.393 1.259.36h.017a4.548 4.548 0 0 0 2.655-.878l-.007-1.723a12.502 12.502 0 0 0-2.247-.194h-.057c-1.365.006-2.032.446-2.03 1.347Zm33.188-1.47c-1.373.004-2.04.45-2.035 1.347a1.36 1.36 0 0 0 .41 1.088 1.9 1.9 0 0 0 1.26.36h.016a4.55 4.55 0 0 0 2.657-.878l-.008-1.723a12.481 12.481 0 0 0-2.246-.194h-.054Zm3.69 5.267h.047A20.262 20.262 0 0 1 20.254 40.51 20.262 20.262 0 0 1 1.02 26.61c.83.354 1.727.521 2.628.491h.04a6.17 6.17 0 0 0 3.447-1.049l1.038 1.031 1.987-.008-.038-8.243c-.01-2.726-1.857-4.107-5.49-4.107h-.056c-1.33.022-2.654.185-3.95.487A20.264 20.264 0 0 1 20.25-.004a20.262 20.262 0 0 1 19.745 15.722 6.615 6.615 0 0 0-4.21-1.117h-.057a19.334 19.334 0 0 0-4.42.596l-.12.03.012 2.727.19-.045a19.032 19.032 0 0 1 4.349-.588h.027c1.447 0 2.157.476 2.157 1.456v.72a13.507 13.507 0 0 0-2.305-.19c-3.577.013-5.386 1.281-5.376 3.773a3.65 3.65 0 0 0 1.168 2.93 5.152 5.152 0 0 0 3.379.962h.04a6.167 6.167 0 0 0 3.446-1.05l1.05 1.036Zm-17.487-3.76c-.01-2.492-1.407-3.755-4.153-3.755h-.036l-1.952.008a1.5 1.5 0 0 1-.98-.262.962.962 0 0 1-.306-.785.865.865 0 0 1 .53-.81 4.091 4.091 0 0 1 1.78-.306 11.66 11.66 0 0 1 4.315.776l.212.084-.012-2.865-.104-.035a13.346 13.346 0 0 0-4.337-.68 7.158 7.158 0 0 0-4.108.99 3.416 3.416 0 0 0-1.394 2.972 3.812 3.812 0 0 0 .976 2.82 3.924 3.924 0 0 0 2.839.937h.03l2.182-.009c.317-.023.632.068.887.258a1.014 1.014 0 0 1 .283.79c0 .274 0 1.11-1.806 1.116h-.067a12.28 12.28 0 0 1-4.52-.775l-.21-.084.01 2.866.105.035c1.455.47 2.976.7 4.505.68h.074a6.606 6.606 0 0 0 3.93-.995 3.466 3.466 0 0 0 1.328-2.97h-.001Zm7.476 3.8-.01-2.72-1.395.005h-.01c-.883 0-1.296-.486-1.3-1.528l-.022-5.393 2.696-.01-.01-2.72-3.065.011-.467-1.95-2.527.01.043 10.916a3.624 3.624 0 0 0 .809 2.54 3.108 3.108 0 0 0 2.367.852h.023l2.868-.013Z" fill="#CACACA"/></g><defs><clipPath id="a"><path fill="#fff" d="M0 0h40v41H0z"/></clipPath></defs></svg>