<svg width="91" height="24" fill="none" xmlns="http://www.w3.org/2000/svg"><g clip-path="url(#a)" fill="#CACACA"><path d="M14.47 5.42v12.86a6.884 6.884 0 0 0 0-12.86Zm-9.358 6.43a6.896 6.896 0 0 0 4.42 6.427V5.42a6.9 6.9 0 0 0-4.42 6.429Z"/><path d="M17.558 0h-5.585A11.71 11.71 0 0 0 0 11.974 11.894 11.894 0 0 0 11.973 23.74h5.585c6.49.032 12.413-5.29 12.413-11.767 0-7.08-5.923-11.975-12.413-11.973ZM12 22.715A10.867 10.867 0 1 1 12 .982a10.867 10.867 0 0 1 0 21.733Zm22.998-11.75c0 .96.688 1.073 1.3 1.073 2.697 0 3.583-2.035 3.583-3.896a3.752 3.752 0 0 0-3.908-4.023c-.516 0-.75.037-.975.05v6.795Zm-1.223-5.857c0-1.124-.586-1.05-1.148-1.06v-.326c.487.024.986.024 1.474.024.524 0 1.237-.024 2.16-.024 3.233 0 4.994 2.16 4.994 4.37 0 1.238-.722 4.346-5.144 4.346-.636 0-1.224-.025-1.81-.025-.56 0-1.112.012-1.673.025v-.325c.75-.075 1.112-.103 1.148-.949V5.108Zm9.254-.3a.613.613 0 1 1 .611-.624.62.62 0 0 1-.61.624Zm-1.34 7.305h.236c.35 0 .6 0 .6-.413V8.317c0-.548-.187-.625-.65-.873v-.2c.586-.176 1.286-.413 1.34-.449a.441.441 0 0 1 .225-.064c.062 0 .088.075.088.175V11.7c0 .413.274.413.625.413h.211v.325c-.425 0-.862-.025-1.31-.025-.45 0-.9.012-1.36.025l-.006-.324Zm3.856-3.72c0-.462-.138-.587-.722-.827V7.33a16.42 16.42 0 0 0 1.65-.6c.038 0 .075.026.075.125v.811a3.67 3.67 0 0 1 2.166-.936c1.06 0 1.435.775 1.435 1.753v3.222c0 .412.274.412.624.412h.224v.325c-.438 0-.874-.025-1.323-.025-.449 0-.9.013-1.349.025v-.325h.225c.35 0 .6 0 .6-.412V8.47c0-.713-.436-1.06-1.149-1.06a3.333 3.333 0 0 0-1.449.598v3.696c0 .412.276.412.626.412h.225v.325c-.437 0-.875-.025-1.324-.025-.45 0-.9.013-1.349.025v-.325h.225c.35 0 .6 0 .6-.412l-.01-3.312Zm8.604.2c.31 0 .348-.164.348-.31a1.06 1.06 0 0 0-1.086-1.149c-.76 0-1.285.56-1.435 1.46l2.173-.002Zm-2.21.4c-.029.24-.029.481 0 .721a2.085 2.085 0 0 0 1.834 2.16 2.393 2.393 0 0 0 1.686-.837l.175.175a2.927 2.927 0 0 1-2.31 1.412 2.51 2.51 0 0 1-2.384-2.722c0-2.448 1.65-3.172 2.52-3.172a1.982 1.982 0 0 1 2.1 2.185l-.114.075-3.507.002Zm3.92 3.12h.337c.348 0 .598 0 .598-.413V8.194c0-.387-.46-.462-.649-.563v-.186c.912-.388 1.411-.713 1.526-.713.073 0 .11.037.11.163v1.123h.027c.31-.487.836-1.286 1.598-1.286a.68.68 0 0 1 .676.9.605.605 0 0 1-.55.4c-.39 0-.39-.3-.826-.3a1.054 1.054 0 0 0-.912 1.036v2.933c0 .413.25.413.6.413h.7v.325c-.688-.012-1.21-.025-1.748-.025-.516 0-1.037.013-1.486.025l-.002-.326h.001Zm4.806-1.41a1.65 1.65 0 0 0 1.574 1.522.881.881 0 0 0 1.01-.886c0-1.473-2.72-.999-2.72-3.01a1.716 1.716 0 0 1 1.934-1.598 3.28 3.28 0 0 1 1.422.363l.088 1.273h-.288a1.278 1.278 0 0 0-1.36-1.238.878.878 0 0 0-.974.825c0 1.462 2.896 1.012 2.896 2.972 0 .825-.662 1.7-2.147 1.7a3.286 3.286 0 0 1-1.523-.426l-.138-1.436.226-.062Zm14.868-4.725h-.31a2.373 2.373 0 0 0-2.67-2.047c-1.438 0-3.523.961-3.523 3.957a4.069 4.069 0 0 0 3.721 4.332 2.539 2.539 0 0 0 2.51-2.16l.287.075-.286 1.822a6.997 6.997 0 0 1-2.76.662 4.442 4.442 0 0 1-4.769-4.695 4.59 4.59 0 0 1 4.732-4.396 9.004 9.004 0 0 1 2.946.664l.122 1.786Zm.45 6.13h.237c.35 0 .6 0 .6-.412V4.742c0-.812-.188-.837-.662-.974v-.2a7.929 7.929 0 0 0 1.286-.538 1.32 1.32 0 0 1 .273-.138c.077 0 .103.075.103.175v8.627c0 .413.275.413.625.413h.206v.325c-.423 0-.86-.025-1.31-.025-.45 0-.898.012-1.36.025l.003-.323Zm8.017-.36c0 .225.137.236.348.236.15 0 .337-.012.5-.012v.263c-.609.085-1.21.214-1.8.386l-.062-.038v-1.01a3.368 3.368 0 0 1-2.21 1.048 1.345 1.345 0 0 1-1.373-1.485V7.938c0-.325-.05-.638-.748-.7v-.237c.45-.012 1.444-.087 1.61-.087.138 0 .138.087.138.362v3.22c0 .376 0 1.445 1.086 1.445a2.785 2.785 0 0 0 1.51-.76v-3.36c0-.25-.599-.388-1.048-.518V7.08c1.123-.076 1.824-.176 1.948-.176.103 0 .103.088.103.225L84 11.746v.001Zm2.484-.723a1.34 1.34 0 0 0 1.287 1.275c1.34 0 1.897-1.312 1.897-2.423A2.38 2.38 0 0 0 87.672 7.4a1.922 1.922 0 0 0-1.188.587v3.038Zm0-3.396a3.158 3.158 0 0 1 1.857-.899 2.43 2.43 0 0 1 2.322 2.622 3.153 3.153 0 0 1-2.985 3.271 3.687 3.687 0 0 1-1.735-.437l-.373.287-.262-.137c.114-.736.172-1.479.174-2.223V4.75c0-.813-.188-.838-.662-.975v-.2a7.82 7.82 0 0 0 1.286-.538c.086-.057.178-.103.275-.138.075 0 .103.076.103.176V7.63ZM32.616 19.696h.095c.245 0 .503-.033.503-.387v-3.56c0-.354-.258-.387-.503-.387h-.096v-.204c.266 0 .673.027 1.007.027.334 0 .747-.027 1.067-.027v.206h-.095c-.244 0-.503.034-.503.388v3.56c0 .353.26.386.503.386h.095v.206c-.326 0-.735-.026-1.073-.026-.338 0-.734.026-1 .026v-.208Zm6.74-1.135.013-.013V16a.562.562 0 0 0-.59-.64h-.15v-.202c.32 0 .632.027.95.027.28 0 .56-.027.836-.027v.206h-.103c-.287 0-.605.055-.605.863v3.095c-.005.23.01.457.04.684h-.258l-3.499-3.9v2.8c0 .59.115.794.64.794h.114v.206c-.292 0-.584-.026-.875-.026-.292 0-.62.026-.929.026V19.7h.095c.47 0 .61-.319.61-.86v-2.862a.607.607 0 0 0-.618-.61h-.089v-.21c.258 0 .523.027.78.027.206 0 .402-.027.605-.027l3.033 3.403Zm2.077-3.063c-.51 0-.529.123-.63.62h-.207c.026-.19.06-.38.081-.579a4.1 4.1 0 0 0 .04-.576h.163c.055.206.225.197.413.197H44.8c.184 0 .353-.007.368-.207l.162.027c-.027.184-.054.367-.075.551-.02.185-.012.367-.012.55l-.206.075c-.015-.25-.049-.653-.502-.653H43.42v3.61c0 .524.238.584.563.584h.13v.206c-.266 0-.74-.026-1.108-.026-.413 0-.884.026-1.149.026v-.206h.13c.373 0 .563-.033.563-.57V15.5h-1.117l.001-.002Zm4.11 4.198h.095c.245 0 .503-.033.503-.387v-3.56c0-.354-.26-.387-.503-.387h-.095v-.204c.413 0 1.123.027 1.692.027.57 0 1.275-.027 1.738-.027-.012.292 0 .741.014 1.04l-.206.054c-.032-.44-.115-.794-.825-.794h-.944v1.78h.808c.407 0 .496-.23.536-.599h.206a16.247 16.247 0 0 0 0 1.57l-.206.04c-.04-.407-.06-.673-.53-.673h-.814v1.583c0 .441.393.441.825.441.816 0 1.175-.055 1.38-.825l.19.046c-.09.361-.17.722-.23 1.081-.436 0-1.218-.027-1.829-.027-.61 0-1.42.027-1.807.027l.002-.206Zm5.653-2.242h.332c.68 0 1.045-.258 1.045-1.06a.928.928 0 0 0-.992-.99c-.129.001-.258.01-.386.026v2.024h.001Zm-.87-1.576c0-.495-.272-.516-.483-.516h-.123v-.204c.218 0 .64.027 1.054.027.414 0 .733-.027 1.093-.027.855 0 1.617.23 1.617 1.196a1.283 1.283 0 0 1-.944 1.196l1.162 1.738a.753.753 0 0 0 .66.412v.206c-.226 0-.444-.026-.667-.026-.224 0-.43.026-.639.026-.522-.7-.994-1.436-1.414-2.202h-.45v1.455c0 .524.243.542.555.542h.123v.206c-.388 0-.78-.026-1.169-.026-.327 0-.645.026-.985.026v-.206h.123c.253 0 .483-.114.483-.366l.004-3.457Zm8.647 2.681.013-.013v-2.548a.56.56 0 0 0-.59-.64h-.15v-.2c.32 0 .631.027.951.027.28 0 .556-.027.837-.027v.206h-.103c-.285 0-.605.055-.605.863v3.095c-.004.23.01.457.04.684h-.258l-3.498-3.9v2.8c0 .59.115.794.638.794h.116v.206c-.292 0-.585-.026-.876-.026-.29 0-.619.026-.928.026V19.7h.094c.47 0 .611-.319.611-.86v-2.862a.608.608 0 0 0-.618-.61h-.09v-.21c.258 0 .524.027.782.027.206 0 .4-.027.604-.027l3.03 3.401Zm3.144-2.642h-.013l-.632 1.922h1.271l-.626-1.922Zm-.99 3.01c-.069.17-.119.348-.15.53 0 .205.284.236.508.236h.075v.206c-.272-.014-.55-.026-.825-.026-.244 0-.488.012-.732.026v-.206h.041a.62.62 0 0 0 .59-.442l1.088-3.117c.105-.274.19-.556.252-.843.215-.077.422-.175.62-.292a.152.152 0 0 1 .053-.015.048.048 0 0 1 .05.021c.02.055.04.116.061.17l1.25 3.553c.081.238.162.49.25.694a.432.432 0 0 0 .45.27h.04v.206c-.31-.014-.612-.026-.937-.026-.325 0-.674.012-1.02.026v-.206h.075c.156 0 .422-.027.422-.196a2.152 2.152 0 0 0-.137-.489l-.264-.788H61.34l-.214.707v.001Zm3.92-3.432c-.51 0-.53.123-.634.62h-.206c.027-.19.06-.38.082-.579a4.1 4.1 0 0 0 .04-.576h.165c.053.206.223.197.406.197h3.507c.182 0 .351-.008.366-.207l.163.027c-.026.184-.053.366-.073.551-.02.185-.015.367-.015.55l-.206.075c-.013-.25-.047-.653-.502-.653h-1.115v3.61c0 .524.238.584.564.584h.13v.206c-.266 0-.74-.027-1.108-.027-.407 0-.884.027-1.148.027v-.206h.13c.373 0 .563-.033.563-.57v-3.628h-1.11Zm4.142 4.198h.094c.246 0 .503-.033.503-.387v-3.56c0-.354-.257-.387-.503-.387h-.094v-.2c.266 0 .672.026 1.004.026.332 0 .748-.027 1.068-.027v.206h-.095c-.246 0-.504.034-.504.388v3.56c0 .353.26.386.504.386h.095v.206c-.327 0-.735-.026-1.074-.026-.34 0-.733.026-1 .026l.002-.21Zm4.884.007c1.32 0 1.548-1.162 1.548-2.152 0-.99-.536-2.195-1.664-2.195-1.19 0-1.542 1.06-1.542 1.97 0 1.216.557 2.378 1.657 2.378h.001Zm-.104-4.645a2.385 2.385 0 0 1 2.602 2.344A2.49 2.49 0 0 1 74.004 20a2.4 2.4 0 0 1-2.54-2.438 2.476 2.476 0 0 1 2.505-2.507Zm7.18 3.506.014-.013V16a.56.56 0 0 0-.592-.64h-.147v-.202c.317 0 .631.027.95.027.28 0 .557-.027.835-.027v.206h-.103c-.285 0-.604.055-.604.863v3.095c-.005.23.01.458.04.684h-.257l-3.5-3.9v2.8c0 .59.116.794.64.794h.114v.206c-.29 0-.583-.026-.875-.026-.292 0-.62.026-.929.026V19.7h.096c.47 0 .611-.319.611-.86v-2.862a.608.608 0 0 0-.619-.61h-.089v-.21c.26 0 .524.027.782.027.206 0 .4-.027.605-.027l3.03 3.403h-.002Zm3.146-2.642h-.014l-.632 1.922h1.27l-.624-1.922Zm-.994 3.01a2.842 2.842 0 0 0-.15.53c0 .205.287.236.51.236h.076v.206a16.196 16.196 0 0 0-.825-.026c-.246 0-.49.012-.733.026v-.206h.038a.62.62 0 0 0 .591-.442l1.09-3.116c.104-.275.19-.557.25-.844.214-.077.422-.175.62-.292a.14.14 0 0 1 .052-.014c.02 0 .033 0 .047.02.02.055.041.116.062.17l1.25 3.553c.08.238.162.49.25.694a.43.43 0 0 0 .45.27h.04v.206a20.25 20.25 0 0 0-.938-.026c-.327 0-.672.012-1.019.026v-.206h.075c.155 0 .422-.027.422-.196a2.174 2.174 0 0 0-.137-.489l-.264-.788h-1.547l-.21.708Zm5.335.31c0 .271.19.353.406.38.3.023.6.02.9-.014a.974.974 0 0 0 .65-.367c.097-.15.167-.315.207-.489h.197c-.074.387-.17.768-.252 1.155-.596 0-1.196-.026-1.792-.026-.597 0-1.196.026-1.794.026v-.206h.094c.245 0 .516-.033.516-.455v-3.49c0-.355-.267-.389-.516-.389h-.094v-.206c.36 0 .713.027 1.073.027s.687-.027 1.031-.027v.206h-.17c-.258 0-.46.007-.46.367l.004 3.507Z"/></g><defs><clipPath id="a"><path fill="#fff" d="M0 0h91v24H0z"/></clipPath></defs></svg>