<svg width="68" height="35" fill="none" xmlns="http://www.w3.org/2000/svg"><g clip-path="url(#a)"><path d="M68 14.18S48.12 28.207 11.708 34.49H68V14.18ZM2.909.23H-.002v10.144h2.894a5.3 5.3 0 0 0 3.62-1.17 5.102 5.102 0 0 0 1.84-3.898C8.353 2.31 6.116.23 2.91.23h-.001ZM5.22 7.847a3.748 3.748 0 0 1-2.71.808h-.53v-6.71h.531a3.668 3.668 0 0 1 2.71.82A3.405 3.405 0 0 1 6.312 5.29 3.47 3.47 0 0 1 5.22 7.848ZM9.266.23h1.977v10.145H9.266V.23Zm9.736 7.058a3.27 3.27 0 0 1-3.498 3.333 3.946 3.946 0 0 1-3.513-1.933l1.275-1.233a2.34 2.34 0 0 0 2.16 1.353 1.447 1.447 0 0 0 1.54-1.43 1.214 1.214 0 0 0-.596-1.047 7.597 7.597 0 0 0-1.369-.578c-1.856-.67-2.494-1.388-2.494-2.786A2.982 2.982 0 0 1 15.671.061a4.433 4.433 0 0 1 2.982 1.128L17.62 2.54a2.058 2.058 0 0 0-1.6-.819c-.853 0-1.475.487-1.475 1.126 0 .545.35.836 1.538 1.276 2.255.821 2.92 1.552 2.92 3.165H19h.002ZM25.026 0a5.056 5.056 0 0 1 2.435.62v2.33a3.31 3.31 0 0 0-2.478-1.142 3.37 3.37 0 0 0-3.318 3.483 3.316 3.316 0 0 0 3.409 3.5 3.166 3.166 0 0 0 2.39-1.11v2.332a5.456 5.456 0 0 1-2.479.595 5.253 5.253 0 0 1-5.353-5.296A5.334 5.334 0 0 1 25.027 0h-.001Zm21.207.23h2.144l-4.382 10.402h-1.064L38.625.23h2.16l2.707 6.815L46.234.23h-.001Zm3.044 0h5.613v1.717h-3.638v2.251h3.495v1.718h-3.495v2.74h3.635v1.718H49.28L49.277.23Zm13.445 2.993c0-1.9-1.307-2.994-3.59-2.994h-2.936v10.145h1.983V6.296h.258l2.737 4.078h2.434L60.412 6.1a2.7 2.7 0 0 0 2.312-2.878h-.002v.001Zm-3.97 1.675h-.577V1.825h.608c1.236 0 1.905.52 1.905 1.506 0 1.017-.668 1.567-1.934 1.567h-.002ZM64.118.984c0-.177-.12-.274-.336-.274h-.288v.892h.211v-.348l.25.348h.265l-.297-.369a.245.245 0 0 0 .197-.249h-.002Zm-.374.122h-.04V.874h.042c.105 0 .159.04.159.114 0 .076-.053.118-.162.118h.001Zm.08-.73a.781.781 0 1 0 .002-.002h-.003l.001.001Zm0 1.42a.64.64 0 1 1 .614-.638.63.63 0 0 1-.613.637l-.002.001h.001ZM20.795 13.15v3.668l-2.646-2.768v2.562h-.45v-3.668s2.53 2.651 2.647 2.776v-2.577l.449.006v.001Zm3.594.424v-.425h-1.831v3.47h1.83v-.423h-1.38v-1.263h1.34v-.42h-1.34v-.936l1.38-.003h.001Zm3.463-.425h-2.064v.425h.821v3.041h.45v-3.04h.828v-.426h-.035Zm5.593 0-.869 2.48-1.096-2.714-.032.08s-1 2.471-1.064 2.634l-.869-2.479h-.485l1.351 3.706s1.038-2.582 1.099-2.739c.061.156 1.1 2.74 1.1 2.74l1.35-3.707h-.485Zm5.36 1.736a1.804 1.804 0 1 1-3.61.015 1.804 1.804 0 0 1 3.611-.015h-.002.001Zm-.452 0a1.354 1.354 0 1 0-.224.756c.148-.225.226-.49.224-.76v.004Zm4.087 1.734h-.07l-.496-.016s-.998-1.449-.998-1.475h-.058v1.487h-.45v-3.47h.527c.86 0 1.277.317 1.277.972a.915.915 0 0 1-.826.958l1.094 1.54v.004Zm-1.618-1.896h.08c.408 0 .825-.068.825-.57 0-.535-.397-.576-.828-.576h-.077v1.146Zm3.936.048 1.631-1.618h-.607s-1.288 1.29-1.395 1.405v-1.405h-.45v3.47h.45V15.12a.31.31 0 0 0 .055-.047c.048.051 1.368 1.53 1.368 1.53l.548.012h.082s-1.635-1.8-1.686-1.848l.004.004ZM33.67.042a5.315 5.315 0 0 0-5.41 5.213A5.406 5.406 0 1 0 33.67.042Zm0 8.466a3.165 3.165 0 0 1-3.262-3.226 3.259 3.259 0 1 1 3.262 3.226Z" fill="#CACACA"/></g><defs><clipPath id="a"><path fill="#fff" d="M0 0h68v35H0z"/></clipPath></defs></svg>