<svg width="53" height="41" fill="none" xmlns="http://www.w3.org/2000/svg"><g clip-path="url(#a)"><path d="M9.51 40.428v-2.692a1.6 1.6 0 0 0-1.683-1.7 1.655 1.655 0 0 0-1.507.762 1.58 1.58 0 0 0-1.419-.762 1.414 1.414 0 0 0-1.256.638v-.529h-.933v4.288h.941v-2.36a1 1 0 0 1 1.05-1.139c.618 0 .933.4.933 1.13v2.382h.943v-2.378a1.009 1.009 0 0 1 1.05-1.139c.636 0 .942.4.942 1.13v2.387l.94-.018Zm13.94-4.288h-1.536v-1.3h-.94v1.3h-.855v.856h.872v1.97c0 1 .386 1.588 1.49 1.588.412.002.816-.113 1.165-.332l-.268-.8a1.72 1.72 0 0 1-.826.244c-.449 0-.62-.287-.62-.718v-1.952h1.527l-.01-.856Zm7.96-.108a1.266 1.266 0 0 0-1.132.628v-.52h-.925v4.288h.934v-2.4c0-.709.305-1.1.9-1.1.2-.002.397.035.583.108l.287-.9a1.982 1.982 0 0 0-.663-.116l.015.012Zm-12.034.449a3.201 3.201 0 0 0-1.749-.449c-1.086 0-1.795.52-1.795 1.373 0 .7.52 1.13 1.48 1.264l.45.063c.511.073.753.207.753.449 0 .332-.34.521-.978.521a2.288 2.288 0 0 1-1.427-.449l-.449.726a3.1 3.1 0 0 0 1.858.557c1.238 0 1.956-.583 1.956-1.4s-.565-1.149-1.5-1.283l-.449-.063c-.405-.055-.728-.136-.728-.423s.305-.5.817-.5c.473.005.936.132 1.346.368l.415-.754Zm24.995-.449a1.267 1.267 0 0 0-1.13.628v-.52h-.924v4.288h.933v-2.4c0-.709.305-1.1.9-1.1.2-.002.398.034.583.108l.287-.9a1.982 1.982 0 0 0-.663-.116l.014.012Zm-12.024 2.243a2.163 2.163 0 0 0 2.085 2.245h.2a2.254 2.254 0 0 0 1.545-.512l-.449-.754c-.323.246-.716.38-1.122.386a1.376 1.376 0 0 1 0-2.745c.406.003.8.139 1.122.386l.45-.754a2.238 2.238 0 0 0-1.546-.512 2.166 2.166 0 0 0-2.285 2.04v.22Zm8.74 0V36.14h-.934v.52a1.63 1.63 0 0 0-1.346-.628 2.244 2.244 0 0 0 0 4.487 1.63 1.63 0 0 0 1.346-.628v.52h.933v-2.136Zm-3.474 0a1.3 1.3 0 1 1 0 .1c-.003-.032 0-.066 0-.1Zm-11.26-2.243a2.244 2.244 0 1 0 .063 4.487 2.6 2.6 0 0 0 1.78-.584l-.449-.691a2.037 2.037 0 0 1-1.248.449 1.19 1.19 0 0 1-1.283-1.049h3.186v-.36a2.037 2.037 0 0 0-2.037-2.243l-.012-.009Zm0 .834a1.063 1.063 0 0 1 1.085 1.041h-2.243a1.1 1.1 0 0 1 1.141-1.041h.017Zm23.38 1.417v-3.867h-.9v2.243a1.63 1.63 0 0 0-1.347-.628 2.244 2.244 0 0 0 0 4.487 1.63 1.63 0 0 0 1.346-.628v.52h.9v-2.127Zm1.556 1.522a.433.433 0 0 1 .308.121.436.436 0 0 1 .1.134.426.426 0 0 1 0 .332.432.432 0 0 1-.1.134.438.438 0 0 1-.139.09.408.408 0 0 1-.169.035.45.45 0 0 1-.405-.26.423.423 0 0 1 0-.332.462.462 0 0 1 .423-.255l-.018.001Zm0 .759c.044 0 .088-.01.13-.027a.326.326 0 0 0 0-.592.341.341 0 0 0-.369.071.332.332 0 0 0 0 .449.336.336 0 0 0 .252.1l-.013-.001Zm.026-.534a.176.176 0 0 1 .116.036.112.112 0 0 1 .042.094.113.113 0 0 1-.032.081.149.149 0 0 1-.094.04l.13.148h-.1l-.122-.148h-.04v.148h-.089v-.394l.19-.005Zm-.1.076v.108h.1a.105.105 0 0 0 .055 0 .046.046 0 0 0 0-.04.046.046 0 0 0 0-.04.08.08 0 0 0-.055 0l-.1-.028Zm-4.935-1.822a1.282 1.282 0 1 1 0 .1c-.002-.033 0-.067.002-.101l-.002.001Zm-31.509 0V36.14h-.933v.52a1.633 1.633 0 0 0-1.346-.628 2.244 2.244 0 0 0 0 4.487 1.63 1.63 0 0 0 1.346-.628v.52h.933v-2.127Zm-3.473 0a1.2 1.2 0 1 1-.01.111.857.857 0 0 1 0-.111h.01Z" fill="#CACACA"/><path d="M33.2 3.455H19.065v25.398H33.2V3.455Z" fill="#9A9A9A"/><path d="M19.963 16.156a16.118 16.118 0 0 1 6.17-12.7 16.152 16.152 0 1 0 0 25.4 16.123 16.123 0 0 1-6.17-12.7Zm32.304 0a16.152 16.152 0 0 1-26.13 12.697 16.155 16.155 0 0 0 0-25.4 16.152 16.152 0 0 1 26.133 12.7l-.003.004Zm-1.544 10.005v-.52h.211v-.108H50.4v.108h.23v.52h.093Zm1.036 0v-.628h-.16l-.188.449-.189-.45h-.144v.629h.116v-.471l.176.408h.121l.174-.408v.476l.094-.005Z" fill="#CACACA"/></g><defs><clipPath id="a"><path fill="#fff" d="M0 0h53v41H0z"/></clipPath></defs></svg>