<svg width="72" height="28" fill="none" xmlns="http://www.w3.org/2000/svg"><g clip-path="url(#a)" fill="#CACACA"><path d="M58.93 14.963a2.055 2.055 0 1 1 0-4.111 2.055 2.055 0 0 1 0 4.11Zm0-6.073a4.018 4.018 0 1 0 0 8.035 4.018 4.018 0 0 0 0-8.035Zm-18.45 6.073a2.055 2.055 0 1 1 0-4.111 2.055 2.055 0 0 1 0 4.11Zm0-6.073a4.019 4.019 0 1 0 0 8.037 4.019 4.019 0 0 0 0-8.037Z"/><path d="M54.658 15.08c-.256.073-.52.123-.785.15-.692 0-.831-.243-.831-.892v-3.714h1.64V9.077h-1.64V6.88h-1.848L50.8 9.075h-1.385a2.642 2.642 0 0 0-2.355 1.652l-.636-1.652h-1.327v7.698h2.263v-3.348c0-1.686 1.004-2.77 2.182-2.805h1.235v3.832c0 1.8.924 2.47 2.425 2.47.588 0 1.173-.093 1.732-.276l-.277-1.566Zm11.038-3.58v5.277H63.49V9.064h1.337l.45 1.178"/><path d="M65.27 10.253a3.563 3.563 0 0 1 2.655-1.363 2.573 2.573 0 0 1 2.584 2.817v5.069h-2.263v-5a1.048 1.048 0 0 0-1.143-1.015 1.88 1.88 0 0 0-1.397.75M27.675 6.28h2.528l3.464 6.595V6.281h2.09v10.495h-2.29l-3.705-7.263v7.263h-2.087V6.28ZM70.51 9.075v.15h.209v.727h.172v-.727h.22v-.15h-.601Zm1.26 0-.15.578-.162-.578h-.232v.878h.15v-.692l.185.692h.115l.185-.692v.692H72v-.878h-.23Zm-41.358 13.89c0-.67-.208-1.455-.97-1.455a1.337 1.337 0 0 0-.97.461v2.206a1.11 1.11 0 0 0 .879.438c.68-.011 1.062-.6 1.062-1.651l-.001.001Zm-2.089 1.639-.161.496h-.417v-5.761h.727v2.101a1.565 1.565 0 0 1 1.132-.543c1.097 0 1.582 1.086 1.582 2.067 0 1.316-.681 2.206-1.694 2.206a1.403 1.403 0 0 1-1.166-.566h-.003Zm3.328-3.626h.738s1.04 3.476 1.04 3.487l.97-3.487h.712l-1.386 4.434a1.415 1.415 0 0 1-1.443 1.19 1.84 1.84 0 0 1-.497-.07l.09-.52c.114.024.23.04.346.047a.89.89 0 0 0 .913-.704l-1.483-4.377Zm5.623 3.522.356-.508a2.614 2.614 0 0 0 1.628.555c.75 0 1.19-.357 1.19-.98 0-.693-.535-.912-1.293-1.179-.82-.289-1.57-.657-1.57-1.708 0-.935.739-1.444 1.71-1.444.54-.027 1.077.1 1.546.37l-.3.554a2.476 2.476 0 0 0-1.258-.311c-.613 0-1.028.242-1.028.82 0 .611.404.808 1.248 1.108.808.277 1.663.635 1.663 1.766 0 1.005-.713 1.604-1.894 1.604a2.923 2.923 0 0 1-1.997-.647h-.001Zm4.308-3.522h.738s1.04 3.476 1.04 3.487l.97-3.487h.712l-1.386 4.434a1.415 1.415 0 0 1-1.443 1.19c-.168 0-.335-.024-.497-.07l.09-.52c.114.024.23.04.346.047a.89.89 0 0 0 .913-.704l-1.483-4.377Zm8.578-.08c.831 0 1.05.703 1.05 1.385V25.1h-.727v-2.817c0-.404-.07-.773-.566-.773-.41.045-.786.248-1.05.565v3.026h-.727v-2.818c0-.404-.07-.773-.566-.773-.41.053-.786.26-1.05.577v3.014h-.728v-4.122h.427l.184.67a1.954 1.954 0 0 1 1.398-.75.932.932 0 0 1 .946.712 1.937 1.937 0 0 1 1.409-.713Zm4.408 2.08a2.862 2.862 0 0 0-1.558.578.578.578 0 0 0-.128.415.561.561 0 0 0 .636.635c.384-.02.752-.161 1.05-.403v-1.225Zm0-.658c0-.555-.173-.832-.773-.832-.416.024-.82.146-1.178.357l-.268-.485a2.71 2.71 0 0 1 1.49-.462c1.027 0 1.431.555 1.431 1.478v2.736h-.415l-.184-.496a1.83 1.83 0 0 1-1.27.554 1.148 1.148 0 0 1-1.258-1.143 1.081 1.081 0 0 1 .554-1.004 5.436 5.436 0 0 1 1.871-.52v-.184.001Zm1.917-1.337h.427l.184.68a1.99 1.99 0 0 1 1.478-.761c.891 0 1.12.704 1.12 1.386v2.816h-.727v-2.82c0-.405-.104-.774-.635-.774a1.68 1.68 0 0 0-1.12.589V25.1h-.728v-4.122l.001.004v.001Zm3.984.508v-.508h.635l.184-1.178h.52v1.178h.923v.508h-.923v2.54c0 .381.07.589.462.589.16-.007.32-.034.473-.081l.104.496c-.213.084-.44.127-.67.127-.75 0-1.085-.356-1.085-1.097v-2.584h-.623v.01Zm5.495 1.27c-.023-.866-.312-1.316-.89-1.316-.52 0-.867.403-.924 1.316h1.814Zm-.785 1.835a1.94 1.94 0 0 0 1.12-.403l.3.438c-.406.368-.94.563-1.488.543-1.063 0-1.744-.82-1.744-2.125 0-1.27.659-2.147 1.687-2.147 1.062 0 1.628.796 1.628 2.17v.174h-2.563c.058.877.37 1.35 1.062 1.35h-.002Zm2.173-1.523c0-1.063.473-2.171 1.743-2.171.471-.024.933.133 1.293.438l-.312.485a1.586 1.586 0 0 0-.97-.335c-.866 0-.992.891-.992 1.593 0 .681.15 1.515 1.016 1.515a1.45 1.45 0 0 0 .98-.392l.347.427a1.822 1.822 0 0 1-1.363.554c-1.258-.011-1.743-1.085-1.743-2.113M12.03 7.528a8.232 8.232 0 1 0 5.82 14.052 8.272 8.272 0 0 0 2.413-5.82 8.238 8.238 0 0 0-8.233-8.232Zm0 20.263a12.03 12.03 0 1 1 12.03-12.03 12.053 12.053 0 0 1-12.03 12.03ZM26.07 1.87h-.934v.935h.934V1.87Zm0-1.87h-.934v.935h.934V0Zm-2.689 2.805h-.878v.913h.878v-.913Zm-1.732 1.802h-.89v.878h.89v-.878Z"/><path d="M24.35 3.718h-.982v.878h.982v-.878Zm-3.59.046h-.878v.843h.878v-.843Zm2.621.843h-.878v.878h.878v-.878Zm1.754-3.66h-.924v.934h.924V.946Z"/><path d="M24.212 1.87h-1.709v.935h1.71V1.87Zm-1.709.935h-.854v1.801h.854v-1.8Zm-.854 2.68v.877h-.892v-.878h-1.464v.636h-.785v.785h.878v.877h-.878v-.877h-.935V8.28h-.878v.878h-.59v.877h-.645a49.648 49.648 0 0 0-3.083 5.785c-1.975-2.749-3.51-3.832-4.71-4.226-.647-.196-1.433.508-.357 1.628a20.05 20.05 0 0 1 4.018 6.8c.404.947 2.194 1.097 2.552.127a28.92 28.92 0 0 1 3.186-6.238v-.98h.704v-.878h.74v-1.028h.877v-.98h-.89v-.9h.89v.9h.866v-.89h.687v-1.07h.785v-.739h.75v-1.86h-.826Z"/></g><defs><clipPath id="a"><path fill="#fff" d="M0 0h72v28H0z"/></clipPath></defs></svg>