<svg width="50" height="30" fill="none" xmlns="http://www.w3.org/2000/svg"><g clip-path="url(#a)" fill="#CACACA"><path d="M.247 29.665v-2.553h.964c.13-.002.26.006.389.026.113.015.22.056.315.119a.63.63 0 0 1 .205.25.834.834 0 0 1-.13.9.995.995 0 0 1-.75.225H.585v1.04l-.338-.007Zm.339-1.34h.66a.704.704 0 0 0 .466-.122.435.435 0 0 0 .137-.343.46.46 0 0 0-.083-.274.377.377 0 0 0-.214-.151 1.41 1.41 0 0 0-.315-.023H.583l.003.913Zm3.281 1.112a1.166 1.166 0 0 1-.333.209.972.972 0 0 1-.346.06.672.672 0 0 1-.469-.148.492.492 0 0 1-.166-.381.51.51 0 0 1 .224-.431.764.764 0 0 1 .225-.104c.092-.021.185-.037.279-.046.19-.018.377-.054.559-.109v-.083a.346.346 0 0 0-.09-.27.526.526 0 0 0-.357-.107.556.556 0 0 0-.326.078.474.474 0 0 0-.156.275l-.307-.043a.76.76 0 0 1 .139-.318.605.605 0 0 1 .277-.187c.134-.045.275-.067.417-.065.13-.004.26.015.385.056a.512.512 0 0 1 .218.14.48.48 0 0 1 .097.214c.014.096.019.192.016.289v.416c-.004.185.002.37.021.554a.68.68 0 0 0 .08.222h-.328a.67.67 0 0 1-.058-.222l-.001.001Zm-.025-.701a2.317 2.317 0 0 1-.513.119c-.093.01-.185.03-.273.062a.273.273 0 0 0-.072.46c.08.061.178.09.278.084a.647.647 0 0 0 .322-.08.491.491 0 0 0 .208-.217.759.759 0 0 0 .05-.313v-.115Zm2.083.25.308.04a.801.801 0 0 1-.258.5.755.755 0 0 1-.512.18.797.797 0 0 1-.61-.25 1.007 1.007 0 0 1-.231-.712 1.29 1.29 0 0 1 .099-.524.693.693 0 0 1 .302-.333.896.896 0 0 1 .442-.113.766.766 0 0 1 .493.153.7.7 0 0 1 .25.433l-.305.047a.506.506 0 0 0-.154-.28.4.4 0 0 0-.267-.095.489.489 0 0 0-.385.167.806.806 0 0 0-.149.538.834.834 0 0 0 .143.542.467.467 0 0 0 .373.167.44.44 0 0 0 .309-.114.563.563 0 0 0 .151-.345l.001-.001Zm.65-1.517v-.357h.313v.361l-.313-.004Zm0 2.195v-1.852h.313v1.852h-.313Zm.938 0v-1.607h-.278v-.244h.277v-.197a.858.858 0 0 1 .034-.278.402.402 0 0 1 .159-.198.574.574 0 0 1 .32-.076c.099.001.197.012.293.032l-.047.274a1.035 1.035 0 0 0-.185-.018.276.276 0 0 0-.202.061.333.333 0 0 0-.059.229v.166h.36v.244h-.36v1.608l-.313.004h.001Zm.99-2.195v-.357h.313v.361l-.314-.004h.001Zm0 2.195v-1.852h.313v1.852h-.314.001Zm2.07-.678.309.04a.8.8 0 0 1-.259.5.755.755 0 0 1-.511.18.794.794 0 0 1-.611-.25 1.008 1.008 0 0 1-.231-.712c-.004-.18.03-.358.1-.524a.693.693 0 0 1 .303-.333.895.895 0 0 1 .441-.113.769.769 0 0 1 .494.153c.132.109.22.263.245.433l-.305.047a.505.505 0 0 0-.154-.28.4.4 0 0 0-.267-.095.49.49 0 0 0-.385.167.81.81 0 0 0-.149.538.834.834 0 0 0 .144.542.466.466 0 0 0 .373.167.441.441 0 0 0 .308-.114.562.562 0 0 0 .155-.345v-.001Zm1.275.678.981-2.556h.365l1.046 2.556h-.386l-.297-.774h-1.07l-.28.774h-.359Zm.738-1.05h.866l-.266-.707a7.342 7.342 0 0 1-.182-.53c-.033.167-.079.33-.137.489l-.281.749v-.001Zm1.833.501.31-.048c.01.11.063.212.146.285a.508.508 0 0 0 .333.1.49.49 0 0 0 .321-.088.265.265 0 0 0 .105-.207.189.189 0 0 0-.092-.166 1.336 1.336 0 0 0-.321-.107 2.93 2.93 0 0 1-.479-.15.462.462 0 0 1-.271-.427.494.494 0 0 1 .211-.404.658.658 0 0 1 .2-.091 1.066 1.066 0 0 1 .653.025c.095.03.18.089.243.166a.666.666 0 0 1 .109.287l-.307.041a.333.333 0 0 0-.12-.223.444.444 0 0 0-.284-.083.514.514 0 0 0-.309.072.206.206 0 0 0-.091.166c0 .04.013.08.038.11a.277.277 0 0 0 .121.084c.03.011.123.038.277.083.158.038.313.087.465.146a.477.477 0 0 1 .206.166.526.526 0 0 1-.017.564.583.583 0 0 1-.264.215.958.958 0 0 1-.39.076.868.868 0 0 1-.55-.15.7.7 0 0 1-.248-.445l.005.003Zm1.983-1.642v-.36h.315v.36h-.315Zm0 2.195v-1.851h.315v1.851h-.315Zm2.071-.228a1.17 1.17 0 0 1-.333.21.975.975 0 0 1-.346.06.673.673 0 0 1-.47-.15.491.491 0 0 1-.166-.38.506.506 0 0 1 .224-.43.77.77 0 0 1 .226-.104c.092-.022.186-.037.28-.047.19-.017.377-.054.56-.108v-.084a.349.349 0 0 0-.089-.27.527.527 0 0 0-.357-.106.557.557 0 0 0-.327.077.474.474 0 0 0-.156.275l-.307-.042a.761.761 0 0 1 .138-.319.606.606 0 0 1 .277-.186c.134-.045.275-.067.417-.065.13-.004.261.014.385.055a.51.51 0 0 1 .218.14.48.48 0 0 1 .097.214c.014.096.019.192.016.289v.417c-.005.184.002.37.02.553a.699.699 0 0 0 .083.223h-.327a.668.668 0 0 1-.068-.226l.005.004Zm-.025-.701c-.166.06-.338.1-.513.12-.093.009-.186.03-.274.062a.275.275 0 0 0-.072.46.41.41 0 0 0 .278.084.644.644 0 0 0 .322-.08.49.49 0 0 0 .208-.217.756.756 0 0 0 .05-.313v-.116h.001Zm2.564.93v-2.25h-.842v-.307h2.025v.302h-.845v2.25l-.338.004v.001Zm1.425 0v-1.852h.283v.28a.76.76 0 0 1 .2-.26.35.35 0 0 1 .2-.062.613.613 0 0 1 .322.1l-.108.291a.447.447 0 0 0-.23-.067.3.3 0 0 0-.185.062.333.333 0 0 0-.117.171 1.226 1.226 0 0 0-.052.366v.97h-.313v.001Zm2.472-.23c-.098.088-.211.16-.333.21a.975.975 0 0 1-.346.06.673.673 0 0 1-.47-.148.493.493 0 0 1-.166-.381.512.512 0 0 1 .224-.43.77.77 0 0 1 .226-.104c.092-.022.186-.037.28-.047.19-.017.377-.053.56-.108v-.084a.343.343 0 0 0-.09-.27.526.526 0 0 0-.357-.106.559.559 0 0 0-.327.077.476.476 0 0 0-.156.275l-.306-.042a.756.756 0 0 1 .138-.319.604.604 0 0 1 .277-.186c.134-.046.275-.067.416-.065.13-.004.261.014.385.055a.512.512 0 0 1 .218.14.502.502 0 0 1 .097.214c.013.096.019.192.016.289v.417c-.005.184.002.37.02.553a.704.704 0 0 0 .083.223h-.327a.665.665 0 0 1-.067-.226l.005.004v-.001Zm-.026-.7c-.165.06-.337.1-.512.12-.094.009-.186.03-.274.062a.273.273 0 0 0-.125.102.277.277 0 0 0 .052.358c.08.061.178.09.278.084a.647.647 0 0 0 .322-.08.488.488 0 0 0 .208-.217.76.76 0 0 0 .05-.313l.001-.116Zm1.39.93-.705-1.852h.334l.397 1.109c.043.12.082.244.119.373.035-.119.073-.236.116-.352l.412-1.13h.322l-.7 1.852h-.296.001Zm2.61-.596.324.04a.79.79 0 0 1-.285.44.961.961 0 0 1-1.174-.093.976.976 0 0 1-.238-.702 1.03 1.03 0 0 1 .24-.725.817.817 0 0 1 .624-.258.79.79 0 0 1 .608.25c.167.198.251.453.235.712v.083h-1.381c0 .171.06.337.172.468a.514.514 0 0 0 .387.162.48.48 0 0 0 .295-.09.6.6 0 0 0 .187-.292l.006.005Zm-1.031-.508h1.034a.629.629 0 0 0-.118-.35.481.481 0 0 0-.39-.182.503.503 0 0 0-.363.145.575.575 0 0 0-.17.384l.007.003Zm1.813 1.103v-2.556h.313v2.556h-.313Zm1.5 0 .982-2.556h.364l1.046 2.556h-.385l-.299-.774h-1.068l-.28.774h-.36Zm.738-1.049h.866l-.267-.707a7.382 7.382 0 0 1-.181-.53c-.033.166-.08.329-.138.488l-.28.75v-.001Zm1.833.5.31-.048c.01.11.062.212.145.286a.507.507 0 0 0 .333.1.49.49 0 0 0 .321-.089.264.264 0 0 0 .104-.206.19.19 0 0 0-.092-.167 1.35 1.35 0 0 0-.321-.107 2.91 2.91 0 0 1-.479-.15.46.46 0 0 1-.27-.426.472.472 0 0 1 .056-.23.517.517 0 0 1 .154-.175.647.647 0 0 1 .2-.091 1.088 1.088 0 0 1 .654.025c.095.03.18.088.243.166a.667.667 0 0 1 .108.287l-.306.042a.334.334 0 0 0-.12-.224.443.443 0 0 0-.284-.083.513.513 0 0 0-.309.072.207.207 0 0 0-.092.166c-.001.04.012.08.038.11a.276.276 0 0 0 .12.084c.032.011.123.038.278.083.158.039.313.088.465.146a.474.474 0 0 1 .206.167.526.526 0 0 1-.017.564.584.584 0 0 1-.264.214.96.96 0 0 1-.39.076.869.869 0 0 1-.55-.15.697.697 0 0 1-.254-.449l.013.007Zm1.856 0 .31-.048c.01.11.062.212.145.286a.507.507 0 0 0 .334.1.49.49 0 0 0 .32-.089.264.264 0 0 0 .105-.206.19.19 0 0 0-.093-.167 1.358 1.358 0 0 0-.32-.107 2.93 2.93 0 0 1-.479-.15.458.458 0 0 1-.271-.426.472.472 0 0 1 .056-.23.508.508 0 0 1 .154-.175.642.642 0 0 1 .2-.091 1.088 1.088 0 0 1 .653.025.52.52 0 0 1 .243.166.666.666 0 0 1 .109.287l-.307.042a.338.338 0 0 0-.122-.224.443.443 0 0 0-.283-.083.514.514 0 0 0-.308.072.206.206 0 0 0-.093.166c0 .04.013.08.04.11a.275.275 0 0 0 .12.084c.03.011.123.038.276.083.158.039.313.087.465.146a.472.472 0 0 1 .207.167.526.526 0 0 1-.017.564.588.588 0 0 1-.264.214.956.956 0 0 1-.391.076.87.87 0 0 1-.55-.15.7.7 0 0 1-.251-.449l.012.007Zm1.865-.373a.953.953 0 0 1 .286-.762.858.858 0 0 1 .583-.206.835.835 0 0 1 .624.25.95.95 0 0 1 .243.691 1.24 1.24 0 0 1-.107.563.76.76 0 0 1-.313.317.91.91 0 0 1-.447.113.833.833 0 0 1-.629-.25 1 1 0 0 1-.252-.723l.012.007Zm.322 0a.79.79 0 0 0 .155.532.518.518 0 0 0 .78 0 .81.81 0 0 0 .154-.541.765.765 0 0 0-.156-.521.518.518 0 0 0-.778 0 .785.785 0 0 0-.167.523l.012.007Zm3.06.25.309.04a.802.802 0 0 1-.26.5.756.756 0 0 1-.511.18.796.796 0 0 1-.611-.25 1.008 1.008 0 0 1-.231-.712c-.004-.18.03-.358.1-.524a.692.692 0 0 1 .302-.334.895.895 0 0 1 .441-.112.766.766 0 0 1 .494.153c.132.109.22.263.245.433l-.304.046a.507.507 0 0 0-.155-.28.398.398 0 0 0-.267-.094.487.487 0 0 0-.385.167.806.806 0 0 0-.148.538.833.833 0 0 0 .143.542.465.465 0 0 0 .373.167.441.441 0 0 0 .308-.113.564.564 0 0 0 .145-.356l.011.009h.001Zm.65-1.517v-.367h.313v.361l-.314.006h.001Zm0 2.195v-1.851h.313v1.851h-.314.001Zm2.07-.228a1.167 1.167 0 0 1-.333.209.975.975 0 0 1-.346.06.673.673 0 0 1-.47-.148.493.493 0 0 1-.166-.381.506.506 0 0 1 .224-.431.763.763 0 0 1 .226-.104c.092-.02.185-.036.28-.046.189-.018.376-.054.559-.108v-.084a.345.345 0 0 0-.09-.27.526.526 0 0 0-.357-.107.558.558 0 0 0-.327.078.478.478 0 0 0-.156.275l-.306-.042a.765.765 0 0 1 .137-.319.604.604 0 0 1 .278-.186 1.24 1.24 0 0 1 .416-.065c.131-.004.262.014.386.055a.51.51 0 0 1 .218.14.502.502 0 0 1 .097.214c.014.096.019.192.016.289v.417c-.005.184.002.37.02.553a.704.704 0 0 0 .083.222h-.327a.682.682 0 0 1-.074-.231l.012.01Zm-.026-.701c-.166.06-.337.1-.512.12-.093.009-.185.03-.273.062a.271.271 0 0 0-.072.46.41.41 0 0 0 .278.084.644.644 0 0 0 .323-.08.49.49 0 0 0 .207-.217.76.76 0 0 0 .05-.313v-.116h-.001Zm1.56.65.045.276a1.157 1.157 0 0 1-.236.028.536.536 0 0 1-.265-.054.3.3 0 0 1-.133-.142 1.121 1.121 0 0 1-.038-.37v-1.066h-.23v-.244h.23v-.458l.312-.188v.646h.315v.244h-.316v1.084a.545.545 0 0 0 .017.172.13.13 0 0 0 .054.061c.034.017.07.025.108.023.042-.005.084-.013.125-.023l.012.01v.001Zm.38-1.918v-.365h.314v.361l-.314.004Zm0 2.195v-1.851h.314v1.851h-.314Zm.75-.925a.953.953 0 0 1 .286-.762.86.86 0 0 1 .584-.206.836.836 0 0 1 .624.25.952.952 0 0 1 .242.69c.01.194-.028.387-.107.563a.75.75 0 0 1-.312.318.907.907 0 0 1-.447.113.835.835 0 0 1-.628-.25.995.995 0 0 1-.258-.724l.016.008Zm.323 0a.79.79 0 0 0 .155.532.517.517 0 0 0 .779 0 .808.808 0 0 0 .155-.542.766.766 0 0 0-.156-.52.515.515 0 0 0-.778 0 .783.783 0 0 0-.172.522l.017.008Zm1.85.925v-1.851h.283v.263a.668.668 0 0 1 .59-.305c.105-.001.21.02.307.06a.486.486 0 0 1 .21.158c.048.07.081.148.097.231.015.101.02.203.018.305v1.139h-.314v-1.126a.845.845 0 0 0-.036-.287.305.305 0 0 0-.13-.151.508.508 0 0 0-.565.07.63.63 0 0 0-.146.483v1.01l-.313.001h-.001Zm1.704-4.777H0v.687h50.1v-.687ZM.017 5.174C.017 5.038.046 5 .183 5c1 .01 2-.005 3 .014 1.458.008 2.908.217 4.309.62a6.845 6.845 0 0 1 2.896 1.651 5.447 5.447 0 0 1 1.608 3.34c.043.359.06.72.052 1.082a5.167 5.167 0 0 1-.466 2.047 6.6 6.6 0 0 1-3.142 3.19 9.46 9.46 0 0 1-2.662.821c-.608.106-1.22.172-1.834.22-.488.04-.976.068-1.465.063-.099 0-.147.022-.132.13.007.05-.01 3.574-.011 5.283 0 .112-.02.149-.143.147a95.582 95.582 0 0 0-2.032 0c-.133 0-.15-.045-.15-.16.009-3.045.01-15.23.006-18.274ZM2.318 15.71c0 .132.035.16.162.16.954.008 1.907-.059 2.85-.198a6.142 6.142 0 0 0 2.325-.834 3.646 3.646 0 0 0 1.47-1.588 4.28 4.28 0 0 0 .313-2.232 3.53 3.53 0 0 0-1.686-2.76 6.53 6.53 0 0 0-3.205-.975c-.686-.04-1.372-.06-2.059-.06-.139 0-.166.034-.166.166.001 1.385.001 6.93-.005 8.321h.001Zm30.217 7.9h.174c.724 0 1.45-.007 2.173.005a.25.25 0 0 0 .28-.19c.467-1.184 5.385-13.456 5.977-14.935.021-.052.044-.105.083-.188.995 2.477 5.1 12.711 6.084 15.18a.167.167 0 0 0 .19.13c.798-.004 2.505-.005 2.505-.005S42.774 6.51 42.203 5.149a.181.181 0 0 0-.197-.13c-.47.008-.938.007-1.407 0a.16.16 0 0 0-.172.115c-.648 1.521-6.641 15.547-7.893 18.474l.001.002ZM18.531 5.12a.147.147 0 0 0-.167-.103 44.04 44.04 0 0 1-1.36 0 .235.235 0 0 0-.263.172c-.427 1.015-5.953 13.818-6.02 14.101.408-.235 3.09-1.634 3.09-1.634s3.714-9.27 3.747-9.343a36648.7 36648.7 0 0 1 6.083 15.175c.026.065.036.13.14.13.847-.005 1.696 0 2.555 0-.19-.469-6.87-16.277-7.806-18.499v.001h.001ZM8.877 23.608h.178c.73 0 1.457-.006 2.187.005a.228.228 0 0 0 .25-.18c.175-.456 1.008-2.562 1.25-3.175-.696-.277-1.384-.584-2.08-.856-.003.01-1.651 3.892-1.785 4.206Zm21.819-8.643c-.897.06-1.744.133-2.53.213v8.295c0 .126.027.166.16.166.73-.007 1.46-.007 2.189 0 .147 0 .187-.027.187-.181-.008-2.82-.006-5.67-.006-8.49v-.003Zm-9.144-7.55h6.426c.153 0 .187.043.186.19-.005 2.13 0 4.323 0 6.454a47.863 47.863 0 0 1 2.531-.149c0-2.083 0-4.226-.006-6.308 0-.152.038-.186.188-.185 2.043.005 4.083 0 6.129.006a.191.191 0 0 0 .218-.137c.13-.324.275-.641.417-.96l.568-1.301H22.558a.179.179 0 0 0-.195.128c-.3.702-.608 1.4-.916 2.1-.079.166-.081.165.106.165v-.002l-.001-.001Z"/><path d="M44.203 15.75a37.474 37.474 0 0 0-5.435-1.357l-.232.584a48.18 48.18 0 0 1 5.778 1.055l-.111-.281v-.001Zm-7.923-.905.317-.744a45.97 45.97 0 0 0-10.094.125 48.49 48.49 0 0 0-3.873.602l.5 1.194c1.13-.28 2.273-.5 3.426-.66a65.847 65.847 0 0 1 9.723-.517h.001Zm-15.897.507c-.967.26-1.79.52-2.639.763-1.367.412-2.7.934-3.983 1.56a238.113 238.113 0 0 0-3.015 1.594l-.021.012-.058.122 2.078.857a41.334 41.334 0 0 1 5.59-2.822 47.318 47.318 0 0 1 2.555-.822l-.507-1.264Z"/></g><defs><clipPath id="a"><path fill="#fff" d="M0 0h50v30H0z"/></clipPath></defs></svg>