<svg width="109" height="27" fill="none" xmlns="http://www.w3.org/2000/svg"><g clip-path="url(#a)" fill="#CACACA"><path d="M28.649 7.483h11.023v2.052H35.33v11.572h-2.38V9.535h-4.32l.019-2.052Zm10.558 3.76h2.034v1.907h.037a2.37 2.37 0 0 1 .381-.78 3.04 3.04 0 0 1 .672-.691c.26-.218.555-.39.872-.509.305-.128.632-.196.963-.2.255 0 .436.02.527.02.095.02.193.032.29.035v2.09a3.686 3.686 0 0 0-.472-.073 4.123 4.123 0 0 0-.48-.038 2.52 2.52 0 0 0-1.035.218 2.624 2.624 0 0 0-.854.635c-.254.315-.45.671-.58 1.054-.154.469-.227.96-.219 1.453v4.687h-2.18l.037-9.81.007.002Zm15.769 9.864h-2.144v-1.38h-.037a3.044 3.044 0 0 1-1.199 1.2 3.165 3.165 0 0 1-1.616.453 3.598 3.598 0 0 1-2.816-.962 4.211 4.211 0 0 1-.872-2.906v-6.268h2.18v6.049c-.07.654.111 1.31.509 1.834a1.795 1.795 0 0 0 1.398.546c.394.012.784-.062 1.145-.218.29-.126.546-.318.745-.563.2-.251.342-.543.418-.854.09-.35.133-.711.127-1.073v-5.722h2.18v9.864h-.018Zm3.706-3.16a1.714 1.714 0 0 0 .726 1.344c.458.264.98.396 1.508.382.231-.002.462-.02.69-.054.25-.031.493-.092.727-.183.22-.079.416-.217.563-.4a.931.931 0 0 0 .2-.672.977.977 0 0 0-.31-.69 2.576 2.576 0 0 0-.726-.436c-.33-.12-.671-.21-1.017-.273-.382-.072-.763-.163-1.162-.254-.4-.091-.8-.2-1.181-.328a3.383 3.383 0 0 1-1.017-.527 2.267 2.267 0 0 1-.708-.836 2.616 2.616 0 0 1-.272-1.253c-.021-.48.12-.954.4-1.344a2.897 2.897 0 0 1 1-.872c.42-.228.873-.387 1.344-.473.461-.085.93-.127 1.398-.127.49-.002.977.053 1.453.164.447.096.872.275 1.254.527.378.239.695.562.927.944.262.425.423.903.472 1.399h-2.27a1.398 1.398 0 0 0-.708-1.054 2.923 2.923 0 0 0-1.29-.272c-.146 0-.345.018-.546.037a3.206 3.206 0 0 0-.6.145 1.42 1.42 0 0 0-.472.31.725.725 0 0 0-.2.526.799.799 0 0 0 .273.635c.216.18.462.321.726.418.331.119.671.21 1.017.272.382.073.78.164 1.181.255.4.09.78.2 1.162.327a3.18 3.18 0 0 1 1.017.527c.297.218.545.497.727.818.191.376.285.795.272 1.217a2.648 2.648 0 0 1-.4 1.49c-.27.403-.623.744-1.036 1a5.122 5.122 0 0 1-1.417.562 7.619 7.619 0 0 1-1.544.182 6.508 6.508 0 0 1-1.726-.218 4.392 4.392 0 0 1-1.38-.635 3.05 3.05 0 0 1-.908-1.072 3.5 3.5 0 0 1-.364-1.526h2.192v.019l.025-.001Zm7.175-6.704h1.653v-2.98h2.18v2.962h1.963v1.616h-1.962v5.268c.001.2.014.4.037.6.017.145.06.287.127.417a.708.708 0 0 0 .308.255c.187.066.384.097.582.091.305.007.61-.024.908-.09v1.688c-.236.037-.473.055-.708.073-.235.03-.471.043-.708.037a4.695 4.695 0 0 1-1.38-.164 1.984 1.984 0 0 1-.818-.472 1.69 1.69 0 0 1-.4-.782 6.194 6.194 0 0 1-.127-1.09V12.86h-1.658v-1.653l.003.036Zm7.32 0h2.053v1.344h.037a2.702 2.702 0 0 1 1.272-1.235 4.119 4.119 0 0 1 1.78-.381 4.477 4.477 0 0 1 2.034.417c.563.254 1.055.64 1.436 1.127a4.7 4.7 0 0 1 .853 1.67 7.34 7.34 0 0 1 .037 3.961 5.34 5.34 0 0 1-.782 1.654c-.348.478-.802.87-1.326 1.145-.584.3-1.233.45-1.89.435a5.546 5.546 0 0 1-.944-.09 4.02 4.02 0 0 1-.908-.273 3.262 3.262 0 0 1-.8-.49 2.767 2.767 0 0 1-.618-.69h-.036v4.923h-2.18V11.243h-.018Zm7.612 4.94a4.425 4.425 0 0 0-.182-1.29 3.292 3.292 0 0 0-.527-1.109c-.23-.314-.52-.58-.853-.78-.361-.2-.769-.3-1.181-.29a2.413 2.413 0 0 0-2.07.944 4.303 4.303 0 0 0-.692 2.543c-.008.467.054.932.183 1.38.107.396.292.767.545 1.09.233.304.531.552.872.727.365.187.77.28 1.18.272a2.42 2.42 0 0 0 1.254-.31c.334-.2.624-.466.854-.78.227-.337.387-.713.473-1.109a6.22 6.22 0 0 0 .145-1.29l-.001.002Zm3.827-8.7h2.18v2.052h-2.18V7.483Zm0 3.76h2.18v9.864h-2.18v-9.864Zm4.124-3.76h2.18v13.624h-2.18V7.483Zm8.828 13.897a5.191 5.191 0 0 1-2.107-.4 4.783 4.783 0 0 1-1.563-1.072 4.665 4.665 0 0 1-.962-1.653 6.454 6.454 0 0 1-.345-2.09 5.9 5.9 0 0 1 .345-2.07c.207-.61.534-1.172.962-1.654.436-.468.97-.834 1.563-1.072a5.514 5.514 0 0 1 2.107-.4 5.19 5.19 0 0 1 2.108.4 4.524 4.524 0 0 1 1.563 1.072 4.67 4.67 0 0 1 .962 1.653c.229.667.346 1.367.345 2.071a5.905 5.905 0 0 1-.345 2.09 5.135 5.135 0 0 1-.962 1.653c-.436.468-.97.834-1.563 1.072a5.448 5.448 0 0 1-2.108.4Zm0-1.726c.438.008.87-.098 1.254-.309a2.63 2.63 0 0 0 .872-.799c.234-.336.406-.711.508-1.108a4.956 4.956 0 0 0 0-2.525 3.254 3.254 0 0 0-.508-1.108 2.761 2.761 0 0 0-.872-.78 2.563 2.563 0 0 0-1.254-.31c-.438-.008-.87.1-1.253.31a2.76 2.76 0 0 0-.872.78c-.237.334-.41.71-.508 1.108a4.954 4.954 0 0 0 0 2.525c.098.398.27.774.508 1.108.231.325.528.598.872.8.381.216.815.323 1.253.308Zm5.632-8.411h1.66v-2.98h2.18v2.962h1.963v1.616h-1.963v5.268c.002.2.014.4.036.6.018.145.061.287.127.417a.718.718 0 0 0 .309.255 1.6 1.6 0 0 0 .581.091c.306.007.611-.024.909-.09v1.688c-.236.037-.473.055-.708.073a4.66 4.66 0 0 1-.708.037 4.69 4.69 0 0 1-1.38-.164 1.986 1.986 0 0 1-.818-.472c-.2-.221-.338-.49-.4-.782a6.241 6.241 0 0 1-.127-1.09V12.86h-1.653v-1.653l-.008.036Zm-77.095-1.76h-9.977L13.058 0 9.977 9.483 0 9.464l8.066 5.868-3.088 9.483 8.065-5.868 8.066 5.868-3.07-9.483 8.066-5.849Z"/><path d="m18.73 17.477-.69-2.144-4.978 3.615 5.668-1.471Z"/></g><defs><clipPath id="a"><path fill="#fff" d="M0 0h109v27H0z"/></clipPath></defs></svg>