<svg width="53" height="38" fill="none" xmlns="http://www.w3.org/2000/svg"><g clip-path="url(#a)" fill="#CACACA"><path d="M23.697 19.972h1.648V17.34c0-.3.033-.653.033-.653h-.044a1.603 1.603 0 0 1-.332.442l-.42.376-1.283-1.393 2.212-2.1h2.157v5.961h1.6v1.946h-5.574l.003-1.947Zm7.015-13.397a.47.47 0 0 0 .362.017.555.555 0 0 0 .295-.3.509.509 0 0 0 .047-.414.562.562 0 0 0-.673-.291.513.513 0 0 0-.272.319.546.546 0 0 0-.018.418.47.47 0 0 0 .26.251Zm-9.098-.679a.2.2 0 0 0 .07-.1.18.18 0 0 0-.01-.121.166.166 0 0 0-.093-.1.236.236 0 0 0-.152 0 2.457 2.457 0 0 0-.25.1c-.089.04-.177.08-.265.123l.168.352c.1-.046.145-.069.242-.113.1-.039.198-.086.29-.141Z"/><path d="M26.26 2.414a15.458 15.458 0 0 0-11.865 25.37.603.603 0 0 0 .222.146 28.674 28.674 0 0 0 11.653 2.557 26.428 26.428 0 0 0 11.49-2.4 1.01 1.01 0 0 0 .3-.227 15.458 15.458 0 0 0-11.8-25.447v.001Zm12.572 10.164.431.874.964.14-.7.68.165.96-.862-.453-.862.453.165-.96-.7-.68.964-.14.435-.874Zm-2.77-2.347.431-.874.431.874.964.14-.7.68.165.96-.862-.453-.862.453.165-.96-.7-.68.968-.14Zm-3.876-4.084.126-.227c.448.242.878.516 1.286.82l-.153.21c-.182-.132-.274-.2-.46-.319l-.7 1.065a8.571 8.571 0 0 0-.287-.183l.669-1.087a8.865 8.865 0 0 0-.48-.279Zm-2.065-.363a.833.833 0 0 1 .209-.344.687.687 0 0 1 .233-.139.7.7 0 0 1 .274-.043c.138.01.274.043.4.1.226.084.41.253.512.471a.71.71 0 0 1-.052.631.783.783 0 0 1-.468.414 1.006 1.006 0 0 1-1.088-.473.779.779 0 0 1-.017-.617h-.003Zm-1.316-1.16c.146.031.22.047.365.083l-.3 1.23c.326.078.488.123.808.227l-.079.246a9.165 9.165 0 0 0-1.11-.3l.316-1.486Zm-.854-.162c.148.021.222.032.37.057l-.257 1.514a8.645 8.645 0 0 0-.324-.05l.211-1.52Zm-1.236-.11c.148 0 .296.017.441.048.1.03.188.09.25.172.064.09.09.2.074.308a.443.443 0 0 1-.243.368.547.547 0 0 1-.185.058c-.12.008-.239.008-.358 0L26.47 5.3l-.013.58h-.327c0-.615-.007-.922-.012-1.537.241 0 .36 0 .599.01h-.002Zm-2.362.314a.47.47 0 0 1 .2-.186c.111-.055.232-.089.355-.1a.833.833 0 0 1 .531.083.414.414 0 0 1 .2.328c-.12.01-.239.022-.358.036a.245.245 0 0 0-.113-.162.4.4 0 0 0-.235-.03.458.458 0 0 0-.242.084.107.107 0 0 0-.045.1.114.114 0 0 0 .065.086c.11.04.223.061.338.066.133.01.264.037.39.08a.45.45 0 0 1 .2.144.41.41 0 0 1 .08.241.434.434 0 0 1-.069.251.483.483 0 0 1-.211.184c-.11.048-.227.077-.347.086a.786.786 0 0 1-.488-.075.591.591 0 0 1-.26-.357c.13-.033.2-.049.326-.078a.367.367 0 0 0 .149.206.4.4 0 0 0 .25.043.408.408 0 0 0 .237-.085.184.184 0 0 0 .071-.154.13.13 0 0 0-.042-.09.283.283 0 0 0-.129-.056 3.545 3.545 0 0 0-.283-.04 1.118 1.118 0 0 1-.411-.1.388.388 0 0 1-.207-.28.348.348 0 0 1 .05-.225h-.002Zm-1.669.183.234.8c.021.083.05.165.085.243a.25.25 0 0 0 .142.117.4.4 0 0 0 .23 0 .375.375 0 0 0 .2-.1.214.214 0 0 0 .055-.149 1.577 1.577 0 0 0-.044-.258l-.19-.828c.145-.034.218-.049.365-.079l.158.791a1.9 1.9 0 0 1 .05.39.43.43 0 0 1-.059.208.526.526 0 0 1-.162.164.957.957 0 0 1-.294.12 1.05 1.05 0 0 1-.356.046.54.54 0 0 1-.223-.07.424.424 0 0 1-.142-.134 1.712 1.712 0 0 1-.153-.36l-.254-.779c.143-.058.215-.08.36-.122h-.002Zm-1.5.546c.132-.064.274-.108.42-.13a.406.406 0 0 1 .254.06.406.406 0 0 1 .149.507.625.625 0 0 1-.271.26.754.754 0 0 1 .223.05c.096.043.188.098.273.161.12.083.178.126.294.212-.125.044-.249.09-.372.14a9.437 9.437 0 0 0-.353-.217 1.802 1.802 0 0 0-.257-.135.27.27 0 0 0-.123-.015.624.624 0 0 0-.169.06l-.065.03.277.578c-.12.058-.18.088-.3.15l-.7-1.365c.236-.126.477-.242.722-.347l-.002.001Zm-1.061.526.126.227c-.193.107-.288.163-.478.28l.67 1.086c-.097.06-.193.12-.288.183l-.7-1.065a9.53 9.53 0 0 0-.46.32l-.154-.21c.408-.305.837-.58 1.285-.822l-.001.001Zm-3.95 4.363.43-.874.431.874.964.14-.7.68.165.96-.862-.453-.863.453.165-.96-.7-.68.97-.14Zm-2.34 3.22.431-.874.431.874.964.14-.7.68.165.96-.862-.453-.862.453.165-.96-.7-.68.968-.14Zm-1.975 4.2.964-.14.431-.874.431.874.964.14-.7.68.165.96-.862-.453-.862.453.165-.96-.696-.68Zm2.406 5.216-.862.453.165-.96-.7-.68.964-.14.431-.874.431.874.964.14-.7.68.165.96-.858-.453Zm3.2 3.426-.862-.453-.863.453.165-.96-.7-.68.964-.14.431-.874.431.874.964.14-.7.68.17.96Zm8.794.6A9.058 9.058 0 1 1 35.2 17.89a9.01 9.01 0 0 1-8.939 9.045l-.002.011h-.001Zm11.1-.645-.862-.453-.862.453.165-.96-.7-.68.964-.14.431-.874.431.874.964.14-.7.68.17.96Zm2.339-2.973-.862-.453-.862.453.165-.96-.7-.68.964-.14.431-.874.431.874.964.14-.7.68.169.96Zm.148-4.482-.862.453.165-.96-.7-.68.964-.14.431-.874.431.874.964.14-.7.68.165.96-.858-.453Z"/><path d="M26.95 5.036a.233.233 0 0 0 .114-.068.19.19 0 0 0 .049-.116.183.183 0 0 0-.047-.142.264.264 0 0 0-.142-.077 1.791 1.791 0 0 0-.262-.023h-.176c0 .174-.006.261-.01.436l.193.006c.094.006.188 0 .28-.016ZM4.289 23.631a37.893 37.893 0 0 0 3.7 3.066l-3.056 4.205.014.011c1.085 1.6 4.953 4.012 5.142 4.13A44.817 44.817 0 0 1 .006 27.88c1.766.284 4.48-2.689 4.283-4.248Zm43.48 7.271-3.055-4.205a38.171 38.171 0 0 0 3.7-3.066c-.2 1.56 2.517 4.532 4.289 4.251A44.831 44.831 0 0 1 42.63 35.04c.233-.148 4.07-2.546 5.139-4.137Zm-11.842 1.401a.2.2 0 0 0-.138-.01c-.026.007-.1.036-.225.084l-.24.092.14.364.23-.09a1.24 1.24 0 0 0 .27-.127.179.179 0 0 0 .063-.1.19.19 0 0 0-.013-.119.178.178 0 0 0-.087-.094Zm-1.662.655a.477.477 0 0 0-.621.2.563.563 0 0 0-.007.416.542.542 0 0 0 .237.342.474.474 0 0 0 .635-.2.551.551 0 0 0 0-.42.56.56 0 0 0-.244-.338Zm-7.015 1.796c.179-.005.269-.009.448-.018-.1-.223-.151-.335-.25-.559-.077.231-.116.347-.198.577Z"/><path d="M43.253 25.907a28.762 28.762 0 0 1-33.811 0l-3.515 4.838a34.742 34.742 0 0 0 40.842 0l-3.516-4.838Zm-27.177 6.295a.377.377 0 0 1-.211.053.451.451 0 0 1 .156.223.352.352 0 0 1-.02.245.433.433 0 0 1-.33.248.52.52 0 0 1-.241-.03 4.837 4.837 0 0 1-.383-.169c-.2-.095-.316-.154-.526-.26l.7-1.368c.232.118.348.175.582.287.087.04.172.085.253.136a.41.41 0 0 1 .188.296.346.346 0 0 1-.165.34h-.003Zm1.568.66-.09.242c-.261-.096-.52-.196-.778-.3l-.158.387c.35.143.527.211.88.341l-.088.243c-.408-.147-.81-.306-1.21-.477l.6-1.414c.44.187.663.274 1.11.44l-.09.243a19.7 19.7 0 0 1-.817-.317l-.13.315c.308.121.462.181.773.296h-.002Zm1.65.38-.318-.083a.262.262 0 0 0-.035-.189.346.346 0 0 0-.181-.112.394.394 0 0 0-.23-.017.11.11 0 0 0-.078.07.11.11 0 0 0 .016.104c.073.08.16.144.256.192.11.06.213.13.308.212.06.054.104.123.129.2a.434.434 0 0 1-.006.253.422.422 0 0 1-.147.214.468.468 0 0 1-.268.1 1.011 1.011 0 0 1-.37-.057.77.77 0 0 1-.426-.284.56.56 0 0 1-.064-.438l.32.08a.353.353 0 0 0 .043.25c.052.07.127.121.212.143a.4.4 0 0 0 .255.014.181.181 0 0 0 .123-.117.133.133 0 0 0-.006-.1.283.283 0 0 0-.1-.1c-.077-.05-.155-.1-.235-.146a.908.908 0 0 1-.31-.264.387.387 0 0 1 .1-.525.44.44 0 0 1 .24-.082.86.86 0 0 1 .317.048c.159.038.3.128.4.257a.447.447 0 0 1 .056.375l-.001.001Zm1.6.232c-.155-.034-.31-.071-.463-.11l-.307 1.238-.331-.084.323-1.234a14.59 14.59 0 0 1-.461-.126l.07-.25c.489.138.735.2 1.228.313l-.06.253ZM22.023 35l-.335-.06.278-1.51.316.056-.26 1.514Zm1.764.24-.34-.037c-.223-.429-.33-.645-.532-1.078l-.14.992-.313-.046.233-1.518.308.045c.2.442.305.663.527 1.1l.116-1.019.3.032-.16 1.53Zm2.4.038a.74.74 0 0 1-.448.114.735.735 0 0 1-.54-.23.753.753 0 0 1-.181-.582.83.83 0 0 1 .239-.584.734.734 0 0 1 .546-.192.69.69 0 0 1 .47.175.611.611 0 0 1 .162.284l-.323.071a.327.327 0 0 0-.116-.19.354.354 0 0 0-.217-.075.376.376 0 0 0-.293.113.586.586 0 0 0-.128.392.604.604 0 0 0 .1.42.375.375 0 0 0 .29.132.35.35 0 0 0 .232-.073.44.44 0 0 0 .14-.245l.323.1a.656.656 0 0 1-.265.367l.009.003Zm1.8.052c-.067-.136-.1-.2-.165-.34-.265.014-.4.02-.662.027l-.13.352c-.143 0-.215 0-.36.005.258-.617.378-.926.6-1.549.136 0 .2-.007.339-.014.282.6.43.9.744 1.494-.123.01-.247.018-.37.024l.004.001Zm1.206-.1-.338.033-.117-1.27c-.19.017-.284.024-.473.038l-.02-.259c.5-.037.753-.06 1.253-.123l.032.258c-.188.023-.282.034-.471.054l.134 1.27Zm.829-.1-.21-1.522c.467-.064.7-.1 1.162-.187l.048.255c-.34.063-.511.092-.853.143l.05.337c.324-.048.484-.075.8-.134l.048.254c-.325.06-.487.087-.813.136l.062.413c.369-.055.552-.087.919-.155l.048.254c-.505.096-.758.137-1.265.207h.004Zm2.834-.6a1.179 1.179 0 0 1-.384.167.964.964 0 0 1-.473 0 .651.651 0 0 1-.347-.222.87.87 0 0 1-.177-.382.857.857 0 0 1 .02-.439.715.715 0 0 1 .24-.344.884.884 0 0 1 .356-.159.81.81 0 0 1 .479.006c.128.05.232.145.293.267l-.3.137a.328.328 0 0 0-.167-.142.406.406 0 0 0-.243-.009.458.458 0 0 0-.3.2.53.53 0 0 0-.043.4c.02.148.097.282.215.373a.451.451 0 0 0 .368.056.613.613 0 0 0 .2-.086.729.729 0 0 0 .155-.134l-.047-.189c-.148.037-.223.055-.372.09l-.06-.252c.278-.065.417-.1.693-.172l.156.591a.91.91 0 0 1-.267.248l.005-.005Zm1.965-.723a.93.93 0 0 1-1.137.358.744.744 0 0 1-.368-.494.932.932 0 0 1-.035-.4.735.735 0 0 1 .247-.435.948.948 0 0 1 .312-.159.749.749 0 0 1 1 .508.754.754 0 0 1-.024.627l.005-.005Zm1.683-.437c-.12-.07-.238-.142-.356-.215-.08-.053-.164-.1-.25-.143a.264.264 0 0 0-.118-.022.614.614 0 0 0-.164.045l-.064.024.228.6c-.13.05-.193.073-.323.12l-.526-1.443c.256-.094.384-.142.638-.243.115-.05.238-.085.363-.1a.376.376 0 0 1 .23.063.427.427 0 0 1 .16.195.391.391 0 0 1 .01.305.537.537 0 0 1-.25.257.82.82 0 0 1 .217.051c.096.044.188.096.275.155.123.078.185.117.309.193-.155.063-.231.1-.384.163l.005-.005Zm.992-.435-.272-.586c-.373-.22-.555-.332-.914-.564l.35-.155c.239.16.36.237.605.39.03-.236.055-.473.078-.71l.338-.17c-.051.426-.081.64-.15 1.068l.279.581c-.131.063-.193.093-.32.151l.006-.005Z"/><path d="M15.637 32.335a1.318 1.318 0 0 0-.262-.148l-.246-.12-.182.368.287.139c.07.036.143.067.217.092a.223.223 0 0 0 .139 0 .18.18 0 0 0 .1-.1.19.19 0 0 0 .016-.122.21.21 0 0 0-.069-.109Zm.186-.606a4.581 4.581 0 0 0-.253-.126l-.171-.083-.157.318.2.1c.118.057.192.09.222.1.046.018.098.02.146.007a.157.157 0 0 0 .095-.088.163.163 0 0 0 .011-.123.2.2 0 0 0-.093-.105Zm-.648-2.572-.021-.021a29.687 29.687 0 0 1-1.673-.759c.558.28 1.123.54 1.694.78Zm22.049.119c.243-.1.485-.2.727-.31-.238.103-.477.203-.717.3l-.01.01Zm-23.525-1.79a15.824 15.824 0 1 1 25.009.148 28.543 28.543 0 0 0 3.76-2.2 17.88 17.88 0 1 0-32.5-.193 28.59 28.59 0 0 0 3.731 2.245Z"/><path d="M29.212 21.919h-5.574v-1.946h1.648V17.34c0-.3.033-.653.033-.653h-.044a1.598 1.598 0 0 1-.332.442l-.42.376-1.283-1.393 2.212-2.1h2.157v5.96h1.6l.003 1.946Z"/></g><defs><clipPath id="a"><path fill="#fff" d="M0 0h53v38H0z"/></clipPath></defs></svg>