<svg width="59" height="20" fill="none" xmlns="http://www.w3.org/2000/svg"><g clip-path="url(#a)"><path d="m22.402.337-7.726 18.428h-5.04l-3.8-14.708a2.023 2.023 0 0 0-1.132-1.618A19.971 19.971 0 0 0 0 .87L.113.337h8.112a2.224 2.224 0 0 1 2.199 1.878l2.01 10.664L17.39.337h5.012Zm6.813 0-3.941 18.428h-4.77L24.447.337h4.769-.001Zm12.93 12.41c.022-4.863-6.722-5.133-6.678-7.306.016-.661.645-1.364 2.022-1.544a9.003 9.003 0 0 1 4.701.825l.835-3.91A12.913 12.913 0 0 0 38.567 0c-4.713 0-8.03 2.503-8.055 6.092-.03 2.652 2.367 4.129 4.17 5.017 1.855.903 2.483 1.482 2.474 2.289-.013 1.235-1.484 1.784-2.85 1.804a9.959 9.959 0 0 1-4.897-1.164l-.864 4.04c1.69.656 3.488.988 5.3.977 5.01 0 8.288-2.474 8.302-6.308h-.002Zm12.446 6.018H59L55.149.337h-4.068a2.172 2.172 0 0 0-2.03 1.348l-7.154 17.08h5.006l.993-2.754h6.12l.575 2.754Zm-5.321-6.53 2.51-6.92 1.442 6.92H49.27Z" fill="#CACACA"/></g><defs><clipPath id="a"><path fill="#fff" d="M0 0h59v20H0z"/></clipPath></defs></svg>