<svg width="197" height="60" fill="none" xmlns="http://www.w3.org/2000/svg"><g clip-path="url(#a)" fill="#fff"><path d="M97.004 28.885c0 1.594-1.344 2.886-3.002 2.886-1.658 0-3.002-1.292-3.002-2.886C91 27.292 92.344 26 94.002 26c1.658 0 3.002 1.292 3.002 2.885Zm-95.1 10.412V19.529H6.3v19.768H1.904Zm3.36-7.756v-3.78h9.884v3.78H5.264Zm0-8.232v-3.78h10.332v3.78H5.264ZM18.42 39.297V19.529h4.396v19.768H18.42Zm3.388 0v-3.864h9.772v3.864h-9.772Zm15.84-7.364-7.616-12.404h5.096l5.852 10.024h-3.276l5.852-10.024h4.984l-7.672 12.404h-3.22Zm-.532 7.364v-9.38h4.396v9.38h-4.396Zm12.995 0V19.529h4.396v19.768h-4.396Zm3.36 0v-3.808h10.836v3.808H53.471Zm0-8.26v-3.668h9.856v3.668h-9.856Zm0-7.728v-3.78h10.696v3.78H53.471Zm17.227 7.84V27.9h4.172c.877 0 1.549-.224 2.016-.672.485-.448.728-1.055.728-1.82 0-.71-.234-1.297-.7-1.764-.467-.467-1.14-.7-2.016-.7h-4.2v-3.416h4.704c1.306 0 2.454.252 3.444.756.989.485 1.764 1.166 2.324 2.044.56.877.84 1.885.84 3.024 0 1.157-.28 2.174-.84 3.052-.56.858-1.344 1.53-2.352 2.016-1.008.485-2.194.728-3.556.728h-4.564Zm-3.36 8.148V19.529h4.396v19.768h-4.396Zm10.752 0-6.16-8.512 4.032-1.092 7.336 9.604H78.09Zm37.194.308c-1.475 0-2.847-.252-4.116-.756a10.4 10.4 0 0 1-3.304-2.184 10.17 10.17 0 0 1-2.184-3.248c-.523-1.25-.784-2.595-.784-4.032 0-1.438.261-2.772.784-4.004a9.773 9.773 0 0 1 2.184-3.248 9.923 9.923 0 0 1 3.276-2.128c1.269-.523 2.641-.784 4.116-.784 1.568 0 2.959.252 4.172.756a10.155 10.155 0 0 1 3.22 2.072l-2.94 2.968a5.52 5.52 0 0 0-1.904-1.316c-.728-.317-1.577-.476-2.548-.476-.859 0-1.652.15-2.38.448a5.18 5.18 0 0 0-1.848 1.232 6.091 6.091 0 0 0-1.204 1.96c-.28.765-.42 1.605-.42 2.52 0 .933.14 1.782.42 2.548.299.765.7 1.419 1.204 1.96a5.52 5.52 0 0 0 1.848 1.26 6.21 6.21 0 0 0 2.38.448c1.008 0 1.885-.159 2.632-.476a5.814 5.814 0 0 0 1.932-1.316l2.968 2.968a10.854 10.854 0 0 1-3.276 2.072c-1.213.504-2.623.756-4.228.756Zm9.925-.308V19.529h4.396v19.768h-4.396Zm3.388 0v-3.864h9.772v3.864h-9.772Zm19.575.308c-1.624 0-3.061-.345-4.312-1.036a7.646 7.646 0 0 1-2.912-2.856c-.69-1.232-1.036-2.632-1.036-4.2V19.529h4.424v12.236c0 .784.168 1.465.504 2.044a3.521 3.521 0 0 0 1.372 1.344 4.325 4.325 0 0 0 1.96.448c.747 0 1.4-.15 1.96-.448.56-.317.999-.756 1.316-1.316.336-.579.504-1.26.504-2.044V19.529h4.424V31.54c0 1.568-.345 2.958-1.036 4.172a7.437 7.437 0 0 1-2.884 2.856c-1.232.69-2.66 1.036-4.284 1.036Zm15.069-.308V35.88h4.648c.858 0 1.53-.252 2.016-.756.485-.504.728-1.12.728-1.848a2.66 2.66 0 0 0-.336-1.344 2.393 2.393 0 0 0-.952-.924c-.392-.224-.878-.336-1.456-.336h-4.648V27.34h4.284c.728 0 1.316-.178 1.764-.532.448-.373.672-.934.672-1.68 0-.728-.224-1.27-.672-1.624-.448-.373-1.036-.56-1.764-.56h-4.284v-3.416h5.124c1.269 0 2.342.233 3.22.7.896.466 1.577 1.092 2.044 1.876.466.784.7 1.652.7 2.604 0 1.213-.392 2.24-1.176 3.08-.784.84-1.942 1.418-3.472 1.736l.112-1.484c1.661.317 2.94.961 3.836 1.932.914.97 1.372 2.165 1.372 3.584 0 1.082-.271 2.063-.812 2.94-.523.858-1.288 1.54-2.296 2.044-.99.504-2.184.756-3.584.756h-5.068Zm-3.36 0V19.529h4.34v19.768h-4.34Zm-3.414-36.981c2.888-1.618 6.17-.758 8.414.248l6.69 2.998L183.077 0l6.851.283-9.5 9.258 6.054 2.764 6.3-2.304 4.218 1.89-3.812 4.55c.403.462.768 1.112.437 1.795-.433.892-1.712 1.341-3.81 1.341-.43 0-.895-.019-1.394-.057-2.302-.175-4.799-.74-6.36-1.44L158.147 7.364c-2.065-.926-3.094-1.898-3.145-2.972-.027-.557.206-1.37 1.465-2.075Zm2.411 3.54 23.913 10.718c1.331.597 3.514 1.096 5.564 1.273 2.094.18 3.214-.046 3.587-.239a3.173 3.173 0 0 0-.485-.484l-.621-.525 3.433-4.098-1.555-.697-6.306 2.307-8.92-4.072 8.473-8.256-2.509-.104-11.852 5.73-7.449-3.34c-2.721-1.218-5.013-1.325-6.813-.317-.454.254-.613.476-.609.563.001.006.053.602 2.149 1.541ZM4.696 53.592 1.42 48.744h1.032l2.724 4.068h-.432l2.748-4.068h.996l-3.3 4.848h-.492ZM4.516 57v-4.044h.888V57h-.888Zm5.997.12c-.544 0-1.04-.132-1.488-.396a3.002 3.002 0 0 1-1.056-1.068 2.97 2.97 0 0 1-.384-1.5c0-.544.128-1.036.384-1.476.264-.44.616-.788 1.056-1.044a2.877 2.877 0 0 1 1.488-.396c.552 0 1.048.128 1.488.384.44.256.788.608 1.044 1.056.264.44.396.932.396 1.476 0 .56-.132 1.064-.396 1.512-.256.44-.604.792-1.044 1.056-.44.264-.936.396-1.488.396Zm0-.816c.4 0 .752-.092 1.056-.276.312-.184.556-.44.732-.768.184-.328.276-.696.276-1.104 0-.408-.092-.768-.276-1.08a1.956 1.956 0 0 0-.732-.756 1.999 1.999 0 0 0-1.056-.276 2.04 2.04 0 0 0-1.056.276 1.955 1.955 0 0 0-.732.756 2.16 2.16 0 0 0-.264 1.08c0 .416.088.788.264 1.116.176.32.42.572.732.756a2.04 2.04 0 0 0 1.056.276Zm6.472.816c-.456 0-.864-.104-1.224-.312a2.356 2.356 0 0 1-.852-.876c-.2-.368-.3-.8-.3-1.296V51.36h.852v3.24c0 .344.06.644.18.9.128.256.308.456.54.6.232.144.5.216.804.216.472 0 .844-.156 1.116-.468.28-.312.42-.728.42-1.248v-3.24h.84v3.276c0 .488-.1.92-.3 1.296-.2.376-.48.668-.84.876-.36.208-.772.312-1.236.312Zm3.92-.12v-5.64h.84V57h-.84Zm.84-3.288-.348-.156c0-.712.172-1.276.516-1.692.352-.416.832-.624 1.44-.624.28 0 .536.052.768.156.232.096.448.252.648.468l-.552.588a1.171 1.171 0 0 0-.456-.324 1.478 1.478 0 0 0-.552-.096c-.432 0-.784.144-1.056.432-.272.28-.408.696-.408 1.248ZM29.28 57v-8.016h.84V57h-.84Zm-1.428-4.884v-.756h3.684v.756h-3.684ZM32.669 57v-5.64h.84V57h-.84Zm.84-3.288-.348-.156c0-.712.172-1.276.516-1.692.352-.416.832-.624 1.44-.624.28 0 .536.052.768.156.232.096.448.252.648.468l-.552.588a1.171 1.171 0 0 0-.456-.324 1.478 1.478 0 0 0-.552-.096c-.432 0-.784.144-1.056.432-.272.28-.408.696-.408 1.248Zm6.126 3.408c-.456 0-.864-.104-1.224-.312a2.356 2.356 0 0 1-.852-.876c-.2-.368-.3-.8-.3-1.296V51.36h.852v3.24c0 .344.06.644.18.9.128.256.308.456.54.6.232.144.5.216.804.216.472 0 .844-.156 1.116-.468.28-.312.42-.728.42-1.248v-3.24h.84v3.276c0 .488-.1.92-.3 1.296-.2.376-.48.668-.84.876-.36.208-.772.312-1.236.312Zm5.647 0c-.303 0-.595-.04-.875-.12a3.076 3.076 0 0 1-.768-.36 2.7 2.7 0 0 1-.589-.54l.54-.552c.224.272.476.476.756.612.289.128.609.192.96.192.377 0 .669-.072.877-.216a.683.683 0 0 0 .324-.6c0-.24-.076-.428-.228-.564a1.654 1.654 0 0 0-.589-.324 11.85 11.85 0 0 0-.743-.228 5.68 5.68 0 0 1-.757-.288 1.604 1.604 0 0 1-.587-.492c-.145-.208-.217-.48-.217-.816 0-.32.076-.596.228-.828.16-.24.385-.424.672-.552a2.48 2.48 0 0 1 1.044-.204c.425 0 .809.076 1.153.228.344.152.62.376.828.672l-.54.54a1.609 1.609 0 0 0-.636-.492 1.904 1.904 0 0 0-.84-.18c-.36 0-.637.072-.828.216a.64.64 0 0 0-.276.54.64.64 0 0 0 .227.516c.153.12.345.22.577.3l.756.228c.264.072.516.172.756.3.24.12.431.288.576.504.151.208.227.492.227.852 0 .504-.184.908-.552 1.212-.36.296-.852.444-1.476.444Zm4.21-.12v-8.016h.84V57h-.84Zm-1.427-4.884v-.756h3.684v.756h-3.684Zm7.221 5.004a3.017 3.017 0 0 1-1.524-.384 2.878 2.878 0 0 1-1.068-1.056 2.993 2.993 0 0 1-.384-1.512c0-.552.128-1.048.384-1.488.256-.448.604-.8 1.044-1.056a2.88 2.88 0 0 1 1.476-.384c.512 0 .964.116 1.356.348.4.232.712.556.936.972.232.408.348.88.348 1.416 0 .064-.004.14-.012.228-.008.08-.024.176-.048.288H52.91v-.72h4.428l-.3.264c.008-.416-.064-.772-.216-1.068a1.537 1.537 0 0 0-.636-.696c-.272-.168-.604-.252-.996-.252-.408 0-.764.088-1.068.264a1.896 1.896 0 0 0-.72.744c-.168.312-.252.684-.252 1.116 0 .432.088.812.264 1.14.184.328.436.584.756.768.328.184.704.276 1.128.276.344 0 .66-.06.948-.18.288-.128.532-.316.732-.564l.54.552a2.737 2.737 0 0 1-.984.732 3.08 3.08 0 0 1-1.248.252Zm6.229 0c-.52 0-.988-.128-1.404-.384a2.838 2.838 0 0 1-.996-1.044 3.126 3.126 0 0 1-.36-1.5c0-.56.12-1.06.36-1.5.248-.448.58-.8.996-1.056a2.565 2.565 0 0 1 1.404-.396c.424 0 .808.084 1.152.252.344.168.628.408.852.72.232.304.368.664.408 1.08v1.764a2.274 2.274 0 0 1-1.248 1.8 2.519 2.519 0 0 1-1.164.264Zm.144-.804a1.98 1.98 0 0 0 1.032-.264c.296-.184.528-.436.696-.756.168-.328.252-.7.252-1.116 0-.424-.088-.796-.264-1.116-.168-.32-.4-.572-.696-.756a1.914 1.914 0 0 0-1.032-.276c-.392 0-.74.092-1.044.276-.304.184-.544.44-.72.768a2.34 2.34 0 0 0-.252 1.104c0 .416.084.788.252 1.116.176.32.416.572.72.756.312.176.664.264 1.056.264Zm2.772.684h-.84v-1.512l.168-1.392-.168-1.356v-4.236h.84V57Zm4.234 0v-8.496h.84V57h-.84Zm4.751.12c-.456 0-.864-.104-1.224-.312a2.356 2.356 0 0 1-.852-.876c-.2-.368-.3-.8-.3-1.296V51.36h.852v3.24c0 .344.06.644.18.9.128.256.308.456.54.6.232.144.5.216.804.216.472 0 .844-.156 1.116-.468.28-.312.42-.728.42-1.248v-3.24h.84v3.276c0 .488-.1.92-.3 1.296-.2.376-.48.668-.84.876-.36.208-.772.312-1.236.312Zm7.76-.12-1.884-2.568-.18-.144-2.268-2.928h1.044l1.752 2.304.168.144 2.4 3.192h-1.032Zm-4.428 0 2.376-3.096.468.624L77.744 57h-.996Zm3.12-2.724-.48-.612 1.728-2.304h.996l-2.244 2.916Zm5.664 2.844c-.456 0-.864-.104-1.224-.312a2.356 2.356 0 0 1-.852-.876c-.2-.368-.3-.8-.3-1.296V51.36h.852v3.24c0 .344.06.644.18.9.128.256.308.456.54.6.232.144.5.216.804.216.472 0 .844-.156 1.116-.468.28-.312.42-.728.42-1.248v-3.24h.84v3.276c0 .488-.1.92-.3 1.296-.2.376-.48.668-.84.876-.36.208-.772.312-1.236.312Zm3.92-.12v-5.64h.84V57h-.84Zm.84-3.288-.348-.156c0-.712.172-1.276.516-1.692.352-.416.832-.624 1.44-.624.28 0 .536.052.768.156.232.096.448.252.648.468l-.552.588a1.171 1.171 0 0 0-.456-.324 1.478 1.478 0 0 0-.552-.096c-.432 0-.784.144-1.056.432-.272.28-.408.696-.408 1.248Zm5.648 3.312-2.47-5.664h.924l1.992 4.728h-.348l2.1-4.728h.936l-2.652 5.664h-.48Zm-1.535 2.352 1.548-3.204.468.852-1.092 2.352h-.924ZM103.58 57v-8.016h.84V57h-.84Zm-1.428-4.884v-.756h3.684v.756h-3.684ZM106.969 57v-5.64h.84V57h-.84Zm.84-3.288-.348-.156c0-.712.172-1.276.516-1.692.352-.416.832-.624 1.44-.624.28 0 .536.052.768.156.232.096.448.252.648.468l-.552.588a1.171 1.171 0 0 0-.456-.324 1.478 1.478 0 0 0-.552-.096c-.432 0-.784.144-1.056.432-.272.28-.408.696-.408 1.248Zm6.143 3.408a2.731 2.731 0 0 1-1.44-.384 2.902 2.902 0 0 1-1.008-1.056c-.24-.44-.36-.936-.36-1.488 0-.56.12-1.06.36-1.5.248-.448.584-.8 1.008-1.056.424-.264.9-.396 1.428-.396.432 0 .816.088 1.152.264.344.168.62.408.828.72.216.304.348.66.396 1.068v1.764c-.048.408-.18.768-.396 1.08a2.157 2.157 0 0 1-.828.732 2.514 2.514 0 0 1-1.14.252Zm.132-.804c.584 0 1.052-.196 1.404-.588.36-.392.54-.908.54-1.548 0-.424-.084-.796-.252-1.116a1.746 1.746 0 0 0-.684-.756 1.854 1.854 0 0 0-1.02-.276c-.4 0-.756.092-1.068.276a2.05 2.05 0 0 0-.732.768c-.176.32-.264.688-.264 1.104 0 .416.088.784.264 1.104.184.32.432.572.744.756.312.184.668.276 1.068.276Zm1.896.684v-1.512l.168-1.392-.168-1.356v-1.38h.84V57h-.84Zm4.487 0-2.604-5.64h.936l2.196 4.932h-.528l2.208-4.932h.912L120.959 57h-.492Zm6.507.12a3.017 3.017 0 0 1-1.524-.384 2.878 2.878 0 0 1-1.068-1.056 2.993 2.993 0 0 1-.384-1.512c0-.552.128-1.048.384-1.488.256-.448.604-.8 1.044-1.056a2.88 2.88 0 0 1 1.476-.384c.512 0 .964.116 1.356.348.4.232.712.556.936.972.232.408.348.88.348 1.416 0 .064-.004.14-.012.228-.008.08-.024.176-.048.288h-4.884v-.72h4.428l-.3.264c.008-.416-.064-.772-.216-1.068a1.537 1.537 0 0 0-.636-.696c-.272-.168-.604-.252-.996-.252-.408 0-.764.088-1.068.264a1.896 1.896 0 0 0-.72.744c-.168.312-.252.684-.252 1.116 0 .432.088.812.264 1.14.184.328.436.584.756.768.328.184.704.276 1.128.276.344 0 .66-.06.948-.18.288-.128.532-.316.732-.564l.54.552a2.737 2.737 0 0 1-.984.732 3.08 3.08 0 0 1-1.248.252Zm3.829-.12v-8.496h.84V57h-.84Zm7.521.12a2.731 2.731 0 0 1-1.44-.384 2.902 2.902 0 0 1-1.008-1.056c-.24-.44-.36-.936-.36-1.488 0-.56.12-1.06.36-1.5.248-.448.584-.8 1.008-1.056.424-.264.9-.396 1.428-.396.432 0 .816.088 1.152.264.344.168.62.408.828.72.216.304.348.66.396 1.068v1.764c-.048.408-.18.768-.396 1.08a2.157 2.157 0 0 1-.828.732 2.514 2.514 0 0 1-1.14.252Zm.132-.804c.584 0 1.052-.196 1.404-.588.36-.392.54-.908.54-1.548 0-.424-.084-.796-.252-1.116a1.746 1.746 0 0 0-.684-.756 1.854 1.854 0 0 0-1.02-.276c-.4 0-.756.092-1.068.276a2.05 2.05 0 0 0-.732.768c-.176.32-.264.688-.264 1.104 0 .416.088.784.264 1.104.184.32.432.572.744.756.312.184.668.276 1.068.276Zm1.896.684v-1.512l.168-1.392-.168-1.356v-1.38h.84V57h-.84Zm2.519 0v-8.496h.84V57h-.84Zm2.519 0v-8.496h.84V57h-.84Zm2.519 0v-5.64h.852V57h-.852Zm.42-6.864a.555.555 0 0 1-.408-.168.596.596 0 0 1-.168-.42.57.57 0 0 1 .168-.42.555.555 0 0 1 .408-.168c.176 0 .316.056.42.168a.57.57 0 0 1 .168.42c0 .16-.056.3-.168.42a.545.545 0 0 1-.42.168Zm4.559 6.984a2.731 2.731 0 0 1-1.44-.384 2.902 2.902 0 0 1-1.008-1.056c-.24-.44-.36-.936-.36-1.488 0-.56.12-1.06.36-1.5.248-.448.584-.8 1.008-1.056.424-.264.9-.396 1.428-.396.432 0 .816.088 1.152.264.344.168.62.408.828.72.216.304.348.66.396 1.068v1.764c-.048.408-.18.768-.396 1.08a2.157 2.157 0 0 1-.828.732 2.514 2.514 0 0 1-1.14.252Zm.132-.804c.584 0 1.052-.196 1.404-.588.36-.392.54-.908.54-1.548 0-.424-.084-.796-.252-1.116a1.746 1.746 0 0 0-.684-.756 1.854 1.854 0 0 0-1.02-.276c-.4 0-.756.092-1.068.276a2.05 2.05 0 0 0-.732.768c-.176.32-.264.688-.264 1.104 0 .416.088.784.264 1.104.184.32.432.572.744.756.312.184.668.276 1.068.276Zm1.896.684v-1.512l.168-1.392-.168-1.356v-1.38h.84V57h-.84Zm6.624 0v-3.312c0-.496-.148-.896-.444-1.2-.288-.312-.672-.468-1.152-.468a1.69 1.69 0 0 0-.864.216c-.248.144-.444.34-.588.588a1.665 1.665 0 0 0-.216.852l-.384-.216a2.186 2.186 0 0 1 1.104-1.932 2.372 2.372 0 0 1 1.176-.288c.432 0 .816.104 1.152.312.336.208.596.488.78.84.192.352.288.736.288 1.152V57h-.852Zm-4.104 0v-5.64h.84V57h-.84Zm9.071.12a2.97 2.97 0 0 1-1.5-.384 3.002 3.002 0 0 1-1.056-1.068 2.97 2.97 0 0 1-.384-1.5c0-.552.128-1.048.384-1.488.264-.448.616-.8 1.056-1.056a2.97 2.97 0 0 1 1.5-.384c.424 0 .82.08 1.188.24.368.16.68.384.936.672l-.552.564a1.872 1.872 0 0 0-.696-.492 2.146 2.146 0 0 0-.876-.18c-.4 0-.756.092-1.068.276a1.955 1.955 0 0 0-.732.756 2.185 2.185 0 0 0-.264 1.092c0 .408.088.776.264 1.104.176.32.42.572.732.756.312.184.668.276 1.068.276.32 0 .616-.056.888-.168.272-.12.504-.288.696-.504l.564.564a2.668 2.668 0 0 1-.96.684c-.368.16-.764.24-1.188.24Zm5.801 0a3.017 3.017 0 0 1-1.524-.384 2.878 2.878 0 0 1-1.068-1.056 2.993 2.993 0 0 1-.384-1.512c0-.552.128-1.048.384-1.488.256-.448.604-.8 1.044-1.056a2.88 2.88 0 0 1 1.476-.384c.512 0 .964.116 1.356.348.4.232.712.556.936.972.232.408.348.88.348 1.416 0 .064-.004.14-.012.228-.008.08-.024.176-.048.288h-4.884v-.72h4.428l-.3.264c.008-.416-.064-.772-.216-1.068a1.537 1.537 0 0 0-.636-.696c-.272-.168-.604-.252-.996-.252-.408 0-.764.088-1.068.264a1.896 1.896 0 0 0-.72.744c-.168.312-.252.684-.252 1.116 0 .432.088.812.264 1.14.184.328.436.584.756.768.328.184.704.276 1.128.276.344 0 .66-.06.948-.18.288-.128.532-.316.732-.564l.54.552a2.737 2.737 0 0 1-.984.732 3.08 3.08 0 0 1-1.248.252Z"/></g><defs><clipPath id="a"><path fill="#fff" d="M0 0h197v60H0z"/></clipPath></defs></svg>