<svg width="42" height="21" fill="none" xmlns="http://www.w3.org/2000/svg"><path d="M1.467 2.41c2.888-1.683 6.17-.79 8.414.257l6.69 3.12L28.076 0l6.852.294-9.5 9.632 6.055 2.877 6.3-2.398L42 12.372l-3.812 4.733c.403.48.768 1.157.437 1.868-.433.927-1.712 1.395-3.81 1.395-.43 0-.895-.02-1.394-.06-2.302-.181-4.8-.769-6.36-1.497L3.147 7.661C1.082 6.696.053 5.685.002 4.567c-.027-.58.206-1.425 1.465-2.158Zm2.411 3.683 23.913 11.151c1.33.62 3.514 1.14 5.564 1.324 2.094.188 3.214-.048 3.588-.248a3.31 3.31 0 0 0-.486-.504l-.62-.547 3.432-4.263-1.555-.725-6.306 2.4-8.92-4.237 8.473-8.59-2.51-.107L16.6 7.707 9.15 4.235c-2.72-1.268-5.012-1.38-6.812-.33-.454.264-.613.495-.609.585 0 .006.053.627 2.15 1.604Z" fill="url(#a)"/><defs><linearGradient id="a" x1="21" y1="0" x2="21" y2="20.368" gradientUnits="userSpaceOnUse"><stop stop-color="#006DD2"/><stop offset="1" stop-color="#59C2FD"/></linearGradient></defs></svg>