<svg width="34" height="32" viewBox="0 0 34 32" fill="none" xmlns="http://www.w3.org/2000/svg">
<path d="M25.3273 7.31681L24.4528 7.57257C23.8887 7.43491 23.2989 7.44338 22.7389 7.59718C22.1789 7.75097 21.6672 8.04502 21.252 8.45165L19.4337 10.2487L14.9696 9.67757C14.8775 9.66578 14.7839 9.67942 14.6989 9.717C14.6139 9.75459 14.5408 9.8147 14.4874 9.89086L13.4874 11.3157C13.4456 11.3753 13.4169 11.443 13.4033 11.5146C13.3898 11.5861 13.3916 11.6596 13.4086 11.7304C13.4257 11.8012 13.4577 11.8674 13.5023 11.9248C13.547 11.9822 13.6034 12.0294 13.6678 12.0632L16.2319 13.4102L11.8909 17.7012L11.0164 17.51C10.6449 17.4293 10.2584 17.4535 9.89981 17.58C9.54127 17.7064 9.2248 17.9301 8.98567 18.2261L8.74124 18.5278C8.6937 18.5865 8.65972 18.655 8.64174 18.7283C8.62376 18.8017 8.62223 18.8782 8.63727 18.9523C8.6523 19.0263 8.68352 19.0961 8.72868 19.1566C8.77384 19.2171 8.83183 19.2669 8.89846 19.3023L11.6491 20.7651C11.9929 20.9503 12.3825 21.0328 12.7717 21.003C13.161 20.9732 13.5335 20.8323 13.8453 20.5969C13.8786 20.5718 13.9119 20.5466 13.943 20.5184L18.9254 16.2889L20.5664 19.2528C20.6016 19.3164 20.65 19.3718 20.7083 19.4152C20.7665 19.4585 20.8334 19.489 20.9043 19.5045C20.9753 19.52 21.0487 19.5202 21.1197 19.505C21.1907 19.4899 21.2577 19.4598 21.3162 19.4167L22.7144 18.3837L22.7188 18.3804C22.7923 18.3249 22.8494 18.2505 22.8842 18.1652C22.919 18.0799 22.9301 17.9867 22.9164 17.8955L22.2477 13.4709L26.6321 9.74968C26.8791 9.541 27.047 9.25357 27.1076 8.93559C27.1682 8.61762 27.1178 8.28844 26.9649 8.00327C26.8119 7.71811 26.5658 7.49431 26.2677 7.3694C25.9696 7.2445 25.6377 7.2261 25.3277 7.31728L25.3273 7.31681ZM14.6568 11.4267L15.1448 10.731L18.5089 11.1615L16.996 12.6565L14.6568 11.4267ZM21.8602 17.7426L21.1775 18.2471L19.0616 14.422L21.0748 12.5463L21.8602 17.7426ZM25.9731 8.96714L22.0676 12.2817L21.9398 11.4356C21.926 11.3436 21.8873 11.2571 21.828 11.1854C21.7687 11.1138 21.691 11.0597 21.6033 11.0291C21.5155 10.9984 21.4211 10.9923 21.3302 11.0115C21.2393 11.0306 21.1553 11.0743 21.0873 11.1377L18.0739 13.9458C17.9903 14.0237 17.9352 14.1275 17.9173 14.2405C17.8995 14.3535 17.9199 14.4692 17.9754 14.5692L18.4221 15.3764L13.282 19.7373C13.1244 19.8717 12.9299 19.9552 12.7241 19.9771C12.5183 19.999 12.3107 19.9582 12.1284 19.86L9.9508 18.7015C10.0709 18.6109 10.2087 18.5469 10.3553 18.5136C10.5019 18.4803 10.6538 18.4785 10.8011 18.5083L11.943 18.759C12.0261 18.7772 12.1124 18.7744 12.1941 18.7507C12.2758 18.7269 12.3503 18.6831 12.4108 18.6232L21.9702 9.17821C22.273 8.87971 22.6501 8.66804 23.0623 8.56526C23.4745 8.46248 23.9066 8.47235 24.3137 8.59384C24.4077 8.62232 24.5079 8.62294 24.6023 8.59564L25.618 8.29881C25.6905 8.27717 25.7678 8.27762 25.8401 8.3001C25.9124 8.32258 25.9763 8.36608 26.0239 8.42506C26.088 8.50407 26.1186 8.60514 26.1091 8.70652C26.0996 8.8079 26.0507 8.90148 25.9731 8.96714V8.96714Z" fill="#242424"/>
<path d="M3.60606 22.71C2.65 22.711 1.7334 23.0925 1.05737 23.7708C0.38133 24.449 0.00106545 25.3686 0 26.3278C0 28.3952 1.66415 30.7823 3.27262 31.896C3.37064 31.9639 3.48694 32.0003 3.60606 32.0003C3.72518 32.0003 3.84148 31.9639 3.9395 31.896C5.54964 30.7823 7.21212 28.3959 7.21212 26.3278C7.21106 25.3686 6.83079 24.449 6.15476 23.7708C5.47872 23.0925 4.56212 22.711 3.60606 22.71ZM3.60606 30.6747C2.38067 29.6721 1.17407 27.8477 1.17407 26.3278C1.17407 25.6807 1.43029 25.0601 1.88638 24.6025C2.34247 24.1449 2.96106 23.8879 3.60606 23.8879C4.25107 23.8879 4.86965 24.1449 5.32574 24.6025C5.78183 25.0601 6.03806 25.6807 6.03806 26.3278C6.03806 27.8473 4.83145 29.6721 3.60606 30.6747Z" fill="#242424"/>
<path d="M30.3941 0C29.4381 0.00106893 28.5215 0.382578 27.8455 1.06083C27.1694 1.73908 26.7892 2.65868 26.7881 3.61787C26.7881 5.68527 28.4522 8.07238 30.0607 9.18601C30.1587 9.25394 30.275 9.29031 30.3941 9.29031C30.5133 9.29031 30.6296 9.25394 30.7276 9.18601C32.3377 8.07238 34.0002 5.68594 34.0002 3.61787C33.9991 2.65868 33.6189 1.73908 32.9428 1.06083C32.2668 0.382578 31.3502 0.00106893 30.3941 0ZM30.3941 7.96469C29.1688 6.96212 27.9622 5.13771 27.9622 3.61787C27.9622 2.97075 28.2184 2.35014 28.6745 1.89256C29.1306 1.43498 29.7491 1.17791 30.3941 1.17791C31.0392 1.17791 31.6577 1.43498 32.1138 1.89256C32.5699 2.35014 32.8261 2.97075 32.8261 3.61787C32.8261 5.13737 31.6195 6.96212 30.3941 7.96469Z" fill="#242424"/>
<path d="M3.606 24.7744C3.30034 24.7744 3.00154 24.8652 2.74739 25.0354C2.49324 25.2055 2.29516 25.4473 2.17819 25.7303C2.06122 26.0132 2.03061 26.3245 2.09024 26.6249C2.14987 26.9252 2.29706 27.2011 2.5132 27.4177C2.72934 27.6342 3.00471 27.7817 3.3045 27.8414C3.60429 27.9012 3.91503 27.8705 4.19742 27.7533C4.47982 27.6361 4.72118 27.4377 4.891 27.183C5.06082 26.9284 5.15146 26.629 5.15146 26.3228C5.15094 25.9123 4.98795 25.5188 4.69823 25.2285C4.40851 24.9382 4.01572 24.7749 3.606 24.7744ZM3.606 26.7303C3.52556 26.7303 3.44693 26.7064 3.38005 26.6616C3.31317 26.6168 3.26104 26.5532 3.23026 26.4787C3.19948 26.4043 3.19142 26.3223 3.20712 26.2433C3.22281 26.1643 3.26155 26.0917 3.31842 26.0347C3.3753 25.9777 3.44777 25.9389 3.52666 25.9232C3.60555 25.9074 3.68732 25.9155 3.76164 25.9463C3.83595 25.9772 3.89947 26.0294 3.94416 26.0964C3.98885 26.1634 4.0127 26.2422 4.0127 26.3228C4.01261 26.4308 3.96974 26.5344 3.89349 26.6108C3.81723 26.6872 3.71384 26.7302 3.606 26.7303V26.7303Z" fill="#242424"/>
<path d="M30.3941 2.06445C30.0884 2.06445 29.7896 2.15527 29.5355 2.3254C29.2813 2.49554 29.0832 2.73737 28.9663 3.0203C28.8493 3.30323 28.8187 3.61456 28.8783 3.91491C28.938 4.21527 29.0852 4.49117 29.3013 4.70771C29.5174 4.92426 29.7928 5.07173 30.0926 5.13147C30.3924 5.19122 30.7031 5.16055 30.9855 5.04336C31.2679 4.92617 31.5093 4.7277 31.6791 4.47307C31.8489 4.21844 31.9395 3.91908 31.9395 3.61284C31.939 3.20234 31.776 2.8088 31.4863 2.51854C31.1966 2.22827 30.8038 2.06497 30.3941 2.06445ZM30.3941 4.02031C30.3137 4.02031 30.235 3.99641 30.1681 3.95164C30.1013 3.90686 30.0491 3.84323 30.0183 3.76877C29.9876 3.69432 29.9795 3.61239 29.9952 3.53334C30.0109 3.4543 30.0496 3.3817 30.1065 3.32471C30.1634 3.26773 30.2359 3.22892 30.3147 3.2132C30.3936 3.19748 30.4754 3.20554 30.5497 3.23638C30.624 3.26722 30.6876 3.31945 30.7322 3.38646C30.7769 3.45347 30.8008 3.53225 30.8008 3.61284C30.8007 3.72088 30.7578 3.82447 30.6816 3.90087C30.6053 3.97726 30.5019 4.02022 30.3941 4.02031V4.02031Z" fill="#242424"/>
<path d="M24.6939 13.774L24.6939 13.774C25.1129 13.7028 25.5238 13.6061 25.9151 13.4868C26.1084 13.4278 26.3076 13.5419 26.3633 13.734C26.3633 13.7341 26.3633 13.7341 26.3633 13.7341L26.2673 13.7619C26.3082 13.903 26.2298 14.0514 26.0922 14.0932L24.6939 13.774ZM24.6939 13.774C24.496 13.8077 24.366 13.9976 24.398 14.195L24.6939 13.774ZM24.8119 14.4968C25.2605 14.4207 25.701 14.3171 26.1214 14.1889L24.398 14.195C24.4268 14.3726 24.5778 14.5018 24.7527 14.5018C24.7723 14.5018 24.7923 14.5001 24.8117 14.4969L24.8119 14.4968Z" fill="#242424" stroke="#242424" stroke-width="0.2"/>
<path d="M29.6954 10.3489L29.6955 10.3487C29.7683 10.1615 29.9771 10.067 30.1638 10.1431L29.6954 10.3489ZM29.6954 10.3489C29.3835 11.1548 28.8833 11.8315 28.2081 12.3615L28.208 12.3615M29.6954 10.3489L28.208 12.3615M28.208 12.3615C28.051 12.4849 28.022 12.7136 28.1415 12.8734M28.208 12.3615L28.6477 12.9419M28.6477 12.9419L28.6475 12.942C28.5824 12.9929 28.5049 13.0181 28.4281 13.0181C28.3191 13.0181 28.212 12.9679 28.1415 12.8734M28.6477 12.9419C29.4265 12.3302 30.0047 11.5478 30.3648 10.6179M28.6477 12.9419L30.3648 10.6179M28.1415 12.8734L28.2212 12.8139L28.1415 12.8735C28.1415 12.8735 28.1415 12.8734 28.1415 12.8734ZM30.3648 10.6179C30.4371 10.4316 30.3492 10.2187 30.1639 10.1431L30.3648 10.6179Z" fill="#242424" stroke="#242424" stroke-width="0.2"/>
<path d="M12.863 12.4156C12.6677 12.3899 12.4852 12.5342 12.4604 12.7333L12.4604 12.7334C12.436 12.9318 12.5731 13.1166 12.772 13.1426L12.7721 13.1426C13.1607 13.193 13.5752 13.2577 14.0397 13.3408L14.0573 13.2424L14.0405 13.3409C14.0614 13.3445 14.0818 13.3462 14.1022 13.3462C14.276 13.3462 14.4264 13.2189 14.4565 13.0423L14.4565 13.0422C14.4899 12.8454 14.3617 12.6541 14.1641 12.6188L14.1641 12.6188C13.6888 12.5341 13.2631 12.4676 12.863 12.4156ZM12.863 12.4156C12.863 12.4157 12.8631 12.4157 12.8631 12.4157L12.85 12.5148M12.863 12.4156C12.863 12.4156 12.8629 12.4156 12.8629 12.4156L12.85 12.5148M12.85 12.5148C13.2483 12.5665 13.6725 12.6327 14.1465 12.7173L12.5597 12.7456C12.5778 12.5998 12.7115 12.4965 12.85 12.5148Z" fill="#242424" stroke="#242424" stroke-width="0.2"/>
<path d="M5.96202 15.163L5.96202 15.163C6.15904 15.2003 6.28561 15.3927 6.24995 15.5897M5.96202 15.163L6.42849 18.4684L6.46774 18.5604C6.6518 18.4818 6.73629 18.2671 6.66082 18.0824M5.96202 15.163L5.96176 15.163C5.76248 15.1258 5.57763 15.2601 5.54226 15.4572L5.64068 15.4748L5.54228 15.4571C5.50532 15.6617 5.48691 15.8777 5.48691 16.0988C5.48691 16.7741 5.65961 17.5359 5.9961 18.3626L5.96202 15.163ZM6.24995 15.5897C6.24994 15.5897 6.24994 15.5897 6.24994 15.5898L6.15154 15.5719L6.24996 15.5897C6.24995 15.5897 6.24995 15.5897 6.24995 15.5897ZM6.24995 15.5897C6.22114 15.7498 6.20636 15.9212 6.20636 16.099C6.20636 16.6702 6.3574 17.3368 6.66082 18.0824M6.66082 18.0824C6.6608 18.0823 6.66078 18.0823 6.66076 18.0822L6.56821 18.12L6.66082 18.0824Z" fill="#242424" stroke="#242424" stroke-width="0.2"/>
<path d="M12.3335 25.5817L12.5035 25.7481L12.5038 25.7484C12.527 25.7712 12.9357 26.1712 13.2681 26.7531L13.1813 26.8027L13.2682 26.7533C13.3668 26.9266 13.311 27.1502 13.1394 27.253L13.088 27.1672L13.1396 27.2529C13.0825 27.2873 13.0193 27.3038 12.957 27.3038C12.8326 27.3038 12.7124 27.238 12.6458 27.1216L12.6457 27.1215C12.3738 26.6453 12.0312 26.3026 12.008 26.2798C11.8858 26.1648 11.4621 25.7617 10.8734 25.1475C10.7352 25.0034 10.7373 24.7727 10.8777 24.6311L12.3335 25.5817ZM12.3335 25.5817V25.5861M12.3335 25.5817V25.5861M12.3335 25.5861C12.1387 25.3984 11.8067 25.0719 11.3883 24.6355C11.249 24.4901 11.0199 24.4878 10.8778 24.6311L12.3335 25.5861Z" fill="#242424" stroke="#242424" stroke-width="0.2"/>
<path d="M7.44682 20.3393L7.44698 20.3392L7.44698 20.3392C7.61222 20.2241 7.83711 20.2681 7.94851 20.4359M7.44682 20.3393L9.10253 23.0155C9.15426 23.0773 9.22718 23.1093 9.30112 23.1093C9.36016 23.1093 9.42006 23.0886 9.46882 23.0462L9.53436 23.1217C9.53438 23.1217 9.53441 23.1216 9.53444 23.1216C9.68521 22.9907 9.70338 22.7607 9.576 22.607C8.95375 21.8546 8.40625 21.1241 7.94851 20.4359M7.44682 20.3393C7.28317 20.4537 7.24194 20.6806 7.35262 20.8469L7.44682 20.3393ZM7.94851 20.4359C7.94852 20.4359 7.94853 20.4359 7.94854 20.4359L7.86523 20.4912L7.94849 20.4358C7.9485 20.4359 7.94851 20.4359 7.94851 20.4359Z" fill="#242424" stroke="#242424" stroke-width="0.2"/>
<path d="M10.2379 30.1969L10.238 30.1969C11.3154 29.9556 12.0784 29.6148 12.5216 29.194C12.5216 29.1939 12.5216 29.1939 12.5217 29.1939L12.5905 29.2664C12.6956 29.1663 12.8602 29.1727 12.9576 29.2808C13.0553 29.3888 13.0489 29.5573 12.9436 29.6573L10.2379 30.1969ZM10.2379 30.1969C10.0424 30.2409 9.92231 30.4371 9.96389 30.6323L10.2379 30.1969Z" fill="#242424" stroke="#242424" stroke-width="0.2"/>
<path d="M7.71845 13.7649L7.71834 13.765C7.66271 13.797 7.60156 13.8125 7.54125 13.8125C7.4146 13.8125 7.29274 13.7444 7.22715 13.6251C7.22714 13.625 7.22712 13.625 7.22711 13.625L7.31476 13.5769C7.24422 13.4487 7.28872 13.2862 7.41379 13.214L7.71845 13.7649ZM7.71845 13.7649C8.41197 13.3646 9.20605 13.1286 10.1493 13.0457L10.1493 13.0457C10.3494 13.0281 10.4938 12.8489 10.4769 12.6495L10.4769 12.6494C10.4601 12.4513 10.2868 12.2961 10.0871 12.3157C9.04423 12.4075 8.15217 12.6724 7.36383 13.1274L7.71845 13.7649Z" fill="#242424" stroke="#242424" stroke-width="0.2"/>
<path d="M7.66798 31.2778L7.6678 31.2778C7.25462 31.3055 6.81335 31.3257 6.35673 31.3373C6.35614 31.3373 6.35555 31.3374 6.35496 31.3374L7.66798 31.2778ZM7.66798 31.2778C7.86812 31.264 8.01595 31.0878 8.00323 30.8883L7.66798 31.2778ZM5.98604 30.9802L5.98604 30.9802L6.33675 30.6049C6.1358 30.61 5.98131 30.7806 5.98604 30.9802ZM7.62038 30.5464C7.21654 30.5739 6.78464 30.5935 6.33682 30.6049L8.00323 30.8883C7.9905 30.6885 7.81784 30.5314 7.61958 30.5465L7.62716 30.6462L7.62038 30.5464Z" fill="#242424" stroke="#242424" stroke-width="0.2"/>
</svg>
