<svg width="28" height="29" viewBox="0 0 28 29" fill="none" xmlns="http://www.w3.org/2000/svg">
<path d="M24.1032 9.40816H25.4549C26.13 9.40816 26.7775 9.67635 27.2549 10.1537C27.7323 10.6311 28.0005 11.2786 28.0005 11.9537V17.0449C28.0005 17.72 27.7323 18.3675 27.2549 18.8449C26.7775 19.3223 26.13 19.5905 25.4549 19.5905H24.1032C23.7929 22.0512 22.5953 24.314 20.735 25.9544C18.8748 27.5948 16.4799 28.5 13.9997 28.5V25.9544C16.0251 25.9544 17.9676 25.1498 19.3997 23.7177C20.8319 22.2855 21.6365 20.3431 21.6365 18.3177V10.6809C21.6365 8.65556 20.8319 6.71312 19.3997 5.28096C17.9676 3.84879 16.0251 3.04421 13.9997 3.04421C11.9743 3.04421 10.0319 3.84879 8.59974 5.28096C7.16757 6.71312 6.36299 8.65556 6.36299 10.6809V19.5905H2.54461C1.86948 19.5905 1.222 19.3223 0.744608 18.8449C0.267218 18.3675 -0.000976562 17.72 -0.000976562 17.0449V11.9537C-0.000976562 11.2786 0.267218 10.6311 0.744608 10.1537C1.222 9.67635 1.86948 9.40816 2.54461 9.40816H3.89631C4.20692 6.94772 5.40468 4.68518 7.26485 3.04507C9.12503 1.40496 11.5198 0.5 13.9997 0.5C16.4797 0.5 18.8745 1.40496 20.7346 3.04507C22.5948 4.68518 23.7926 6.94772 24.1032 9.40816ZM2.54461 11.9537V17.0449H3.8174V11.9537H2.54461ZM24.1821 11.9537V17.0449H25.4549V11.9537H24.1821ZM8.6031 19.3168L9.95226 17.1582C11.1653 17.9181 12.5683 18.32 13.9997 18.3177C15.4312 18.32 16.8342 17.9181 18.0472 17.1582L19.3964 19.3168C17.779 20.3301 15.9083 20.8662 13.9997 20.8633C12.0911 20.8663 10.2205 20.3302 8.6031 19.3168Z" fill="url(#paint0_linear_84_395)"/>
<defs>
<linearGradient id="paint0_linear_84_395" x1="13.7931" y1="-2.66147" x2="13.7931" y2="30.0126" gradientUnits="userSpaceOnUse">
<stop stop-color="#006DD2"/>
<stop offset="1" stop-color="#59C2FD"/>
</linearGradient>
</defs>
</svg>
