<svg width="20" height="20" viewBox="0 0 20 20" fill="none" xmlns="http://www.w3.org/2000/svg">
<g clip-path="url(#clip0_279_16972)">
<path d="M0 5.83369C0 5.61268 0.0877974 5.40072 0.244078 5.24444C0.400358 5.08816 0.612319 5.00036 0.833333 5.00036H15V2.19953C15.0016 2.06991 15.0414 1.94364 15.1143 1.83648C15.1873 1.72932 15.2902 1.64601 15.4102 1.59695C15.5301 1.54789 15.6619 1.53524 15.789 1.5606C15.9162 1.58596 16.033 1.64819 16.125 1.73953L19.8067 5.37369C19.8673 5.43361 19.9155 5.50498 19.9484 5.58366C19.9813 5.66233 19.9982 5.74676 19.9982 5.83203C19.9982 5.9173 19.9813 6.00172 19.9484 6.0804C19.9155 6.15908 19.8673 6.23044 19.8067 6.29036L16.125 9.92786C16.033 10.0192 15.9162 10.0814 15.789 10.1068C15.6619 10.1321 15.5301 10.1195 15.4102 10.0704C15.2902 10.0214 15.1873 9.93807 15.1143 9.83091C15.0414 9.72375 15.0016 9.59748 15 9.46786V6.66703H0.833333C0.612319 6.66703 0.400358 6.57923 0.244078 6.42295C0.0877974 6.26667 0 6.05471 0 5.83369ZM19.1667 13.3337H5V10.5329C4.99836 10.4032 4.95859 10.277 4.88565 10.1698C4.81271 10.0626 4.70983 9.97934 4.58984 9.93028C4.46986 9.88122 4.33808 9.86858 4.21095 9.89393C4.08383 9.91929 3.96698 9.98152 3.875 10.0729L0.193333 13.707C0.132662 13.7669 0.0844903 13.8383 0.0516125 13.917C0.0187346 13.9957 0.00180477 14.0801 0.00180477 14.1654C0.00180477 14.2506 0.0187346 14.335 0.0516125 14.4137C0.0844903 14.4924 0.132662 14.5638 0.193333 14.6237L3.875 18.2612C3.96698 18.3525 4.08383 18.4148 4.21095 18.4401C4.33808 18.4655 4.46986 18.4528 4.58984 18.4038C4.70983 18.3547 4.81271 18.2714 4.88565 18.1642C4.95859 18.0571 4.99836 17.9308 5 17.8012V15.0004H19.1667C19.3877 15.0004 19.5996 14.9126 19.7559 14.7563C19.9122 14.6 20 14.388 20 14.167C20 13.946 19.9122 13.734 19.7559 13.5778C19.5996 13.4215 19.3877 13.3337 19.1667 13.3337Z" fill="#006DD2"/>
</g>
<defs>
<clipPath id="clip0_279_16972">
<rect width="20" height="20" fill="white"/>
</clipPath>
</defs>
</svg>
