<svg width="37" height="38" viewBox="0 0 37 38" fill="none" xmlns="http://www.w3.org/2000/svg">
<path d="M9.25008 21.9948C9.25008 23.3309 9.51987 24.5966 10.0595 25.7919C10.599 26.9872 11.3699 28.034 12.372 28.9323C12.3463 28.8038 12.3334 28.6882 12.3334 28.5854V28.2386C12.3334 27.4163 12.4876 26.6455 12.7959 25.9261C13.1042 25.2066 13.5539 24.5514 14.1449 23.9604L18.5001 19.6823L22.8553 23.9604C23.4463 24.5514 23.8959 25.2066 24.2042 25.9261C24.5126 26.6455 24.6667 27.4163 24.6667 28.2386V28.5854C24.6667 28.6882 24.6539 28.8038 24.6282 28.9323C25.6303 28.033 26.4011 26.9857 26.9407 25.7904C27.4803 24.5951 27.7501 23.3299 27.7501 21.9948C27.7501 20.7101 27.5122 19.4958 27.0363 18.3518C26.5604 17.2079 25.8734 16.1868 24.9751 15.2886C24.4612 15.6226 23.9216 15.8734 23.3563 16.0409C22.7911 16.2084 22.2129 16.2917 21.622 16.2906C20.0289 16.2906 18.6476 15.7639 17.478 14.7104C16.3083 13.657 15.6341 12.3594 15.4553 10.8177C14.4532 11.6656 13.5667 12.5459 12.7959 13.4586C12.0251 14.3713 11.376 15.2963 10.8488 16.2336C10.3226 17.1709 9.92482 18.1278 9.65554 19.1042C9.38626 20.0806 9.25111 21.0441 9.25008 21.9948ZM18.5001 23.999L16.3032 26.1573C16.0206 26.4399 15.8022 26.7611 15.648 27.1208C15.4938 27.4806 15.4167 27.8531 15.4167 28.2386C15.4167 29.0608 15.7184 29.7674 16.3217 30.3583C16.925 30.9493 17.6511 31.2448 18.5001 31.2448C19.348 31.2448 20.0736 30.9493 20.6769 30.3583C21.2802 29.7674 21.5824 29.0608 21.5834 28.2386C21.5834 27.8274 21.5063 27.4482 21.3522 27.1008C21.198 26.7534 20.9796 26.4389 20.697 26.1573L18.5001 23.999ZM18.5001 5.03647V10.124C18.5001 10.9976 18.8022 11.7299 19.4066 12.3208C20.0109 12.9118 20.7494 13.2073 21.622 13.2073C22.0845 13.2073 22.5151 13.1107 22.9139 12.9175C23.3127 12.7242 23.6657 12.4354 23.973 12.0511L24.6667 11.2031C26.5681 12.2823 28.0713 13.7854 29.1761 15.7125C30.281 17.6396 30.8334 19.7337 30.8334 21.9948C30.8334 25.4379 29.6386 28.3542 27.249 30.7438C24.8595 33.1333 21.9431 34.3281 18.5001 34.3281C15.057 34.3281 12.1407 33.1333 9.75112 30.7438C7.36154 28.3542 6.16675 25.4379 6.16675 21.9948C6.16675 18.6802 7.27778 15.5326 9.49983 12.5521C11.7219 9.57154 14.722 7.06633 18.5001 5.03647Z" fill="white"/>
</svg>
