<svg width="32" height="32" viewBox="0 0 32 32" fill="none" xmlns="http://www.w3.org/2000/svg">
<path d="M9.26675 19.9065L14.9201 12.3599L26.2401 2.93321C26.7601 2.41321 27.6267 2.41321 28.1201 2.93321L29.0667 3.87988C29.5867 4.37321 29.5867 5.23988 29.0667 5.75988L19.6401 17.0799L12.0934 22.7332L9.26675 19.9065ZM11.1467 23.6799L8.32008 20.8532L4.54675 22.7332L2.66675 28.3865L5.49341 25.5599C5.76008 25.3332 6.17341 25.3332 6.44008 25.5599C6.66675 25.8265 6.66675 26.2399 6.44008 26.5065L3.61341 29.3332L9.26675 27.4532L11.1467 23.6799Z" fill="url(#paint0_linear_215_4)"/>
<defs>
<linearGradient id="paint0_linear_215_4" x1="15.864" y1="-0.481639" x2="15.864" y2="30.7805" gradientUnits="userSpaceOnUse">
<stop stop-color="#006DD2"/>
<stop offset="1" stop-color="#59C2FD"/>
</linearGradient>
</defs>
</svg>
