<svg width="32" height="33" viewBox="0 0 32 33" fill="none" xmlns="http://www.w3.org/2000/svg">
<path d="M6.813 2.90601L5.405 4.31201L7.5 6.40601L8.906 5.00001L6.812 2.90601H6.813ZM25.188 2.90601L23.093 5.00001L24.5 6.40601L26.594 4.31301L25.188 2.90601ZM16 3.53001C15.67 3.53401 15.336 3.55301 15 3.59401C14.99 3.59401 14.98 3.59201 14.97 3.59401C10.914 4.05901 7.686 7.33601 7.125 11.374C6.677 14.624 8.017 17.571 10.25 19.469C11.1634 20.2485 11.7812 21.3183 12 22.499V28.499H14.28C14.628 29.096 15.263 29.499 16 29.499C16.737 29.499 17.372 29.096 17.72 28.499H20V24.499H20.094V23.311C20.094 21.845 20.856 20.367 22.094 19.218C23.75 17.56 25 15.205 25 12.5C25 7.56001 20.934 3.48401 16 3.53001ZM16 5.53001C19.865 5.47601 23 8.64001 23 12.5C23 14.594 22.03 16.438 20.687 17.78L20.719 17.812C19.3844 19.0427 18.5214 20.7008 18.279 22.5H13.905C13.685 20.786 12.95 19.127 11.561 17.937C9.794 16.437 8.741 14.177 9.093 11.625C9.53 8.47501 12.086 5.94201 15.218 5.59501C15.4766 5.55895 15.737 5.53759 15.998 5.53101L16 5.53001ZM2 12.5V14.5H5V12.5H2ZM27 12.5V14.5H30V12.5H27ZM7.5 20.594L5.406 22.687L6.813 24.094L8.905 22L7.5 20.594ZM24.5 20.594L23.094 22L25.187 24.094L26.594 22.687L24.5 20.594ZM14 24.5H18V26.5H14V24.5Z" fill="url(#paint0_linear_84_379)"/>
<defs>
<linearGradient id="paint0_linear_84_379" x1="15.7933" y1="-0.0966032" x2="15.7933" y2="30.9356" gradientUnits="userSpaceOnUse">
<stop stop-color="#006DD2"/>
<stop offset="1" stop-color="#59C2FD"/>
</linearGradient>
</defs>
</svg>
