<svg width="32" height="33" viewBox="0 0 32 33" fill="none" xmlns="http://www.w3.org/2000/svg">
<path d="M29.7237 7.15378C28.9418 6.31631 27.996 5.64856 26.9452 5.19201C25.8943 4.73547 24.7608 4.49988 23.615 4.49988C22.4692 4.49988 21.3357 4.73547 20.2848 5.19201C19.234 5.64856 18.2882 6.31631 17.5062 7.15378C16.9041 7.78557 16.3967 8.50135 16 9.27878C15.6052 8.50175 15.1 7.78598 14.5 7.15378C13.7181 6.31631 12.7723 5.64856 11.7214 5.19201C10.6705 4.73547 9.53701 4.49988 8.39125 4.49988C7.24548 4.49988 6.11196 4.73547 5.06108 5.19201C4.01021 5.64856 3.06443 6.31631 2.2825 7.15378C2.17161 7.27028 2.09046 7.41181 2.04593 7.56635C2.0014 7.7209 1.9948 7.88391 2.0267 8.04155C2.05859 8.19919 2.12804 8.34681 2.22915 8.47188C2.33026 8.59696 2.46005 8.69581 2.6075 8.76003L9.625 11.8188C7.33969 12.4298 5.39032 13.9228 4.205 15.97C3.61031 16.9848 3.22436 18.1082 3.06981 19.2742C2.91526 20.4402 2.99522 21.6254 3.305 22.76C3.34782 22.9181 3.42882 23.0633 3.54088 23.1828C3.65294 23.3022 3.79263 23.3924 3.94768 23.4452C4.10272 23.498 4.26837 23.512 4.43007 23.4858C4.59176 23.4596 4.74455 23.3941 4.875 23.295L15 15.585V28.5C15 28.7653 15.1054 29.0196 15.2929 29.2071C15.4804 29.3947 15.7348 29.5 16 29.5C16.2652 29.5 16.5196 29.3947 16.7071 29.2071C16.8946 29.0196 17 28.7653 17 28.5V15.585L27.125 23.295C27.2555 23.3944 27.4084 23.4601 27.5702 23.4864C27.7321 23.5128 27.8979 23.4989 28.0531 23.4461C28.2084 23.3932 28.3482 23.303 28.4604 23.1834C28.5725 23.0637 28.6535 22.9183 28.6962 22.76C29.006 21.6254 29.086 20.4402 28.9314 19.2742C28.7769 18.1082 28.3909 16.9848 27.7962 15.97C26.6106 13.9226 24.6608 12.4295 22.375 11.8188L29.4025 8.76003C29.55 8.69581 29.6797 8.59696 29.7808 8.47188C29.882 8.34681 29.9514 8.19919 29.9833 8.04155C30.0152 7.88391 30.0086 7.7209 29.9641 7.56635C29.9195 7.41181 29.8384 7.27028 29.7275 7.15378H29.7237ZM8.385 6.50003C9.25947 6.502 10.1242 6.68339 10.9258 7.033C11.7273 7.3826 12.4486 7.89297 13.045 8.53253C13.9361 9.4703 14.5527 10.6347 14.8275 11.8988L4.875 7.56628C5.91365 6.87125 7.13525 6.50016 8.385 6.50003ZM5 20.6875C4.95225 19.3865 5.27614 18.0987 5.93375 16.975C6.39342 16.1817 7.00564 15.4873 7.73509 14.9319C8.46454 14.3764 9.29677 13.9709 10.1837 13.7388C10.7803 13.5796 11.3951 13.4994 12.0125 13.5C12.6999 13.5 13.3835 13.6015 14.0412 13.8013L5 20.6875ZM26.0625 16.975C26.7214 18.0983 27.0466 19.3861 27 20.6875L17.9625 13.8C19.4736 13.3437 21.0943 13.4087 22.564 13.9846C24.0338 14.5604 25.2673 15.6136 26.0662 16.975H26.0625ZM17.1725 11.8988C17.4473 10.6347 18.0639 9.4703 18.955 8.53253C19.5514 7.89297 20.2727 7.3826 21.0742 7.033C21.8758 6.68339 22.7405 6.502 23.615 6.50003C24.8648 6.50016 26.0863 6.87125 27.125 7.56628L17.1725 11.8988Z" fill="url(#paint0_linear_84_372)"/>
<defs>
<linearGradient id="paint0_linear_84_372" x1="15.7983" y1="1.67712" x2="15.7983" y2="30.8506" gradientUnits="userSpaceOnUse">
<stop stop-color="#006DD2"/>
<stop offset="1" stop-color="#59C2FD"/>
</linearGradient>
</defs>
</svg>
