<svg width="32" height="32" viewBox="0 0 32 32" fill="none" xmlns="http://www.w3.org/2000/svg">
<path d="M30.816 14.1732C30.1948 13.4064 29.3742 12.8258 28.4444 12.4952V8.3809C28.4444 3.75966 24.6847 0 20.0635 0H11.9365C7.31529 0 3.55563 3.75966 3.55563 8.3809V12.4952C2.51577 12.8628 1.61547 13.5438 0.978701 14.4444C0.341928 15.3449 0 16.4208 0 17.5237C0 18.6266 0.341928 19.7025 0.978701 20.603C1.61547 21.5036 2.51577 22.1846 3.55563 22.5522V25.6506C3.55707 26.93 4.06592 28.1565 4.97054 29.0611C5.87516 29.9657 7.10167 30.4746 8.381 30.476H13.3374C13.4954 30.9213 13.7873 31.3068 14.1731 31.5796C14.5588 31.8524 15.0196 31.9992 15.4921 31.9998H17.5238C18.13 31.9998 18.7114 31.759 19.14 31.3303C19.5687 30.9017 19.8095 30.3203 19.8095 29.7141C19.8095 29.1079 19.5687 28.5265 19.14 28.0979C18.7114 27.6692 18.13 27.4284 17.5238 27.4284H15.4921C15.0196 27.429 14.5588 27.5758 14.1731 27.8486C13.7873 28.1214 13.4954 28.5069 13.3374 28.9522H8.381C7.50567 28.9512 6.66648 28.6031 6.04753 27.9841C5.42858 27.3652 5.08042 26.526 5.07943 25.6506V23.3649H5.84133C6.44733 23.3643 7.02831 23.1232 7.45682 22.6947C7.88533 22.2662 8.12636 21.6852 8.12703 21.0792V13.9682C8.12636 13.3622 7.88533 12.7812 7.45682 12.3527C7.02831 11.9242 6.44733 11.6831 5.84133 11.6825H5.07943V8.3809C5.08148 6.56292 5.80458 4.81998 7.09009 3.53446C8.3756 2.24895 10.1185 1.52585 11.9365 1.5238H20.0635C21.8815 1.52585 23.6244 2.24895 24.9099 3.53446C26.1954 4.81998 26.9185 6.56292 26.9206 8.3809V11.6825H26.1587C25.5527 11.6831 24.9717 11.9242 24.5432 12.3527C24.1147 12.7812 23.8736 13.3622 23.873 13.9682V21.0792C23.8736 21.6852 24.1147 22.2662 24.5432 22.6947C24.9717 23.1232 25.5527 23.3643 26.1587 23.3649H27.6825C27.8845 23.3649 28.0783 23.2847 28.2212 23.1418C28.3641 22.9989 28.4444 22.8051 28.4444 22.603V22.5522C29.2487 22.2679 29.973 21.7948 30.5566 21.1726C31.1402 20.5504 31.5661 19.7973 31.7984 18.9765C32.0307 18.1556 32.0628 17.2911 31.8918 16.4553C31.7209 15.6195 31.352 14.8369 30.816 14.1733V14.1732ZM15.4921 28.9522H17.5238C17.7259 28.9522 17.9197 29.0325 18.0625 29.1754C18.2054 29.3183 18.2857 29.512 18.2857 29.7141C18.2857 29.9162 18.2054 30.11 18.0625 30.2529C17.9197 30.3957 17.7259 30.476 17.5238 30.476H15.4921C15.29 30.476 15.0962 30.3957 14.9533 30.2529C14.8104 30.11 14.7302 29.9162 14.7302 29.7141C14.7302 29.512 14.8104 29.3183 14.9533 29.1754C15.0962 29.0325 15.29 28.9522 15.4921 28.9522ZM1.52389 17.5237C1.52784 16.8314 1.71871 16.153 2.07633 15.5602C2.43395 14.9674 2.94505 14.4822 3.55563 14.1558V20.8916C2.94505 20.5653 2.43395 20.08 2.07633 19.4872C1.71871 18.8944 1.52784 18.216 1.52389 17.5237ZM6.60323 13.9682V21.0792C6.60301 21.2812 6.52267 21.4749 6.37983 21.6177C6.23699 21.7606 6.04333 21.8409 5.84133 21.8411H5.07943V13.2063H5.84133C6.04333 13.2065 6.23699 13.2868 6.37983 13.4297C6.52267 13.5725 6.60301 13.7662 6.60323 13.9682ZM25.3968 21.0792V13.9682C25.397 13.7662 25.4773 13.5725 25.6202 13.4297C25.763 13.2868 25.9567 13.2065 26.1587 13.2063H26.9206V21.8411H26.1587C25.9567 21.8409 25.763 21.7606 25.6202 21.6177C25.4773 21.4749 25.397 21.2812 25.3968 21.0792ZM28.4444 20.8916V14.1558C29.0575 14.479 29.5708 14.9635 29.9289 15.5571C30.2869 16.1506 30.4761 16.8306 30.4761 17.5237C30.4761 18.2169 30.2869 18.8968 29.9289 19.4904C29.5708 20.0839 29.0575 20.5684 28.4444 20.8916Z" fill="url(#paint0_linear_213_3138)"/>
<path d="M22.0043 13.3305C21.8804 13.2496 21.7356 13.2065 21.5876 13.2065C21.4396 13.2065 21.2948 13.2496 21.1709 13.3305L18.7181 14.9324L16.6509 11.5402C16.5829 11.4286 16.4873 11.3364 16.3734 11.2724C16.2595 11.2084 16.131 11.1748 16.0003 11.1748C15.8696 11.1748 15.7412 11.2084 15.6272 11.2724C15.5133 11.3364 15.4177 11.4286 15.3497 11.5402L13.2829 14.9324L10.83 13.3305C10.7061 13.2495 10.5613 13.2064 10.4133 13.2064C10.2653 13.2064 10.1205 13.2495 9.99658 13.3305C9.87267 13.4114 9.77502 13.5267 9.71556 13.6622C9.6561 13.7977 9.6374 13.9477 9.66175 14.0937L10.6776 20.1889C10.7073 20.3667 10.799 20.5283 10.9366 20.6449C11.0742 20.7614 11.2486 20.8254 11.4289 20.8255H20.5717C20.7521 20.8255 20.9266 20.7615 21.0642 20.6449C21.2018 20.5284 21.2936 20.3668 21.3233 20.1889L22.3391 14.0937C22.3635 13.9477 22.3447 13.7978 22.2853 13.6623C22.2258 13.5267 22.1282 13.4115 22.0043 13.3305ZM19.9263 19.3017H12.0744L11.45 15.5557L13.1075 16.6381C13.1929 16.694 13.2887 16.732 13.3892 16.7501C13.4896 16.7682 13.5927 16.7659 13.6922 16.7434C13.7917 16.7209 13.8857 16.6787 13.9686 16.6191C14.0515 16.5596 14.1216 16.484 14.1747 16.3969L16.0003 13.4008L17.8259 16.3966C17.879 16.4838 17.9491 16.5593 18.032 16.6189C18.1149 16.6784 18.2089 16.7207 18.3084 16.7432C18.408 16.7657 18.511 16.768 18.6115 16.7499C18.7119 16.7318 18.8077 16.6937 18.8931 16.6379L20.5506 15.5557L19.9263 19.3017Z" fill="url(#paint1_linear_213_3138)"/>
<path d="M16.0012 10.9203C16.4219 10.9203 16.7631 10.5792 16.7631 10.1584C16.7631 9.7376 16.4219 9.39648 16.0012 9.39648C15.5804 9.39648 15.2393 9.7376 15.2393 10.1584C15.2393 10.5792 15.5804 10.9203 16.0012 10.9203Z" fill="url(#paint2_linear_213_3138)"/>
<path d="M22.0949 12.6986C22.5157 12.6986 22.8568 12.3575 22.8568 11.9367C22.8568 11.5159 22.5157 11.1748 22.0949 11.1748C21.6741 11.1748 21.333 11.5159 21.333 11.9367C21.333 12.3575 21.6741 12.6986 22.0949 12.6986Z" fill="url(#paint3_linear_213_3138)"/>
<path d="M9.90545 12.6986C10.3262 12.6986 10.6674 12.3575 10.6674 11.9367C10.6674 11.5159 10.3262 11.1748 9.90545 11.1748C9.48467 11.1748 9.14355 11.5159 9.14355 11.9367C9.14355 12.3575 9.48467 12.6986 9.90545 12.6986Z" fill="url(#paint4_linear_213_3138)"/>
<defs>
<linearGradient id="paint0_linear_213_3138" x1="16" y1="0" x2="16" y2="31.9998" gradientUnits="userSpaceOnUse">
<stop stop-color="#006DD2"/>
<stop offset="1" stop-color="#59C2FD"/>
</linearGradient>
<linearGradient id="paint1_linear_213_3138" x1="16.0004" y1="11.1748" x2="16.0004" y2="20.8255" gradientUnits="userSpaceOnUse">
<stop stop-color="#006DD2"/>
<stop offset="1" stop-color="#59C2FD"/>
</linearGradient>
<linearGradient id="paint2_linear_213_3138" x1="16.0012" y1="9.39648" x2="16.0012" y2="10.9203" gradientUnits="userSpaceOnUse">
<stop stop-color="#006DD2"/>
<stop offset="1" stop-color="#59C2FD"/>
</linearGradient>
<linearGradient id="paint3_linear_213_3138" x1="22.0949" y1="11.1748" x2="22.0949" y2="12.6986" gradientUnits="userSpaceOnUse">
<stop stop-color="#006DD2"/>
<stop offset="1" stop-color="#59C2FD"/>
</linearGradient>
<linearGradient id="paint4_linear_213_3138" x1="9.90545" y1="11.1748" x2="9.90545" y2="12.6986" gradientUnits="userSpaceOnUse">
<stop stop-color="#006DD2"/>
<stop offset="1" stop-color="#59C2FD"/>
</linearGradient>
</defs>
</svg>
