<svg width="32" height="32" viewBox="0 0 32 32" fill="none" xmlns="http://www.w3.org/2000/svg">
<path d="M16.0001 14.6666C17.7682 14.6666 19.4639 15.369 20.7141 16.6192C21.9644 17.8695 22.6667 19.5652 22.6667 21.3333V29.3333H20.0001V21.3333C20.0001 20.313 19.6103 19.3313 18.9104 18.5889C18.2104 17.8466 17.2533 17.3998 16.2347 17.34L16.0001 17.3333C14.9798 17.3332 13.9981 17.7231 13.2557 18.423C12.5134 19.1229 12.0666 20.0801 12.0067 21.0986L12.0001 21.3333V29.3333H9.33341V21.3333C9.33341 19.5652 10.0358 17.8695 11.286 16.6192C12.5363 15.369 14.232 14.6666 16.0001 14.6666ZM7.33341 18.6666C7.70541 18.6666 8.06675 18.7106 8.41341 18.792C8.18546 19.4706 8.05046 20.1771 8.01208 20.892L8.00008 21.3333V21.448C7.84682 21.3931 7.6874 21.3573 7.52541 21.3413L7.33341 21.3333C6.83645 21.3333 6.35728 21.5183 5.98927 21.8523C5.62127 22.1863 5.39079 22.6453 5.34275 23.14L5.33341 23.3333V29.3333H2.66675V23.3333C2.66675 22.0956 3.15841 20.9086 4.03358 20.0335C4.90875 19.1583 6.09574 18.6666 7.33341 18.6666ZM24.6667 18.6666C25.9044 18.6666 27.0914 19.1583 27.9666 20.0335C28.8417 20.9086 29.3334 22.0956 29.3334 23.3333V29.3333H26.6667V23.3333C26.6668 22.8363 26.4817 22.3572 26.1477 21.9891C25.8138 21.6211 25.3547 21.3907 24.8601 21.3426L24.6667 21.3333C24.4334 21.3333 24.2094 21.3733 24.0001 21.4466V21.3333C24.0001 20.4453 23.8561 19.592 23.5894 18.7946C23.9334 18.7106 24.2961 18.6666 24.6667 18.6666ZM7.33341 10.6666C8.21747 10.6666 9.06532 11.0178 9.69044 11.6429C10.3156 12.2681 10.6667 13.1159 10.6667 14C10.6667 14.884 10.3156 15.7319 9.69044 16.357C9.06532 16.9821 8.21747 17.3333 7.33341 17.3333C6.44936 17.3333 5.60151 16.9821 4.97639 16.357C4.35127 15.7319 4.00008 14.884 4.00008 14C4.00008 13.1159 4.35127 12.2681 4.97639 11.6429C5.60151 11.0178 6.44936 10.6666 7.33341 10.6666ZM24.6667 10.6666C25.5508 10.6666 26.3986 11.0178 27.0238 11.6429C27.6489 12.2681 28.0001 13.1159 28.0001 14C28.0001 14.884 27.6489 15.7319 27.0238 16.357C26.3986 16.9821 25.5508 17.3333 24.6667 17.3333C23.7827 17.3333 22.9348 16.9821 22.3097 16.357C21.6846 15.7319 21.3334 14.884 21.3334 14C21.3334 13.1159 21.6846 12.2681 22.3097 11.6429C22.9348 11.0178 23.7827 10.6666 24.6667 10.6666ZM7.33341 13.3333C7.1566 13.3333 6.98703 13.4035 6.86201 13.5286C6.73699 13.6536 6.66675 13.8231 6.66675 14C6.66675 14.1768 6.73699 14.3463 6.86201 14.4714C6.98703 14.5964 7.1566 14.6666 7.33341 14.6666C7.51023 14.6666 7.67979 14.5964 7.80482 14.4714C7.92984 14.3463 8.00008 14.1768 8.00008 14C8.00008 13.8231 7.92984 13.6536 7.80482 13.5286C7.67979 13.4035 7.51023 13.3333 7.33341 13.3333ZM24.6667 13.3333C24.4899 13.3333 24.3204 13.4035 24.1953 13.5286C24.0703 13.6536 24.0001 13.8231 24.0001 14C24.0001 14.1768 24.0703 14.3463 24.1953 14.4714C24.3204 14.5964 24.4899 14.6666 24.6667 14.6666C24.8436 14.6666 25.0131 14.5964 25.1382 14.4714C25.2632 14.3463 25.3334 14.1768 25.3334 14C25.3334 13.8231 25.2632 13.6536 25.1382 13.5286C25.0131 13.4035 24.8436 13.3333 24.6667 13.3333ZM16.0001 2.66663C17.4146 2.66663 18.7711 3.22853 19.7713 4.22872C20.7715 5.22892 21.3334 6.58547 21.3334 7.99996C21.3334 9.41445 20.7715 10.771 19.7713 11.7712C18.7711 12.7714 17.4146 13.3333 16.0001 13.3333C14.5856 13.3333 13.229 12.7714 12.2288 11.7712C11.2287 10.771 10.6667 9.41445 10.6667 7.99996C10.6667 6.58547 11.2287 5.22892 12.2288 4.22872C13.229 3.22853 14.5856 2.66663 16.0001 2.66663ZM16.0001 5.33329C15.2928 5.33329 14.6146 5.61424 14.1145 6.11434C13.6144 6.61444 13.3334 7.29272 13.3334 7.99996C13.3334 8.7072 13.6144 9.38548 14.1145 9.88558C14.6146 10.3857 15.2928 10.6666 16.0001 10.6666C16.7073 10.6666 17.3856 10.3857 17.8857 9.88558C18.3858 9.38548 18.6667 8.7072 18.6667 7.99996C18.6667 7.29272 18.3858 6.61444 17.8857 6.11434C17.3856 5.61424 16.7073 5.33329 16.0001 5.33329Z" fill="url(#paint0_linear_84_387)"/>
<defs>
<linearGradient id="paint0_linear_84_387" x1="15.8032" y1="-0.344301" x2="15.8032" y2="30.7739" gradientUnits="userSpaceOnUse">
<stop stop-color="#006DD2"/>
<stop offset="1" stop-color="#59C2FD"/>
</linearGradient>
</defs>
</svg>
