<svg width="74" height="48" fill="none" xmlns="http://www.w3.org/2000/svg"><path d="m10.996 47.105 2.963-14.777h4.82l-2.946 14.777h-4.837Zm14.543-4.837H28.6l-.786-5.422-2.276 5.422Zm-6.76 4.837 7.295-14.777h4.753l2.995 14.777h-4.468l-.267-1.758h-4.753l-.753 1.758h-4.803Zm19.478 0 1.657-11.112h-4.217l.72-3.732h12.952l-.72 3.732h-4.016L43.01 47.105h-4.753Zm16.2-4.837h3.062l-.787-5.422-2.276 5.422Zm-6.745 4.837 7.28-14.777h4.752l2.996 14.777h-4.502l-.217-1.758h-4.753l-.753 1.758h-4.803Zm25.554-31.478H50.59c-.836 4.15-3.715 7.614-9.455 10.007.653 1.975 2.879 3.799 5.188 3.799h12.3c1.874 0 3.364-1.573 3.966-2.845h-12.5c-.77-.134-.804-.753-.034-.82h12.283c1.59 0 3.029-1.355 3.866-2.828H51.896c-.72-.117-.72-.72 0-.837H66.32c1.456 0 2.778-1.69 3.33-2.828H53.82c-.787-.1-.787-.837 0-.853h16.115c1.255 0 2.476-1.373 3.33-2.795Zm-72.611 0H23.33c.82 4.15 3.715 7.614 9.438 10.007-.653 1.975-2.878 3.799-5.188 3.799H15.297c-1.874 0-3.363-1.573-3.966-2.845h12.5c.754-.134.804-.753.034-.82h-12.3c-1.59 0-3.028-1.355-3.848-2.828H22.04c.72-.117.72-.72 0-.837H7.616c-1.456 0-2.778-1.69-3.33-2.828h15.83c.787-.1.787-.837 0-.853H4.002c-1.271 0-2.493-1.373-3.346-2.795Zm28.95-12.45c.837.719 1.774 1.355 2.778 1.757.854-1.674 2.042-3.113 3.414-4.385-2.26.301-4.384 1.155-6.192 2.627Zm-4.016 8.25h5.054a16.21 16.21 0 0 1 1.372-5.774 12.169 12.169 0 0 1-3.029-1.908c-2.092 2.092-3.246 4.787-3.397 7.682ZM36.567 6.69v4.736h-5.054a13.977 13.977 0 0 1 1.255-5.49c1.205.436 2.51.72 3.799.754Zm7.748-3.515c-.82.72-1.79 1.356-2.778 1.758-.904-1.707-2.025-3.08-3.43-4.368 2.275.284 4.4 1.138 6.208 2.61Zm4 8.25h-5.038c-.066-2.041-.535-3.949-1.338-5.773a12.903 12.903 0 0 0 2.978-1.908c2.176 2.176 3.297 4.853 3.398 7.682ZM37.386 6.692v4.736h5.02c0-1.908-.468-3.732-1.255-5.49-1.205.436-2.493.72-3.765.754Zm-7.782 13.822c.837-.652 1.808-1.372 2.778-1.723.904 1.69 2.025 3.079 3.414 4.334-2.26-.301-4.418-1.155-6.192-2.61Zm-4.016-8.266h5.054a16.48 16.48 0 0 0 1.372 5.823 12.61 12.61 0 0 0-3.029 1.891c-2.058-2.075-3.246-4.77-3.397-7.714ZM36.566 17v-4.752h-5.054a13.65 13.65 0 0 0 1.255 5.488 12.244 12.244 0 0 1 3.8-.736Zm7.748 3.514a10.314 10.314 0 0 0-2.778-1.723c-.904 1.69-2.025 3.079-3.43 4.334 2.275-.301 4.4-1.155 6.208-2.61Zm4-8.266h-5.038c-.066 2.091-.518 3.949-1.338 5.823a13.36 13.36 0 0 1 2.978 1.891c2.075-2.075 3.297-4.836 3.398-7.714ZM37.386 17v-4.752h5.02c0 1.907-.468 3.765-1.255 5.488A12.132 12.132 0 0 0 37.387 17Zm-.82-15.965a13.271 13.271 0 0 0-3.397 4.184c1.087.368 2.242.67 3.397.67V1.033Zm.82 0c1.339 1.105 2.56 2.56 3.364 4.184-1.088.402-2.243.67-3.364.67V1.033Zm-.82 21.622a12.799 12.799 0 0 1-3.397-4.2 10.23 10.23 0 0 1 3.397-.603v4.802Zm.82.033c1.339-1.121 2.56-2.627 3.364-4.234-1.088-.351-2.243-.602-3.364-.602v4.836Z" fill="#fff"/></svg>