<svg width="99" height="25" fill="none" xmlns="http://www.w3.org/2000/svg"><g clip-path="url(#a)" fill="#fff"><path d="M26.296 9.341h9.895v1.847h-3.89v10.378h-2.14V11.188h-3.874V9.34h.009Zm9.472 3.373h1.83v1.709h.034c.06-.242.172-.475.336-.7.164-.224.362-.44.595-.62a3.14 3.14 0 0 1 .777-.457c.284-.113.578-.173.871-.173.224 0 .388.009.475.017.086.009.172.026.267.035v1.88a6.187 6.187 0 0 0-.423-.06 3.572 3.572 0 0 0-.422-.026c-.328 0-.639.07-.932.198-.293.13-.544.328-.76.579a2.95 2.95 0 0 0-.517.948c-.13.38-.19.811-.19 1.303v4.21h-1.95v-8.842h.01Zm14.148 8.852h-1.915v-1.234h-.034a2.66 2.66 0 0 1-1.07 1.07c-.474.267-.958.405-1.45.405-1.164 0-2.01-.284-2.527-.862-.518-.579-.776-1.45-.776-2.614v-5.617h1.95v5.427c0 .776.146 1.328.448 1.648.293.319.716.483 1.25.483.415 0 .751-.06 1.027-.19.276-.13.5-.294.665-.51a1.94 1.94 0 0 0 .37-.758 3.74 3.74 0 0 0 .113-.958v-5.133h1.95v8.843Zm3.322-2.839c.06.57.276.967.647 1.2.38.224.828.345 1.354.345.181 0 .388-.018.621-.043a2.61 2.61 0 0 0 .656-.164c.207-.078.37-.199.509-.354.13-.155.19-.354.181-.604a.833.833 0 0 0-.276-.613 1.943 1.943 0 0 0-.656-.388 6.58 6.58 0 0 0-.914-.25c-.345-.069-.69-.147-1.044-.224a9.915 9.915 0 0 1-1.052-.294 3.213 3.213 0 0 1-.906-.465 2.049 2.049 0 0 1-.639-.742c-.163-.302-.241-.673-.241-1.122 0-.483.12-.88.354-1.207a2.68 2.68 0 0 1 .888-.786 4.12 4.12 0 0 1 1.2-.422 7.26 7.26 0 0 1 1.259-.121c.457 0 .897.052 1.311.147.414.095.794.25 1.13.474.337.216.613.5.837.846.224.345.362.767.423 1.259h-2.036c-.095-.466-.302-.785-.639-.94-.336-.164-.724-.242-1.156-.242-.138 0-.301.009-.491.035-.19.026-.363.069-.535.13-.164.06-.302.154-.423.275a.667.667 0 0 0-.172.475c0 .241.086.43.25.578a2.1 2.1 0 0 0 .647.37c.267.095.57.182.914.25.345.07.699.147 1.061.225.354.078.7.181 1.044.293.345.113.647.268.915.466.267.199.483.44.647.733.163.294.25.665.25 1.096 0 .526-.121.966-.362 1.337a2.87 2.87 0 0 1-.932.889 4.38 4.38 0 0 1-1.277.5 6.408 6.408 0 0 1-1.389.155c-.56 0-1.078-.06-1.553-.19a3.78 3.78 0 0 1-1.233-.569 2.823 2.823 0 0 1-.82-.957c-.198-.38-.302-.837-.32-1.363h1.968v-.018Zm6.435-6.013h1.476v-2.657h1.95v2.657h1.76v1.458h-1.76V18.9c0 .207.008.38.025.535.017.146.06.276.12.38.061.103.156.18.286.232.129.052.293.078.517.078.138 0 .276 0 .414-.009a2.29 2.29 0 0 0 .414-.06v1.51c-.215.026-.43.043-.63.069a5.04 5.04 0 0 1-.63.034c-.517 0-.93-.052-1.241-.146-.31-.095-.561-.242-.734-.432a1.497 1.497 0 0 1-.362-.707 5.316 5.316 0 0 1-.112-.975v-5.22H59.69v-1.475h-.018Zm6.566 0h1.846v1.2h.034c.276-.518.656-.88 1.147-1.105a3.78 3.78 0 0 1 1.596-.336c.7 0 1.303.12 1.82.37.518.242.95.579 1.295 1.01.345.432.595.932.768 1.501.172.57.258 1.182.258 1.83 0 .595-.077 1.172-.233 1.725a4.618 4.618 0 0 1-.698 1.483 3.43 3.43 0 0 1-1.19 1.027c-.484.259-1.045.388-1.7.388-.285 0-.57-.026-.854-.077a3.764 3.764 0 0 1-.82-.25 2.957 2.957 0 0 1-.725-.44 2.73 2.73 0 0 1-.56-.622h-.035v4.417h-1.95v-12.12Zm6.815 4.435c0-.397-.052-.785-.156-1.165a3.14 3.14 0 0 0-.465-1 2.373 2.373 0 0 0-.768-.7 2.152 2.152 0 0 0-1.061-.267c-.82 0-1.441.285-1.855.854-.414.57-.621 1.329-.621 2.278 0 .448.052.862.164 1.242.112.38.267.707.491.983.216.277.475.492.777.648.302.163.656.241 1.052.241.449 0 .82-.095 1.13-.276.311-.181.561-.423.76-.707.198-.294.345-.622.43-.992.079-.372.122-.751.122-1.14Zm3.442-7.808h1.95v1.847h-1.95V9.34Zm0 3.373h1.95v8.852h-1.95v-8.851Zm3.692-3.373h1.95v12.225h-1.95V9.34Zm7.928 12.466c-.707 0-1.337-.12-1.889-.354a4.17 4.17 0 0 1-1.406-.966 4.206 4.206 0 0 1-.871-1.475 5.695 5.695 0 0 1-.303-1.88c0-.673.104-1.295.302-1.864.199-.57.492-1.061.872-1.475.38-.414.854-.733 1.406-.966.552-.233 1.182-.354 1.89-.354.707 0 1.336.12 1.889.354.552.233 1.017.56 1.406.966.38.414.673.906.871 1.475.198.57.302 1.19.302 1.863 0 .682-.103 1.312-.302 1.881a4.208 4.208 0 0 1-.871 1.475c-.38.414-.854.734-1.406.966-.553.233-1.182.354-1.89.354Zm0-1.544a2.26 2.26 0 0 0 1.13-.276c.32-.181.578-.423.785-.716a3.23 3.23 0 0 0 .458-1 4.58 4.58 0 0 0 .146-1.14c0-.38-.051-.75-.146-1.13a2.95 2.95 0 0 0-.458-1 2.26 2.26 0 0 0-1.915-.984 2.26 2.26 0 0 0-1.13.276c-.32.181-.578.423-.785.708a3.124 3.124 0 0 0-.457 1c-.095.38-.147.75-.147 1.13 0 .389.052.768.147 1.14.095.37.25.707.457 1 .207.293.466.535.785.716.32.19.699.276 1.13.276Zm5.038-7.549h1.476v-2.657h1.95v2.657h1.76v1.458h-1.76V18.9c0 .207.008.38.025.535.017.146.06.276.12.38.061.103.156.18.286.232.129.052.293.078.517.078.138 0 .276 0 .414-.009.138-.008.276-.026.414-.06v1.51c-.215.026-.431.043-.63.069a5.04 5.04 0 0 1-.63.034c-.517 0-.93-.052-1.241-.146-.311-.095-.561-.242-.734-.432a1.497 1.497 0 0 1-.362-.707 5.315 5.315 0 0 1-.112-.975v-5.22h-1.475v-1.475h-.018ZM24.018 9.341h-8.937L12.321.835 9.55 9.341.614 9.333l7.238 5.262-2.77 8.498 7.238-5.254 7.23 5.254-2.76-8.498 7.229-5.254Z"/><path d="m17.41 16.519-.62-1.924-4.47 3.244 5.09-1.32Z"/></g><defs><clipPath id="a"><path fill="#fff" transform="translate(.614 .835)" d="M0 0h97.725v24H0z"/></clipPath></defs></svg>