<svg width="54" height="21" viewBox="0 0 54 21" fill="none" xmlns="http://www.w3.org/2000/svg">
<g clip-path="url(#clip0_3244_945)">
<path d="M26.716 13.7886H24.74V15.3336H26.707C26.8203 15.3514 26.9361 15.3435 27.0459 15.3105C27.1557 15.2774 27.2566 15.22 27.3411 15.1425C27.4257 15.0651 27.4917 14.9696 27.5343 14.8631C27.5768 14.7567 27.5949 14.642 27.587 14.5276C27.585 14.2116 27.375 13.7886 26.715 13.7886H26.716ZM33.513 13.7886H31.539V15.2456H33.506C34.153 15.2456 34.381 14.9586 34.381 14.5256C34.381 14.2116 34.174 13.7886 33.513 13.7886ZM13.469 13.7796V14.9856H16.954V16.2056H13.469V17.4756H17.111L18.849 15.5376L17.311 13.7866L13.469 13.7786V13.7796ZM23.148 18.2176V13.0176L20.879 15.5306L23.149 18.2176H23.148Z" fill="#CACACA"/>
<path d="M51.992 18.8552H48.674V17.4782H51.258C51.698 17.4782 52.35 17.4782 52.35 16.8602C52.35 16.5652 52.236 16.3802 51.769 16.3302C51.4062 16.2942 51.0424 16.2695 50.678 16.2562C48.925 16.2092 48.518 15.3382 48.518 14.2762C48.5051 14.0263 48.545 13.7766 48.6352 13.5432C48.7254 13.3099 48.8638 13.0982 49.0415 12.9221C49.2192 12.7459 49.432 12.6093 49.6661 12.521C49.9002 12.4328 50.1503 12.3951 50.4 12.4102H53.718V13.7892H51.29C50.739 13.7942 50.142 13.7242 50.142 14.3492C50.142 14.7452 50.436 14.8222 50.81 14.8592C50.94 14.8592 51.8 14.9042 51.916 14.9042C53.558 14.9842 53.927 15.6952 54.002 16.5382V11.0332H50.293C49.866 11.0512 49.449 11.1632 49.071 11.3622V11.0332H44.351C43.9261 11.0367 43.5093 11.15 43.141 11.3622V11.0332H35.9V11.3902C35.4966 11.1677 35.0456 11.0452 34.585 11.0332H28.95V11.3482C28.5903 11.1644 28.1963 11.0571 27.793 11.0332H21.468L20.252 12.3772L19.064 11.0332H10.842V20.1332H18.949L20.165 18.7482L21.301 20.1342H26.3V17.9242H27.757C28.17 17.9362 28.58 17.8542 28.957 17.6842V20.1352H33.015V17.6702H33.195C33.387 17.6702 33.482 17.7092 33.482 17.9272V20.1372H46.453C46.861 20.1422 47.263 20.0502 47.627 19.8662V20.1362H52.507C52.7802 20.1491 53.0532 20.1071 53.3098 20.0126C53.5664 19.9181 53.8015 19.7731 54.001 19.5862V17.2762C53.9227 17.742 53.6735 18.162 53.3023 18.4541C52.931 18.7462 52.4643 18.8896 51.993 18.8562L51.992 18.8552ZM26.838 16.6582H24.714V18.8422H21.683L19.832 16.7022L17.936 18.8272H11.912V12.3932H18.134L19.886 14.4032L21.695 12.4082H27.236C27.4972 12.3872 27.7598 12.4242 28.0051 12.5164C28.2504 12.6086 28.4722 12.7539 28.6549 12.9418C28.8375 13.1297 28.9764 13.3556 29.0617 13.6034C29.1469 13.8511 29.1764 14.1147 29.148 14.3752C29.151 16.6292 27.654 16.6582 26.838 16.6582ZM35.904 17.5212L35.962 18.8412H34.424L34.382 17.6632C34.368 17.1172 34.154 16.5732 33.608 16.5732H31.54V18.8422H29.96V12.4082H34.067C34.3081 12.3798 34.5524 12.4035 34.7835 12.4775C35.0146 12.5516 35.2271 12.6744 35.4067 12.8376C35.5863 13.0008 35.7288 13.2007 35.8246 13.4236C35.9204 13.6466 35.9673 13.8876 35.962 14.1302C35.9951 14.505 35.9068 14.8806 35.7102 15.2015C35.5136 15.5223 35.2191 15.7715 34.87 15.9122C35.619 15.9962 35.904 16.4862 35.904 17.5202H35.905L35.904 17.5212ZM41.939 13.7792H38.357V14.9862H41.838V16.2062H38.357V17.4762H41.939V18.8262H36.774V12.3922H41.937L41.939 13.7792ZM46.046 18.8552H42.73V17.4782H45.314C45.752 17.4782 46.407 17.4782 46.407 16.8602C46.407 16.5652 46.291 16.3802 45.824 16.3302C45.616 16.3002 44.849 16.2572 44.734 16.2562C42.974 16.2092 42.574 15.3382 42.574 14.2762C42.5604 14.0264 42.5999 13.7765 42.6897 13.543C42.7796 13.3095 42.9178 13.0977 43.0954 12.9214C43.273 12.7452 43.4858 12.6085 43.72 12.5204C43.9542 12.4323 44.2043 12.3947 44.454 12.4102H47.772V13.7892H45.345C44.792 13.7942 44.195 13.7242 44.195 14.3492C44.195 14.7452 44.492 14.8222 44.865 14.8592C44.992 14.8592 45.855 14.9042 45.97 14.9042C47.91 15.0032 48.074 15.9732 48.074 17.0062C48.0707 17.2635 48.0146 17.5174 47.9092 17.7521C47.8038 17.9869 47.6513 18.1975 47.4612 18.3709C47.2711 18.5444 47.0474 18.6769 46.804 18.7604C46.5605 18.8439 46.3026 18.8765 46.046 18.8562V18.8552ZM27.316 2.67518H25.342V4.13318H27.309C27.955 4.13318 28.189 3.84518 28.189 3.41318C28.1873 3.30492 28.1624 3.19829 28.116 3.10045C28.0696 3.0026 28.0028 2.91582 27.9201 2.84592C27.8375 2.77602 27.7408 2.72461 27.6366 2.69517C27.5324 2.66572 27.4231 2.6589 27.316 2.67518ZM38.769 4.90818H40.699L39.709 2.65918L38.769 4.90818Z" fill="#CACACA"/>
<path d="M47.17 4.68751e-05V1.31505L46.397 4.68751e-05H42.137V1.31505L41.552 4.68751e-05H34.912C34.3159 -0.0021085 33.7321 0.169561 33.232 0.494047V4.68751e-05H29.468V0.352047C29.0749 0.120849 28.627 -0.000705659 28.171 4.68751e-05H13.23L12.21 2.19005L11.17 0.00904687H6.438V1.29605L5.893 -0.000953125H2.022L0 4.57205V9.06205H2.758L3.424 7.57505H4.489L5.119 9.06205H10.436V8.32505L10.794 9.06205H13.64L13.968 8.37505V9.06205H26.52V6.66205H26.75C26.75 6.66205 26.985 6.64105 26.985 6.94905V9.06605H33.247V8.42005C33.861 8.81548 34.5702 9.03828 35.3 9.06505H38.445L39.13 7.44505H40.149L40.879 9.06505H46.079V7.48905L47.061 9.07005H51.242V-0.00195312L47.17 4.68751e-05ZM16.538 7.72905H14.96V3.03305L12.8 7.73005H11.36L9.25 2.95405V7.72905H6.073L5.448 6.28905H2.298L1.682 7.72905H0.012L2.827 1.29605H4.917L7.674 7.49105V1.29605H10.154L12.086 5.61105L14.023 1.29605H16.538V7.73005V7.72905ZM22.822 2.68105H19.243V3.89005H22.725V5.11005H19.243V6.38005H22.825V7.73005H17.663V1.29805H22.825L22.822 2.68205V2.68105ZM29.702 6.40705L29.759 7.73005H28.229L28.185 6.55105C28.172 6.00705 27.955 5.46105 27.409 5.46105H25.342V7.73005H23.762V1.29705H27.87C28.1111 1.26851 28.3554 1.29204 28.5866 1.36606C28.8178 1.44008 29.0304 1.56286 29.21 1.7261C29.3897 1.88935 29.5322 2.08925 29.6279 2.31231C29.7237 2.53536 29.7704 2.77637 29.765 3.01905C29.798 3.39376 29.7097 3.76917 29.5131 4.08986C29.3165 4.41055 29.0219 4.65952 28.673 4.80005C29.417 4.88505 29.708 5.37305 29.708 6.40705H29.702ZM32.166 7.73005H30.592V1.29005H32.172L32.166 7.73005ZM50.043 7.73005H47.896L45.054 3.02005V7.73005H41.934L41.309 6.29405H38.158L37.54 7.73005H35.46C33.708 7.73005 32.931 6.26305 32.969 4.48105C33.022 1.84105 34.584 1.29105 35.301 1.29105H37.364V2.68805H36.389C35.339 2.68805 34.519 2.79805 34.519 4.30705V4.77305C34.528 5.90705 35.123 6.17605 35.503 6.25505C35.596 6.27705 36.515 6.27705 36.515 6.27705L38.691 1.29405H40.781L43.471 7.33205V1.29105H45.806L48.469 5.74405V1.29105H50.049L50.042 7.73005H50.043Z" fill="#CACACA"/>
<path d="M2.89209 4.90527H4.81209L3.83009 2.65527L2.89209 4.90527Z" fill="#CACACA"/>
</g>
<defs>
<clipPath id="clip0_3244_945">
<rect width="54" height="21" fill="white"/>
</clipPath>
</defs>
</svg>
