<svg width="40" height="41" viewBox="0 0 40 41" fill="none" xmlns="http://www.w3.org/2000/svg">
<g clip-path="url(#clip0_3244_964)">
<path d="M4.47191 19.4381C2.36791 19.4471 0.878912 19.8871 0.00591185 20.7581C-0.0167224 19.8596 0.0206942 18.9606 0.117912 18.0671L0.240912 18.0371C1.66305 17.674 3.12242 17.4767 4.58991 17.4491H4.61691C6.06391 17.4491 6.77391 17.9261 6.77391 18.9051V19.6251C6.01391 19.4971 5.24391 19.4351 4.47191 19.4381ZM2.44691 23.1611C2.43071 23.3616 2.45917 23.5631 2.53024 23.7512C2.60131 23.9394 2.71322 24.1094 2.85791 24.2491C3.22191 24.5151 3.66791 24.6421 4.11591 24.6091H4.13291C5.08816 24.6025 6.01708 24.2953 6.78791 23.7311L6.78091 22.0081C6.03929 21.8759 5.28723 21.8109 4.53391 21.8141H4.47691C3.11191 21.8201 2.44491 22.2601 2.44791 23.1611H2.44691ZM35.6349 21.6901C34.2619 21.6951 33.5959 22.1401 33.5999 23.0381C33.5836 23.2386 33.6121 23.4401 33.6831 23.6283C33.7542 23.8164 33.8662 23.9865 34.0109 24.1261C34.3749 24.3921 34.8209 24.5191 35.2699 24.4861H35.2859C36.2418 24.4798 37.1715 24.1726 37.9429 23.6081L37.9349 21.8851C37.1936 21.7528 36.4419 21.6879 35.6889 21.6911L35.6349 21.6901ZM39.3249 26.9581H39.3719C37.9817 30.9191 35.3956 34.3506 31.9708 36.7783C28.5461 39.2059 24.4518 40.5099 20.2539 40.5101C15.9937 40.5094 11.842 39.1659 8.38908 36.6705C4.93613 34.1752 2.35757 30.6549 1.01991 26.6101C1.84991 26.9641 2.74691 27.1311 3.64791 27.1011H3.68891C4.91636 27.102 6.11618 26.7368 7.13491 26.0521L8.17291 27.0831L10.1599 27.0751L10.1219 18.8321C10.1119 16.1061 8.26491 14.7251 4.63291 14.7251H4.57591C3.24603 14.7468 1.92223 14.9101 0.626912 15.2121C1.74673 10.8586 4.28236 7.00094 7.83476 4.24635C11.3872 1.49176 15.7547 -0.00342433 20.2499 -0.00390625C24.8343 -0.00349364 29.2831 1.55155 32.8694 4.40719C36.4558 7.26283 38.9677 11.2503 39.9949 15.7181C38.7579 14.8812 37.2741 14.4875 35.7849 14.6011H35.7279C34.2365 14.6286 32.7533 14.8286 31.3079 15.1971L31.1889 15.2261L31.1999 17.9541L31.3899 17.9091C32.8121 17.5461 34.2714 17.3487 35.7389 17.3211H35.7659C37.2129 17.3211 37.9229 17.7971 37.9229 18.7771V19.4961C37.1614 19.367 36.3903 19.3034 35.6179 19.3061C32.0409 19.3201 30.2319 20.5881 30.2419 23.0801C30.2051 23.6247 30.2909 24.1707 30.4931 24.6778C30.6952 25.1849 31.0085 25.6401 31.4099 26.0101C32.3887 26.7168 33.5847 27.0572 34.7889 26.9721H34.8299C36.0571 26.9727 37.2566 26.6071 38.2749 25.9221L39.3249 26.9581ZM21.8379 23.1981C21.8279 20.7061 20.4309 19.4431 17.6849 19.4431H17.6489L15.6969 19.4511C15.3501 19.48 15.004 19.3874 14.7179 19.1891C14.6105 19.0901 14.5271 18.968 14.4739 18.832C14.4207 18.696 14.3991 18.5497 14.4109 18.4041C14.4083 18.2316 14.4574 18.0623 14.5518 17.9179C14.6463 17.7735 14.7818 17.6608 14.9409 17.5941C15.504 17.3608 16.1122 17.2562 16.7209 17.2881C18.1954 17.2716 19.6596 17.5349 21.0359 18.0641L21.2479 18.1481L21.2359 15.2831L21.1319 15.2481C19.7337 14.7836 18.2682 14.5538 16.7949 14.5681C15.3573 14.4769 13.9255 14.8216 12.6869 15.5571C12.2235 15.8956 11.8528 16.3454 11.6091 16.8651C11.3655 17.3847 11.2567 17.9573 11.2929 18.5301C11.2576 19.0416 11.3259 19.555 11.4936 20.0395C11.6613 20.5241 11.925 20.9698 12.2689 21.3501C13.0545 22.0248 14.075 22.3616 15.1079 22.2871H15.1379L17.3199 22.2781C17.6369 22.2551 17.9519 22.3461 18.2069 22.5361C18.3078 22.6399 18.3852 22.7641 18.4341 22.9004C18.4829 23.0367 18.5019 23.1818 18.4899 23.3261C18.4899 23.6001 18.4899 24.4351 16.6839 24.4421H16.6169C15.0753 24.4698 13.5422 24.2068 12.0979 23.6671L11.8879 23.5831L11.8979 26.4491L12.0019 26.4841C13.4569 26.9541 14.9779 27.1831 16.5069 27.1641H16.5809C17.9628 27.2525 19.3376 26.9045 20.5109 26.1691C20.9584 25.8205 21.3135 25.3674 21.545 24.8496C21.7766 24.3318 21.8775 23.765 21.8389 23.1991V23.1981H21.8379ZM29.3139 26.9981L29.3039 24.2781L27.9089 24.2831H27.8989C27.0159 24.2831 26.6029 23.7971 26.5989 22.7551L26.5769 17.3621L29.2729 17.3521L29.2629 14.6311L26.1979 14.6431L25.7309 12.6931L23.2039 12.7031L23.2469 23.6191C23.1841 24.5378 23.4733 25.446 24.0559 26.1591C24.3692 26.4583 24.7417 26.6886 25.1493 26.8354C25.557 26.9821 25.9908 27.042 26.4229 27.0111H26.4459L29.3139 26.9981Z" fill="#CACACA"/>
</g>
<defs>
<clipPath id="clip0_3244_964">
<rect width="40" height="41" fill="white"/>
</clipPath>
</defs>
</svg>
