<svg width="91" height="24" viewBox="0 0 91 24" fill="none" xmlns="http://www.w3.org/2000/svg">
<g clip-path="url(#clip0_3244_918)">
<path d="M14.4693 5.41992V18.2799C15.7708 17.782 16.8906 16.9007 17.6806 15.7527C18.4705 14.6047 18.8934 13.244 18.8934 11.8504C18.8934 10.4569 18.4705 9.09615 17.6806 7.94814C16.8906 6.80012 15.7708 5.91888 14.4693 5.42092V5.41992ZM5.1123 11.8499C5.11416 13.2422 5.53738 14.6012 6.3263 15.7484C7.11522 16.8955 8.23289 17.777 9.5323 18.2769V5.41992C8.23289 5.9204 7.11531 6.80231 6.32643 7.94975C5.53756 9.09719 5.11431 10.4565 5.1123 11.8489V11.8499Z" fill="#CACACA"/>
<path d="M17.5581 9.31195e-05H11.9731C10.3909 -0.0358638 8.81777 0.249287 7.34881 0.838322C5.87986 1.42736 4.54556 2.30805 3.4265 3.4272C2.30745 4.54634 1.42687 5.88072 0.837958 7.34972C0.249046 8.81872 -0.0359737 10.3919 0.000115382 11.9741C0.0339029 15.1201 1.31277 18.1245 3.55676 20.3297C5.80074 22.5349 8.82702 23.7612 11.9731 23.7401H17.5581C24.0481 23.7721 29.9711 18.4501 29.9711 11.9731C29.9711 4.89209 24.0481 -0.00190688 17.5581 9.31195e-05ZM12.0001 22.7151C9.11814 22.7151 6.3542 21.5702 4.31634 19.5324C2.27848 17.4945 1.13362 14.7306 1.13362 11.8486C1.13362 8.96662 2.27848 6.20268 4.31634 4.16482C6.3542 2.12695 9.11814 0.982093 12.0001 0.982093C14.8821 0.982093 17.646 2.12695 19.6839 4.16482C21.7218 6.20268 22.8666 8.96662 22.8666 11.8486C22.8666 14.7306 21.7218 17.4945 19.6839 19.5324C17.646 21.5702 14.8821 22.7151 12.0001 22.7151ZM34.9981 10.9641C34.9981 11.9251 35.6861 12.0381 36.2981 12.0381C38.9951 12.0381 39.8811 10.0031 39.8811 8.14209C39.9199 7.61366 39.8463 7.083 39.6652 6.58505C39.4841 6.0871 39.1996 5.63315 38.8304 5.2531C38.4612 4.87304 38.0157 4.57549 37.5232 4.38003C37.0308 4.18457 36.5025 4.09564 35.9731 4.11909C35.4571 4.11909 35.2231 4.15609 34.9981 4.16909V10.9641ZM33.7751 5.10809C33.7751 3.98409 33.1891 4.05809 32.6271 4.04809V3.72209C33.1141 3.74609 33.6131 3.74609 34.1011 3.74609C34.6251 3.74609 35.3381 3.72209 36.2611 3.72209C39.4941 3.72209 41.2551 5.88209 41.2551 8.09209C41.2551 9.33009 40.5331 12.4381 36.1111 12.4381C35.4751 12.4381 34.8871 12.4131 34.3011 12.4131C33.7401 12.4131 33.1891 12.4251 32.6281 12.4381V12.1131C33.3771 12.0381 33.7401 12.0101 33.7761 11.1641L33.7751 5.10809ZM43.0291 4.80809C42.9083 4.80847 42.79 4.77311 42.6892 4.70647C42.5884 4.63983 42.5095 4.54487 42.4625 4.43353C42.4155 4.3222 42.4024 4.19945 42.425 4.08072C42.4475 3.96199 42.5047 3.85258 42.5892 3.76623C42.6738 3.67988 42.782 3.62044 42.9002 3.5954C43.0184 3.57036 43.1414 3.58082 43.2537 3.62548C43.366 3.67013 43.4626 3.74698 43.5314 3.84637C43.6001 3.94576 43.6379 4.06326 43.6401 4.18409C43.6414 4.34775 43.5779 4.50527 43.4634 4.62221C43.3489 4.73915 43.1928 4.80598 43.0291 4.80809ZM41.6881 12.1131H41.9251C42.2751 12.1131 42.5251 12.1131 42.5251 11.7001V8.31709C42.5251 7.76909 42.3381 7.69209 41.8751 7.44409V7.24409C42.4611 7.06809 43.1611 6.83109 43.2151 6.79509C43.283 6.75389 43.3607 6.73178 43.4401 6.73109C43.5021 6.73109 43.5281 6.80609 43.5281 6.90609V11.7001C43.5281 12.1131 43.8021 12.1131 44.1531 12.1131H44.3641V12.4381C43.9391 12.4381 43.5021 12.4131 43.0541 12.4131C42.6041 12.4131 42.1541 12.4251 41.6931 12.4381L41.6881 12.1141V12.1131ZM45.5451 8.39209C45.5451 7.93109 45.4071 7.80609 44.8231 7.56609V7.33009C45.3831 7.16009 45.9341 6.95909 46.4731 6.73009C46.5111 6.73009 46.5481 6.75609 46.5481 6.85509V7.66609C47.1472 7.12385 47.9087 6.79479 48.7141 6.73009C49.7741 6.73009 50.1491 7.50509 50.1491 8.48309V11.7051C50.1491 12.1171 50.4231 12.1171 50.7731 12.1171H50.9971V12.4421C50.5591 12.4421 50.1231 12.4171 49.6741 12.4171C49.2251 12.4171 48.7741 12.4301 48.3251 12.4421V12.1171H48.5501C48.9001 12.1171 49.1501 12.1171 49.1501 11.7051V8.47009C49.1501 7.75709 48.7141 7.40909 48.0011 7.40909C47.4774 7.49069 46.9806 7.69604 46.5521 8.00809V11.7041C46.5521 12.1161 46.8281 12.1161 47.1781 12.1161H47.4031V12.4411C46.9661 12.4411 46.5281 12.4161 46.0791 12.4161C45.6291 12.4161 45.1791 12.4291 44.7301 12.4411V12.1161H44.9551C45.3051 12.1161 45.5551 12.1161 45.5551 11.7041L45.5451 8.39209ZM54.1491 8.59209C54.4591 8.59209 54.4971 8.42909 54.4971 8.28209C54.5096 8.13346 54.4905 7.98387 54.4412 7.84311C54.3918 7.70235 54.3133 7.57358 54.2108 7.46523C54.1083 7.35687 53.9841 7.27137 53.8463 7.21431C53.7085 7.15725 53.5602 7.12991 53.4111 7.13409C52.6501 7.13409 52.1261 7.69409 51.9761 8.59409L54.1491 8.59209ZM51.9391 8.99209C51.9101 9.23209 51.9101 9.47409 51.9391 9.71409C51.9165 10.239 52.0928 10.753 52.4328 11.1535C52.7728 11.554 53.2515 11.8113 53.7731 11.8741C54.0961 11.8558 54.4121 11.7722 54.7019 11.6283C54.9917 11.4845 55.2493 11.2833 55.4591 11.0371L55.6341 11.2121C55.3912 11.616 55.0543 11.9553 54.6521 12.2011C54.2499 12.4469 53.7944 12.592 53.3241 12.6241C52.9866 12.6085 52.6556 12.5249 52.3512 12.3783C52.0467 12.2317 51.775 12.025 51.5524 11.7708C51.3297 11.5166 51.1608 11.2201 51.0555 10.8989C50.9503 10.5778 50.9111 10.2388 50.9401 9.90209C50.9401 7.45409 52.5901 6.73009 53.4601 6.73009C53.7481 6.71133 54.0368 6.75569 54.3059 6.86009C54.5749 6.96448 54.818 7.12639 55.018 7.33449C55.218 7.54258 55.3701 7.79185 55.4638 8.06486C55.5574 8.33788 55.5903 8.62805 55.5601 8.91509L55.4461 8.99009L51.9391 8.99209ZM55.8591 12.1131H56.1961C56.5441 12.1131 56.7941 12.1131 56.7941 11.7001V8.19409C56.7941 7.80709 56.3331 7.73209 56.1451 7.63109V7.44509C57.0571 7.05709 57.5561 6.73209 57.6711 6.73209C57.7441 6.73209 57.7811 6.76909 57.7811 6.89509V8.01809H57.8081C58.1181 7.53109 58.6441 6.73209 59.4061 6.73209C59.5169 6.72697 59.6274 6.74901 59.7277 6.79629C59.8281 6.84357 59.9154 6.91467 59.982 7.00338C60.0487 7.0921 60.0926 7.19575 60.1101 7.30532C60.1275 7.4149 60.1179 7.52707 60.0821 7.63209C60.0411 7.74621 59.9667 7.84536 59.8686 7.91669C59.7706 7.98801 59.6533 8.02822 59.5321 8.03209C59.1421 8.03209 59.1421 7.73209 58.7061 7.73209C58.4549 7.76624 58.2245 7.88977 58.0569 8.08005C57.8894 8.27033 57.7961 8.5146 57.7941 8.76809V11.7011C57.7941 12.1141 58.0441 12.1141 58.3941 12.1141H59.0931V12.4391C58.4061 12.4271 57.8831 12.4141 57.3461 12.4141C56.8301 12.4141 56.3091 12.4271 55.8601 12.4391L55.8581 12.1131H55.8591ZM60.6651 10.7021C60.6958 11.1045 60.8729 11.4818 61.163 11.7624C61.453 12.0431 61.8359 12.2077 62.2391 12.2251C62.3656 12.244 62.4947 12.2351 62.6174 12.1991C62.7401 12.163 62.8534 12.1006 62.9496 12.0163C63.0457 11.932 63.1223 11.8277 63.174 11.7107C63.2258 11.5938 63.2514 11.467 63.2491 11.3391C63.2491 9.86609 60.5281 10.3401 60.5281 8.32909C60.5423 8.09415 60.6047 7.86463 60.7114 7.65483C60.8181 7.44502 60.9668 7.2594 61.1483 7.10952C61.3298 6.95964 61.5402 6.8487 61.7664 6.7836C61.9925 6.7185 62.2297 6.70062 62.4631 6.73109C62.9585 6.74314 63.4446 6.86724 63.8851 7.09409L63.9731 8.36709H63.6851C63.68 8.19557 63.6403 8.02684 63.5686 7.87095C63.4969 7.71505 63.3946 7.57519 63.2677 7.45967C63.1408 7.34416 62.9919 7.25536 62.83 7.19857C62.6681 7.14178 62.4964 7.11815 62.3251 7.12909C62.2064 7.11585 62.0861 7.12699 61.9718 7.16183C61.8575 7.19668 61.7515 7.25448 61.6603 7.33172C61.5692 7.40896 61.4947 7.50399 61.4415 7.61101C61.3884 7.71803 61.3576 7.83477 61.3511 7.95409C61.3511 9.41609 64.2471 8.96609 64.2471 10.9261C64.2471 11.7511 63.5851 12.6251 62.1001 12.6251C61.5654 12.6095 61.0426 12.4636 60.5771 12.2001L60.4391 10.7641L60.6651 10.7021ZM75.5331 5.97809H75.2231C75.183 5.66795 75.0819 5.3688 74.9258 5.09785C74.7696 4.8269 74.5614 4.58948 74.3132 4.39925C74.065 4.20902 73.7816 4.06973 73.4794 3.98939C73.1772 3.90904 72.862 3.88923 72.5521 3.93109C71.1151 3.93109 69.0301 4.89209 69.0301 7.88809C68.9573 8.95411 69.3068 10.006 70.003 10.8165C70.6992 11.627 71.6863 12.1312 72.7511 12.2201C73.3587 12.22 73.9462 12.0019 74.4067 11.6056C74.8673 11.2093 75.1704 10.6609 75.2611 10.0601L75.5481 10.1351L75.2621 11.9571C74.397 12.364 73.4577 12.5893 72.5021 12.6191C71.87 12.6666 71.2351 12.5783 70.64 12.3601C70.0449 12.142 69.5033 11.7991 69.0516 11.3544C68.5999 10.9097 68.2486 10.3736 68.0211 9.78193C67.7937 9.19028 67.6955 8.55683 67.7331 7.92409C67.7836 6.71572 68.309 5.57611 69.1951 4.75296C70.0811 3.9298 71.2563 3.48962 72.4651 3.52809C73.4775 3.58199 74.4735 3.80648 75.4111 4.19209L75.5331 5.97809ZM75.9831 12.1081H76.2201C76.5701 12.1081 76.8201 12.1081 76.8201 11.6961V4.74209C76.8201 3.93009 76.6321 3.90509 76.1581 3.76809V3.56809C76.6017 3.42686 77.0321 3.24683 77.4441 3.03009C77.5291 2.97409 77.6211 2.92709 77.7171 2.89209C77.7941 2.89209 77.8201 2.96709 77.8201 3.06709V11.6941C77.8201 12.1071 78.0951 12.1071 78.4451 12.1071H78.6511V12.4321C78.2281 12.4321 77.7911 12.4071 77.3411 12.4071C76.8911 12.4071 76.4431 12.4191 75.9811 12.4321L75.9841 12.1091L75.9831 12.1081ZM84.0001 11.7471C84.0001 11.9731 84.1371 11.9841 84.3481 11.9841C84.4981 11.9841 84.6851 11.9721 84.8481 11.9721V12.2351C84.2391 12.3201 83.6381 12.4491 83.0481 12.6211L82.9861 12.5831V11.5731C82.4068 12.187 81.6181 12.561 80.7761 12.6211C80.5847 12.6261 80.3945 12.5902 80.2181 12.5158C80.0416 12.4414 79.8832 12.3302 79.7532 12.1896C79.6232 12.0491 79.5247 11.8824 79.4644 11.7007C79.404 11.519 79.3831 11.3265 79.4031 11.1361V7.93809C79.4031 7.61309 79.3531 7.30009 78.6551 7.23809V7.00109C79.1051 6.98909 80.0991 6.91409 80.2651 6.91409C80.4031 6.91409 80.4031 7.00109 80.4031 7.27609V10.4961C80.4031 10.8721 80.4031 11.9411 81.4891 11.9411C82.059 11.8503 82.5867 11.5848 82.9991 11.1811V7.82009C82.9991 7.57009 82.4001 7.43309 81.9511 7.30309V7.08009C83.0741 7.00409 83.7751 6.90409 83.8991 6.90409C84.0021 6.90409 84.0021 6.99209 84.0021 7.12909L84.0001 11.7461V11.7471ZM86.4841 11.0251C86.5001 11.3601 86.6412 11.677 86.8795 11.913C87.1178 12.1491 87.436 12.2872 87.7711 12.3001C89.1111 12.3001 89.6681 10.9881 89.6681 9.87709C89.6996 9.29071 89.5132 8.71338 89.1447 8.25613C88.7763 7.79888 88.2518 7.49399 87.6721 7.40009C87.219 7.44875 86.798 7.65679 86.4841 7.98709V11.0241V11.0251ZM86.4841 7.62909C86.9851 7.13009 87.6391 6.81309 88.3411 6.73009C88.6679 6.74358 88.9885 6.82289 89.2839 6.96325C89.5793 7.10362 89.8433 7.30216 90.0601 7.54698C90.2769 7.7918 90.442 8.07787 90.5457 8.38804C90.6493 8.69822 90.6892 9.02611 90.6631 9.35209C90.6953 10.1802 90.4001 10.9877 89.8415 11.5998C89.2829 12.212 88.5057 12.5796 87.6781 12.6231C87.0727 12.6221 86.4768 12.472 85.9431 12.1861L85.5701 12.4731L85.3081 12.3361C85.4221 11.6001 85.4801 10.8571 85.4821 10.1131V4.74909C85.4821 3.93609 85.2941 3.91109 84.8201 3.77409V3.57409C85.2631 3.43309 85.6941 3.25409 86.1061 3.03609C86.1921 2.97909 86.2841 2.93309 86.3811 2.89809C86.4561 2.89809 86.4841 2.97409 86.4841 3.07409V7.62809V7.62909ZM32.6161 19.6961H32.7111C32.9561 19.6961 33.2141 19.6631 33.2141 19.3091V15.7491C33.2141 15.3951 32.9561 15.3621 32.7111 15.3621H32.6151V15.1581C32.8811 15.1581 33.2881 15.1851 33.6221 15.1851C33.9561 15.1851 34.3691 15.1581 34.6891 15.1581V15.3641H34.5941C34.3501 15.3641 34.0911 15.3981 34.0911 15.7521V19.3121C34.0911 19.6651 34.3511 19.6981 34.5941 19.6981H34.6891V19.9041C34.3631 19.9041 33.9541 19.8781 33.6161 19.8781C33.2781 19.8781 32.8821 19.9041 32.6161 19.9041V19.6961ZM39.3561 18.5611L39.3691 18.5481V16.0001C39.3808 15.9176 39.3741 15.8336 39.3493 15.754C39.3245 15.6745 39.2824 15.6014 39.2259 15.5402C39.1694 15.4789 39.1 15.431 39.0228 15.3998C38.9455 15.3687 38.8623 15.3551 38.7791 15.3601H38.6291V15.1581C38.9491 15.1581 39.2611 15.1851 39.5791 15.1851C39.8591 15.1851 40.1381 15.1581 40.4151 15.1581V15.3641H40.3121C40.0251 15.3641 39.7071 15.4191 39.7071 16.2271V19.3221C39.7021 19.5511 39.7161 19.7791 39.7471 20.0061H39.4891L35.9901 16.1061V18.9061C35.9901 19.4961 36.1051 19.7001 36.6291 19.7001H36.7441V19.9061C36.4521 19.9061 36.1601 19.8801 35.8691 19.8801C35.5771 19.8801 35.2491 19.9061 34.9401 19.9061V19.7001H35.0351C35.5041 19.7001 35.6451 19.3811 35.6451 18.8391V15.9781C35.6455 15.8972 35.6298 15.817 35.5988 15.7423C35.5677 15.6676 35.5221 15.5998 35.4645 15.543C35.407 15.4862 35.3386 15.4414 35.2635 15.4114C35.1884 15.3813 35.108 15.3666 35.0271 15.3681H34.9381V15.1581C35.1961 15.1581 35.4611 15.1851 35.7181 15.1851C35.9241 15.1851 36.1201 15.1581 36.3231 15.1581L39.3561 18.5611ZM41.4331 15.4981C40.9231 15.4981 40.9041 15.6211 40.8021 16.1171H40.5961C40.6221 15.9271 40.6561 15.7371 40.6771 15.5391C40.7041 15.3491 40.7171 15.1561 40.7171 14.9631H40.8801C40.9351 15.1691 41.1051 15.1601 41.2931 15.1601H44.8001C44.9841 15.1601 45.1531 15.1531 45.1681 14.9531L45.3301 14.9801C45.3031 15.1641 45.2761 15.3471 45.2551 15.5311C45.2351 15.7161 45.2431 15.8981 45.2431 16.0811L45.0371 16.1561C45.0221 15.9061 44.9881 15.5031 44.5351 15.5031H43.4201V19.1131C43.4201 19.6371 43.6581 19.6971 43.9831 19.6971H44.1121V19.9031C43.8471 19.9031 43.3721 19.8771 43.0051 19.8771C42.5921 19.8771 42.1211 19.9031 41.8561 19.9031V19.6971H41.9851C42.3591 19.6971 42.5491 19.6641 42.5491 19.1271V15.5001H41.4321L41.4331 15.4981ZM45.5431 19.6961H45.6381C45.8831 19.6961 46.1411 19.6631 46.1411 19.3091V15.7491C46.1411 15.3951 45.8811 15.3621 45.6381 15.3621H45.5431V15.1581C45.9561 15.1581 46.6661 15.1851 47.2351 15.1851C47.8051 15.1851 48.5101 15.1581 48.9731 15.1581C48.9611 15.4501 48.9731 15.8991 48.9871 16.1981L48.7811 16.2521C48.7491 15.8111 48.6661 15.4581 47.9561 15.4581H47.0121V17.2371H47.8201C48.2271 17.2371 48.3161 17.0071 48.3561 16.6391H48.5621C48.5368 17.1621 48.5368 17.6861 48.5621 18.2091L48.3561 18.2491C48.3161 17.8421 48.2961 17.5761 47.8261 17.5761H47.0121V19.1591C47.0121 19.6001 47.4051 19.6001 47.8371 19.6001C48.6531 19.6001 49.0121 19.5451 49.2171 18.7751L49.4061 18.8211C49.3171 19.1821 49.2361 19.5431 49.1761 19.9021C48.7411 19.9021 47.9591 19.8751 47.3481 19.8751C46.7381 19.8751 45.9281 19.9021 45.5411 19.9021L45.5431 19.6961ZM51.1961 17.4541H51.5281C52.2081 17.4541 52.5731 17.1961 52.5731 16.3941C52.5822 16.2616 52.5627 16.1287 52.516 16.0043C52.4693 15.88 52.3965 15.7671 52.3025 15.6732C52.2085 15.5794 52.0955 15.5068 51.971 15.4604C51.8466 15.414 51.7136 15.3948 51.5811 15.4041C51.4521 15.4051 51.3231 15.4141 51.1951 15.4301V17.4541H51.1961ZM50.3261 15.8781C50.3261 15.3831 50.0541 15.3621 49.8431 15.3621H49.7201V15.1581C49.9381 15.1581 50.3591 15.1851 50.7741 15.1851C51.1881 15.1851 51.5071 15.1581 51.8671 15.1581C52.7221 15.1581 53.4841 15.3881 53.4841 16.3541C53.4752 16.6282 53.3788 16.8922 53.2089 17.1074C53.039 17.3226 52.8046 17.4778 52.5401 17.5501L53.7021 19.2881C53.7641 19.4102 53.8582 19.5131 53.9744 19.5857C54.0905 19.6583 54.2242 19.6978 54.3611 19.7001V19.9061C54.1361 19.9061 53.9181 19.8801 53.6951 19.8801C53.4711 19.8801 53.2651 19.9061 53.0561 19.9061C52.5341 19.2061 52.0621 18.4701 51.6421 17.7041H51.1921V19.1591C51.1921 19.6831 51.4351 19.7011 51.7471 19.7011H51.8701V19.9071C51.4821 19.9071 51.0901 19.8811 50.7011 19.8811C50.3741 19.8811 50.0561 19.9071 49.7161 19.9071V19.7011H49.8391C50.0921 19.7011 50.3221 19.5871 50.3221 19.3351L50.3261 15.8781ZM58.9731 18.5591L58.9861 18.5461V15.9981C58.9982 15.9155 58.9917 15.8313 58.9671 15.7516C58.9424 15.6719 58.9003 15.5987 58.8438 15.5374C58.7872 15.476 58.7177 15.4281 58.6402 15.3971C58.5628 15.3661 58.4794 15.3527 58.3961 15.3581H58.2461V15.1581C58.5651 15.1581 58.8771 15.1851 59.1971 15.1851C59.4761 15.1851 59.7531 15.1581 60.0341 15.1581V15.3641H59.9311C59.6461 15.3641 59.3261 15.4191 59.3261 16.2271V19.3221C59.3221 19.5511 59.3361 19.7791 59.3661 20.0061H59.1081L55.6101 16.1061V18.9061C55.6101 19.4961 55.7251 19.7001 56.2481 19.7001H56.3641V19.9061C56.0721 19.9061 55.7791 19.8801 55.4881 19.8801C55.1981 19.8801 54.8691 19.9061 54.5601 19.9061V19.7001H54.6541C55.1241 19.7001 55.2651 19.3811 55.2651 18.8391V15.9781C55.2653 15.8973 55.2493 15.8172 55.2182 15.7426C55.1871 15.668 55.1414 15.6004 55.0839 15.5436C55.0264 15.4868 54.9582 15.4421 54.8832 15.4119C54.8082 15.3818 54.7279 15.3669 54.6471 15.3681H54.5571V15.1581C54.8151 15.1581 55.0811 15.1851 55.3391 15.1851C55.5451 15.1851 55.7391 15.1581 55.9431 15.1581L58.9731 18.5591ZM62.1171 15.9171H62.1041L61.4721 17.8391H62.7431L62.1171 15.9171ZM61.1261 18.9271C61.0581 19.0971 61.0081 19.2751 60.9761 19.4561C60.9761 19.6621 61.2611 19.6931 61.4851 19.6931H61.5601V19.8991C61.2881 19.8851 61.0101 19.8731 60.7351 19.8731C60.4911 19.8731 60.2471 19.8851 60.0031 19.8991V19.6931H60.0441C60.1768 19.6924 60.3059 19.6491 60.4121 19.5695C60.5183 19.4899 60.5962 19.3783 60.6341 19.2511L61.7221 16.1341C61.8271 15.8601 61.9121 15.5781 61.9741 15.2911C62.1891 15.2141 62.3961 15.1161 62.5931 14.9991C62.61 14.9908 62.6283 14.9857 62.6471 14.9841C62.6564 14.9824 62.6661 14.9834 62.6748 14.9872C62.6835 14.9909 62.6909 14.9971 62.6961 15.0051C62.7161 15.0601 62.7361 15.1211 62.7581 15.1751L64.0081 18.7281C64.0891 18.9661 64.1701 19.2181 64.2581 19.4221C64.2932 19.5102 64.3563 19.5843 64.4376 19.633C64.5188 19.6818 64.6139 19.7026 64.7081 19.6921H64.7481V19.8981C64.4381 19.8841 64.1361 19.8721 63.8111 19.8721C63.4861 19.8721 63.1371 19.8841 62.7911 19.8981V19.6921H62.8661C63.0221 19.6921 63.2881 19.6651 63.2881 19.4961C63.2619 19.3283 63.2159 19.1641 63.1511 19.0071L62.8871 18.2191H61.3401L61.1261 18.9261V18.9271ZM65.0461 15.4951C64.5361 15.4951 64.5161 15.6181 64.4131 16.1141H64.2071C64.2341 15.9241 64.2671 15.7341 64.2891 15.5361C64.3162 15.3453 64.3296 15.1528 64.3291 14.9601H64.4941C64.5471 15.1661 64.7171 15.1571 64.9001 15.1571H68.4071C68.5891 15.1571 68.7581 15.1491 68.7731 14.9501L68.9361 14.9771C68.9101 15.1611 68.8831 15.3431 68.8631 15.5281C68.8421 15.7131 68.8481 15.8951 68.8481 16.0781L68.6421 16.1531C68.6291 15.9031 68.5951 15.5001 68.1401 15.5001H67.0251V19.1101C67.0251 19.6341 67.2631 19.6941 67.5891 19.6941H67.7181V19.9001C67.4531 19.9001 66.9781 19.8731 66.6111 19.8731C66.2041 19.8731 65.7271 19.9001 65.4631 19.9001V19.6941H65.5921C65.9661 19.6941 66.1561 19.6611 66.1561 19.1241V15.4961L65.0461 15.4951ZM69.1891 19.6931H69.2831C69.5291 19.6931 69.7861 19.6601 69.7861 19.3061V15.7461C69.7861 15.3921 69.5291 15.3591 69.2831 15.3591H69.1891V15.1581C69.4551 15.1581 69.8611 15.1851 70.1931 15.1851C70.5251 15.1851 70.9411 15.1581 71.2611 15.1581V15.3641H71.1661C70.9201 15.3641 70.6621 15.3981 70.6621 15.7521V19.3121C70.6621 19.6651 70.9221 19.6981 71.1661 19.6981H71.2611V19.9041C70.9341 19.9041 70.5261 19.8781 70.1871 19.8781C69.8471 19.8781 69.4541 19.9041 69.1871 19.9041L69.1891 19.6931ZM74.0731 19.7001C75.3921 19.7001 75.6211 18.5381 75.6211 17.5481C75.6211 16.5581 75.0851 15.3531 73.9571 15.3531C72.7671 15.3531 72.4151 16.4131 72.4151 17.3231C72.4151 18.5391 72.9721 19.7011 74.0721 19.7011H74.0731V19.7001ZM73.9691 15.0551C74.2967 15.025 74.6269 15.063 74.9391 15.1667C75.2512 15.2705 75.5385 15.4377 75.7829 15.6578C76.0273 15.878 76.2235 16.1463 76.3592 16.446C76.4948 16.7457 76.567 17.0702 76.5711 17.3991C76.5863 17.7418 76.5305 18.084 76.4073 18.4041C76.2842 18.7243 76.0962 19.0156 75.8552 19.2598C75.6142 19.5039 75.3255 19.6957 75.0069 19.8231C74.6884 19.9505 74.347 20.0108 74.0041 20.0001C73.6741 20.0196 73.3435 19.9706 73.0333 19.8564C72.723 19.7421 72.4397 19.565 72.2011 19.3361C71.9626 19.1071 71.7739 18.8314 71.6469 18.5262C71.5199 18.2209 71.4573 17.8927 71.4631 17.5621C71.4587 17.2317 71.5205 16.9038 71.6448 16.5977C71.7692 16.2916 71.9536 16.0135 72.1872 15.7799C72.4207 15.5462 72.6988 15.3617 73.0048 15.2372C73.3109 15.1127 73.6387 15.0508 73.9691 15.0551ZM81.1491 18.5611L81.1631 18.5481V16.0001C81.1753 15.9174 81.1687 15.833 81.144 15.7531C81.1192 15.6732 81.0769 15.5999 81.0201 15.5385C80.9634 15.4772 80.8936 15.4293 80.8159 15.3984C80.7382 15.3675 80.6545 15.3544 80.5711 15.3601H80.4241V15.1581C80.7411 15.1581 81.0551 15.1851 81.3731 15.1851C81.6531 15.1851 81.9311 15.1581 82.2091 15.1581V15.3641H82.1061C81.8211 15.3641 81.5021 15.4191 81.5021 16.2271V19.3221C81.4971 19.5511 81.5121 19.7801 81.5421 20.0061H81.2851L77.7851 16.1061V18.9061C77.7851 19.4961 77.9011 19.7001 78.4241 19.7001H78.5391V19.9061C78.2481 19.9061 77.9561 19.8801 77.6641 19.8801C77.3721 19.8801 77.0441 19.9061 76.7351 19.9061V19.7001H76.8311C77.3011 19.7001 77.4421 19.3811 77.4421 18.8391V15.9781C77.4421 15.8972 77.4261 15.8172 77.3948 15.7426C77.3636 15.668 77.3179 15.6003 77.2603 15.5435C77.2027 15.4868 77.1344 15.442 77.0593 15.4119C76.9843 15.3818 76.904 15.3669 76.8231 15.3681H76.7341V15.1581C76.9941 15.1581 77.2581 15.1851 77.5161 15.1851C77.7221 15.1851 77.9161 15.1581 78.1211 15.1581L81.1501 18.5611H81.1491ZM84.2951 15.9191H84.2811L83.6491 17.8411H84.9191L84.2951 15.9191ZM83.3011 18.9291C83.2341 19.1002 83.1839 19.2773 83.1511 19.4581C83.1511 19.6641 83.4381 19.6951 83.6611 19.6951H83.7371V19.9011C83.4641 19.8871 83.1861 19.8751 82.9121 19.8751C82.6661 19.8751 82.4221 19.8871 82.1791 19.9011V19.6951H82.2171C82.35 19.6946 82.4792 19.6514 82.5857 19.5718C82.6921 19.4922 82.7701 19.3805 82.8081 19.2531L83.8971 16.1371C84.0021 15.8621 84.0871 15.5801 84.1471 15.2931C84.3621 15.2161 84.5701 15.1181 84.7671 15.0011C84.7837 14.993 84.8017 14.9882 84.8201 14.9871C84.8401 14.9871 84.8531 14.9871 84.8671 15.0071C84.8871 15.0621 84.9081 15.1231 84.9291 15.1771L86.1791 18.7301C86.2591 18.9681 86.3411 19.2201 86.4291 19.4241C86.4638 19.5125 86.5267 19.5869 86.6081 19.6357C86.6895 19.6845 86.7848 19.7051 86.8791 19.6941H86.9191V19.9001C86.6101 19.8861 86.3081 19.8741 85.9811 19.8741C85.6541 19.8741 85.3091 19.8861 84.9621 19.9001V19.6941H85.0371C85.1921 19.6941 85.4591 19.6671 85.4591 19.4981C85.4327 19.3303 85.3867 19.1662 85.3221 19.0091L85.0581 18.2211H83.5111L83.3011 18.9291ZM88.6361 19.2381C88.6361 19.5101 88.8251 19.5921 89.0421 19.6181C89.3421 19.6421 89.6421 19.6381 89.9411 19.6051C90.0684 19.5898 90.1915 19.5495 90.3032 19.4865C90.4149 19.4235 90.5131 19.3391 90.5921 19.2381C90.6891 19.0881 90.7591 18.9231 90.7991 18.7491H90.9961C90.9221 19.1361 90.8261 19.5171 90.7441 19.9041C90.1481 19.9041 89.5481 19.8781 88.9521 19.8781C88.3551 19.8781 87.7561 19.9041 87.1581 19.9041V19.6981H87.2521C87.4971 19.6981 87.7681 19.6651 87.7681 19.2431V15.7521C87.7681 15.3981 87.5011 15.3641 87.2521 15.3641H87.1581V15.1581C87.5171 15.1581 87.8711 15.1851 88.2311 15.1851C88.5911 15.1851 88.9181 15.1581 89.2621 15.1581V15.3641H89.0911C88.8341 15.3641 88.6311 15.3711 88.6311 15.7311L88.6361 19.2381Z" fill="#CACACA"/>
</g>
<defs>
<clipPath id="clip0_3244_918">
<rect width="91" height="24" fill="white"/>
</clipPath>
</defs>
</svg>
