<svg width="53" height="38" viewBox="0 0 53 38" fill="none" xmlns="http://www.w3.org/2000/svg">
<g clip-path="url(#clip0_3244_925)">
<path d="M23.6971 19.972H25.3451V17.34C25.3451 17.04 25.3781 16.687 25.3781 16.687H25.3341C25.2498 16.8525 25.1375 17.0021 25.0021 17.129L24.5821 17.505L23.2991 16.112L25.5111 14.012H27.6681V19.973H29.2681V21.919H23.6941L23.6971 19.972ZM30.7121 6.57505C30.7683 6.60164 30.8292 6.61684 30.8914 6.61976C30.9535 6.62268 31.0156 6.61326 31.0741 6.59205C31.208 6.53464 31.3139 6.42689 31.3691 6.29205C31.4057 6.23026 31.4288 6.16143 31.4369 6.09008C31.445 6.01872 31.4379 5.94647 31.4161 5.87805C31.3573 5.75701 31.2571 5.66108 31.1336 5.60768C31.0101 5.55428 30.8715 5.54696 30.7431 5.58705C30.6778 5.61807 30.6199 5.66252 30.573 5.7175C30.5261 5.77247 30.4914 5.83672 30.4711 5.90605C30.4099 6.03749 30.4034 6.18783 30.4531 6.32405C30.5031 6.43905 30.5961 6.52905 30.7131 6.57505H30.7121ZM21.6141 5.89605C21.6472 5.87082 21.6717 5.83586 21.6841 5.79605C21.6949 5.75578 21.6914 5.71298 21.6741 5.67505C21.6666 5.65271 21.6544 5.63222 21.6384 5.61498C21.6224 5.59773 21.6028 5.58411 21.5811 5.57505C21.5318 5.55828 21.4783 5.55828 21.4291 5.57505C21.3441 5.60405 21.2601 5.63705 21.1791 5.67505C21.0901 5.71461 21.0017 5.75562 20.9141 5.79805L21.0821 6.15005C21.1821 6.10405 21.2271 6.08105 21.3241 6.03705C21.4241 5.99805 21.5221 5.95105 21.6141 5.89605Z" fill="#CACACA"/>
<path d="M26.26 2.41409C23.32 2.41348 20.4407 3.25135 17.96 4.82941C15.4792 6.40747 13.5 8.66026 12.2545 11.3235C11.009 13.9867 10.5488 16.9499 10.9279 19.8655C11.307 22.781 12.5098 25.528 14.395 27.7841C14.4573 27.8487 14.5331 27.8986 14.617 27.9301C18.2791 29.59 22.2494 30.4612 26.2701 30.4871C30.2315 30.5585 34.1584 29.7383 37.76 28.0871C37.8734 28.0309 37.9751 27.9539 38.0601 27.8601C39.9655 25.6098 41.1875 22.8615 41.582 19.9393C41.9766 17.0172 41.5271 14.0432 40.2867 11.3682C39.0462 8.69318 37.0666 6.42873 34.5813 4.84202C32.096 3.2553 29.2087 2.41252 26.26 2.41309V2.41409ZM38.8321 12.5781L39.2631 13.4521L40.2271 13.5921L39.5271 14.2721L39.6921 15.2321L38.8301 14.7791L37.968 15.2321L38.133 14.2721L37.433 13.5921L38.397 13.4521L38.8321 12.5781ZM36.062 10.2311L36.493 9.35709L36.924 10.2311L37.8881 10.3711L37.188 11.0511L37.3531 12.0111L36.4911 11.5581L35.6291 12.0111L35.794 11.0511L35.0941 10.3711L36.062 10.2311ZM32.1861 6.14709L32.312 5.92009C32.76 6.16209 33.19 6.43609 33.598 6.74009L33.445 6.95009C33.2631 6.81809 33.1711 6.75009 32.9851 6.63109L32.285 7.69609C32.1906 7.63322 32.0949 7.57221 31.998 7.51309L32.667 6.42609C32.4781 6.31109 32.3861 6.25509 32.1861 6.14709ZM30.121 5.78409C30.1615 5.65404 30.2333 5.53592 30.33 5.44009C30.3977 5.3787 30.4769 5.33145 30.563 5.30109C30.6506 5.26862 30.7438 5.254 30.837 5.25809C30.975 5.26709 31.111 5.30109 31.237 5.35809C31.4625 5.44248 31.6462 5.61144 31.7491 5.82909C31.7898 5.93112 31.8063 6.04121 31.7973 6.1507C31.7883 6.2602 31.7539 6.3661 31.6971 6.46009C31.6517 6.55759 31.5868 6.64469 31.5063 6.71593C31.4257 6.78717 31.3314 6.84101 31.229 6.87409C31.021 6.92073 30.8035 6.90005 30.6079 6.81504C30.4123 6.73002 30.2489 6.58506 30.1411 6.40109C30.0963 6.30483 30.0718 6.20044 30.0688 6.09434C30.0659 5.98824 30.0847 5.88266 30.1241 5.78409H30.121ZM28.805 4.62409C28.951 4.65509 29.025 4.67109 29.17 4.70709L28.8701 5.93609C29.1961 6.01509 29.358 6.06009 29.678 6.16409L29.5991 6.41009C29.2357 6.28696 28.865 6.18676 28.489 6.11009L28.805 4.62409ZM27.951 4.46209C28.0991 4.48309 28.173 4.49409 28.321 4.51909L28.064 6.03309C27.9564 6.01439 27.8484 5.99772 27.74 5.98309L27.951 4.46209ZM26.715 4.35209C26.8631 4.35209 27.011 4.36909 27.156 4.40009C27.2561 4.42909 27.344 4.48909 27.406 4.57209C27.47 4.66109 27.496 4.77209 27.48 4.88009C27.4752 4.9573 27.4502 5.03191 27.4076 5.09647C27.365 5.16104 27.3062 5.21331 27.237 5.24809C27.1793 5.27826 27.1167 5.2979 27.052 5.30609C26.932 5.31409 26.813 5.31409 26.694 5.30609L26.47 5.29909L26.4571 5.87809H26.13C26.13 5.26409 26.123 4.95709 26.118 4.34209C26.359 4.34109 26.478 4.34209 26.717 4.35209H26.715ZM24.3531 4.66609C24.3998 4.58566 24.4694 4.52092 24.553 4.48009C24.664 4.42509 24.7851 4.39109 24.9081 4.38009C25.0894 4.34832 25.2761 4.37751 25.439 4.46309C25.4964 4.49753 25.5446 4.54536 25.5794 4.60248C25.6142 4.65961 25.6347 4.72432 25.639 4.79109C25.5195 4.80056 25.4001 4.81256 25.281 4.82709C25.2744 4.79376 25.2609 4.76217 25.2414 4.7343C25.222 4.70642 25.197 4.68286 25.168 4.66509C25.0945 4.63159 25.0126 4.62113 24.9331 4.63509C24.846 4.6395 24.7621 4.66864 24.691 4.71909C24.6752 4.73014 24.6627 4.74528 24.6548 4.76288C24.6468 4.78049 24.6438 4.79991 24.646 4.81909C24.6489 4.83767 24.6564 4.85525 24.6677 4.87025C24.6791 4.88526 24.694 4.89723 24.7111 4.90509C24.8201 4.94409 24.934 4.96609 25.049 4.97109C25.182 4.98109 25.313 5.00809 25.439 5.05009C25.5179 5.07882 25.5872 5.12904 25.639 5.19509C25.69 5.26509 25.7181 5.34909 25.7181 5.43609C25.7216 5.52474 25.6978 5.61234 25.65 5.68709C25.5994 5.7679 25.526 5.83193 25.439 5.87109C25.329 5.91909 25.212 5.94809 25.092 5.95709C24.9255 5.98515 24.7544 5.95885 24.604 5.88209C24.4745 5.80116 24.3813 5.67321 24.344 5.52509C24.474 5.49209 24.544 5.47609 24.67 5.44709C24.6935 5.53135 24.7464 5.60443 24.819 5.65309C24.8955 5.69416 24.9833 5.70926 25.069 5.69609C25.155 5.69345 25.238 5.6637 25.306 5.61109C25.3293 5.59294 25.3479 5.56949 25.3602 5.5427C25.3726 5.51591 25.3784 5.48656 25.3771 5.45709C25.3755 5.42271 25.3604 5.39035 25.335 5.36709C25.2974 5.33786 25.2531 5.3186 25.206 5.31109C25.1123 5.29397 25.0179 5.28062 24.923 5.27109C24.7809 5.26421 24.6414 5.23027 24.512 5.17109C24.458 5.14367 24.4111 5.10397 24.3752 5.05517C24.3392 5.00638 24.3152 4.94984 24.305 4.89009C24.2958 4.81191 24.3135 4.73292 24.355 4.66609H24.3531ZM22.684 4.84909L22.918 5.64909C22.939 5.73209 22.9681 5.81409 23.003 5.89209C23.0338 5.94772 23.0846 5.98956 23.1451 6.00909C23.2201 6.0316 23.3 6.0316 23.375 6.00909C23.4503 5.99687 23.5201 5.96198 23.5751 5.90909C23.6118 5.86831 23.6315 5.81497 23.63 5.76009C23.6226 5.67302 23.6078 5.58672 23.5861 5.50209L23.3951 4.67409C23.541 4.64009 23.614 4.62509 23.761 4.59509L23.9191 5.38609C23.949 5.51409 23.966 5.64409 23.969 5.77509C23.9675 5.84864 23.9472 5.92058 23.91 5.98409C23.8688 6.05006 23.8135 6.10607 23.748 6.14809C23.6574 6.20418 23.558 6.24474 23.4541 6.26809C23.3389 6.30374 23.2185 6.3193 23.098 6.31409C23.0195 6.30734 22.9434 6.28345 22.875 6.24409C22.8179 6.2111 22.7693 6.16522 22.733 6.11009C22.6684 5.99635 22.6171 5.87556 22.58 5.75009L22.326 4.97109C22.469 4.91309 22.541 4.89109 22.6861 4.84909H22.684ZM21.184 5.39509C21.316 5.33109 21.458 5.28709 21.6031 5.26509C21.6922 5.25606 21.7819 5.27681 21.858 5.32409C21.9395 5.37694 21.9994 5.45725 22.0267 5.55046C22.0541 5.64367 22.0471 5.74359 22.007 5.83209C21.9455 5.94448 21.8509 6.03525 21.736 6.09209C21.8124 6.09702 21.8876 6.11354 21.959 6.14109C22.055 6.18509 22.147 6.24009 22.232 6.30309C22.3511 6.38609 22.41 6.42909 22.526 6.51509C22.401 6.55896 22.277 6.60563 22.154 6.65509C22.038 6.58019 21.9203 6.50784 21.8011 6.43809C21.7192 6.38623 21.6332 6.34109 21.5441 6.30309C21.5048 6.28862 21.4627 6.28348 21.421 6.28809C21.3622 6.29953 21.3053 6.3194 21.2521 6.34709L21.187 6.37809L21.4641 6.95609C21.3431 7.01409 21.284 7.04409 21.164 7.10609L20.4641 5.74109C20.6997 5.6152 20.9406 5.49943 21.1861 5.39409L21.184 5.39509ZM20.123 5.92109L20.2491 6.14809C20.0561 6.25509 19.961 6.31109 19.771 6.42809L20.441 7.51409C20.3439 7.57319 20.2478 7.63421 20.153 7.69709L19.453 6.63209C19.2966 6.7342 19.1432 6.84091 18.993 6.95209L18.8391 6.74209C19.2471 6.43709 19.6761 6.16209 20.1241 5.92009L20.123 5.92109ZM16.173 10.2841L16.6031 9.41009L17.034 10.2841L17.998 10.4241L17.298 11.1041L17.463 12.0641L16.601 11.6111L15.738 12.0641L15.903 11.1041L15.203 10.4241L16.173 10.2841ZM13.833 13.5041L14.264 12.6301L14.695 13.5041L15.659 13.6441L14.959 14.3241L15.124 15.2841L14.262 14.8311L13.4 15.2841L13.565 14.3241L12.865 13.6441L13.833 13.5041ZM11.858 17.7041L12.822 17.5641L13.253 16.6901L13.684 17.5641L14.648 17.7041L13.948 18.3841L14.113 19.3441L13.251 18.8911L12.389 19.3441L12.554 18.3841L11.858 17.7041ZM14.264 22.9201L13.402 23.3731L13.567 22.4131L12.867 21.7331L13.831 21.5931L14.262 20.7191L14.693 21.5931L15.657 21.7331L14.957 22.4131L15.122 23.3731L14.264 22.9201ZM17.4641 26.3461L16.602 25.8931L15.739 26.3461L15.904 25.3861L15.2041 24.7061L16.168 24.5661L16.5991 23.6921L17.0301 24.5661L17.994 24.7061L17.2941 25.3861L17.4641 26.3461ZM26.258 26.9461C24.462 26.9689 22.6997 26.4571 21.1952 25.4759C19.6907 24.4946 18.512 23.0881 17.8088 21.4352C17.1057 19.7824 16.9099 17.9578 17.2464 16.1933C17.5828 14.4289 18.4363 12.8044 19.6983 11.5262C20.9604 10.2481 22.574 9.3741 24.334 9.01533C26.094 8.65655 27.921 8.82921 29.5826 9.51136C31.2443 10.1935 32.6656 11.3543 33.6658 12.8463C34.6661 14.3382 35.2001 16.0939 35.2001 17.8901C35.2096 20.2736 34.2743 22.5637 32.5989 24.259C30.9235 25.9543 28.6445 26.9166 26.261 26.9351L26.2591 26.9461H26.258ZM37.3581 26.3011L36.496 25.8481L35.634 26.3011L35.799 25.3411L35.099 24.6611L36.063 24.5211L36.494 23.6471L36.925 24.5211L37.889 24.6611L37.189 25.3411L37.3581 26.3011ZM39.697 23.3281L38.835 22.8751L37.973 23.3281L38.1381 22.3681L37.438 21.6881L38.4021 21.5481L38.833 20.6741L39.264 21.5481L40.2281 21.6881L39.528 22.3681L39.697 23.3281ZM39.8451 18.8461L38.9831 19.2991L39.148 18.3391L38.4481 17.6591L39.412 17.5191L39.843 16.6451L40.274 17.5191L41.238 17.6591L40.538 18.3391L40.703 19.2991L39.8451 18.8461Z" fill="#CACACA"/>
<path d="M26.9499 5.03635C26.9936 5.02522 27.0333 5.00159 27.0639 4.96835C27.0929 4.93638 27.1102 4.89546 27.1129 4.85235C27.1155 4.8267 27.1127 4.80078 27.1046 4.7763C27.0965 4.75182 27.0833 4.72934 27.0659 4.71035C27.0277 4.67048 26.9781 4.64355 26.9239 4.63335C26.8372 4.61927 26.7496 4.61158 26.6619 4.61035H26.4859C26.4859 4.78435 26.4799 4.87135 26.4759 5.04635L26.6689 5.05235C26.7629 5.05835 26.8569 5.05235 26.9489 5.03635H26.9499ZM4.28886 23.6314C5.45605 24.7306 6.69187 25.7547 7.98886 26.6974L4.93286 30.9024L4.94686 30.9134C6.03186 32.5134 9.89986 34.9254 10.0889 35.0434C6.41288 33.1329 3.01956 30.7219 0.00585938 27.8794C1.77186 28.1634 4.48586 25.1904 4.28886 23.6314ZM47.7689 30.9024L44.7139 26.6974C46.0104 25.7541 47.2462 24.7301 48.4139 23.6314C48.2139 25.1904 50.9309 28.1634 52.7029 27.8824C49.6917 30.7216 46.3018 33.1301 42.6299 35.0394C42.8629 34.8914 46.7009 32.4934 47.7689 30.9024ZM35.9269 32.3034C35.8835 32.2837 35.8346 32.2802 35.7889 32.2934C35.7629 32.3004 35.6889 32.3293 35.5639 32.3773L35.3249 32.4694L35.4639 32.8334L35.6939 32.7434C35.7889 32.7124 35.8799 32.6694 35.9649 32.6164C35.9963 32.591 36.0181 32.5557 36.0269 32.5163C36.0355 32.4763 36.031 32.4346 36.0139 32.3974C35.9975 32.3563 35.9665 32.3228 35.9269 32.3034ZM34.2649 32.9584C34.1553 32.9066 34.0302 32.8984 33.9148 32.9356C33.7995 32.9727 33.7026 33.0524 33.6439 33.1584C33.5885 33.291 33.586 33.4399 33.6369 33.5744C33.6519 33.6441 33.6806 33.7103 33.7213 33.769C33.762 33.8276 33.8138 33.8777 33.8739 33.9164C33.9847 33.9732 34.1135 33.984 34.2324 33.9466C34.3512 33.9092 34.4505 33.8265 34.5089 33.7164C34.5646 33.5815 34.5646 33.4302 34.5089 33.2953C34.4738 33.1558 34.3865 33.0352 34.2649 32.9584ZM27.2499 34.7544C27.4289 34.7494 27.5189 34.7454 27.6979 34.7364C27.5979 34.5134 27.5469 34.4014 27.4489 34.1773C27.3709 34.4083 27.3319 34.5244 27.2499 34.7544Z" fill="#CACACA"/>
<path d="M43.2528 25.9072C38.3389 29.4772 32.421 31.4 26.3473 31.4C20.2735 31.4 14.3556 29.4772 9.44176 25.9072L5.92676 30.7452C11.8624 35.0578 19.0109 37.3805 26.3478 37.3805C33.6846 37.3805 40.8331 35.0578 46.7688 30.7452L43.2528 25.9072ZM16.0758 32.2022C16.0122 32.2402 15.9388 32.2587 15.8648 32.2552C15.9385 32.3117 15.993 32.3896 16.0208 32.4782C16.0441 32.5595 16.0373 32.6465 16.0018 32.7232C15.9717 32.7889 15.9257 32.8461 15.8679 32.8894C15.81 32.9327 15.7423 32.9609 15.6708 32.9712C15.5892 32.9804 15.5066 32.9701 15.4298 32.9412C15.2997 32.8904 15.1719 32.834 15.0468 32.7722C14.8468 32.6772 14.7308 32.6182 14.5208 32.5122L15.2208 31.1442C15.4528 31.2622 15.5688 31.3192 15.8028 31.4312C15.8898 31.4712 15.9748 31.5162 16.0558 31.5672C16.107 31.5996 16.1505 31.6429 16.183 31.6941C16.2155 31.7453 16.2363 31.8031 16.2438 31.8632C16.2523 31.9298 16.2413 31.9974 16.212 32.0578C16.1826 32.1182 16.1364 32.1688 16.0788 32.2032L16.0758 32.2022ZM17.6438 32.8612L17.5538 33.1042C17.293 33.008 17.0336 32.9079 16.7758 32.8042L16.6178 33.1912C16.9678 33.3342 17.1448 33.4022 17.4988 33.5322L17.4098 33.7752C17.0023 33.6278 16.5991 33.4688 16.2008 33.2982L16.8008 31.8842C17.2408 32.0712 17.4628 32.1582 17.9098 32.3232L17.8198 32.5672C17.5452 32.4675 17.2728 32.3618 17.0028 32.2502L16.8738 32.5652C17.1808 32.6862 17.3348 32.7462 17.6458 32.8612H17.6438ZM19.2938 33.2412L18.9758 33.1592C18.9885 33.0941 18.9759 33.0265 18.9408 32.9702C18.8937 32.9148 18.8304 32.8756 18.7598 32.8582C18.6868 32.8299 18.6071 32.824 18.5308 32.8412C18.5128 32.8453 18.4962 32.8539 18.4824 32.866C18.4686 32.8782 18.458 32.8937 18.4518 32.911C18.4455 32.9283 18.4437 32.947 18.4465 32.9652C18.4493 32.9834 18.4566 33.0006 18.4678 33.0152C18.5408 33.0952 18.6278 33.1592 18.7238 33.2072C18.8338 33.2672 18.9368 33.3372 19.0318 33.4192C19.0918 33.4732 19.1358 33.5422 19.1608 33.6192C19.184 33.7023 19.1819 33.7904 19.1548 33.8722C19.1295 33.9572 19.078 34.0321 19.0078 34.0862C18.931 34.1467 18.8373 34.1817 18.7398 34.1862C18.6143 34.1903 18.4892 34.1709 18.3708 34.1292C18.2002 34.0861 18.0495 33.9859 17.9438 33.8452C17.9039 33.7804 17.8776 33.7081 17.8666 33.6328C17.8556 33.5575 17.8601 33.4808 17.8798 33.4072L18.1998 33.4862C18.1827 33.572 18.198 33.6611 18.2428 33.7362C18.2948 33.8062 18.3698 33.8582 18.4548 33.8802C18.5359 33.9126 18.6255 33.9176 18.7098 33.8942C18.7382 33.8862 18.7643 33.8713 18.7857 33.8509C18.8072 33.8306 18.8233 33.8053 18.8328 33.7772C18.8439 33.7444 18.8417 33.7085 18.8268 33.6772C18.8025 33.6359 18.768 33.6015 18.7268 33.5772C18.6499 33.5263 18.5715 33.4776 18.4918 33.4312C18.3702 33.3677 18.2645 33.2774 18.1828 33.1672C18.1287 33.0836 18.109 32.9825 18.1276 32.8847C18.1462 32.7869 18.2018 32.7001 18.2828 32.6422C18.353 32.5919 18.4364 32.5634 18.5228 32.5602C18.6302 32.5563 18.7374 32.5726 18.8388 32.6082C18.9978 32.6462 19.1388 32.7362 19.2388 32.8652C19.2751 32.9198 19.299 32.9816 19.3087 33.0465C19.3184 33.1113 19.3136 33.1775 19.2948 33.2402L19.2938 33.2412ZM20.8938 33.4742C20.739 33.4396 20.5846 33.4029 20.4308 33.3642L20.1238 34.6022L19.7928 34.5182L20.1158 33.2842C19.9614 33.2447 19.8077 33.2027 19.6548 33.1582L19.7258 32.9082C20.2138 33.0462 20.4598 33.1082 20.9528 33.2212L20.8938 33.4742ZM22.0228 35.0002L21.6878 34.9402L21.9658 33.4302L22.2818 33.4862L22.0228 35.0002ZM23.7868 35.2402L23.4478 35.2032C23.2238 34.7742 23.1178 34.5582 22.9148 34.1252L22.7748 35.1172L22.4618 35.0712L22.6948 33.5532L23.0028 33.5982C23.2028 34.0402 23.3078 34.2612 23.5298 34.6982L23.6458 33.6792L23.9458 33.7112L23.7868 35.2402ZM26.1868 35.2782C26.0534 35.363 25.8964 35.403 25.7388 35.3922C25.6378 35.393 25.5377 35.373 25.4448 35.3334C25.3519 35.2938 25.2682 35.2356 25.1988 35.1622C25.1297 35.0832 25.078 34.9905 25.0468 34.8903C25.0157 34.7901 25.0058 34.6845 25.0178 34.5802C25.0174 34.3617 25.1033 34.1518 25.2568 33.9962C25.33 33.9289 25.4162 33.8771 25.51 33.8441C25.6039 33.8111 25.7035 33.7976 25.8028 33.8042C25.9758 33.8015 26.1436 33.864 26.2728 33.9792C26.3516 34.0574 26.4076 34.1556 26.4348 34.2632L26.1118 34.3342C26.0967 34.2589 26.0557 34.1913 25.9958 34.1432C25.9337 34.0951 25.8573 34.0691 25.7788 34.0692C25.7247 34.0658 25.6705 34.0742 25.6199 34.0937C25.5693 34.1132 25.5236 34.1434 25.4858 34.1822C25.397 34.2931 25.3515 34.4324 25.3578 34.5742C25.3386 34.7214 25.3741 34.8706 25.4578 34.9932C25.4934 35.0353 25.5378 35.069 25.588 35.092C25.6381 35.115 25.6926 35.1267 25.7478 35.1262C25.8313 35.1304 25.9136 35.1045 25.9798 35.0532C26.0524 34.9893 26.102 34.9032 26.1208 34.8082L26.4428 34.9082C26.4008 35.0581 26.3068 35.1882 26.1778 35.2752L26.1868 35.2782ZM27.9868 35.3302C27.9198 35.1942 27.8868 35.1302 27.8218 34.9902C27.5568 35.0042 27.4218 35.0092 27.1598 35.0172L27.0308 35.3692C26.8868 35.3692 26.8148 35.3692 26.6708 35.3742C26.9278 34.7572 27.0478 34.4482 27.2708 33.8252C27.4058 33.8252 27.4708 33.8182 27.6088 33.8112C27.8908 34.4112 28.0398 34.7112 28.3528 35.3052C28.2295 35.3147 28.1062 35.3227 27.9828 35.3292L27.9868 35.3302ZM29.1928 35.2302L28.8548 35.2632L28.7378 33.9922C28.5488 34.0102 28.4538 34.0172 28.2648 34.0312L28.2458 33.7722C28.7458 33.7352 28.9978 33.7112 29.4978 33.6492L29.5298 33.9072C29.3418 33.9302 29.2478 33.9412 29.0588 33.9612L29.1928 35.2302ZM30.0218 35.1302L29.8128 33.6082C30.2788 33.5442 30.5128 33.5082 30.9738 33.4212L31.0218 33.6762C30.6818 33.7392 30.5108 33.7682 30.1688 33.8192L30.2198 34.1562C30.5428 34.1082 30.7028 34.0812 31.0198 34.0222L31.0668 34.2762C30.7418 34.3362 30.5798 34.3632 30.2538 34.4122L30.3158 34.8252C30.6848 34.7702 30.8678 34.7382 31.2348 34.6702L31.2828 34.9242C30.7778 35.0202 30.5248 35.0612 30.0178 35.1312L30.0218 35.1302ZM32.8558 34.5302C32.7387 34.6084 32.6087 34.6649 32.4718 34.6972C32.3165 34.7365 32.154 34.7365 31.9988 34.6972C31.8621 34.6627 31.7404 34.5848 31.6518 34.4752C31.5624 34.3643 31.5016 34.2331 31.4748 34.0932C31.4432 33.9476 31.4501 33.7963 31.4948 33.6542C31.5389 33.518 31.6228 33.3982 31.7358 33.3102C31.8408 33.2315 31.9621 33.1772 32.0908 33.1512C32.2474 33.1048 32.4144 33.1069 32.5698 33.1572C32.6978 33.2072 32.8018 33.3022 32.8628 33.4242L32.5628 33.5612C32.525 33.4961 32.4661 33.446 32.3958 33.4192C32.3176 33.3915 32.2328 33.3883 32.1528 33.4102C32.0918 33.4215 32.0338 33.4451 31.9822 33.4795C31.9307 33.5138 31.8866 33.5583 31.8528 33.6102C31.7864 33.7327 31.771 33.8764 31.8098 34.0102C31.8298 34.1582 31.9068 34.2922 32.0248 34.3832C32.0786 34.4182 32.1393 34.4412 32.2027 34.4509C32.2662 34.4605 32.331 34.4566 32.3928 34.4392C32.464 34.4227 32.5318 34.3936 32.5928 34.3532C32.6505 34.3161 32.7026 34.271 32.7478 34.2192L32.7008 34.0302C32.5528 34.0672 32.4778 34.0852 32.3288 34.1202L32.2698 33.8682C32.5468 33.8032 32.6858 33.7682 32.9618 33.6962L33.1178 34.2872C33.0464 34.387 32.9556 34.4714 32.8508 34.5352L32.8558 34.5302ZM34.8208 33.8072C34.7032 33.9906 34.5249 34.1269 34.3172 34.1923C34.1094 34.2578 33.8852 34.2482 33.6838 34.1652C33.5907 34.1139 33.5097 34.0433 33.4462 33.9581C33.3828 33.8729 33.3383 33.7751 33.3158 33.6712C33.2752 33.542 33.2633 33.4055 33.2808 33.2712C33.3097 33.1018 33.3971 32.9479 33.5278 32.8362C33.621 32.7643 33.7268 32.7104 33.8398 32.6772C33.9384 32.6384 34.0441 32.621 34.15 32.6261C34.2558 32.6311 34.3594 32.6585 34.4539 32.7065C34.5484 32.7545 34.6316 32.822 34.6981 32.9045C34.7646 32.987 34.8129 33.0827 34.8398 33.1852C34.8811 33.2853 34.9004 33.3931 34.8963 33.5013C34.8921 33.6096 34.8647 33.7156 34.8158 33.8122L34.8208 33.8072ZM36.5038 33.3702C36.3844 33.2997 36.2657 33.2281 36.1478 33.1552C36.0678 33.1022 35.9838 33.0552 35.8978 33.0122C35.8606 32.9959 35.8203 32.9884 35.7798 32.9902C35.7233 32.9975 35.6681 33.0127 35.6158 33.0352L35.5518 33.0592L35.7798 33.6592C35.6508 33.7082 35.5868 33.7322 35.4568 33.7792L34.9308 32.3362C35.1868 32.2422 35.3148 32.1942 35.5688 32.0932C35.6838 32.0432 35.8068 32.0082 35.9318 31.9932C36.0132 31.9886 36.094 32.0108 36.1618 32.0562C36.2336 32.1036 36.2893 32.1716 36.3218 32.2512C36.344 32.2987 36.3564 32.3502 36.3583 32.4026C36.3602 32.455 36.3515 32.5073 36.3328 32.5562C36.2813 32.668 36.1931 32.7587 36.0828 32.8132C36.1567 32.8203 36.2294 32.8375 36.2988 32.8642C36.3948 32.9082 36.4868 32.9602 36.5738 33.0192C36.6968 33.0972 36.7588 33.1362 36.8828 33.2122C36.7278 33.2752 36.6518 33.3122 36.4988 33.3752L36.5038 33.3702ZM37.4958 32.9352L37.2238 32.3492C36.8508 32.1292 36.6688 32.0172 36.3098 31.7852L36.6598 31.6302C36.8988 31.7892 37.0198 31.8672 37.2648 32.0202C37.2942 31.7836 37.3202 31.5466 37.3428 31.3092L37.6808 31.1402C37.6298 31.5662 37.5998 31.7802 37.5308 32.2082L37.8098 32.7892C37.6788 32.8522 37.6168 32.8822 37.4908 32.9402L37.4958 32.9352Z" fill="#CACACA"/>
<path d="M15.637 32.335C15.5556 32.2758 15.4677 32.2262 15.375 32.187L15.129 32.067L14.947 32.435L15.234 32.574C15.304 32.61 15.377 32.641 15.451 32.666C15.4962 32.6808 15.5449 32.6808 15.59 32.666C15.6126 32.657 15.6332 32.6435 15.6504 32.6263C15.6676 32.6091 15.6811 32.5886 15.69 32.566C15.7087 32.5282 15.7144 32.4853 15.706 32.444C15.695 32.4013 15.6709 32.3631 15.637 32.335ZM15.823 31.729C15.74 31.6844 15.6556 31.6424 15.57 31.603L15.399 31.52L15.242 31.838L15.442 31.938C15.56 31.995 15.634 32.028 15.664 32.038C15.71 32.056 15.762 32.058 15.81 32.045C15.8312 32.0379 15.8507 32.0265 15.8671 32.0113C15.8835 31.9961 15.8964 31.9776 15.905 31.957C15.9247 31.919 15.9286 31.8748 15.916 31.834C15.8987 31.7889 15.8657 31.7516 15.823 31.729ZM15.175 29.157L15.154 29.136C14.5886 28.9003 14.0307 28.6472 13.481 28.377C14.039 28.657 14.604 28.917 15.175 29.157ZM37.224 29.276C37.467 29.176 37.709 29.076 37.951 28.966C37.713 29.069 37.474 29.169 37.234 29.266L37.224 29.276ZM13.699 27.486C11.8992 25.136 10.7946 22.3282 10.5108 19.3818C10.227 16.4354 10.7754 13.4685 12.0936 10.8181C13.4119 8.16783 15.4471 5.94043 17.968 4.38906C20.489 2.83769 23.3945 2.02456 26.3545 2.04208C29.3145 2.05959 32.2103 2.90705 34.7127 4.48815C37.2151 6.06925 39.2238 8.32058 40.5106 10.9863C41.7974 13.652 42.3106 16.6253 41.992 19.5681C41.6733 22.511 40.5356 25.3054 38.708 27.634C40.0156 26.9975 41.2726 26.262 42.468 25.434C43.7339 22.7175 44.2966 19.7265 44.1045 16.7358C43.9124 13.7451 42.9716 10.8506 41.3686 8.31852C39.7656 5.7864 37.5518 3.69785 34.9307 2.24486C32.3096 0.791864 29.3653 0.0210416 26.3685 0.003245C23.3716 -0.0145515 20.4184 0.721249 17.7803 2.14301C15.1421 3.56477 12.9036 5.62688 11.2707 8.13978C9.63769 10.6527 8.66257 13.5358 8.43495 16.524C8.20733 19.5122 8.73451 22.5097 9.96803 25.241C11.1528 26.0831 12.4001 26.8336 13.699 27.486Z" fill="#CACACA"/>
<path d="M29.2117 21.9187H23.6377V19.9727H25.2857V17.3407C25.2857 17.0407 25.3187 16.6877 25.3187 16.6877H25.2747C25.1906 16.8532 25.0782 17.0027 24.9427 17.1297L24.5227 17.5057L23.2397 16.1127L25.4517 14.0127H27.6087V19.9737H29.2087L29.2117 21.9187Z" fill="#CACACA"/>
</g>
<defs>
<clipPath id="clip0_3244_925">
<rect width="53" height="38" fill="white"/>
</clipPath>
</defs>
</svg>
