<svg width="59" height="20" viewBox="0 0 59 20" fill="none" xmlns="http://www.w3.org/2000/svg">
<g clip-path="url(#clip0_3244_951)">
<path d="M22.402 0.337L14.676 18.765H9.636L5.836 4.057C5.80128 3.71306 5.679 3.38375 5.48083 3.1005C5.28266 2.81725 5.01521 2.58951 4.704 2.439C3.20727 1.72261 1.62709 1.19555 0 0.87L0.113 0.337H8.225C8.75523 0.336504 9.26819 0.525464 9.6714 0.869809C10.0746 1.21415 10.3415 1.69122 10.424 2.215L12.434 12.879L17.39 0.337H22.4H22.402ZM29.215 0.337L25.274 18.765H20.504L24.447 0.337H29.216H29.215ZM42.145 12.747C42.167 7.884 35.423 7.614 35.467 5.441C35.483 4.78 36.112 4.077 37.489 3.897C39.1017 3.74406 40.7258 4.02908 42.19 4.722L43.025 0.812C41.5985 0.280682 40.0892 0.00578391 38.567 0C33.854 0 30.537 2.503 30.512 6.092C30.482 8.744 32.879 10.221 34.682 11.109C36.537 12.012 37.165 12.591 37.156 13.398C37.143 14.633 35.672 15.182 34.306 15.202C32.6009 15.2397 30.9147 14.8389 29.409 14.038L28.545 18.078C30.235 18.734 32.033 19.066 33.845 19.055C38.855 19.055 42.133 16.581 42.147 12.747H42.146H42.145ZM54.591 18.765H59L55.149 0.337H51.081C50.6466 0.332934 50.221 0.459204 49.8592 0.699501C49.4973 0.939797 49.2158 1.28308 49.051 1.685L41.897 18.765H46.903L47.896 16.011H54.016L54.591 18.765ZM49.27 12.235L51.78 5.315L53.222 12.235H49.27Z" fill="#CACACA"/>
</g>
<defs>
<clipPath id="clip0_3244_951">
<rect width="59" height="20" fill="white"/>
</clipPath>
</defs>
</svg>
